<svg width="80" height="81" viewBox="0 0 80 81" fill="none" xmlns="http://www.w3.org/2000/svg">
<g clip-path="url(#clip0_1_3277)">
<circle cx="40" cy="40.5" r="40" fill="#1BB1F8"/>
<circle cx="40" cy="40.5" r="40" fill="#835DFE"/>
<path d="M76.7751 56.2597C70.6579 70.5146 56.4949 80.499 39.9999 80.499C23.5049 80.499 9.34185 70.5146 3.22461 56.2597C13.5726 52.6658 26.2735 50.5487 39.9999 50.5487C53.7262 50.5487 66.4271 52.6658 76.7751 56.2597Z" fill="#6A49D4"/>
<ellipse cx="35.44" cy="69.9806" rx="9.66457" ry="2.47061" fill="#3E2787"/>
<path fill-rule="evenodd" clip-rule="evenodd" d="M26.9758 23.7431C26.9758 16.1258 33.0757 9.95081 40.6004 9.95081C48.125 9.95081 54.2249 16.1258 54.2249 23.7431C54.2249 26.5038 53.0843 28.7625 51.9029 31.1019C51.7134 31.4773 51.5228 31.8548 51.3357 32.2367L36.5732 62.6722C36.5173 62.7873 36.3919 62.8515 36.2658 62.8294L34.5007 62.52L31.8669 46.7895L27.792 29.6052C27.3068 27.5549 26.9758 25.7299 26.9758 23.7431ZM42.2629 30.8282C46.1541 30.8282 49.3086 27.6561 49.3086 23.7431C49.3086 19.8301 46.1541 16.6579 42.2629 16.6579C38.3718 16.6579 35.2173 19.8301 35.2173 23.7431C35.2173 27.6561 38.3718 30.8282 42.2629 30.8282Z" fill="#C48326"/>
<path fill-rule="evenodd" clip-rule="evenodd" d="M25.7754 23.5881C25.7754 16.2167 31.7115 10.2411 39.0341 10.2411C46.3566 10.2411 52.2928 16.2167 52.2928 23.5881C52.2928 26.2597 51.1828 28.4454 50.0331 30.7094C49.8487 31.0726 49.6632 31.4379 49.4811 31.8075L34.5006 62.52L26.5697 29.2609C26.0975 27.2769 25.7754 25.5107 25.7754 23.5881ZM39.0341 30.4445C42.8208 30.4445 45.8905 27.3748 45.8905 23.5881C45.8905 19.8014 42.8208 16.7317 39.0341 16.7317C35.2474 16.7317 32.1777 19.8014 32.1777 23.5881C32.1777 27.3748 35.2474 30.4445 39.0341 30.4445Z" fill="#FFB140"/>
</g>
<defs>
<clipPath id="clip0_1_3277">
<rect width="80" height="80" fill="white" transform="translate(0 0.5)"/>
</clipPath>
</defs>
</svg>
