<svg width="400" height="326" viewBox="0 0 400 326" fill="none" xmlns="http://www.w3.org/2000/svg">
<g clip-path="url(#clip0_1_5875)">
<circle cx="186.898" cy="142.057" r="141.5" fill="#835DFE"/>
<path opacity="0.05" fill-rule="evenodd" clip-rule="evenodd" d="M57.3332 85.0895H71.974V60.1855H71.4745C72.7326 58.415 74.0304 56.6747 75.3666 54.9659V56.7895H100.246V31.8855H98.0947C99.9063 30.4234 101.755 29.0051 103.638 27.6321V28.4895H128.517V13.1228C129.641 12.6135 130.771 12.1184 131.91 11.6377V28.4895H156.789V3.76608C157.915 3.52208 159.046 3.29148 160.182 3.07446V28.4895H185.061V0.567595C185.672 0.559812 186.285 0.555908 186.898 0.555908C187.417 0.555908 187.936 0.558703 188.454 0.564277V28.4895H213.333V3.02078C214.468 3.2354 215.599 3.46358 216.725 3.70516V28.4895H241.604V11.5188C242.743 11.9965 243.874 12.4886 244.997 12.995V28.4895H269.876V27.4266C271.857 28.8634 273.8 30.3503 275.702 31.8855H273.269V56.7895H298.148V54.6056C299.584 56.4299 300.976 58.2904 302.322 60.1855H301.54V85.0895H316.464C316.959 86.2139 317.44 87.346 317.906 88.4855H301.54V113.389H325.493C325.725 114.517 325.943 115.649 326.148 116.785H301.54V141.689H328.398C328.398 141.812 328.398 141.934 328.398 142.056C328.398 143.068 328.388 144.078 328.367 145.085H301.54V169.989H325.642C325.414 171.126 325.173 172.258 324.918 173.385H301.54V198.289H316.784C316.29 199.429 315.781 200.561 315.258 201.685H301.54V225.016C300.319 226.701 299.061 228.358 297.769 229.985H273.269V254.147C271.422 255.572 269.54 256.952 267.623 258.285H244.997V271.117C243.874 271.623 242.743 272.115 241.604 272.593V258.285H216.725V280.407C215.599 280.648 214.468 280.876 213.333 281.091V258.285H188.454V283.548C187.936 283.553 187.417 283.556 186.898 283.556C186.285 283.556 185.672 283.552 185.061 283.544V258.285H160.182V281.037C159.046 280.82 157.915 280.59 156.789 280.346V258.285H131.91V272.474C130.771 271.993 129.641 271.498 128.517 270.989V258.285H106.173C104.159 256.883 102.182 255.43 100.246 253.928V229.985H76.0281C74.6355 228.232 73.2837 226.444 71.974 224.625V201.685H58.5389C58.0159 200.561 57.5071 199.429 57.0129 198.289H71.974V173.385H48.8787C48.624 172.258 48.3827 171.126 48.1551 169.989H71.974V145.085H45.4302C45.4091 144.078 45.3984 143.068 45.3984 142.056C45.3984 141.934 45.3986 141.812 45.3989 141.689H71.974V116.785H47.6485C47.8534 115.649 48.0719 114.517 48.3039 113.389H71.974V88.4855H55.8908C56.3572 87.346 56.8381 86.2139 57.3332 85.0895ZM103.638 56.7895V31.8855H128.517V56.7895H103.638ZM131.91 56.7895V31.8855H156.789V56.7895H131.91ZM160.182 56.7895V31.8855H185.061V56.7895H160.182ZM188.454 56.7895V31.8855H213.333V56.7895H188.454ZM216.725 56.7895V31.8855H241.604V56.7895H216.725ZM244.997 56.7895V31.8855H269.876V56.7895H244.997ZM273.269 60.1855H298.148V85.0895H273.269V60.1855ZM273.269 88.4855H298.148V113.389H273.269V88.4855ZM273.269 116.785H298.148V141.689H273.269V116.785ZM273.269 145.085H298.148V169.989H273.269V145.085ZM273.269 173.385H298.148V198.289H273.269V173.385ZM273.269 201.685H298.148V226.589H273.269V201.685ZM269.876 229.985V254.889H244.997V229.985H269.876ZM241.604 229.985V254.889H216.725V229.985H241.604ZM213.333 229.985V254.889H188.454V229.985H213.333ZM185.061 229.985V254.889H160.182V229.985H185.061ZM156.789 229.985V254.889H131.91V229.985H156.789ZM128.517 229.985V254.889H103.638V229.985H128.517ZM100.246 226.589H75.3666V201.685H100.246V226.589ZM100.246 198.289H75.3666V173.385H100.246V198.289ZM100.246 169.989H75.3666V145.085H100.246V169.989ZM100.246 141.689H75.3666V116.785H100.246V141.689ZM100.246 113.389H75.3666V88.4855H100.246V113.389ZM100.246 85.0895H75.3666V60.1855H100.246V85.0895ZM103.638 85.0895V60.1855H128.517V85.0895H103.638ZM131.91 85.0895V60.1855H156.789V85.0895H131.91ZM160.182 85.0895V60.1855H185.061V85.0895H160.182ZM188.454 85.0895V60.1855H213.333V85.0895H188.454ZM216.725 85.0895V60.1855H241.604V85.0895H216.725ZM244.997 85.0895V60.1855H269.876V85.0895H244.997ZM244.997 88.4855H269.876V113.389H244.997V88.4855ZM244.997 116.785H269.876V141.689H244.997V116.785ZM244.997 145.085H269.876V169.989H244.997V145.085ZM244.997 173.385H269.876V198.289H244.997V173.385ZM244.997 201.685H269.876V226.589H244.997V201.685ZM241.604 201.685V226.589H216.725V201.685H241.604ZM213.333 201.685V226.589H188.454V201.685H213.333ZM185.061 201.685V226.589H160.182V201.685H185.061ZM156.789 201.685V226.589H131.91V201.685H156.789ZM128.517 201.685V226.589H103.638V201.685H128.517ZM128.517 198.289H103.638V173.385H128.517V198.289ZM128.517 169.989H103.638V145.085H128.517V169.989ZM128.517 141.689H103.638V116.785H128.517V141.689ZM128.517 113.389H103.638V88.4855H128.517V113.389ZM131.91 113.389V88.4855H156.789V113.389H131.91ZM160.182 113.389V88.4855H185.061V113.389H160.182ZM188.454 113.389V88.4855H213.333V113.389H188.454ZM216.725 113.389V88.4855H241.604V113.389H216.725ZM216.725 116.785H241.604V141.689H216.725V116.785ZM216.725 145.085H241.604V169.989H216.725V145.085ZM216.725 173.385H241.604V198.289H216.725V173.385ZM213.333 173.385V198.289H188.454V173.385H213.333ZM185.061 173.385V198.289H160.182V173.385H185.061ZM156.789 173.385V198.289H131.91V173.385H156.789ZM156.789 169.989H131.91V145.085H156.789V169.989ZM156.789 141.689H131.91V116.785H156.789V141.689ZM160.182 141.689V116.785H185.061V141.689H160.182ZM188.454 141.689V116.785H213.333V141.689H188.454ZM188.454 145.085H213.333V169.989H188.454V145.085ZM185.061 145.085V169.989H160.182V145.085H185.061Z" fill="black"/>
<path d="M86.9391 172.38L180.897 171.267V146.529H61.6915C45.1417 147.374 54.3226 160.904 59.5172 166.823C63.5916 171.466 73.588 172.104 86.9391 172.38Z" fill="black"/>
<path d="M129.986 41.8157C110.788 41.8157 102.265 49.4321 97.1456 75.5718L77.1324 162.743C76.9874 163.375 77.4723 163.975 78.1203 163.967L180.402 162.617L163.162 75.7193C159.237 53.2282 147.147 41.8157 129.986 41.8157Z" fill="#EF850B"/>
<path d="M161.917 75.572C159.034 54.7558 144.425 41.8693 126.539 41.8693L283.758 41.2007C288.841 41.2007 295.544 45.5768 300.255 65.9636C301.815 72.7174 308.349 102.277 316.782 140.426C329.631 198.552 346.887 276.617 357.671 324.325C357.813 324.95 357.33 325.513 356.689 325.513H343.384C344.955 323.458 345.887 320.899 345.887 318.125C345.887 311.351 340.329 305.859 333.472 305.859C326.615 305.859 321.056 311.351 321.056 318.125C321.056 320.899 321.988 323.458 323.56 325.513H312.216C312.634 324.285 312.861 322.969 312.861 321.602C312.861 314.828 307.302 309.336 300.445 309.336C293.588 309.336 288.029 314.828 288.029 321.602C288.029 322.969 288.256 324.285 288.674 325.513H280.498C280.726 324.584 280.847 323.614 280.847 322.616C280.847 315.842 275.288 310.35 268.431 310.35C261.574 310.35 256.016 315.842 256.016 322.616C256.016 323.614 256.136 324.584 256.364 325.513H245.503C245.503 318.739 239.944 313.247 233.088 313.247C226.231 313.247 220.672 318.739 220.672 325.513H212.332C211.855 325.513 211.444 325.176 211.351 324.708L161.917 75.572Z" fill="#FFB140"/>
<path fill-rule="evenodd" clip-rule="evenodd" d="M303.515 142.022C303.534 142.574 303.102 143.037 302.55 143.056L297.447 143.23C296.895 143.249 296.433 142.817 296.414 142.265C296.395 141.713 296.827 141.25 297.379 141.231L302.481 141.057C303.033 141.038 303.496 141.47 303.515 142.022ZM293.31 142.371C293.329 142.923 292.897 143.386 292.345 143.404L282.14 143.753C281.589 143.772 281.126 143.34 281.107 142.788C281.088 142.236 281.52 141.773 282.072 141.754L292.277 141.406C292.829 141.387 293.291 141.819 293.31 142.371ZM278.003 142.894C278.022 143.446 277.59 143.909 277.038 143.928L266.834 144.277C266.282 144.295 265.819 143.863 265.8 143.311C265.781 142.759 266.213 142.297 266.765 142.278L276.97 141.929C277.522 141.91 277.985 142.342 278.003 142.894ZM262.697 143.417C262.715 143.969 262.283 144.432 261.731 144.451L251.527 144.8C250.975 144.819 250.512 144.387 250.493 143.835C250.474 143.283 250.906 142.82 251.458 142.801L261.663 142.452C262.215 142.433 262.678 142.865 262.697 143.417ZM247.39 143.941C247.408 144.493 246.976 144.955 246.424 144.974L236.22 145.323C235.668 145.342 235.205 144.91 235.186 144.358C235.167 143.806 235.599 143.343 236.151 143.324L246.356 142.975C246.908 142.957 247.371 143.389 247.39 143.941ZM232.083 144.464C232.102 145.016 231.669 145.479 231.117 145.498L220.913 145.846C220.361 145.865 219.898 145.433 219.879 144.881C219.86 144.329 220.293 143.866 220.845 143.848L231.049 143.499C231.601 143.48 232.064 143.912 232.083 144.464ZM216.776 144.987C216.795 145.539 216.363 146.002 215.811 146.021L205.606 146.37C205.054 146.389 204.591 145.956 204.572 145.404C204.554 144.853 204.986 144.39 205.538 144.371L215.742 144.022C216.294 144.003 216.757 144.435 216.776 144.987ZM201.469 145.511C201.488 146.063 201.056 146.525 200.504 146.544L195.401 146.719C194.849 146.737 194.387 146.305 194.368 145.753C194.349 145.201 194.781 144.739 195.333 144.72L200.435 144.545C200.987 144.526 201.45 144.959 201.469 145.511Z" fill="white"/>
<path fill-rule="evenodd" clip-rule="evenodd" d="M312.351 184.861C312.37 185.413 311.938 185.875 311.386 185.894L306.283 186.069C305.731 186.088 305.269 185.655 305.25 185.103C305.231 184.551 305.663 184.089 306.215 184.07L311.317 183.895C311.869 183.877 312.332 184.309 312.351 184.861ZM302.146 185.209C302.165 185.761 301.733 186.224 301.181 186.243L290.976 186.592C290.424 186.611 289.962 186.179 289.943 185.627C289.924 185.075 290.356 184.612 290.908 184.593L301.113 184.244C301.665 184.225 302.127 184.658 302.146 185.209ZM286.839 185.733C286.858 186.285 286.426 186.747 285.874 186.766L275.67 187.115C275.118 187.134 274.655 186.702 274.636 186.15C274.617 185.598 275.049 185.135 275.601 185.116L285.806 184.768C286.358 184.749 286.821 185.181 286.839 185.733ZM271.532 186.256C271.551 186.808 271.119 187.271 270.567 187.29L260.363 187.638C259.811 187.657 259.348 187.225 259.329 186.673C259.31 186.121 259.742 185.659 260.294 185.64L270.499 185.291C271.051 185.272 271.514 185.704 271.532 186.256ZM256.226 186.779C256.244 187.331 255.812 187.794 255.26 187.813L245.056 188.162C244.504 188.181 244.041 187.748 244.022 187.197C244.003 186.645 244.435 186.182 244.987 186.163L255.192 185.814C255.744 185.795 256.207 186.227 256.226 186.779ZM240.919 187.303C240.938 187.855 240.505 188.317 239.953 188.336L229.749 188.685C229.197 188.704 228.734 188.272 228.715 187.72C228.696 187.168 229.129 186.705 229.68 186.686L239.885 186.337C240.437 186.319 240.9 186.751 240.919 187.303ZM225.612 187.826C225.631 188.378 225.198 188.841 224.647 188.859L214.442 189.208C213.89 189.227 213.427 188.795 213.408 188.243C213.389 187.691 213.822 187.228 214.374 187.21L224.578 186.861C225.13 186.842 225.593 187.274 225.612 187.826ZM210.305 188.349C210.324 188.901 209.892 189.364 209.34 189.383L204.237 189.557C203.685 189.576 203.223 189.144 203.204 188.592C203.185 188.04 203.617 187.577 204.169 187.558L209.271 187.384C209.823 187.365 210.286 187.797 210.305 188.349Z" fill="white"/>
<path d="M169.148 54.4043L288.062 54.4044" stroke="black" stroke-width="2" stroke-linecap="round" stroke-linejoin="round"/>
<path fill-rule="evenodd" clip-rule="evenodd" d="M325.818 234.049C325.838 234.601 325.406 235.064 324.854 235.084L215.891 238.988C215.339 239.008 214.875 238.576 214.855 238.024C214.836 237.473 215.267 237.009 215.819 236.989L324.783 233.085C325.335 233.065 325.798 233.497 325.818 234.049Z" fill="white"/>
<path fill-rule="evenodd" clip-rule="evenodd" d="M175.652 70.4565C175.652 69.9043 176.1 69.4565 176.652 69.4565H288.461C289.013 69.4565 289.461 69.9043 289.461 70.4565C289.461 71.0088 289.013 71.4565 288.461 71.4565H176.652C176.1 71.4565 175.652 71.0088 175.652 70.4565Z" fill="white"/>
<path fill-rule="evenodd" clip-rule="evenodd" d="M329.367 251.259C329.389 251.811 328.959 252.276 328.407 252.298L215.362 256.734C214.81 256.756 214.345 256.326 214.323 255.774C214.302 255.222 214.731 254.758 215.283 254.736L328.329 250.299C328.881 250.278 329.346 250.708 329.367 251.259Z" fill="white"/>
<path fill-rule="evenodd" clip-rule="evenodd" d="M179.896 86.5999C179.896 86.0476 180.344 85.5999 180.896 85.5999H292.875C293.427 85.5999 293.875 86.0476 293.875 86.5999C293.875 87.1521 293.427 87.5999 292.875 87.5999H180.896C180.344 87.5999 179.896 87.1521 179.896 86.5999Z" fill="white"/>
<path fill-rule="evenodd" clip-rule="evenodd" d="M333.626 268.274C333.66 268.825 333.241 269.3 332.689 269.333L216.982 276.432C216.431 276.466 215.956 276.046 215.923 275.495C215.889 274.944 216.308 274.47 216.86 274.436L332.567 267.337C333.118 267.303 333.593 267.723 333.626 268.274Z" fill="white"/>
<path fill-rule="evenodd" clip-rule="evenodd" d="M185.916 105.06C185.916 104.508 186.364 104.06 186.916 104.06H296.286C296.838 104.06 297.286 104.508 297.286 105.06C297.286 105.612 296.838 106.06 296.286 106.06H186.916C186.364 106.06 185.916 105.612 185.916 105.06Z" fill="white"/>
<path fill-rule="evenodd" clip-rule="evenodd" d="M334.868 285.131C334.903 285.682 334.485 286.157 333.934 286.192L219.113 293.468C218.562 293.503 218.087 293.085 218.052 292.533C218.017 291.982 218.436 291.507 218.987 291.472L333.807 284.196C334.358 284.161 334.834 284.58 334.868 285.131Z" fill="white"/>
<path fill-rule="evenodd" clip-rule="evenodd" d="M296.875 126.057C296.886 126.609 296.447 127.066 295.895 127.077L193.167 129.135C192.614 129.146 192.158 128.708 192.147 128.155C192.136 127.603 192.574 127.147 193.126 127.136L295.855 125.077C296.407 125.066 296.864 125.505 296.875 126.057Z" fill="white"/>
<path fill-rule="evenodd" clip-rule="evenodd" d="M168.148 54.4043C168.148 53.852 168.596 53.4043 169.148 53.4043L288.062 53.4044C288.615 53.4044 289.062 53.8521 289.062 54.4044C289.062 54.9567 288.615 55.4044 288.062 55.4044L169.148 55.4043C168.596 55.4043 168.148 54.9566 168.148 54.4043Z" fill="white"/>
<path d="M307.726 195.308L303.855 195.418L311.81 223.202L315.822 223.022L307.726 195.308Z" fill="black"/>
<path d="M318.707 222.892L324.557 222.63L316.768 195.052L310.806 195.221L318.707 222.892Z" fill="black"/>
<path d="M308.917 223.332L300.752 195.506L296.718 195.62L304.665 223.522L308.917 223.332Z" fill="black"/>
<path d="M301.724 223.654L293.648 195.707L277.517 196.164L285.452 224.384L301.724 223.654Z" fill="black"/>
<path d="M282.535 224.515L274.404 196.252L270.569 196.36L278.459 224.698L282.535 224.515Z" fill="black"/>
<path d="M275.594 224.826L267.497 196.447L263.343 196.565L271.366 225.016L275.594 224.826Z" fill="black"/>
<path d="M268.425 225.148L260.272 196.652L245.731 197.064L253.76 225.806L268.425 225.148Z" fill="black"/>
<path d="M250.843 225.937L242.616 197.152L238.781 197.26L246.663 226.124L250.843 225.937Z" fill="black"/>
<path d="M243.795 226.253L235.707 197.348L231.583 197.464L239.57 226.442L243.795 226.253Z" fill="black"/>
<path d="M236.626 226.574L228.509 197.551L212.597 198.002L220.366 227.304L236.626 226.574Z" fill="black"/>
<path d="M217.605 227.428L209.39 198.093L204.996 198.217L211.931 227.682L217.605 227.428Z" fill="black"/>
<path d="M207.856 172.524L203.323 172.722L203.008 165.507L207.336 165.318C208.811 165.254 209.636 165.844 209.685 166.974C209.724 167.868 209.278 168.535 208.076 168.674L208.08 168.771C209.42 168.809 210.095 169.449 210.137 170.418C210.191 171.645 209.471 172.453 207.856 172.524ZM204.686 166.891L204.748 168.301L207.278 168.191C207.871 168.165 208.109 167.949 208.088 167.454C208.066 166.959 207.798 166.755 207.195 166.781L204.686 166.891ZM204.806 169.636L204.874 171.198L207.599 171.079C208.255 171.05 208.516 170.834 208.49 170.252C208.465 169.681 208.187 169.489 207.53 169.517L204.806 169.636Z" fill="black"/>
<path d="M213.7 172.376C211.859 172.457 210.573 171.413 210.499 169.711C210.423 167.989 211.614 166.847 213.455 166.767C215.297 166.686 216.582 167.72 216.658 169.442C216.732 171.144 215.542 172.296 213.7 172.376ZM213.638 170.944C214.725 170.897 215.095 170.46 215.053 169.513C215.012 168.565 214.605 168.14 213.518 168.188C212.419 168.236 212.062 168.694 212.103 169.641C212.144 170.589 212.54 170.992 213.638 170.944Z" fill="black"/>
<path d="M220.314 172.088C218.473 172.168 217.187 171.124 217.113 169.423C217.037 167.7 218.228 166.558 220.069 166.478C221.911 166.397 223.196 167.431 223.272 169.154C223.346 170.855 222.156 172.007 220.314 172.088ZM220.252 170.656C221.339 170.608 221.709 170.171 221.667 169.224C221.626 168.276 221.219 167.852 220.132 167.899C219.033 167.947 218.676 168.405 218.717 169.353C218.758 170.3 219.154 170.704 220.252 170.656Z" fill="black"/>
<path d="M225.664 171.746L224.049 171.817L223.734 164.603L225.349 164.532L225.516 168.354L226.743 168.301L228.034 166.238L229.951 166.154L228.094 168.846L230.154 171.55L228.248 171.633L226.817 169.743L225.579 169.797L225.664 171.746Z" fill="black"/>
<path d="M231.934 165.517L230.319 165.588L230.264 164.317L231.879 164.247L231.934 165.517ZM232.194 171.461L230.579 171.532L230.343 166.137L231.958 166.067L232.194 171.461Z" fill="black"/>
<path d="M234.654 171.354L233.039 171.424L232.804 166.03L234.3 165.964L234.373 167.623L234.47 167.618C234.57 166.708 235.179 165.818 236.589 165.757C238.064 165.692 238.806 166.609 238.858 167.804L239.004 171.164L237.389 171.234L237.266 168.413C237.229 167.552 236.857 167.201 235.867 167.244C234.844 167.289 234.495 167.714 234.535 168.63L234.654 171.354Z" fill="black"/>
<path d="M242.166 170.476C240.562 170.546 239.594 169.628 239.528 168.109C239.462 166.602 240.4 165.59 242.015 165.52C243.113 165.472 243.92 165.911 244.133 166.84L244.219 166.837L244.162 165.534L245.67 165.468L245.871 170.076C245.953 171.961 244.848 172.85 242.921 172.935C241.177 173.011 240.045 172.283 239.985 170.927L241.6 170.856C241.627 171.459 241.872 171.632 242.97 171.584C244.004 171.539 244.306 171.31 244.26 170.255L244.207 169.038L244.121 169.042C243.984 169.846 243.372 170.423 242.166 170.476ZM241.154 168.039C241.189 168.835 241.653 169.106 242.666 169.062C243.699 169.017 244.193 168.704 244.16 167.961L244.155 167.843C244.123 167.111 243.594 166.853 242.593 166.897C241.559 166.942 241.119 167.242 241.154 168.039Z" fill="black"/>
<path d="M250.038 170.682L248.423 170.753L248.108 163.538L249.723 163.468L250.038 170.682Z" fill="black"/>
<path d="M254.447 170.49L250.97 170.641L250.655 163.427L254.132 163.275C256.447 163.174 257.971 164.456 258.069 166.717C258.168 168.979 256.762 170.388 254.447 170.49ZM254.196 164.729L252.333 164.81L252.521 169.117L254.384 169.036C255.848 168.972 256.422 168.526 256.347 166.793C256.271 165.059 255.66 164.665 254.196 164.729Z" fill="black"/>
<path d="M262.406 166.614L260.327 166.705L260.246 164.832L262.324 164.741L262.406 166.614ZM262.559 170.135L260.481 170.226L260.399 168.342L262.477 168.251L262.559 170.135Z" fill="black"/>
<path d="M269.052 169.032L267.996 170.885L266.111 169.643L267.405 167.948L267.335 167.783L265.273 167.326L265.873 165.157L267.904 165.888L268.046 165.755L267.806 163.643L270.054 163.545L269.999 165.67L270.152 165.79L272.133 164.905L272.899 167.015L270.842 167.63L270.787 167.8L272.244 169.376L270.455 170.799L269.283 169.022L269.052 169.032Z" fill="#6C56D9"/>
<path d="M277.298 168.672L276.242 170.525L274.357 169.284L275.651 167.588L275.58 167.423L273.519 166.967L274.119 164.797L276.15 165.528L276.292 165.396L276.052 163.284L278.299 163.186L278.245 165.31L278.398 165.43L280.379 164.545L281.145 166.655L279.088 167.27L279.033 167.441L280.49 169.016L278.701 170.439L277.529 168.662L277.298 168.672Z" fill="#6C56D9"/>
<path d="M285.543 168.312L284.488 170.166L282.603 168.924L283.897 167.228L283.826 167.063L281.765 166.607L282.365 164.437L284.396 165.168L284.537 165.036L284.298 162.924L286.545 162.826L286.491 164.951L286.643 165.07L288.625 164.185L289.391 166.295L287.334 166.91L287.278 167.081L288.736 168.656L286.946 170.079L285.774 168.302L285.543 168.312Z" fill="#6C56D9"/>
<path d="M293.789 167.952L292.734 169.806L290.849 168.564L292.143 166.868L292.072 166.703L290.011 166.247L290.611 164.077L292.642 164.808L292.783 164.676L292.544 162.564L294.791 162.466L294.737 164.591L294.889 164.71L296.871 163.825L297.637 165.935L295.58 166.55L295.524 166.721L296.982 168.296L295.192 169.719L294.02 167.942L293.789 167.952Z" fill="#6C56D9"/>
<path d="M302.035 167.593L300.98 169.446L299.095 168.204L300.388 166.509L300.318 166.344L298.257 165.887L298.857 163.718L300.888 164.448L301.029 164.316L300.79 162.204L303.037 162.106L302.983 164.231L303.135 164.35L305.117 163.465L305.882 165.575L303.826 166.191L303.77 166.361L305.228 167.937L303.438 169.36L302.266 167.582L302.035 167.593Z" fill="#6C56D9"/>
</g>
<defs>
<clipPath id="clip0_1_5875">
<rect width="400" height="325" fill="white" transform="translate(0 0.5)"/>
</clipPath>
</defs>
</svg>
