<svg width="40" height="40" viewBox="0 0 40 40" fill="none" xmlns="http://www.w3.org/2000/svg">
<g clip-path="url(#clip0_1_1695)">
<circle cx="20" cy="20" r="20" fill="#835DFE"/>
<path opacity="0.05" fill-rule="evenodd" clip-rule="evenodd" d="M1.68689 11.9482H3.75626V8.42821H3.68566C3.86348 8.17796 4.04692 7.93198 4.23578 7.69045V7.94821H7.75226V4.42821H7.44823C7.70429 4.22155 7.96555 4.02108 8.23178 3.82702V3.94821H11.7483V1.77624C11.907 1.70425 12.0669 1.63427 12.2278 1.56634V3.94821H15.7443V0.453734C15.9034 0.419246 16.0633 0.386653 16.2238 0.355979V3.94821H19.7403V0.00165187C19.8267 0.00055173 19.9133 0 20 0C20.0734 0 20.1466 0.000394956 20.2198 0.00118286V3.94821H23.7363V0.348392C23.8968 0.378726 24.0567 0.410978 24.2158 0.445124V3.94821H27.7323V1.54952C27.8932 1.61704 28.053 1.68661 28.2118 1.75818V3.94821H31.7283V3.79798C32.0083 4.00106 32.2829 4.21123 32.5518 4.42821H32.2078V7.94821H35.7243V7.63954C35.9272 7.89739 36.124 8.16035 36.3143 8.42821H36.2038V11.9482H38.3131C38.3831 12.1071 38.4511 12.2671 38.517 12.4282H36.2038V15.9482H39.5893C39.6221 16.1075 39.653 16.2675 39.682 16.4282H36.2038V19.9482H39.9999C40 19.9655 40 19.9827 40 20C40 20.1431 39.9985 20.2858 39.9955 20.4282H36.2038V23.9482H39.6104C39.5782 24.1089 39.5441 24.2689 39.5081 24.4282H36.2038V27.9482H38.3584C38.2885 28.1093 38.2166 28.2693 38.1427 28.4282H36.2038V31.7258C36.0312 31.9639 35.8534 32.1981 35.6707 32.4282H32.2078V35.8433C31.9469 36.0446 31.6808 36.2397 31.4099 36.4282H28.2118V38.2418C28.053 38.3134 27.8932 38.383 27.7323 38.4505V36.4282H24.2158V39.5549C24.0567 39.589 23.8968 39.6213 23.7363 39.6516V36.4282H20.2198V39.9988C20.1466 39.9996 20.0734 40 20 40C19.9133 40 19.8267 39.9994 19.7403 39.9983V36.4282H16.2238V39.644C16.0633 39.6133 15.9034 39.5808 15.7443 39.5463V36.4282H12.2278V38.4337C12.0669 38.3657 11.907 38.2957 11.7483 38.2238V36.4282H8.59011C8.30535 36.23 8.02597 36.0247 7.75226 35.8124V32.4282H4.32928C4.13245 32.1803 3.94138 31.9277 3.75626 31.6705V28.4282H1.85731C1.78338 28.2693 1.71147 28.1093 1.64163 27.9482H3.75626V24.4282H0.491911C0.455907 24.2689 0.421804 24.1089 0.389627 23.9482H3.75626V20.4282H0.00449286C0.00150259 20.2858 0 20.1431 0 20C0 19.9827 2.19014e-05 19.9655 6.56781e-05 19.9482H3.75626V16.4282H0.318027C0.346994 16.2675 0.37788 16.1075 0.410661 15.9482H3.75626V12.4282H1.48302C1.54894 12.2671 1.61691 12.1071 1.68689 11.9482ZM8.23178 7.94821V4.42821H11.7483V7.94821H8.23178ZM12.2278 7.94821V4.42821H15.7443V7.94821H12.2278ZM16.2238 7.94821V4.42821H19.7403V7.94821H16.2238ZM20.2198 7.94821V4.42821H23.7363V7.94821H20.2198ZM24.2158 7.94821V4.42821H27.7323V7.94821H24.2158ZM28.2118 7.94821V4.42821H31.7283V7.94821H28.2118ZM32.2078 8.42821H35.7243V11.9482H32.2078V8.42821ZM32.2078 12.4282H35.7243V15.9482H32.2078V12.4282ZM32.2078 16.4282H35.7243V19.9482H32.2078V16.4282ZM32.2078 20.4282H35.7243V23.9482H32.2078V20.4282ZM32.2078 24.4282H35.7243V27.9482H32.2078V24.4282ZM32.2078 28.4282H35.7243V31.9482H32.2078V28.4282ZM31.7283 32.4282V35.9482H28.2118V32.4282H31.7283ZM27.7323 32.4282V35.9482H24.2158V32.4282H27.7323ZM23.7363 32.4282V35.9482H20.2198V32.4282H23.7363ZM19.7403 32.4282V35.9482H16.2238V32.4282H19.7403ZM15.7443 32.4282V35.9482H12.2278V32.4282H15.7443ZM11.7483 32.4282V35.9482H8.23178V32.4282H11.7483ZM7.75226 31.9482H4.23578V28.4282H7.75226V31.9482ZM7.75226 27.9482H4.23578V24.4282H7.75226V27.9482ZM7.75226 23.9482H4.23578V20.4282H7.75226V23.9482ZM7.75226 19.9482H4.23578V16.4282H7.75226V19.9482ZM7.75226 15.9482H4.23578V12.4282H7.75226V15.9482ZM7.75226 11.9482H4.23578V8.42821H7.75226V11.9482ZM8.23178 11.9482V8.42821H11.7483V11.9482H8.23178ZM12.2278 11.9482V8.42821H15.7443V11.9482H12.2278ZM16.2238 11.9482V8.42821H19.7403V11.9482H16.2238ZM20.2198 11.9482V8.42821H23.7363V11.9482H20.2198ZM24.2158 11.9482V8.42821H27.7323V11.9482H24.2158ZM28.2118 11.9482V8.42821H31.7283V11.9482H28.2118ZM28.2118 12.4282H31.7283V15.9482H28.2118V12.4282ZM28.2118 16.4282H31.7283V19.9482H28.2118V16.4282ZM28.2118 20.4282H31.7283V23.9482H28.2118V20.4282ZM28.2118 24.4282H31.7283V27.9482H28.2118V24.4282ZM28.2118 28.4282H31.7283V31.9482H28.2118V28.4282ZM27.7323 28.4282V31.9482H24.2158V28.4282H27.7323ZM23.7363 28.4282V31.9482H20.2198V28.4282H23.7363ZM19.7403 28.4282V31.9482H16.2238V28.4282H19.7403ZM15.7443 28.4282V31.9482H12.2278V28.4282H15.7443ZM11.7483 28.4282V31.9482H8.23178V28.4282H11.7483ZM11.7483 27.9482H8.23178V24.4282H11.7483V27.9482ZM11.7483 23.9482H8.23178V20.4282H11.7483V23.9482ZM11.7483 19.9482H8.23178V16.4282H11.7483V19.9482ZM11.7483 15.9482H8.23178V12.4282H11.7483V15.9482ZM12.2278 15.9482V12.4282H15.7443V15.9482H12.2278ZM16.2238 15.9482V12.4282H19.7403V15.9482H16.2238ZM20.2198 15.9482V12.4282H23.7363V15.9482H20.2198ZM24.2158 15.9482V12.4282H27.7323V15.9482H24.2158ZM24.2158 16.4282H27.7323V19.9482H24.2158V16.4282ZM24.2158 20.4282H27.7323V23.9482H24.2158V20.4282ZM24.2158 24.4282H27.7323V27.9482H24.2158V24.4282ZM23.7363 24.4282V27.9482H20.2198V24.4282H23.7363ZM19.7403 24.4282V27.9482H16.2238V24.4282H19.7403ZM15.7443 24.4282V27.9482H12.2278V24.4282H15.7443ZM15.7443 23.9482H12.2278V20.4282H15.7443V23.9482ZM15.7443 19.9482H12.2278V16.4282H15.7443V19.9482ZM16.2238 19.9482V16.4282H19.7403V19.9482H16.2238ZM20.2198 19.9482V16.4282H23.7363V19.9482H20.2198ZM20.2198 20.4282H23.7363V23.9482H20.2198V20.4282ZM19.7403 20.4282V23.9482H16.2238V20.4282H19.7403Z" fill="black"/>
<path fill-rule="evenodd" clip-rule="evenodd" d="M14.1869 12.2195C13.7657 10.9477 13.8886 7.8643 17.7497 5.70458C20.2708 4.48419 25.387 6.35176 25.9603 10.9251H29.2888C28.617 11.4347 27.3533 12.8075 27.6739 14.2227C27.0554 14.3295 25.8468 14.664 25.9603 15.1472C26.7328 15.9587 28.347 18.9021 28.6231 24.183L28.8142 27.1169C29.0464 28.5201 29.2408 31.535 28.1608 32.3683C27.4458 33.4428 25.2995 35.3268 22.4344 34.2667C19.5694 33.2065 16.7984 32.1238 15.7711 31.7149C14.3533 31.3369 11.0605 29.888 9.23103 27.1169C8.30436 25.7424 6.92937 21.9161 8.84269 17.6065C9.21664 16.61 10.809 14.1376 14.1869 12.2195ZM18.7976 9.93897C19.4469 9.41507 20.9156 8.86651 21.5961 10.8635H20.9242C20.7516 10.4259 20.0847 9.62833 18.7976 9.93897Z" fill="#FFB140"/>
<path d="M26.5828 15.9238C27.9833 15.6674 30.7127 15.7019 31.9024 15.7512C30.9753 16.2394 30.9244 17.2736 31.0148 17.7297C30.9614 17.8181 30.7386 18.0083 30.2751 18.0626C29.8116 18.1168 28.5574 18.9892 27.9882 19.4186L26.5828 15.9238Z" fill="#FFB140"/>
<path d="M8.09068 15.8375C7.46934 18.1846 7.68796 20.3493 7.87493 21.1382C8.15108 16.2123 12.0418 13.1933 13.9527 12.2996C12.3939 11.0491 11.7963 7.91765 11.6532 6.10187C11.6337 5.85533 11.3742 5.69747 11.1502 5.80222L8.68706 6.95378C8.5217 7.03109 8.44585 7.22279 8.50145 7.39664C9.17887 9.51496 8.83056 13.0426 8.09068 15.8375Z" fill="#FFB140"/>
<path d="M29.3564 13.0108C28.8797 13.932 28.1446 14.4984 27.7144 14.2758C27.2842 14.0532 27.3218 13.126 27.7985 12.2049C28.2751 11.2837 29.0103 10.7173 29.4405 10.9399C29.8707 11.1625 29.833 12.0897 29.3564 13.0108Z" fill="#FFB140"/>
<path d="M32.1193 17.1768C31.85 17.7602 31.4108 18.1312 31.1383 18.0055C30.8658 17.8797 30.8633 17.3048 31.1326 16.7213C31.402 16.1379 31.8412 15.7669 32.1137 15.8927C32.3861 16.0184 32.3887 16.5934 32.1193 17.1768Z" fill="#FFB140"/>
<path fill-rule="evenodd" clip-rule="evenodd" d="M13.6661 18.5609C13.7974 18.5482 13.9223 18.6198 13.9775 18.7396L16.8147 24.8905L17.7667 19.9309C17.7918 19.8001 17.8976 19.7 18.0295 19.6821C18.1614 19.6642 18.29 19.7326 18.349 19.8519L19.7451 22.6754L28.3299 22.5631C28.5011 22.5608 28.6417 22.6978 28.644 22.869C28.6462 23.0402 28.5093 23.1808 28.3381 23.183L19.5578 23.2979C19.4385 23.2994 19.3288 23.2323 19.2759 23.1253L18.2018 20.953L17.2417 25.9548C17.2163 26.087 17.1084 26.1878 16.9747 26.204C16.8411 26.2203 16.7121 26.1485 16.6557 26.0262L13.7869 19.8065L12.825 23.7564C12.7915 23.8941 12.6688 23.9916 12.527 23.993L8.15259 24.0374C7.98139 24.0391 7.8412 23.9017 7.83946 23.7305C7.83773 23.5593 7.9751 23.4192 8.1463 23.4174L12.2797 23.3755L13.3949 18.7961C13.426 18.668 13.5349 18.5736 13.6661 18.5609Z" fill="white"/>
<path fill-rule="evenodd" clip-rule="evenodd" d="M32.0336 15.7636C32.0815 15.846 32.0536 15.9516 31.9712 15.9995C31.2146 16.4396 31.099 17.2035 31.1506 17.6757C31.1716 17.8684 31.0507 18.067 30.8449 18.1128C29.5501 18.401 28.4886 19.2177 28.1122 19.6016C28.0455 19.6696 27.9362 19.6707 27.8682 19.604C27.8001 19.5373 27.799 19.428 27.8658 19.3599C28.2749 18.9426 29.3929 18.0824 30.7699 17.7758C30.779 17.7738 30.7888 17.7679 30.7968 17.7561C30.805 17.7439 30.8091 17.7283 30.8075 17.7131C30.7477 17.1655 30.8785 16.2358 31.7977 15.7012C31.8801 15.6532 31.9857 15.6812 32.0336 15.7636Z" fill="black"/>
<path fill-rule="evenodd" clip-rule="evenodd" d="M18.6765 9.96931C18.9813 9.82927 19.2926 9.7632 19.5393 9.74285C19.6343 9.73502 19.7113 9.813 19.7109 9.90831C19.7105 10.0036 19.6328 10.0802 19.538 10.0895C19.3329 10.1095 19.0738 10.1666 18.8206 10.2829C18.4915 10.4342 18.1819 10.6808 18.0045 11.0673C17.9197 11.252 17.7519 11.4113 17.5263 11.4452C15.7663 11.7098 13.2744 12.6005 11.2955 14.463C9.32301 16.3195 7.85104 19.1495 8.12891 23.3205C8.29156 25.4652 9.35184 27.226 10.7427 28.5744C12.1348 29.924 13.851 30.8529 15.3022 31.3295C17.1791 31.946 18.8603 32.6234 20.4087 33.2473C21.2914 33.603 22.131 33.9412 22.939 34.2409C23.9978 34.6336 25.3074 34.4012 26.4273 33.7191C27.5445 33.0386 28.4455 31.9264 28.7002 30.6001C28.8229 29.8659 28.8069 29.24 28.746 28.5682C28.725 28.3363 28.6982 28.0959 28.67 27.8429C28.6172 27.3687 28.5595 26.85 28.5252 26.2582C28.5171 26.1178 28.5089 25.9468 28.4995 25.7496C28.4474 24.6642 28.3572 22.7844 28.0342 20.8542C27.8435 19.7142 27.5724 18.5628 27.1826 17.5525C26.818 16.6074 26.3541 15.7974 25.7653 15.2337C25.6965 15.1678 25.6887 15.0591 25.7513 14.9872C25.8139 14.9153 25.9231 14.9075 25.9923 14.9731C26.6381 15.5867 27.1286 16.4536 27.5047 17.4283C27.9058 18.4681 28.1817 19.6443 28.3746 20.7972C28.7014 22.75 28.7926 24.6539 28.8445 25.7371C28.8538 25.9323 28.8619 26.1009 28.8698 26.2382C28.9036 26.8228 28.9593 27.322 29.0115 27.7895C29.04 28.0453 29.0675 28.2916 29.0898 28.5371C29.1521 29.2254 29.17 29.884 29.0403 30.6591L29.04 30.6611L29.0396 30.663C28.7637 32.1034 27.7913 33.2925 26.6069 34.0139C25.4247 34.734 24.0038 35.004 22.819 34.5646C21.9928 34.2581 21.1459 33.9168 20.26 33.5597C18.7208 32.9393 17.0641 32.2715 15.1945 31.6575C13.6995 31.1664 11.9363 30.2123 10.5024 28.8222C9.06738 27.4309 7.95505 25.5955 7.78467 23.3458L7.78461 23.345L7.78456 23.3443C7.49949 19.0682 9.01238 16.1379 11.059 14.2117C13.0993 12.2913 15.661 11.3766 17.475 11.1039C17.5619 11.0908 17.6438 11.0258 17.6908 10.9233C17.9111 10.4432 18.2933 10.1454 18.6765 9.96931Z" fill="black"/>
<path fill-rule="evenodd" clip-rule="evenodd" d="M20.7092 5.65865C20.1126 5.54756 19.5547 5.5414 19.0433 5.60759C18.9488 5.61983 18.8622 5.55312 18.85 5.45859C18.8377 5.36406 18.9045 5.27752 18.999 5.26528C19.5453 5.19458 20.1394 5.20146 20.7724 5.31932C20.8661 5.33677 20.9279 5.42687 20.9105 5.52058C20.893 5.61428 20.8029 5.6761 20.7092 5.65865ZM17.5055 5.86565C17.5477 5.95112 17.5126 6.05461 17.4272 6.09679C16.7985 6.40704 16.3144 6.80504 16.0076 7.15584C15.9448 7.22758 15.8358 7.23488 15.764 7.17213C15.6923 7.10938 15.685 7.00035 15.7478 6.92861C16.0851 6.54287 16.6059 6.1172 17.2744 5.78727C17.3599 5.74508 17.4634 5.78018 17.5055 5.86565ZM22.2058 5.94923C22.2465 5.86305 22.3494 5.82619 22.4356 5.8669C22.9778 6.12306 23.5382 6.4641 24.1127 6.90535C24.1883 6.96341 24.2025 7.07175 24.1444 7.14735C24.0864 7.22294 23.978 7.23715 23.9024 7.17909C23.3458 6.75158 22.8063 6.42381 22.2881 6.17899C22.2019 6.13828 22.1651 6.03541 22.2058 5.94923Z" fill="black"/>
<path fill-rule="evenodd" clip-rule="evenodd" d="M29.2799 10.876C29.3447 10.9459 29.3406 11.0551 29.2707 11.1199C27.9103 12.3814 27.7425 13.4941 27.8205 13.9897C27.8473 14.1602 27.7495 14.3535 27.5559 14.4007C25.4526 14.9129 24.7046 16.2409 24.5888 16.8094C24.5698 16.9028 24.4786 16.963 24.3852 16.944C24.2918 16.925 24.2315 16.8338 24.2506 16.7405C24.3948 16.0325 25.2495 14.6075 27.4733 14.0655C27.4738 14.0651 27.4747 14.0641 27.4757 14.0624C27.479 14.057 27.4805 14.0497 27.4795 14.0433C27.3797 13.4084 27.6124 12.1869 29.036 10.8668C29.1059 10.802 29.2151 10.8061 29.2799 10.876ZM27.4728 14.0659C27.4728 14.0659 27.4729 14.0658 27.4732 14.0657C27.473 14.0658 27.4729 14.0659 27.4728 14.0659Z" fill="black"/>
<path fill-rule="evenodd" clip-rule="evenodd" d="M21.7695 11.0241C21.7695 10.9288 21.8468 10.8516 21.9421 10.8516H25.6157C25.711 10.8516 25.7882 10.9288 25.7882 11.0241C25.7882 11.1195 25.711 11.1967 25.6157 11.1967H21.9421C21.8468 11.1967 21.7695 11.1195 21.7695 11.0241Z" fill="black"/>
</g>
<defs>
<clipPath id="clip0_1_1695">
<rect width="40" height="40" fill="white"/>
</clipPath>
</defs>
</svg>
