<svg width="56" height="56" viewBox="0 0 56 56" fill="none" xmlns="http://www.w3.org/2000/svg">
<g clip-path="url(#clip0_1_3125)">
<circle cx="28" cy="28" r="28" fill="#835DFE"/>
<path opacity="0.05" fill-rule="evenodd" clip-rule="evenodd" d="M2.36165 16.7275H5.25876V11.7995H5.15992C5.40887 11.4491 5.66568 11.1048 5.93009 10.7666V11.1275H10.8532V6.19949H10.4275C10.786 5.91017 11.1518 5.62951 11.5245 5.35783V5.52749H16.4476V2.48674C16.6698 2.38595 16.8936 2.28798 17.1189 2.19287V5.52749H22.042V0.635227C22.2648 0.586945 22.4886 0.541315 22.7133 0.498371V5.52749H27.6364V0.00231262C27.7574 0.000772422 27.8786 0 28 0C28.1027 0 28.2053 0.000552939 28.3077 0.001656V5.52749H33.2308V0.487749C33.4555 0.530217 33.6793 0.57537 33.9021 0.623174V5.52749H38.8252V2.16933C39.0505 2.26386 39.2743 2.36125 39.4965 2.46145V5.52749H44.4196V5.31718C44.8117 5.60149 45.1961 5.89572 45.5725 6.19949H45.0909V11.1275H50.014V10.6954C50.2981 11.0563 50.5736 11.4245 50.8401 11.7995H50.6853V16.7275H53.6384C53.7363 16.95 53.8315 17.174 53.9238 17.3995H50.6853V22.3275H55.4251C55.471 22.5505 55.5142 22.7745 55.5548 22.9995H50.6853V27.9275H55.9999C56 27.9516 56 27.9758 56 28C56 28.2003 55.9979 28.4002 55.9937 28.5995H50.6853V33.5275H55.4545C55.4095 33.7525 55.3617 33.9765 55.3113 34.1995H50.6853V39.1275H53.7017C53.6039 39.353 53.5033 39.577 53.3998 39.7995H50.6853V44.4161C50.4436 44.7495 50.1948 45.0774 49.939 45.3995H45.0909V50.1806C44.7256 50.4625 44.3531 50.7355 43.9738 50.9995H39.4965V53.5385C39.2743 53.6388 39.0505 53.7361 38.8252 53.8307V50.9995H33.9021V55.3768C33.6793 55.4246 33.4555 55.4698 33.2308 55.5123V50.9995H28.3077V55.9983C28.2053 55.9995 28.1027 56 28 56C27.8786 56 27.7574 55.9992 27.6364 55.9977V50.9995H22.7133V55.5016C22.4886 55.4587 22.2648 55.4131 22.042 55.3648V50.9995H17.1189V53.8071C16.8936 53.712 16.6698 53.6141 16.4476 53.5133V50.9995H12.0262C11.6275 50.7221 11.2364 50.4345 10.8532 50.1373V45.3995H6.06099C5.78543 45.0525 5.51793 44.6988 5.25876 44.3387V39.7995H2.60024C2.49673 39.577 2.39606 39.353 2.29828 39.1275H5.25876V34.1995H0.688675C0.63827 33.9765 0.590526 33.7525 0.545478 33.5275H5.25876V28.5995H0.00629001C0.00210363 28.4002 0 28.2003 0 28C0 27.9758 3.0662e-05 27.9516 9.19493e-05 27.9275H5.25876V22.9995H0.445238C0.485792 22.7745 0.529032 22.5505 0.574925 22.3275H5.25876V17.3995H2.07622C2.16852 17.174 2.26368 16.95 2.36165 16.7275ZM11.5245 11.1275V6.19949H16.4476V11.1275H11.5245ZM17.1189 11.1275V6.19949H22.042V11.1275H17.1189ZM22.7133 11.1275V6.19949H27.6364V11.1275H22.7133ZM28.3077 11.1275V6.19949H33.2308V11.1275H28.3077ZM33.9021 11.1275V6.19949H38.8252V11.1275H33.9021ZM39.4965 11.1275V6.19949H44.4196V11.1275H39.4965ZM45.0909 11.7995H50.014V16.7275H45.0909V11.7995ZM45.0909 17.3995H50.014V22.3275H45.0909V17.3995ZM45.0909 22.9995H50.014V27.9275H45.0909V22.9995ZM45.0909 28.5995H50.014V33.5275H45.0909V28.5995ZM45.0909 34.1995H50.014V39.1275H45.0909V34.1995ZM45.0909 39.7995H50.014V44.7275H45.0909V39.7995ZM44.4196 45.3995V50.3275H39.4965V45.3995H44.4196ZM38.8252 45.3995V50.3275H33.9021V45.3995H38.8252ZM33.2308 45.3995V50.3275H28.3077V45.3995H33.2308ZM27.6364 45.3995V50.3275H22.7133V45.3995H27.6364ZM22.042 45.3995V50.3275H17.1189V45.3995H22.042ZM16.4476 45.3995V50.3275H11.5245V45.3995H16.4476ZM10.8532 44.7275H5.93009V39.7995H10.8532V44.7275ZM10.8532 39.1275H5.93009V34.1995H10.8532V39.1275ZM10.8532 33.5275H5.93009V28.5995H10.8532V33.5275ZM10.8532 27.9275H5.93009V22.9995H10.8532V27.9275ZM10.8532 22.3275H5.93009V17.3995H10.8532V22.3275ZM10.8532 16.7275H5.93009V11.7995H10.8532V16.7275ZM11.5245 16.7275V11.7995H16.4476V16.7275H11.5245ZM17.1189 16.7275V11.7995H22.042V16.7275H17.1189ZM22.7133 16.7275V11.7995H27.6364V16.7275H22.7133ZM28.3077 16.7275V11.7995H33.2308V16.7275H28.3077ZM33.9021 16.7275V11.7995H38.8252V16.7275H33.9021ZM39.4965 16.7275V11.7995H44.4196V16.7275H39.4965ZM39.4965 17.3995H44.4196V22.3275H39.4965V17.3995ZM39.4965 22.9995H44.4196V27.9275H39.4965V22.9995ZM39.4965 28.5995H44.4196V33.5275H39.4965V28.5995ZM39.4965 34.1995H44.4196V39.1275H39.4965V34.1995ZM39.4965 39.7995H44.4196V44.7275H39.4965V39.7995ZM38.8252 39.7995V44.7275H33.9021V39.7995H38.8252ZM33.2308 39.7995V44.7275H28.3077V39.7995H33.2308ZM27.6364 39.7995V44.7275H22.7133V39.7995H27.6364ZM22.042 39.7995V44.7275H17.1189V39.7995H22.042ZM16.4476 39.7995V44.7275H11.5245V39.7995H16.4476ZM16.4476 39.1275H11.5245V34.1995H16.4476V39.1275ZM16.4476 33.5275H11.5245V28.5995H16.4476V33.5275ZM16.4476 27.9275H11.5245V22.9995H16.4476V27.9275ZM16.4476 22.3275H11.5245V17.3995H16.4476V22.3275ZM17.1189 22.3275V17.3995H22.042V22.3275H17.1189ZM22.7133 22.3275V17.3995H27.6364V22.3275H22.7133ZM28.3077 22.3275V17.3995H33.2308V22.3275H28.3077ZM33.9021 22.3275V17.3995H38.8252V22.3275H33.9021ZM33.9021 22.9995H38.8252V27.9275H33.9021V22.9995ZM33.9021 28.5995H38.8252V33.5275H33.9021V28.5995ZM33.9021 34.1995H38.8252V39.1275H33.9021V34.1995ZM33.2308 34.1995V39.1275H28.3077V34.1995H33.2308ZM27.6364 34.1995V39.1275H22.7133V34.1995H27.6364ZM22.042 34.1995V39.1275H17.1189V34.1995H22.042ZM22.042 33.5275H17.1189V28.5995H22.042V33.5275ZM22.042 27.9275H17.1189V22.9995H22.042V27.9275ZM22.7133 27.9275V22.9995H27.6364V27.9275H22.7133ZM28.3077 27.9275V22.9995H33.2308V27.9275H28.3077ZM28.3077 28.5995H33.2308V33.5275H28.3077V28.5995ZM27.6364 28.5995V33.5275H22.7133V28.5995H27.6364Z" fill="black"/>
<path fill-rule="evenodd" clip-rule="evenodd" d="M31.1376 3.73171C29.0945 3.4625 27.2181 4.90338 26.9482 6.95202C26.8059 8.03162 27.1378 9.06331 27.7838 9.83841C27.9614 10.0514 27.9326 10.3681 27.7196 10.5456C27.5066 10.7232 27.1899 10.6944 27.0124 10.4814C26.1941 9.49968 25.7721 8.18965 25.9525 6.82082C26.2947 4.22387 28.6742 2.39415 31.2688 2.73602C33.8634 3.0779 35.6877 5.46155 35.3455 8.0585C35.0036 10.6537 32.6241 12.497 30.0277 12.1549C30.0016 12.1515 29.9823 12.15 29.9684 12.1494C29.955 12.1735 29.9345 12.2181 29.9116 12.2951C29.7955 12.6843 29.7285 13.4941 29.7419 15.1206C29.7441 15.3979 29.5212 15.6245 29.2439 15.6268C28.9665 15.6291 28.7399 15.4061 28.7376 15.1288C28.7244 13.5298 28.7827 12.5661 28.9492 12.008C29.0349 11.7209 29.1745 11.4501 29.4345 11.2866C29.6961 11.1222 29.973 11.1347 30.1589 11.1592C32.2002 11.4282 34.0796 9.97773 34.3498 7.9273C34.6198 5.87866 33.1807 4.00092 31.1376 3.73171ZM29.9845 12.1248C29.9845 12.1248 29.9843 12.1251 29.9839 12.1255C29.9843 12.125 29.9845 12.1248 29.9845 12.1248Z" fill="white"/>
<path d="M13.2572 13.5254C13.3132 13.1003 13.7032 12.8011 14.1283 12.8572L45.2035 16.9518C45.6286 17.0078 45.9278 17.3978 45.8718 17.8229C45.8158 18.248 45.4258 18.5472 45.0007 18.4912L13.9255 14.3965C13.5004 14.3405 13.2012 13.9505 13.2572 13.5254Z" fill="white"/>
<path d="M28.0923 28.1775C31.1076 28.5748 33.7791 24.7296 34.4497 19.6405L34.8051 16.943C29.3298 23.2178 25.4551 18.6261 24.2021 15.5459L23.8467 18.2434C23.1761 23.3325 25.0769 27.7801 28.0923 28.1775Z" fill="#F58C12"/>
<path d="M28.0927 28.1773C31.108 28.5746 33.7795 24.7295 34.4501 19.6404L34.9818 15.6049L38.0677 16.0115C37.3571 19.1647 36.6026 25.8093 39.2697 27.1619L36.1617 50.7488L29.7808 47.8792C27.0367 46.6451 23.9907 46.2438 21.0206 46.7249L14.1142 47.8437L17.2221 24.2568C18.4018 24.4122 20.1708 23.2724 21.3648 13.8107L24.3788 14.2078L23.8471 18.2433C23.1765 23.3324 25.0773 27.78 28.0927 28.1773Z" fill="#FFB140"/>
<ellipse cx="25.1416" cy="49.2703" rx="11.1191" ry="3.11961" transform="rotate(7.50635 25.1416 49.2703)" fill="#F58C12"/>
</g>
<defs>
<clipPath id="clip0_1_3125">
<rect width="56" height="56" fill="white"/>
</clipPath>
</defs>
</svg>
