<svg width="72" height="72" viewBox="0 0 72 72" fill="none" xmlns="http://www.w3.org/2000/svg">
<rect width="72" height="72" fill="#1E1E1E"/>
<g id="Home" clip-path="url(#clip0_1_1180)">
<rect width="1440" height="5526" transform="translate(-675 -940)" fill="#F6F8FE"/>
<g id="Header">
<g id="Header Illustration" clip-path="url(#clip1_1_1180)">
<rect width="1440" height="1044" transform="translate(-675 -941.957)" fill="white"/>
<g id="background">
<g id="Floor">
<rect id="Vector" x="-675" y="-39.9573" width="1440" height="142" fill="#FFCC8C"/>
</g>
<g id="Side Wall">
</g>
</g>
<g id="Person">
<g id="foot">
<g id="shoes">
<path id="Vector_2" d="M-25.6073 40.885L-23.4021 35.7917L-6.23577 35.7918L-6.25529 36.0089C-6.49419 38.6664 -5.84053 41.3278 -4.39763 43.5724L0.672832 51.4597C4.63655 57.6255 -0.0383873 65.6901 -7.3587 65.3148L-22.5263 64.5369C-24.942 64.413 -27.3526 64.8644 -29.5599 65.8538C-34.4751 68.0572 -39.8007 69.1963 -45.1872 69.1963H-56.8709C-59.9331 69.1963 -61.0276 65.1479 -58.3825 63.6049L-32.2282 48.3483C-29.2822 46.6298 -26.9624 44.0149 -25.6073 40.885Z" fill="white"/>
<path id="Vector_3" d="M0.762997 51.6028C4.56429 57.7495 -0.094841 65.6873 -7.3587 65.3148L-22.5263 64.537C-24.942 64.4131 -27.3526 64.8644 -29.5599 65.8539C-34.4751 68.0573 -39.8007 69.1963 -45.1872 69.1963H-56.8709C-59.9331 69.1963 -61.0276 65.1479 -58.3825 63.605L-57.421 63.0441C-45.5724 64.5079 -18.9948 64.1286 0.762997 51.6028Z" fill="black"/>
</g>
<path id="Vector_4" d="M-64.0531 -149.519L1.11816 -160.194L17.3238 -122.987L23.6767 -127.472L41.614 -86.552L-2.66885 -69.7357L-1.79277 -66.401C1.42907 -54.1372 1.40096 -41.2457 -1.87434 -28.9961L-6.21895 -12.7472V35.8331H-23.4089L-38.0694 -67.2584C-39.8281 -79.6252 -33.9926 -91.8394 -23.2669 -98.2416L7.23407 -116.448H-55.3598C-55.3598 -106.486 -58.4939 -96.7775 -64.3181 -88.6964L-67.1842 -84.7198C-69.2594 -81.8404 -70.9925 -78.7292 -72.3484 -75.4491L-95.7189 -18.9132L-111.414 -23.2107L-89.3442 -125.466C-86.6566 -137.919 -76.6246 -147.459 -64.0531 -149.519Z" fill="#FFA59A"/>
<path id="Vector_5" d="M39.1907 -92.0801L41.614 -86.5519L-2.66889 -69.7357L-1.79281 -66.4009C1.42903 -54.1371 1.40092 -41.2456 -1.87438 -28.996L-6.21899 -12.7472V35.8331H-14V-9.40558C-14 -15.6159 -14.8857 -21.7945 -16.6302 -27.7548C-19.147 -36.3539 -19.623 -45.4216 -18.0202 -54.2369L-17.2756 -58.3321C-15.2455 -69.4974 -7.46972 -78.7605 3.17498 -82.6944L35.5063 -94.6431L39.1907 -92.0801Z" fill="#D78A80"/>
<path id="Vector_6" d="M17.6359 -123.69L-21.5084 -99.8756C-33.5124 -92.5726 -39.9855 -78.7989 -37.947 -64.8966L-25.5554 19.612" stroke="black" stroke-width="3" stroke-linecap="round"/>
</g>
</g>
</g>
</g>
<g id="3 Step" filter="url(#filter0_d_1_1180)">
<rect x="-555" y="-40" width="1200" height="282" rx="24" fill="white" shape-rendering="crispEdges"/>
<g id="Category1">
<g id="Illustration">
<circle id="Vector_7" cx="36" cy="36" r="36" fill="#1BB1F8"/>
<mask id="mask0_1_1180" style="mask-type:alpha" maskUnits="userSpaceOnUse" x="0" y="0" width="72" height="72">
<circle id="Vector_8" cx="36" cy="36" r="36" fill="#FFCC8C"/>
</mask>
<g mask="url(#mask0_1_1180)">
<path id="Vector_9" opacity="0.05" fill-rule="evenodd" clip-rule="evenodd" d="M7.20012 -4.75635C7.43871 -4.75635 7.63212 -4.56293 7.63212 -4.32435V3.47367H13.9681V-4.32435C13.9681 -4.56293 14.1615 -4.75635 14.4001 -4.75635C14.6387 -4.75635 14.8321 -4.56293 14.8321 -4.32435V3.47367H21.1681V-4.32435C21.1681 -4.56293 21.3615 -4.75635 21.6001 -4.75635C21.8387 -4.75635 22.0321 -4.56293 22.0321 -4.32435V3.47367H28.3681V-4.32435C28.3681 -4.56293 28.5615 -4.75635 28.8001 -4.75635C29.0387 -4.75635 29.2321 -4.56293 29.2321 -4.32435V3.47367H35.5681V-4.32435C35.5681 -4.56293 35.7615 -4.75635 36.0001 -4.75635C36.2387 -4.75635 36.4321 -4.56293 36.4321 -4.32435V3.47367H42.7681V-4.32435C42.7681 -4.56293 42.9615 -4.75635 43.2001 -4.75635C43.4387 -4.75635 43.6321 -4.56293 43.6321 -4.32435V3.47367H49.9681V-4.32435C49.9681 -4.56293 50.1615 -4.75635 50.4001 -4.75635C50.6387 -4.75635 50.8321 -4.56293 50.8321 -4.32435V3.47367H57.1681V-4.32435C57.1681 -4.56293 57.3615 -4.75635 57.6001 -4.75635C57.8387 -4.75635 58.0321 -4.56293 58.0321 -4.32435V3.47367H64.3681V-4.32435C64.3681 -4.56293 64.5615 -4.75635 64.8001 -4.75635C65.0387 -4.75635 65.2321 -4.56293 65.2321 -4.32435V3.47367H73.0301C73.2687 3.47367 73.4621 3.66709 73.4621 3.90567C73.4621 4.14426 73.2687 4.33767 73.0301 4.33767H65.2321V10.6737H73.0301C73.2687 10.6737 73.4621 10.8671 73.4621 11.1057C73.4621 11.3443 73.2687 11.5377 73.0301 11.5377H65.2321V17.8737H73.0301C73.2687 17.8737 73.4621 18.0671 73.4621 18.3057C73.4621 18.5443 73.2687 18.7377 73.0301 18.7377H65.2321V25.0736H73.0301C73.2687 25.0736 73.4621 25.267 73.4621 25.5056C73.4621 25.7442 73.2687 25.9376 73.0301 25.9376H65.2321V32.2736H73.0301C73.2687 32.2736 73.4621 32.467 73.4621 32.7056C73.4621 32.9442 73.2687 33.1376 73.0301 33.1376H65.2321V39.4736H73.0301C73.2687 39.4736 73.4621 39.667 73.4621 39.9056C73.4621 40.1442 73.2687 40.3376 73.0301 40.3376H65.2321V46.6736H73.0301C73.2687 46.6736 73.4621 46.867 73.4621 47.1056C73.4621 47.3442 73.2687 47.5376 73.0301 47.5376H65.2321V53.8736H73.0301C73.2687 53.8736 73.4621 54.067 73.4621 54.3056C73.4621 54.5442 73.2687 54.7376 73.0301 54.7376H65.2321V61.0736H73.0301C73.2687 61.0736 73.4621 61.267 73.4621 61.5056C73.4621 61.7442 73.2687 61.9376 73.0301 61.9376H65.2321V69.7357C65.2321 69.9742 65.0387 70.1677 64.8001 70.1677C64.5615 70.1677 64.3681 69.9742 64.3681 69.7357V61.9376H58.0321V69.7357C58.0321 69.9742 57.8387 70.1677 57.6001 70.1677C57.3615 70.1677 57.1681 69.9742 57.1681 69.7357V61.9376H50.8321V69.7357C50.8321 69.9742 50.6387 70.1677 50.4001 70.1677C50.1615 70.1677 49.9681 69.9742 49.9681 69.7357V61.9376H43.6321V69.7357C43.6321 69.9742 43.4387 70.1677 43.2001 70.1677C42.9615 70.1677 42.7681 69.9742 42.7681 69.7357V61.9376H36.4321V69.7357C36.4321 69.9742 36.2387 70.1677 36.0001 70.1677C35.7615 70.1677 35.5681 69.9742 35.5681 69.7357V61.9376H29.2321V69.7357C29.2321 69.9742 29.0387 70.1677 28.8001 70.1677C28.5615 70.1677 28.3681 69.9742 28.3681 69.7357V61.9376H22.0321V69.7357C22.0321 69.9742 21.8387 70.1677 21.6001 70.1677C21.3615 70.1677 21.1681 69.9742 21.1681 69.7357V61.9376H14.8321V69.7357C14.8321 69.9742 14.6387 70.1677 14.4001 70.1677C14.1615 70.1677 13.9681 69.9742 13.9681 69.7357V61.9376H7.63212V69.7357C7.63212 69.9742 7.43871 70.1677 7.20012 70.1677C6.96154 70.1677 6.76812 69.9742 6.76812 69.7357V61.9376H-1.02991C-1.2685 61.9376 -1.46191 61.7442 -1.46191 61.5056C-1.46191 61.267 -1.2685 61.0736 -1.02991 61.0736H6.76812V54.7376H-1.02991C-1.2685 54.7376 -1.46191 54.5442 -1.46191 54.3056C-1.46191 54.067 -1.2685 53.8736 -1.02991 53.8736H6.76812V47.5376H-1.02991C-1.2685 47.5376 -1.46191 47.3442 -1.46191 47.1056C-1.46191 46.867 -1.2685 46.6736 -1.02991 46.6736H6.76812V40.3376H-1.02991C-1.2685 40.3376 -1.46191 40.1442 -1.46191 39.9056C-1.46191 39.667 -1.2685 39.4736 -1.02991 39.4736H6.76812V33.1376H-1.02991C-1.2685 33.1376 -1.46191 32.9442 -1.46191 32.7056C-1.46191 32.467 -1.2685 32.2736 -1.02991 32.2736H6.76812V25.9376H-1.02991C-1.2685 25.9376 -1.46191 25.7442 -1.46191 25.5056C-1.46191 25.267 -1.2685 25.0736 -1.02991 25.0736H6.76812V18.7377H-1.02991C-1.2685 18.7377 -1.46191 18.5443 -1.46191 18.3057C-1.46191 18.0671 -1.2685 17.8737 -1.02991 17.8737H6.76812V11.5377H-1.02991C-1.2685 11.5377 -1.46191 11.3443 -1.46191 11.1057C-1.46191 10.8671 -1.2685 10.6737 -1.02991 10.6737H6.76812V4.33767H-1.02991C-1.2685 4.33767 -1.46191 4.14426 -1.46191 3.90567C-1.46191 3.66709 -1.2685 3.47367 -1.02991 3.47367H6.76812V-4.32435C6.76812 -4.56293 6.96154 -4.75635 7.20012 -4.75635ZM7.63212 4.33767V10.6737H13.9681V4.33767H7.63212ZM14.8321 4.33767V10.6737H21.1681V4.33767H14.8321ZM22.0321 4.33767V10.6737H28.3681V4.33767H22.0321ZM29.2321 4.33767V10.6737H35.5681V4.33767H29.2321ZM36.4321 4.33767V10.6737H42.7681V4.33767H36.4321ZM43.6321 4.33767V10.6737H49.9681V4.33767H43.6321ZM50.8321 4.33767V10.6737H57.1681V4.33767H50.8321ZM58.0321 4.33767V10.6737H64.3681V4.33767H58.0321ZM64.3681 11.5377H58.0321V17.8737H64.3681V11.5377ZM64.3681 18.7377H58.0321V25.0736H64.3681V18.7377ZM64.3681 25.9376H58.0321V32.2736H64.3681V25.9376ZM64.3681 33.1376H58.0321V39.4736H64.3681V33.1376ZM64.3681 40.3376H58.0321V46.6736H64.3681V40.3376ZM64.3681 47.5376H58.0321V53.8736H64.3681V47.5376ZM64.3681 54.7376H58.0321V61.0736H64.3681V54.7376ZM57.1681 61.0736V54.7376H50.8321V61.0736H57.1681ZM49.9681 61.0736V54.7376H43.6321V61.0736H49.9681ZM42.7681 61.0736V54.7376H36.4321V61.0736H42.7681ZM35.5681 61.0736V54.7376H29.2321V61.0736H35.5681ZM28.3681 61.0736V54.7376H22.0321V61.0736H28.3681ZM21.1681 61.0736V54.7376H14.8321V61.0736H21.1681ZM13.9681 61.0736V54.7376H7.63212V61.0736H13.9681ZM7.63212 53.8736H13.9681V47.5376H7.63212V53.8736ZM7.63212 46.6736H13.9681V40.3376H7.63212V46.6736ZM7.63212 39.4736H13.9681V33.1376H7.63212V39.4736ZM7.63212 32.2736H13.9681V25.9376H7.63212V32.2736ZM7.63212 25.0736H13.9681V18.7377H7.63212V25.0736ZM7.63212 17.8737H13.9681V11.5377H7.63212V17.8737ZM14.8321 11.5377V17.8737H21.1681V11.5377H14.8321ZM22.0321 11.5377V17.8737H28.3681V11.5377H22.0321ZM29.2321 11.5377V17.8737H35.5681V11.5377H29.2321ZM36.4321 11.5377V17.8737H42.7681V11.5377H36.4321ZM43.6321 11.5377V17.8737H49.9681V11.5377H43.6321ZM50.8321 11.5377V17.8737H57.1681V11.5377H50.8321ZM57.1681 18.7377H50.8321V25.0736H57.1681V18.7377ZM57.1681 25.9376H50.8321V32.2736H57.1681V25.9376ZM57.1681 33.1376H50.8321V39.4736H57.1681V33.1376ZM57.1681 40.3376H50.8321V46.6736H57.1681V40.3376ZM57.1681 47.5376H50.8321V53.8736H57.1681V47.5376ZM49.9681 53.8736V47.5376H43.6321V53.8736H49.9681ZM42.7681 53.8736V47.5376H36.4321V53.8736H42.7681ZM35.5681 53.8736V47.5376H29.2321V53.8736H35.5681ZM28.3681 53.8736V47.5376H22.0321V53.8736H28.3681ZM21.1681 53.8736V47.5376H14.8321V53.8736H21.1681ZM14.8321 46.6736H21.1681V40.3376H14.8321V46.6736ZM14.8321 39.4736H21.1681V33.1376H14.8321V39.4736ZM14.8321 32.2736H21.1681V25.9376H14.8321V32.2736ZM14.8321 25.0736H21.1681V18.7377H14.8321V25.0736ZM22.0321 18.7377V25.0736H28.3681V18.7377H22.0321ZM29.2321 18.7377V25.0736H35.5681V18.7377H29.2321ZM36.4321 18.7377V25.0736H42.7681V18.7377H36.4321ZM43.6321 18.7377V25.0736H49.9681V18.7377H43.6321ZM49.9681 25.9376H43.6321V32.2736H49.9681V25.9376ZM49.9681 33.1376H43.6321V39.4736H49.9681V33.1376ZM49.9681 40.3376H43.6321V46.6736H49.9681V40.3376ZM42.7681 46.6736V40.3376H36.4321V46.6736H42.7681ZM35.5681 46.6736V40.3376H29.2321V46.6736H35.5681ZM28.3681 46.6736V40.3376H22.0321V46.6736H28.3681ZM22.0321 39.4736H28.3681V33.1376H22.0321V39.4736ZM22.0321 32.2736H28.3681V25.9376H22.0321V32.2736ZM29.2321 25.9376V32.2736H35.5681V25.9376H29.2321ZM36.4321 25.9376V32.2736H42.7681V25.9376H36.4321ZM42.7681 33.1376H36.4321V39.4736H42.7681V33.1376ZM35.5681 39.4736V33.1376H29.2321V39.4736H35.5681Z" fill="black"/>
<path id="Vector_10" d="M19.8 20.3197C21.4932 20.3197 22.9135 19.1507 23.2976 17.5758C23.4107 17.1122 23.7868 16.7197 24.264 16.7197H26.136C26.6132 16.7197 26.9893 17.1122 27.1024 17.5758C27.4865 19.1507 28.9067 20.3197 30.6 20.3197C32.2932 20.3197 33.7135 19.1507 34.0976 17.5758C34.2107 17.1122 34.5868 16.7197 35.064 16.7197H36.936C37.4132 16.7197 37.7893 17.1122 37.9024 17.5758C38.2865 19.1507 39.7067 20.3197 41.4 20.3197C43.0932 20.3197 44.5135 19.1507 44.8976 17.5758C45.0107 17.1122 45.3868 16.7197 45.864 16.7197H47.736C48.2132 16.7197 48.5893 17.1122 48.7024 17.5758C49.0865 19.1507 50.5067 20.3197 52.2 20.3197C53.8932 20.3197 55.3135 19.1507 55.6976 17.5758C55.8107 17.1122 56.1868 16.7197 56.664 16.7197H58.8787C59.3558 16.7197 59.7427 17.1066 59.7427 17.5837V76.464C59.7427 76.9412 59.3558 77.328 58.8787 77.328H13.1213C12.6442 77.328 12.2573 76.9412 12.2573 76.464V17.5837C12.2573 17.1066 12.6442 16.7197 13.1213 16.7197H15.336C15.8132 16.7197 16.1893 17.1122 16.3024 17.5758C16.6865 19.1507 18.1067 20.3197 19.8 20.3197Z" fill="#FFCC8C"/>
<rect id="Vector_11" x="15.145" y="24.244" width="41.7103" height="11.7553" fill="white"/>
<g id="Vector_12">
<rect id="Vector_13" x="24.2373" y="32.7" width="7.55184" height="0.576" transform="rotate(-90 24.2373 32.7)" fill="black"/>
<rect id="Vector_14" x="33.8135" y="32.7" width="7.55184" height="0.576" transform="rotate(-90 33.8135 32.7)" fill="black"/>
<rect id="Vector_15" x="35.5415" y="32.7" width="7.55184" height="1.75307" transform="rotate(-90 35.5415 32.7)" fill="black"/>
<rect id="Vector_16" x="38.4937" y="32.7" width="7.55184" height="0.843715" transform="rotate(-90 38.4937 32.7)" fill="black"/>
<rect id="Vector_17" x="40.5552" y="32.7" width="7.55184" height="0.437977" transform="rotate(-90 40.5552 32.7)" fill="black"/>
<rect id="Vector_18" x="42.1851" y="32.7" width="7.55184" height="7.36555" transform="rotate(-90 42.1851 32.7)" fill="black"/>
<rect id="Vector_19" x="50.7549" y="32.7" width="7.55184" height="0.569144" transform="rotate(-90 50.7549 32.7)" fill="black"/>
<rect id="Vector_20" x="52.4854" y="32.7" width="7.55184" height="0.569144" transform="rotate(-90 52.4854 32.7)" fill="black"/>
<rect id="Vector_21" x="54.2153" y="32.7" width="7.55184" height="1.71864" transform="rotate(-90 54.2153 32.7)" fill="black"/>
<rect id="Vector_22" x="22.6533" y="32.7" width="7.55184" height="0.432" transform="rotate(-90 22.6533 32.7)" fill="black"/>
<rect id="Vector_23" x="32.2295" y="32.7" width="7.55184" height="0.432" transform="rotate(-90 32.2295 32.7)" fill="black"/>
<rect id="Vector_24" x="20.3496" y="32.7" width="7.55184" height="1.152" transform="rotate(-90 20.3496 32.7)" fill="black"/>
<rect id="Vector_25" x="17.4692" y="32.7" width="7.55184" height="1.728" transform="rotate(-90 17.4692 32.7)" fill="black"/>
<rect id="Vector_26" x="25.9653" y="32.7" width="7.55184" height="5.06025" transform="rotate(-90 25.9653 32.7)" fill="black"/>
<rect id="Vector_27" x="16.0122" y="32.7" width="7.55184" height="0.305341" transform="rotate(-90 16.0122 32.7)" fill="black"/>
</g>
<g id="Vector_28">
<path d="M16.4339 34.6703H16.1211L16.4667 34.2469V34.2331L16.1211 33.8046H16.4373L16.6671 34.0966H16.681L16.9039 33.8046H17.2166L16.871 34.2279V34.2435L17.2166 34.6703H16.9004L16.6706 34.38H16.6568L16.4339 34.6703Z" fill="black"/>
<path d="M18.5178 34.6703H18.205L18.5506 34.2469V34.2331L18.205 33.8046H18.5212L18.7511 34.0966H18.7649L18.9878 33.8046H19.3006L18.955 34.2279V34.2435L19.3006 34.6703H18.9843L18.7545 34.38H18.7407L18.5178 34.6703Z" fill="black"/>
<path d="M20.6017 34.6703H20.2889L20.6345 34.2469V34.2331L20.2889 33.8046H20.6052L20.835 34.0966H20.8488L21.0717 33.8046H21.3845L21.0389 34.2279V34.2435L21.3845 34.6703H21.0683L20.8385 34.38H20.8246L20.6017 34.6703Z" fill="black"/>
<path d="M23.0762 34.2711H22.4316V34.0482H23.0762V34.2711Z" fill="black"/>
<path d="M24.4354 34.6703H24.1227L24.4683 34.2469V34.2331L24.1227 33.8046H24.4389L24.6687 34.0966H24.6826L24.9055 33.8046H25.2182L24.8726 34.2279V34.2435L25.2182 34.6703H24.902L24.6722 34.38H24.6584L24.4354 34.6703Z" fill="black"/>
<path d="M26.5194 34.6703H26.2066L26.5522 34.2469V34.2331L26.2066 33.8046H26.5228L26.7527 34.0966H26.7665L26.9894 33.8046H27.3022L26.9566 34.2279V34.2435L27.3022 34.6703H26.9859L26.7561 34.38H26.7423L26.5194 34.6703Z" fill="black"/>
<path d="M28.6033 34.6703H28.2905L28.6361 34.2469V34.2331L28.2905 33.8046H28.6068L28.8366 34.0966H28.8504L29.0733 33.8046H29.3861L29.0405 34.2279V34.2435L29.3861 34.6703H29.0699L28.84 34.38H28.8262L28.6033 34.6703Z" fill="black"/>
<path d="M30.6872 34.6703H30.3745L30.7201 34.2469V34.2331L30.3745 33.8046H30.6907L30.9205 34.0966H30.9343L31.1572 33.8046H31.47L31.1244 34.2279V34.2435L31.47 34.6703H31.1538L30.924 34.38H30.9101L30.6872 34.6703Z" fill="black"/>
<path d="M32.7712 34.6703H32.4584L32.804 34.2469V34.2331L32.4584 33.8046H32.7746L33.0044 34.0966H33.0183L33.2412 33.8046H33.5539L33.2083 34.2279V34.2435L33.5539 34.6703H33.2377L33.0079 34.38H32.9941L32.7712 34.6703Z" fill="black"/>
<path d="M35.2456 34.2711H34.6011V34.0482H35.2456V34.2711Z" fill="black"/>
<path d="M36.6049 34.6703H36.2921L36.6377 34.2469V34.2331L36.2921 33.8046H36.6083L36.8382 34.0966H36.852L37.0749 33.8046H37.3877L37.0421 34.2279V34.2435L37.3877 34.6703H37.0714L36.8416 34.38H36.8278L36.6049 34.6703Z" fill="black"/>
<path d="M38.6888 34.6703H38.376L38.7216 34.2469V34.2331L38.376 33.8046H38.6923L38.9221 34.0966H38.9359L39.1588 33.8046H39.4716L39.126 34.2279V34.2435L39.4716 34.6703H39.1554L38.9255 34.38H38.9117L38.6888 34.6703Z" fill="black"/>
<path d="M40.7727 34.6703H40.46L40.8056 34.2469V34.2331L40.46 33.8046H40.7762L41.006 34.0966H41.0198L41.2428 33.8046H41.5555L41.2099 34.2279V34.2435L41.5555 34.6703H41.2393L41.0095 34.38H40.9957L40.7727 34.6703Z" fill="black"/>
<path d="M42.8567 34.6703H42.5439L42.8895 34.2469V34.2331L42.5439 33.8046H42.8601L43.0899 34.0966H43.1038L43.3267 33.8046H43.6395L43.2938 34.2279V34.2435L43.6395 34.6703H43.3232L43.0934 34.38H43.0796L42.8567 34.6703Z" fill="black"/>
<path d="M45.3311 34.2711H44.6866V34.0482H45.3311V34.2711Z" fill="black"/>
<path d="M46.6904 34.6703H46.3776L46.7232 34.2469V34.2331L46.3776 33.8046H46.6939L46.9237 34.0966H46.9375L47.1604 33.8046H47.4732L47.1276 34.2279V34.2435L47.4732 34.6703H47.157L46.9271 34.38H46.9133L46.6904 34.6703Z" fill="black"/>
<path d="M48.7743 34.6703H48.4616L48.8072 34.2469V34.2331L48.4616 33.8046H48.7778L49.0076 34.0966H49.0214L49.2443 33.8046H49.5571L49.2115 34.2279V34.2435L49.5571 34.6703H49.2409L49.0111 34.38H48.9972L48.7743 34.6703Z" fill="black"/>
<path d="M50.8583 34.6703H50.5455L50.8911 34.2469V34.2331L50.5455 33.8046H50.8617L51.0915 34.0966H51.1054L51.3283 33.8046H51.641L51.2954 34.2279V34.2435L51.641 34.6703H51.3248L51.095 34.38H51.0812L50.8583 34.6703Z" fill="black"/>
<path d="M52.9422 34.6703H52.6294L52.975 34.2469V34.2331L52.6294 33.8046H52.9456L53.1755 34.0966H53.1893L53.4122 33.8046H53.725L53.3794 34.2279V34.2435L53.725 34.6703H53.4087L53.1789 34.38H53.1651L52.9422 34.6703Z" fill="black"/>
<path d="M55.0261 34.6703H54.7133L55.0589 34.2469V34.2331L54.7133 33.8046H55.0296L55.2594 34.0966H55.2732L55.4961 33.8046H55.8089L55.4633 34.2279V34.2435L55.8089 34.6703H55.4927L55.2628 34.38H55.249L55.0261 34.6703Z" fill="black"/>
</g>
<path id="Vector_29" fill-rule="evenodd" clip-rule="evenodd" d="M13.9532 41.128L12.2573 41.128L12.2573 40.264L13.9532 40.264C14.1918 40.264 14.3852 40.4575 14.3852 40.696C14.3852 40.9346 14.1918 41.128 13.9532 41.128ZM16.913 40.696C16.913 40.4575 17.1065 40.264 17.345 40.264L20.7369 40.264C20.9754 40.264 21.1689 40.4575 21.1689 40.696C21.1689 40.9346 20.9754 41.128 20.7369 41.128L17.345 41.128C17.1065 41.128 16.913 40.9346 16.913 40.696ZM23.6967 40.696C23.6967 40.4575 23.8901 40.264 24.1287 40.264L27.5205 40.264C27.7591 40.264 27.9525 40.4575 27.9525 40.696C27.9525 40.9346 27.7591 41.128 27.5205 41.128L24.1287 41.128C23.8901 41.128 23.6967 40.9346 23.6967 40.696ZM30.4803 40.696C30.4803 40.4575 30.6737 40.264 30.9123 40.264L34.3041 40.264C34.5427 40.264 34.7361 40.4575 34.7361 40.696C34.7361 40.9346 34.5427 41.128 34.3041 41.128L30.9123 41.128C30.6737 41.128 30.4803 40.9346 30.4803 40.696ZM37.2639 40.696C37.2639 40.4575 37.4573 40.264 37.6959 40.264L41.0877 40.264C41.3263 40.264 41.5197 40.4575 41.5197 40.696C41.5197 40.9346 41.3263 41.128 41.0877 41.128L37.6959 41.128C37.4573 41.128 37.2639 40.9346 37.2639 40.696ZM44.0476 40.696C44.0476 40.4575 44.241 40.264 44.4796 40.264L47.8714 40.264C48.11 40.264 48.3034 40.4575 48.3034 40.696C48.3034 40.9346 48.11 41.128 47.8714 41.128L44.4796 41.128C44.241 41.128 44.0476 40.9346 44.0476 40.696ZM50.8312 40.696C50.8312 40.4575 51.0246 40.264 51.2632 40.264L54.655 40.264C54.8936 40.264 55.087 40.4575 55.087 40.696C55.087 40.9346 54.8936 41.128 54.655 41.128L51.2632 41.128C51.0246 41.128 50.8312 40.9346 50.8312 40.696ZM57.6148 40.696C57.6148 40.4575 57.8082 40.264 58.0468 40.264L59.7427 40.264L59.7427 41.128L58.0468 41.128C57.8082 41.128 57.6148 40.9346 57.6148 40.696Z" fill="black"/>
<path id="$" d="M37.4377 63.449H34.9983V61.8111C32.2278 61.5149 30.6944 60.1558 30.6944 57.7686V57.6641H33.3081V57.9777C33.3081 59.058 33.8482 59.4936 36.218 59.4936C38.3089 59.4936 38.7968 59.18 38.7968 58.3959C38.7968 57.6815 38.396 57.4201 37.1937 57.211L33.9179 56.7406C31.827 56.4095 30.5898 55.364 30.5898 53.4648C30.5898 51.8617 31.7921 50.1715 34.9983 49.8927V48.2897H37.4377V49.9624C39.9991 50.3806 41.2014 51.8791 41.2014 53.9701V54.0746H38.5703V53.8307C38.5703 52.7155 37.9953 52.245 35.6778 52.245C33.796 52.245 33.2209 52.611 33.2209 53.3602C33.2209 54.0398 33.6043 54.2837 34.5801 54.458L37.8559 54.9807C40.4696 55.3989 41.4105 56.6709 41.4105 58.2739C41.4105 59.9467 40.2605 61.48 37.4377 61.8111V63.449Z" fill="black"/>
</g>
</g>
</g>
</g>
</g>
<defs>
<filter id="filter0_d_1_1180" x="-575" y="-56" width="1256" height="338" filterUnits="userSpaceOnUse" color-interpolation-filters="sRGB">
<feFlood flood-opacity="0" result="BackgroundImageFix"/>
<feColorMatrix in="SourceAlpha" type="matrix" values="0 0 0 0 0 0 0 0 0 0 0 0 0 0 0 0 0 0 127 0" result="hardAlpha"/>
<feOffset dx="8" dy="12"/>
<feGaussianBlur stdDeviation="14"/>
<feComposite in2="hardAlpha" operator="out"/>
<feColorMatrix type="matrix" values="0 0 0 0 0 0 0 0 0 0 0 0 0 0 0 0 0 0 0.05 0"/>
<feBlend mode="normal" in2="BackgroundImageFix" result="effect1_dropShadow_1_1180"/>
<feBlend mode="normal" in="SourceGraphic" in2="effect1_dropShadow_1_1180" result="shape"/>
</filter>
<clipPath id="clip0_1_1180">
<rect width="1440" height="5526" fill="white" transform="translate(-675 -940)"/>
</clipPath>
<clipPath id="clip1_1_1180">
<rect width="1440" height="1044" fill="white" transform="translate(-675 -941.957)"/>
</clipPath>
</defs>
</svg>
