<svg width="40" height="40" viewBox="0 0 40 40" fill="none" xmlns="http://www.w3.org/2000/svg">
<g clip-path="url(#clip0_1_1745)">
<circle cx="20" cy="20" r="20" fill="#1BB1F8"/>
<circle cx="20" cy="20" r="20" fill="#835DFE"/>
<path d="M38.3876 27.8799C35.3289 35.0073 28.2474 39.9995 19.9999 39.9995C11.7524 39.9995 4.67092 35.0073 1.6123 27.8799C6.78631 26.0829 13.1368 25.0244 19.9999 25.0244C26.8631 25.0244 33.2136 26.0829 38.3876 27.8799Z" fill="#6A49D4"/>
<ellipse cx="20.0003" cy="35.1785" rx="6.97788" ry="1.32538" fill="#3E2787"/>
<path fill-rule="evenodd" clip-rule="evenodd" d="M21.4265 9.59101C21.565 9.61648 21.6566 9.74942 21.6311 9.88793L21.2332 12.052C21.2077 12.1905 21.0747 12.2822 20.9362 12.2567C20.7977 12.2312 20.7061 12.0983 20.7316 11.9598L21.1296 9.79568C21.155 9.65717 21.288 9.56554 21.4265 9.59101Z" fill="white"/>
<path d="M20.2209 8.82527C20.3245 8.35663 20.7884 8.06073 21.2571 8.16436L22.3664 8.40966C22.835 8.5133 23.1309 8.97721 23.0273 9.44585C22.9237 9.91449 22.4597 10.2104 21.9911 10.1068L20.8818 9.86146C20.4131 9.75783 20.1172 9.29391 20.2209 8.82527Z" fill="white"/>
<circle cx="14.8175" cy="7.05241" r="0.990398" fill="white"/>
<path d="M20.408 10.29C20.3961 10.229 20.3827 10.168 20.3678 10.107C19.7974 7.77404 17.2677 6.38818 14.7175 7.01162C12.1673 7.63505 10.5623 10.0317 11.1327 12.3647C11.1476 12.4257 11.1638 12.486 11.1814 12.5456C11.1243 11.8609 13.0214 10.8398 15.505 10.2327C17.9885 9.62553 20.1427 9.65622 20.408 10.29Z" fill="#F58C12"/>
<ellipse cx="15.808" cy="11.471" rx="4.75353" ry="1.27494" transform="rotate(-13.7374 15.808 11.471)" fill="#DE7700"/>
<path d="M15.7997 10.1631L16.1852 12.0185C16.2139 12.1564 16.1253 12.2914 15.9874 12.32C15.8496 12.3487 15.7146 12.2601 15.6859 12.1222L15.3037 10.2829C15.3703 10.2658 15.4374 10.249 15.5049 10.2325C15.6037 10.2084 15.702 10.1852 15.7997 10.1631Z" fill="white"/>
<path d="M31.4915 22.3432C31.0511 27.5861 26.8527 31.2819 22.0895 30.8818C17.3262 30.4817 13.8019 26.1371 14.2422 20.8943C14.6826 15.6515 18.901 11.7257 23.6643 12.1258C28.4275 12.5259 31.9319 17.1004 31.4915 22.3432Z" fill="#FFB140"/>
<path d="M16.1368 30.2854L22.1368 30.8854L19.1718 29.8954L16.1368 30.2854Z" fill="#FFB140"/>
<path d="M18.4768 11.3754L24.1218 12.1704L21.3968 12.7204L18.4768 11.3754Z" fill="#FFB140"/>
<path d="M25.861 21.5434C25.4207 26.7862 21.2023 30.712 16.439 30.3119C11.6758 29.9118 8.1714 25.3373 8.61179 20.0945C9.05217 14.8516 13.2706 10.9258 18.0338 11.3259C22.7971 11.726 26.3014 16.3005 25.861 21.5434Z" fill="#FFCE71"/>
<path d="M25.0414 21.4787C24.6426 26.2256 20.8232 29.7801 16.5105 29.4179C12.1977 29.0556 9.02479 24.9138 9.42353 20.1668C9.82227 15.4198 13.6417 11.8653 17.9544 12.2276C22.2672 12.5898 25.4401 16.7317 25.0414 21.4787Z" fill="white"/>
<path fill-rule="evenodd" clip-rule="evenodd" d="M21.0444 14.1485C21.1047 14.1875 21.122 14.268 21.083 14.3283L20.4501 15.3077C20.4112 15.368 20.3307 15.3853 20.2704 15.3464C20.2101 15.3074 20.1928 15.2269 20.2318 15.1666L20.8646 14.1872C20.9036 14.1269 20.9841 14.1096 21.0444 14.1485Z" fill="black"/>
<path fill-rule="evenodd" clip-rule="evenodd" d="M14.1655 26.6003C14.2258 26.6393 14.2431 26.7198 14.2041 26.7801L13.5712 27.7595C13.5323 27.8198 13.4518 27.8371 13.3915 27.7981C13.3312 27.7592 13.3139 27.6787 13.3529 27.6184L13.9857 26.639C14.0247 26.5787 14.1052 26.5614 14.1655 26.6003Z" fill="black"/>
<path fill-rule="evenodd" clip-rule="evenodd" d="M23.3467 23.7394C23.3095 23.8008 23.2296 23.8205 23.1682 23.7833L22.1704 23.1798C22.109 23.1426 22.0893 23.0627 22.1264 23.0012C22.1636 22.9398 22.2435 22.9201 22.305 22.9573L23.3027 23.5608C23.3642 23.598 23.3838 23.6779 23.3467 23.7394Z" fill="black"/>
<path fill-rule="evenodd" clip-rule="evenodd" d="M12.9834 19.0704C12.9462 19.1318 12.8663 19.1515 12.8049 19.1144L11.8071 18.5108C11.7457 18.4737 11.726 18.3937 11.7632 18.3323C11.8003 18.2709 11.8802 18.2512 11.9417 18.2884L12.9394 18.8919C13.0009 18.9291 13.0206 19.009 12.9834 19.0704Z" fill="black"/>
<path d="M16.8875 21.3203C16.8626 21.6165 16.6243 21.8383 16.3552 21.8157C16.0861 21.7931 15.8881 21.5347 15.913 21.2385C15.9378 20.9423 16.1762 20.7205 16.4453 20.7431C16.7144 20.7657 16.9123 21.0242 16.8875 21.3203Z" fill="black"/>
<path fill-rule="evenodd" clip-rule="evenodd" d="M19.4444 16.2011C19.4916 16.2299 19.5064 16.2914 19.4777 16.3386L16.6756 20.9278L16.5049 20.8236L19.307 16.2343C19.3357 16.1872 19.3973 16.1723 19.4444 16.2011Z" fill="black"/>
<path fill-rule="evenodd" clip-rule="evenodd" d="M16.6024 21.5631C16.6492 21.5337 16.7109 21.5478 16.7403 21.5945L18.5716 24.5069C18.601 24.5537 18.5869 24.6154 18.5402 24.6448C18.4934 24.6742 18.4317 24.6602 18.4023 24.6134L16.571 21.701C16.5416 21.6542 16.5557 21.5925 16.6024 21.5631Z" fill="black"/>
<path d="M12.0117 16.6048C9.69493 20.3862 10.6927 24.8375 11.4812 26.5906C8.01567 21.899 9.85874 17.3169 11.2135 15.6123C13.9003 11.7683 17.7693 11.9872 19.368 12.5771C17.8812 12.3441 14.3284 12.8235 12.0117 16.6048Z" fill="black"/>
<path fill-rule="evenodd" clip-rule="evenodd" d="M16.5464 29.2356C20.7534 29.589 24.5083 26.1184 24.9009 21.4439C25.2936 16.7693 22.1703 12.721 17.9633 12.3676C13.7563 12.0143 10.0014 15.4848 9.60877 20.1594C9.21612 24.8339 12.3394 28.8822 16.5464 29.2356ZM16.5313 29.415C20.8532 29.778 24.6807 26.216 25.0803 21.4589C25.4799 16.7019 22.3002 12.5513 17.9784 12.1883C13.6565 11.8252 9.82898 15.3873 9.4294 20.1443C9.02982 24.9013 12.2095 29.0519 16.5313 29.415Z" fill="black"/>
<circle cx="30.2843" cy="10.6645" r="0.990398" fill="white"/>
<path d="M30.0051 10.3894C27.7104 8.51209 24.9959 8.32734 22.6938 10.4826C22.5615 10.6065 22.5264 10.8023 22.6048 10.9657C24.5301 14.9766 28.6821 17.334 30.783 18.1176C30.9393 18.1759 31.1146 18.1358 31.2232 18.0094C32.9148 16.0416 32.2921 12.2603 30.0051 10.3894Z" fill="#F58C12"/>
</g>
<defs>
<clipPath id="clip0_1_1745">
<rect width="40" height="40" fill="white"/>
</clipPath>
</defs>
</svg>
