<svg width="120" height="120" viewBox="0 0 120 120" fill="none" xmlns="http://www.w3.org/2000/svg">
<g clip-path="url(#clip0_1_2896)">
<circle cx="60" cy="60.0004" r="60" fill="#835DFE"/>
<path d="M114.633 84.8395C118.08 77.2705 120 68.8596 120 60.0003C120 56.8374 119.755 53.7316 119.284 50.7009L117.856 51.1116C112.837 52.5557 109.38 57.1476 109.38 62.3703L105.622 63.3985C102.11 64.3592 99.6752 67.5498 99.6752 71.1903H99.1923C94.469 71.1903 90.085 73.6442 87.6152 77.6703L114.633 84.8395Z" fill="white"/>
<path d="M5.44835 85.0171C2.11835 77.7675 0.190948 69.7401 0.0136719 61.2823L1.44544 61.0212C5.22899 60.3315 8.91792 62.6272 9.97013 66.3264L10.0353 66.5553L11.4602 66.4773C14.6814 66.301 17.4995 68.6246 17.9403 71.8203L20.2046 71.705C22.771 71.5743 25.176 72.9586 26.3521 75.2434L27.8253 78.1053L5.44835 85.0171Z" fill="white"/>
<path d="M115.163 83.6403C105.987 105.023 84.7423 119.999 59.9998 119.999C35.2573 119.999 14.0128 105.023 4.83691 83.6403C20.3589 78.2493 39.4103 75.0737 59.9998 75.0737C80.5893 75.0737 99.6407 78.2493 115.163 83.6403Z" fill="#6A49D4"/>
<ellipse cx="58.7534" cy="68.0283" rx="26.5484" ry="28.6187" transform="rotate(12.2502 58.7534 68.0283)" fill="#F58C12"/>
<ellipse cx="55.2349" cy="67.2649" rx="26.5484" ry="28.6187" transform="rotate(12.2502 55.2349 67.2649)" fill="white"/>
<path d="M75.5412 9.07495C65.4309 6.87976 55.3967 13.0805 52.8378 23.1049L50.5286 32.1507L59.531 34.4488L62.9776 35.3416L63.9694 31.6695L61.151 29.5943L62.1976 25.4942C63.4706 20.5076 68.4621 17.423 73.4915 18.515C78.7475 19.6562 82.0286 24.9063 80.751 30.1308L76.3686 46.9225C79.0209 49.6612 81.0908 52.9901 82.4397 56.6742L90.1345 32.4255C92.7028 21.923 86.107 11.3691 75.5412 9.07495Z" fill="#FFB140"/>
<path d="M62.9421 23.5164L53.3459 21.4328C53.2923 21.5843 53.2405 21.7368 53.1905 21.8903L62.73 23.9615C62.7971 23.8108 62.8678 23.6624 62.9421 23.5164Z" fill="black"/>
<path d="M61.8987 26.6668L52.4525 24.6157L52.3337 25.0811L61.7799 27.1321L61.8987 26.6668Z" fill="black"/>
<path d="M59.2144 65.4615C58.6983 67.8386 56.3528 69.3472 53.9757 68.8311C51.5985 68.315 50.0899 65.9695 50.606 63.5924C51.1222 61.2152 53.4676 59.7066 55.8448 60.2227C58.2219 60.7388 59.7306 63.0843 59.2144 65.4615Z" fill="#4B3499"/>
<path d="M54.8371 75.4983L55.6263 68.858L51.8631 67.5922L47.4752 73.8998L54.8371 75.4983Z" fill="#4B3499"/>
<path d="M51.777 67.6221L54.4542 68.9311L58.8828 62.6221C58.3148 61.4398 57.2268 60.5224 55.8457 60.2225C53.4686 59.7064 51.1231 61.215 50.607 63.5922C50.2792 65.1017 50.7679 66.5984 51.777 67.6221Z" fill="#2F1E66"/>
<path d="M55.625 68.8745C57.3555 68.5897 58.8203 67.2797 59.215 65.4617C59.4722 64.2773 59.2267 63.1007 58.6216 62.1544C58.419 62.0743 58.2072 62.0095 57.9873 61.9617C55.8055 61.488 53.6529 62.8726 53.1792 65.0544C52.8745 66.4575 53.3385 67.8486 54.2888 68.7888L50.3057 74.5145L54.8377 75.4985L55.625 68.8745Z" fill="#6A49D4"/>
<ellipse cx="58.7999" cy="105.536" rx="20.9336" ry="3.97614" fill="#3E2787"/>
</g>
<defs>
<clipPath id="clip0_1_2896">
<rect width="120" height="120" fill="white"/>
</clipPath>
</defs>
</svg>
