<svg width="120" height="120" viewBox="0 0 120 120" fill="none" xmlns="http://www.w3.org/2000/svg">
<g clip-path="url(#clip0_1_2873)">
<circle cx="60" cy="60" r="60" fill="#835DFE"/>
<path d="M114.633 84.8391C118.08 77.2701 120 68.8593 120 59.9999C120 56.837 119.755 53.7313 119.284 50.7006L117.856 51.1113C112.837 52.5553 109.38 57.1473 109.38 62.3699L105.622 63.3982C102.11 64.3588 99.6752 67.5495 99.6752 71.1899H99.1923C94.469 71.1899 90.085 73.6438 87.6152 77.6699L114.633 84.8391Z" fill="white"/>
<path d="M5.44835 85.0167C2.11835 77.7671 0.190948 69.7397 0.0136719 61.2819L1.44544 61.0209C5.22899 60.3311 8.91792 62.6269 9.97013 66.326L10.0353 66.555L11.4602 66.477C14.6814 66.3006 17.4995 68.6242 17.9403 71.82L20.2046 71.7047C22.771 71.574 25.176 72.9583 26.3521 75.243L27.8253 78.105L5.44835 85.0167Z" fill="white"/>
<path d="M115.163 83.6397C105.987 105.022 84.7423 119.999 59.9998 119.999C35.2573 119.999 14.0128 105.022 4.83691 83.6397C20.3589 78.2487 39.4103 75.0731 59.9998 75.0731C80.5893 75.0731 99.6407 78.2487 115.163 83.6397Z" fill="#6A49D4"/>
<ellipse cx="38.8489" cy="89.2153" rx="18.1341" ry="3.54" fill="#3E2787"/>
<ellipse cx="87.3188" cy="98.8027" rx="11.103" ry="2.16744" fill="#3E2787"/>
<path d="M73.7813 88.4791L74.39 88.7834L74.7664 88.3694L73.2357 87.4785C73.1905 87.8933 73.4081 88.2925 73.7813 88.4791Z" fill="#F58C12"/>
<path d="M108.015 66.8644C108.015 77.07 99.7413 85.3434 89.5356 85.3434C79.33 85.3434 71.0566 77.07 71.0566 66.8644C71.0566 56.6587 79.33 48.3854 89.5356 48.3854C99.7413 48.3854 108.015 56.6587 108.015 66.8644Z" fill="#F58C12"/>
<path d="M74.4795 87.9481C77.8247 87.1721 80.3299 84.3335 81.2177 82.901L87.8017 85.0078C80.152 89.9734 75.9503 89.7497 74.2527 88.709C73.9026 88.4944 74.0796 88.0408 74.4795 87.9481Z" fill="#F58C12"/>
<path d="M107.175 66.0244C107.175 76.2301 98.9014 84.5034 88.6958 84.5034C78.4901 84.5034 70.2168 76.2301 70.2168 66.0244C70.2168 55.8187 78.4901 47.5454 88.6958 47.5454C98.9014 47.5454 107.175 55.8187 107.175 66.0244Z" fill="#FFB140"/>
<path d="M73.6397 87.1081C76.9848 86.3321 79.4901 83.4935 80.3779 82.061L86.9619 84.1679C79.3122 89.1334 75.1105 88.9097 73.4128 87.869C73.0628 87.6545 73.2398 87.2009 73.6397 87.1081Z" fill="#FFB140"/>
<circle cx="80.7461" cy="66.5962" r="2.25" fill="white"/>
<circle cx="88.8457" cy="66.5961" r="2.25" fill="white"/>
<circle cx="96.9453" cy="66.5962" r="2.25" fill="white"/>
<path d="M65.744 65.176L65.7161 65.1812L65.6585 64.4444L66.6287 63.8411L66.6419 63.9446C66.7162 64.5281 66.3223 65.0683 65.744 65.176Z" fill="#F58C12"/>
<path d="M11.9854 44.7503C11.9854 37.4126 17.9337 31.4642 25.2715 31.4642H56.7785C64.1162 31.4642 70.0646 37.4126 70.0646 44.7503C70.0646 52.088 64.1162 58.0364 56.7785 58.0364H25.2714C17.9337 58.0364 11.9854 52.088 11.9854 44.7503Z" fill="#F58C12"/>
<path d="M65.8088 64.2292C62.4487 62.6579 60.0446 59.2991 59.1719 57.59H49.7413C54.8565 64.4392 61.6859 65.5684 65.731 65.1782C66.2261 65.1305 66.2593 64.4399 65.8088 64.2292Z" fill="#F58C12"/>
<path d="M12.4951 43.9703C12.4951 36.6326 18.4435 30.6842 25.7812 30.6842H57.2883C64.626 30.6842 70.5744 36.6326 70.5744 43.9703C70.5744 51.308 64.626 57.2564 57.2883 57.2564H25.7812C18.4435 57.2564 12.4951 51.308 12.4951 43.9703Z" fill="#FFB140"/>
<path d="M66.3185 63.4492C62.9585 61.8778 60.5543 58.5191 59.6816 56.81H50.2511C55.3663 63.6592 62.1957 64.7884 66.2407 64.3982C66.7358 64.3505 66.7691 63.6599 66.3185 63.4492Z" fill="#FFB140"/>
<circle cx="33.4346" cy="44.2936" r="2.25" fill="white"/>
<circle cx="41.5352" cy="42.4938" r="2.25" fill="white"/>
<circle cx="49.6348" cy="44.2938" r="2.25" fill="white"/>
</g>
<defs>
<clipPath id="clip0_1_2873">
<rect width="120" height="120" fill="white"/>
</clipPath>
</defs>
</svg>
