<svg width="120" height="120" viewBox="0 0 120 120" fill="none" xmlns="http://www.w3.org/2000/svg">
<g clip-path="url(#clip0_1_2831)">
<circle cx="60" cy="60" r="60" fill="#835DFE"/>
<path d="M115.163 83.6399C105.987 105.022 84.7423 119.999 59.9998 119.999C35.2573 119.999 14.0128 105.022 4.83691 83.6399C20.3589 78.249 39.4103 75.0734 59.9998 75.0734C80.5893 75.0734 99.6407 78.249 115.163 83.6399Z" fill="#6A49D4"/>
<path d="M106.275 98.1948C98.6638 107.406 88.355 114.306 76.5586 117.686L81.7905 98.1948H106.275Z" fill="#3E2787"/>
<path d="M114.633 84.8392C118.08 77.2703 120 68.8594 120 60.0001C120 56.8371 119.755 53.7314 119.284 50.7007L117.856 51.1114C112.837 52.5554 109.38 57.1474 109.38 62.3701L105.622 63.3983C102.11 64.3589 99.6752 67.5496 99.6752 71.1901H99.1923C94.469 71.1901 90.085 73.644 87.6152 77.6701L114.633 84.8392Z" fill="white"/>
<path d="M5.44835 85.0168C2.11835 77.7673 0.190948 69.7398 0.0136719 61.282L1.44544 61.021C5.22899 60.3313 8.91792 62.627 9.97013 66.3262L10.0353 66.5551L11.4602 66.4771C14.6814 66.3008 17.4995 68.6243 17.9403 71.8201L20.2046 71.7048C22.771 71.5741 25.176 72.9584 26.3521 75.2432L27.8253 78.1051L5.44835 85.0168Z" fill="white"/>
<path d="M71.6553 118.869L102.615 26.5952L103.115 26.6545L104.991 31.7872L80.1883 116.519C77.4315 117.504 74.5816 118.293 71.6553 118.869Z" fill="#F58C12"/>
<path d="M76.1102 117.813C70.9838 119.238 65.5811 120 60.0005 120C40.5622 120 23.2829 110.756 12.3184 96.4251L39.1805 7.2749L103.125 26.6399L76.1102 117.813Z" fill="#FFB140"/>
<path d="M14.7422 99.3931L41.0698 11.8555L98.7003 29.3101L75.5418 107.513L75.5353 107.535L52.3851 119.521C37.4183 117.626 24.1708 110.216 14.7422 99.3931Z" fill="white"/>
<path d="M50.5928 119.267L55.2396 101.561L75.5454 107.502L52.4199 119.526C51.8079 119.449 51.1988 119.362 50.5928 119.267Z" fill="#F0F0F0"/>
<path d="M80.1071 45.3328C75.1768 38.7906 66.675 40.8686 63.0405 42.7254L55.3393 70.1442C76.9577 63.3174 84.9223 51.7971 80.1071 45.3328Z" fill="#F58C12"/>
<path d="M47.1153 36.0646C54.7313 33.047 60.9072 39.2483 63.0431 42.7261L55.3393 70.1442C40.4386 53.0583 39.6383 39.0757 47.1153 36.0646Z" fill="#F58C12"/>
<path d="M41.9707 52.6455L52.0816 55.2772L56.0982 47.9364L58.3143 60.8173L62.7465 51.676L63.8545 57.2162L69.2562 58.4628" stroke="white" stroke-width="1.2" stroke-linecap="round" stroke-linejoin="round"/>
<path fill-rule="evenodd" clip-rule="evenodd" d="M28.3885 67.6999C28.4274 67.5732 28.5617 67.502 28.6884 67.5409L78.3113 82.7644C78.438 82.8033 78.5092 82.9375 78.4703 83.0643C78.4315 83.191 78.2972 83.2622 78.1705 83.2233L28.5476 67.9998C28.4209 67.9609 28.3497 67.8267 28.3885 67.6999Z" fill="black"/>
<path fill-rule="evenodd" clip-rule="evenodd" d="M30.7057 72.169C30.7441 72.0422 30.8781 71.9705 31.0049 72.0089L72.4348 84.553C72.5617 84.5914 72.6334 84.7254 72.595 84.8522C72.5566 84.9791 72.4226 85.0508 72.2957 85.0124L30.8658 72.4683C30.739 72.4299 30.6673 72.2959 30.7057 72.169Z" fill="black"/>
<path opacity="0.3" fill-rule="evenodd" clip-rule="evenodd" d="M28.9801 82.296C29.0185 82.1691 29.1525 82.0974 29.2793 82.1358L70.7092 94.6799C70.8361 94.7183 70.9078 94.8523 70.8694 94.9792C70.831 95.106 70.697 95.1778 70.5701 95.1393L29.1402 82.5953C29.0134 82.5568 28.9417 82.4229 28.9801 82.296Z" fill="black"/>
<path opacity="0.3" fill-rule="evenodd" clip-rule="evenodd" d="M27.776 85.5182C27.8144 85.3913 27.9484 85.3196 28.0752 85.358L69.5051 97.9021C69.632 97.9405 69.7037 98.0745 69.6653 98.2014C69.6269 98.3282 69.4929 98.3999 69.366 98.3615L27.9361 85.8174C27.8093 85.779 27.7376 85.645 27.776 85.5182Z" fill="black"/>
<path opacity="0.3" fill-rule="evenodd" clip-rule="evenodd" d="M28.9293 89.201C28.9678 89.0742 29.1018 89.0026 29.2287 89.041L63.7536 99.5136C63.8804 99.5521 63.9521 99.6861 63.9136 99.8129C63.8751 99.9398 63.7411 100.011 63.6143 99.9729L29.0893 89.5004C28.9625 89.4619 28.8909 89.3279 28.9293 89.201Z" fill="black"/>
<path d="M54.0424 17.9319L53.9675 18.0492C53.4046 18.9302 53.8499 20.1046 54.8553 20.3909L54.0424 17.9319Z" fill="#202020"/>
<path d="M88.5455 20.6768L88.4441 20.8848L87.5699 18.4483L87.713 18.5062C88.5669 18.852 88.9492 19.8487 88.5455 20.6768Z" fill="#202020"/>
<path d="M82.9048 28.4613L54.9833 20.4344C54.3101 20.2409 54.0278 19.442 54.43 18.8685L58.966 12.4005C59.2114 12.0505 59.649 11.8907 60.0623 12.0001L87.8397 19.358C88.5007 19.5331 88.8056 20.2962 88.4473 20.8786L84.0553 28.0155C83.8154 28.4055 83.3449 28.5878 82.9048 28.4613Z" fill="#202020"/>
<path d="M76.4884 16.0429C76.5653 18.5728 74.5769 20.686 72.047 20.763C69.5171 20.84 67.4039 18.8515 67.3269 16.3216C67.2499 13.7918 69.2384 11.6785 71.7683 11.6015C74.2981 11.5246 76.4114 13.513 76.4884 16.0429Z" fill="#202020"/>
<path d="M82.5158 27.5127L54.5943 19.4858C53.9211 19.2923 53.6388 18.4934 54.041 17.9199L58.5769 11.4519C58.8224 11.1019 59.26 10.9421 59.6732 11.0515L87.4507 18.4094C88.1117 18.5845 88.4166 19.3476 88.0582 19.93L83.6663 27.0669C83.4263 27.4569 82.9559 27.6392 82.5158 27.5127Z" fill="#393838"/>
<path d="M76.0993 15.0943C76.1763 17.6242 74.1878 19.7374 71.658 19.8144C69.1281 19.8914 67.0148 17.9029 66.9379 15.373C66.8609 12.8431 68.8494 10.7299 71.3792 10.6529C73.9091 10.5759 76.0224 12.5644 76.0993 15.0943Z" fill="#393838"/>
<circle cx="72.1453" cy="13.0555" r="1.2" fill="#835DFE"/>
</g>
<defs>
<clipPath id="clip0_1_2831">
<rect width="120" height="120" fill="white"/>
</clipPath>
</defs>
</svg>
