<svg width="120" height="120" viewBox="0 0 120 120" fill="none" xmlns="http://www.w3.org/2000/svg">
<g clip-path="url(#clip0_1_2776)">
<circle cx="60" cy="60" r="60" fill="#835DFE"/>
<path d="M114.633 84.8392C118.08 77.2703 120 68.8594 120 60.0001C120 56.8371 119.755 53.7314 119.284 50.7007L117.856 51.1114C112.837 52.5554 109.38 57.1474 109.38 62.3701L105.622 63.3983C102.11 64.3589 99.6752 67.5496 99.6752 71.1901H99.1923C94.469 71.1901 90.085 73.644 87.6152 77.6701L114.633 84.8392Z" fill="white"/>
<path d="M5.44835 85.0168C2.11835 77.7673 0.190948 69.7398 0.0136719 61.282L1.44544 61.021C5.22899 60.3313 8.91792 62.627 9.97013 66.3262L10.0353 66.5551L11.4602 66.4771C14.6814 66.3008 17.4995 68.6243 17.9403 71.8201L20.2046 71.7048C22.771 71.5741 25.176 72.9584 26.3521 75.2432L27.8253 78.1051L5.44835 85.0168Z" fill="white"/>
<path d="M115.163 83.6399C105.987 105.022 84.7423 119.999 59.9998 119.999C35.2573 119.999 14.0128 105.022 4.83691 83.6399C20.3589 78.249 39.4103 75.0734 59.9998 75.0734C80.5893 75.0734 99.6407 78.249 115.163 83.6399Z" fill="#6A49D4"/>
<ellipse cx="59.9997" cy="108.09" rx="20.07" ry="3.54" fill="#3E2787"/>
<path d="M97.0292 60.3981C92.0592 86.2016 72.3177 104.093 53.2987 100.43C34.2796 96.7666 23.9728 76.1427 28.9428 50.3393C33.9127 24.5358 54.9752 7.26877 72.6615 9.89286C94.3147 13.1055 101.999 34.5947 97.0292 60.3981Z" fill="#F58C12"/>
<path d="M65.7654 8.57989L75.2658 10.4097L54.2119 100.606L46.3317 99.0879L65.7654 8.57989Z" fill="#F58C12"/>
<path d="M90.2538 59.0931C85.2838 84.8965 65.5423 102.788 46.5233 99.1248C27.5042 95.4615 17.1974 74.8377 22.1674 49.0342C27.1374 23.2308 48.1998 5.96371 65.8862 8.58781C87.5393 11.8005 95.2238 33.2896 90.2538 59.0931Z" fill="#FFB140"/>
<path d="M87.6969 58.5658C83.0837 82.5168 64.7557 99.1232 47.0975 95.7221C29.4394 92.321 19.8693 73.1771 24.4824 49.226C29.0956 25.2749 48.65 9.24823 65.0708 11.6847C85.1746 14.6677 92.3101 34.6147 87.6969 58.5658Z" fill="white"/>
<path d="M45.0529 95.2485C28.7091 90.8081 20.051 72.2353 24.4828 49.226C27.0248 36.0284 34.1032 25.2369 42.6943 18.6146L54.7113 52.5681L45.0529 95.2485Z" fill="#F58C12"/>
<path fill-rule="evenodd" clip-rule="evenodd" d="M61.4263 27.3879C61.6663 27.4522 61.8088 27.699 61.7444 27.939L55.7274 50.3857C55.6631 50.6257 55.4163 50.7682 55.1763 50.7038C54.9362 50.6395 54.7938 50.3927 54.8581 50.1527L60.8751 27.706C60.9395 27.4659 61.1862 27.3235 61.4263 27.3879Z" fill="black"/>
<path fill-rule="evenodd" clip-rule="evenodd" d="M55.2061 52.0429C55.3511 52.2448 55.305 52.526 55.1031 52.6709L47.1093 59.9947C46.9075 60.1397 46.6263 60.0936 46.4813 59.8918C46.3363 59.6899 46.3824 59.4087 46.5842 59.2637L54.5781 51.94C54.7799 51.795 55.0611 51.8411 55.2061 52.0429Z" fill="black"/>
<ellipse cx="54.6349" cy="52.4923" rx="2.235" ry="2.655" transform="rotate(10.9021 54.6349 52.4923)" fill="black"/>
<path fill-rule="evenodd" clip-rule="evenodd" d="M26.1366 50.7154C26.1836 50.4714 26.4195 50.3117 26.6636 50.3587L29.4916 50.9034C29.7356 50.9504 29.8954 51.1863 29.8483 51.4304C29.8013 51.6744 29.5654 51.8341 29.3214 51.7871L26.4933 51.2424C26.2493 51.1954 26.0896 50.9595 26.1366 50.7154Z" fill="black"/>
<path fill-rule="evenodd" clip-rule="evenodd" d="M80.1591 58.0591C80.1953 57.8132 80.4239 57.6432 80.6698 57.6794L83.5191 58.0987C83.765 58.1349 83.935 58.3636 83.8988 58.6094C83.8626 58.8553 83.634 59.0253 83.3881 58.9891L80.5388 58.5698C80.2929 58.5336 80.1229 58.305 80.1591 58.0591Z" fill="black"/>
<path fill-rule="evenodd" clip-rule="evenodd" d="M46.3367 87.9002C46.5795 87.9532 46.7334 88.193 46.6803 88.4358L46.0655 91.2495C46.0124 91.4923 45.7726 91.6461 45.5298 91.593C45.287 91.54 45.1332 91.3001 45.1862 91.0573L45.801 88.2437C45.8541 88.0009 46.0939 87.8471 46.3367 87.9002Z" fill="black"/>
<path fill-rule="evenodd" clip-rule="evenodd" d="M64.8446 13.6995C65.0874 13.7525 65.2412 13.9924 65.1881 14.2352L64.5733 17.0488C64.5203 17.2916 64.2804 17.4454 64.0376 17.3923C63.7948 17.3393 63.641 17.0994 63.6941 16.8566L64.3089 14.043C64.3619 13.8002 64.6018 13.6464 64.8446 13.6995Z" fill="black"/>
<path d="M39.4929 72.1118C39.6466 72.0003 39.5431 71.7634 39.3537 71.7751C38.634 71.8192 37.895 71.7485 37.1606 71.5493C33.5416 70.5675 31.404 66.8364 32.3862 63.2155C32.6861 62.1103 33.2419 61.1431 33.9725 60.3605C34.102 60.2217 33.9853 59.9914 33.8016 60.0392C31.5202 60.6327 29.6119 62.3995 28.9502 64.8385C27.968 68.4593 30.1056 72.1905 33.7246 73.1722C35.7879 73.7319 37.8872 73.2772 39.4929 72.1118Z" fill="white"/>
<ellipse cx="73.8795" cy="40.0524" rx="4.2" ry="5.28" transform="rotate(10.9021 73.8795 40.0524)" fill="#835DFE"/>
<path fill-rule="evenodd" clip-rule="evenodd" d="M80.6626 34.784C80.7733 34.9288 80.7456 35.1359 80.6008 35.2466L78.8453 36.5888C78.7005 36.6995 78.4934 36.6718 78.3827 36.5271C78.272 36.3823 78.2997 36.1752 78.4444 36.0645L80.2 34.7223C80.3448 34.6116 80.5519 34.6392 80.6626 34.784Z" fill="#835DFE"/>
<path fill-rule="evenodd" clip-rule="evenodd" d="M81.3779 41.9143C81.3411 42.0928 81.1666 42.2078 80.9881 42.171L78.8237 41.7254C78.6451 41.6887 78.5302 41.5142 78.567 41.3356C78.6037 41.1571 78.7782 41.0422 78.9567 41.079L81.1212 41.5246C81.2997 41.5613 81.4146 41.7358 81.3779 41.9143Z" fill="#835DFE"/>
<path fill-rule="evenodd" clip-rule="evenodd" d="M68.8614 39.1445C68.8126 39.3201 68.6307 39.4228 68.4551 39.374L66.326 38.7823C66.1504 38.7335 66.0476 38.5516 66.0964 38.376C66.1452 38.2004 66.3271 38.0976 66.5027 38.1464L68.6319 38.7381C68.8075 38.7869 68.9102 38.9689 68.8614 39.1445Z" fill="#835DFE"/>
<path fill-rule="evenodd" clip-rule="evenodd" d="M67.1593 45.8011C67.0436 45.6603 67.0639 45.4523 67.2048 45.3366L68.9122 43.9337C69.053 43.818 69.261 43.8384 69.3767 43.9792C69.4924 44.12 69.472 44.328 69.3312 44.4437L67.6238 45.8466C67.4829 45.9623 67.275 45.9419 67.1593 45.8011Z" fill="#835DFE"/>
<path fill-rule="evenodd" clip-rule="evenodd" d="M77.367 47.8591C77.5268 47.7713 77.5851 47.5707 77.4973 47.411L76.4331 45.4742C76.3454 45.3145 76.1447 45.2562 75.985 45.3439C75.8253 45.4317 75.7669 45.6323 75.8547 45.7921L76.9189 47.7288C77.0067 47.8885 77.2073 47.9469 77.367 47.8591Z" fill="#835DFE"/>
<path fill-rule="evenodd" clip-rule="evenodd" d="M71.5086 34.8156C71.6684 34.7279 71.7267 34.5272 71.6389 34.3675L70.5747 32.4308C70.487 32.2711 70.2863 32.2127 70.1266 32.3005C69.9669 32.3883 69.9085 32.5889 69.9963 32.7486L71.0605 34.6853C71.1483 34.8451 71.3489 34.9034 71.5086 34.8156Z" fill="#835DFE"/>
<path fill-rule="evenodd" clip-rule="evenodd" d="M75.2528 34.2704C75.4294 34.3153 75.609 34.2086 75.654 34.032L76.1993 31.8905C76.2443 31.7139 76.1376 31.5342 75.9609 31.4893C75.7843 31.4443 75.6047 31.551 75.5597 31.7276L75.0144 33.8691C74.9694 34.0458 75.0762 34.2254 75.2528 34.2704Z" fill="#835DFE"/>
<path fill-rule="evenodd" clip-rule="evenodd" d="M71.5001 49.1005C71.6789 49.1356 71.8524 49.0192 71.8875 48.8403L72.3136 46.6719C72.3487 46.4931 72.2322 46.3197 72.0534 46.2845C71.8746 46.2494 71.7011 46.3659 71.666 46.5447L71.2399 48.7131C71.2048 48.8919 71.3213 49.0654 71.5001 49.1005Z" fill="#835DFE"/>
</g>
<defs>
<clipPath id="clip0_1_2776">
<rect width="120" height="120" fill="white"/>
</clipPath>
</defs>
</svg>
