<svg width="72" height="72" viewBox="0 0 72 72" fill="none" xmlns="http://www.w3.org/2000/svg">
<rect width="72" height="72" fill="#1E1E1E"/>
<g id="Home" clip-path="url(#clip0_1_1180)">
<rect width="1440" height="5526" transform="translate(-320 -940)" fill="#F6F8FE"/>
<g id="Header">
<g id="Header Illustration" clip-path="url(#clip1_1_1180)">
<rect width="1440" height="1044" transform="translate(-320 -941.957)" fill="white"/>
<g id="background">
<g id="Floor">
<rect id="Vector" x="-320" y="-39.9573" width="1440" height="142" fill="#FFCC8C"/>
<path id="Vector_2" d="M90.6854 -27.4802L-221.85 135.186" stroke="#C46500"/>
<path id="Vector_3" d="M200.685 -27.4802L-111.85 135.186" stroke="#C46500"/>
<path id="Vector_4" d="M310.685 -27.4802L-1.8496 135.186" stroke="#C46500"/>
</g>
<g id="Side Wall">
</g>
</g>
</g>
</g>
<g id="3 Step" filter="url(#filter0_d_1_1180)">
<rect x="-200" y="-40" width="1200" height="282" rx="24" fill="white" shape-rendering="crispEdges"/>
<g id="Category1">
<g id="Located" clip-path="url(#clip2_1_1180)">
<circle id="Vector_5" cx="36" cy="36" r="36" fill="#1BB1F8"/>
<g id="Mask group">
<mask id="mask0_1_1180" style="mask-type:alpha" maskUnits="userSpaceOnUse" x="0" y="0" width="72" height="72">
<circle id="Vector_6" cx="36" cy="36" r="36" fill="#835DFE"/>
</mask>
<g mask="url(#mask0_1_1180)">
<path id="Vector_7" opacity="0.05" fill-rule="evenodd" clip-rule="evenodd" d="M3.0364 21.5068H6.76127V15.1708H6.63418C6.95426 14.7203 7.28445 14.2776 7.6244 13.8428V14.3068H13.9541V7.97078H13.4068C13.8677 7.59879 14.338 7.23795 14.8172 6.88864V7.10678H21.1469V3.19724C21.4326 3.06765 21.7204 2.94169 22.01 2.8194V7.10678H28.3397V0.816721C28.6261 0.754644 28.9139 0.695976 29.2028 0.640762V7.10678H35.5325V0.00297337C35.6881 0.000993114 35.8439 0 36 0C36.132 0 36.2639 0.000710921 36.3956 0.00212914V7.10678H42.7253V0.627106C43.0143 0.681707 43.302 0.739761 43.5884 0.801224V7.10678H49.9181V2.78914C50.2077 2.91068 50.4955 3.03589 50.7812 3.16472V7.10678H57.1109V6.83637C57.615 7.20191 58.1092 7.58021 58.5932 7.97078H57.974V14.3068H64.3037V13.7512C64.669 14.2153 65.0232 14.6886 65.3658 15.1708H65.1668V21.5068H68.9636C69.0896 21.7928 69.2119 22.0809 69.3306 22.3708H65.1668V28.7067H71.2608C71.3198 28.9935 71.3754 29.2815 71.4276 29.5707H65.1668V35.9067H71.9999C72 35.9378 72 35.9689 72 36C72 36.2576 71.9973 36.5145 71.9919 36.7707H65.1668V43.1067H71.2987C71.2408 43.396 71.1794 43.684 71.1146 43.9707H65.1668V50.3067H69.0451C68.9193 50.5967 68.7899 50.8848 68.6568 51.1707H65.1668V57.1065C64.8561 57.5351 64.5362 57.9566 64.2073 58.3707H57.974V64.5179C57.5043 64.8803 57.0255 65.2314 56.5378 65.5707H50.7812V68.8353C50.4955 68.9641 50.2077 69.0893 49.9181 69.2109V65.5707H43.5884V71.1988C43.302 71.2602 43.0143 71.3183 42.7253 71.3729V65.5707H36.3956V71.9979C36.2639 71.9993 36.132 72 36 72C35.8439 72 35.6881 71.999 35.5325 71.997V65.5707H29.2028V71.3592C28.9139 71.304 28.6261 71.2454 28.3397 71.1833V65.5707H22.01V69.1806C21.7204 69.0583 21.4326 68.9323 21.1469 68.8028V65.5707H15.4622C14.9496 65.2141 14.4468 64.8444 13.9541 64.4622V58.3707H7.7927C7.43841 57.9246 7.09448 57.4699 6.76127 57.0069V51.1707H3.34316C3.21008 50.8848 3.08065 50.5967 2.95493 50.3067H6.76127V43.9707H0.88544C0.820633 43.684 0.759248 43.396 0.701329 43.1067H6.76127V36.7707H0.00808715C0.00270467 36.5145 0 36.2576 0 36C0 35.9689 3.94226e-05 35.9378 0.000118221 35.9067H6.76127V29.5707H0.572449C0.624589 29.2815 0.680184 28.9935 0.73919 28.7067H6.76127V22.3708H2.66943C2.7881 22.0809 2.91044 21.7928 3.0364 21.5068ZM14.8172 14.3068V7.97078H21.1469V14.3068H14.8172ZM22.01 14.3068V7.97078H28.3397V14.3068H22.01ZM29.2028 14.3068V7.97078H35.5325V14.3068H29.2028ZM36.3956 14.3068V7.97078H42.7253V14.3068H36.3956ZM43.5884 14.3068V7.97078H49.9181V14.3068H43.5884ZM50.7812 14.3068V7.97078H57.1109V14.3068H50.7812ZM57.974 15.1708H64.3037V21.5068H57.974V15.1708ZM57.974 22.3708H64.3037V28.7067H57.974V22.3708ZM57.974 29.5707H64.3037V35.9067H57.974V29.5707ZM57.974 36.7707H64.3037V43.1067H57.974V36.7707ZM57.974 43.9707H64.3037V50.3067H57.974V43.9707ZM57.974 51.1707H64.3037V57.5067H57.974V51.1707ZM57.1109 58.3707V64.7067H50.7812V58.3707H57.1109ZM49.9181 58.3707V64.7067H43.5884V58.3707H49.9181ZM42.7253 58.3707V64.7067H36.3956V58.3707H42.7253ZM35.5325 58.3707V64.7067H29.2028V58.3707H35.5325ZM28.3397 58.3707V64.7067H22.01V58.3707H28.3397ZM21.1469 58.3707V64.7067H14.8172V58.3707H21.1469ZM13.9541 57.5067H7.6244V51.1707H13.9541V57.5067ZM13.9541 50.3067H7.6244V43.9707H13.9541V50.3067ZM13.9541 43.1067H7.6244V36.7707H13.9541V43.1067ZM13.9541 35.9067H7.6244V29.5707H13.9541V35.9067ZM13.9541 28.7067H7.6244V22.3708H13.9541V28.7067ZM13.9541 21.5068H7.6244V15.1708H13.9541V21.5068ZM14.8172 21.5068V15.1708H21.1469V21.5068H14.8172ZM22.01 21.5068V15.1708H28.3397V21.5068H22.01ZM29.2028 21.5068V15.1708H35.5325V21.5068H29.2028ZM36.3956 21.5068V15.1708H42.7253V21.5068H36.3956ZM43.5884 21.5068V15.1708H49.9181V21.5068H43.5884ZM50.7812 21.5068V15.1708H57.1109V21.5068H50.7812ZM50.7812 22.3708H57.1109V28.7067H50.7812V22.3708ZM50.7812 29.5707H57.1109V35.9067H50.7812V29.5707ZM50.7812 36.7707H57.1109V43.1067H50.7812V36.7707ZM50.7812 43.9707H57.1109V50.3067H50.7812V43.9707ZM50.7812 51.1707H57.1109V57.5067H50.7812V51.1707ZM49.9181 51.1707V57.5067H43.5884V51.1707H49.9181ZM42.7253 51.1707V57.5067H36.3956V51.1707H42.7253ZM35.5325 51.1707V57.5067H29.2028V51.1707H35.5325ZM28.3397 51.1707V57.5067H22.01V51.1707H28.3397ZM21.1469 51.1707V57.5067H14.8172V51.1707H21.1469ZM21.1469 50.3067H14.8172V43.9707H21.1469V50.3067ZM21.1469 43.1067H14.8172V36.7707H21.1469V43.1067ZM21.1469 35.9067H14.8172V29.5707H21.1469V35.9067ZM21.1469 28.7067H14.8172V22.3708H21.1469V28.7067ZM22.01 28.7067V22.3708H28.3397V28.7067H22.01ZM29.2028 28.7067V22.3708H35.5325V28.7067H29.2028ZM36.3956 28.7067V22.3708H42.7253V28.7067H36.3956ZM43.5884 28.7067V22.3708H49.9181V28.7067H43.5884ZM43.5884 29.5707H49.9181V35.9067H43.5884V29.5707ZM43.5884 36.7707H49.9181V43.1067H43.5884V36.7707ZM43.5884 43.9707H49.9181V50.3067H43.5884V43.9707ZM42.7253 43.9707V50.3067H36.3956V43.9707H42.7253ZM35.5325 43.9707V50.3067H29.2028V43.9707H35.5325ZM28.3397 43.9707V50.3067H22.01V43.9707H28.3397ZM28.3397 43.1067H22.01V36.7707H28.3397V43.1067ZM28.3397 35.9067H22.01V29.5707H28.3397V35.9067ZM29.2028 35.9067V29.5707H35.5325V35.9067H29.2028ZM36.3956 35.9067V29.5707H42.7253V35.9067H36.3956ZM36.3956 36.7707H42.7253V43.1067H36.3956V36.7707ZM35.5325 36.7707V43.1067H29.2028V36.7707H35.5325Z" fill="black"/>
<g id="Map">
<path id="Vector_8" d="M22.36 23.4479L1.32129 31.4117V77.6493L22.36 68.2591L63.962 89.8921L64.794 22.4969L44.7062 29.7476L22.36 23.4479Z" fill="#FFCC8C"/>
<path id="Vector_9" d="M12.6943 35.9247C11.1393 34.5919 4.91946 34.0273 2.00391 33.9116V60.1516L16.0958 40.784C15.6098 39.7196 14.2492 37.2576 12.6943 35.9247Z" fill="#6AB8FF"/>
<path id="Vector_10" d="M29.1478 45.1428C21.2169 40.1339 23.2592 29.8873 25.2718 25.3901L44.6518 30.1606L60.0813 25.3901C59.5098 27.9244 57.3532 35.3485 53.2983 44.7701C49.2434 54.1918 41.7199 56.1 38.4651 55.8764C37.6452 49.0188 39.0614 51.4041 29.1478 45.1428Z" fill="#4EC444"/>
<g id="Street">
<path id="Vector_11" fill-rule="evenodd" clip-rule="evenodd" d="M16.4664 40.846L3.53089 58.7824L2.58789 58.1023L15.5234 40.1659L16.4664 40.846Z" fill="white"/>
<path id="Vector_12" fill-rule="evenodd" clip-rule="evenodd" d="M1.83029 32.3817L10.8993 34.5282C12.4407 34.8931 13.7731 35.8573 14.6015 37.2074L23.0077 50.9081C24.0798 52.6554 25.9215 53.786 27.9649 53.9509L34.73 54.4972L56.2537 67.8276L55.6415 68.816L34.3565 55.6335L27.8713 55.1098C25.4581 54.915 23.2828 53.5798 22.0167 51.5162L13.6105 37.8154C12.9439 36.729 11.8718 35.9532 10.6315 35.6596L1.5625 33.5131L1.83029 32.3817Z" fill="white"/>
<path id="Vector_13" fill-rule="evenodd" clip-rule="evenodd" d="M61.8694 24.3187L61.4286 25.6891C59.8025 30.7442 55.7419 42.607 52.5604 49.4C50.776 53.2099 47.4806 55.3652 44.2194 56.4953C40.9731 57.6203 37.6199 57.7845 35.4207 57.512L33.9922 57.335L34.3462 54.4779L35.7747 54.6549C37.5698 54.8773 40.4768 54.7454 43.2767 53.7751C46.0618 52.81 48.5988 51.0708 49.9532 48.1789C53.0494 41.5683 57.0621 29.8616 58.6879 24.8075L59.1287 23.4371L61.8694 24.3187Z" fill="white"/>
<path id="Vector_14" fill-rule="evenodd" clip-rule="evenodd" d="M36.3735 55.7683L26.07 70.4774L24.4375 69.3339L34.741 54.6248L36.3735 55.7683Z" fill="white"/>
<path id="Vector_15" fill-rule="evenodd" clip-rule="evenodd" d="M13.2679 43.9801L14.5698 45.0506C15.2247 45.589 15.3104 46.56 14.7599 47.2048C14.2252 47.8312 13.2879 47.9158 12.6497 47.3951L11.6289 46.5624L11.9964 46.1119L13.0171 46.9447C13.4105 47.2656 13.9882 47.2135 14.3178 46.8274C14.6571 46.4299 14.6043 45.8315 14.2006 45.4996L12.8987 44.4291L13.2679 43.9801Z" fill="white"/>
<path id="Vector_16" fill-rule="evenodd" clip-rule="evenodd" d="M11.0675 47.2596C11.18 47.145 11.364 47.1432 11.4786 47.2557L15.2795 50.9843C15.394 51.0967 15.3958 51.2807 15.2834 51.3953C15.171 51.5099 14.9869 51.5117 14.8724 51.3993L11.0715 47.6706C10.9569 47.5582 10.9551 47.3742 11.0675 47.2596Z" fill="white"/>
<path id="Vector_17" fill-rule="evenodd" clip-rule="evenodd" d="M26.6317 25.2766L26.2222 26.1699C25.4325 27.893 24.4759 30.7851 24.1984 33.7906C23.9188 36.8185 24.3439 39.7667 26.079 41.8173C27.197 43.1385 28.4798 43.9359 29.8294 44.5467C30.5106 44.8549 31.2017 45.1127 31.9078 45.3714C31.9647 45.3923 32.0218 45.4132 32.0791 45.4341C32.7209 45.669 33.3806 45.9103 34.0105 46.1845C35.395 46.7871 36.7435 47.5917 37.7443 49.0269C38.7421 50.4575 39.3152 52.3993 39.3938 55.1305L39.4221 56.1128L37.4574 56.1694L37.4292 55.1871C37.3574 52.6928 36.8403 51.1665 36.1322 50.1512C35.4273 49.1404 34.4543 48.5212 33.2261 47.9866C32.6528 47.7371 32.0475 47.5155 31.3937 47.2762C31.34 47.2566 31.286 47.2368 31.2316 47.2169C30.5262 46.9584 29.7735 46.6787 29.0191 46.3373C27.4975 45.6487 25.9419 44.698 24.5787 43.0869C22.3439 40.4458 21.9419 36.8527 22.2413 33.6099C22.5427 30.3448 23.5711 27.2369 24.4355 25.351L24.845 24.4576L26.6317 25.2766Z" fill="white"/>
</g>
<path id="Vector_18" opacity="0.2" d="M44.5627 30.5516L21.9443 24.5787V72.2572H44.5627V30.5516Z" fill="#2B2025"/>
<path id="Vector_19" d="M0.198242 29.6544V53.7509L2.77302 58.7819L2.8007 31.9528L22.0362 24.9825L44.63 31.2952L63.2375 24.585V63.1719L66.0879 61.6487V20.9161L44.63 28.286L22.0362 22.3677L0.198242 29.6544Z" fill="white"/>
<path id="Vector_20" d="M21.9518 67.4591L17.2529 69.3999V73.1794H44.5266L21.9518 67.4591Z" fill="white"/>
</g>
<g id="Group">
<path id="Vector_21" fill-rule="evenodd" clip-rule="evenodd" d="M32.1289 13.5319C32.1289 8.74852 35.9594 4.87085 40.6846 4.87085C45.4098 4.87085 49.2403 8.74852 49.2403 13.5319C49.2403 15.2655 48.5241 16.6839 47.7822 18.153C47.6632 18.3887 47.5435 18.6257 47.426 18.8655L38.1557 37.9779C38.1206 38.0502 38.0418 38.0905 37.9627 38.0766L36.8543 37.8823L35.2003 28.0042L32.6415 17.2131C32.3367 15.9256 32.1289 14.7795 32.1289 13.5319ZM41.7286 17.9811C44.1722 17.9811 46.153 15.9891 46.153 13.5319C46.153 11.0747 44.1722 9.08267 41.7286 9.08267C39.2851 9.08267 37.3043 11.0747 37.3043 13.5319C37.3043 15.9891 39.2851 17.9811 41.7286 17.9811Z" fill="black"/>
<path id="Vector_22" fill-rule="evenodd" clip-rule="evenodd" d="M31.375 13.4346C31.375 8.80571 35.1027 5.05322 39.7009 5.05322C44.2992 5.05322 48.0269 8.80571 48.0269 13.4346C48.0269 15.1123 47.3299 16.4849 46.6079 17.9065C46.4921 18.1346 46.3756 18.364 46.2613 18.5961L36.8541 37.8824L31.8738 16.997C31.5773 15.751 31.375 14.642 31.375 13.4346ZM39.701 17.7402C42.0789 17.7402 44.0065 15.8125 44.0065 13.4346C44.0065 11.0567 42.0789 9.12906 39.701 9.12906C37.3231 9.12906 35.3954 11.0567 35.3954 13.4346C35.3954 15.8125 37.3231 17.7402 39.701 17.7402Z" fill="#252525"/>
<ellipse id="Vector_23" opacity="0.2" cx="36.967" cy="40.4351" rx="2.5824" ry="1.25161" transform="rotate(8.14194 36.967 40.4351)" fill="black"/>
</g>
</g>
</g>
</g>
</g>
</g>
</g>
<defs>
<filter id="filter0_d_1_1180" x="-220" y="-56" width="1256" height="338" filterUnits="userSpaceOnUse" color-interpolation-filters="sRGB">
<feFlood flood-opacity="0" result="BackgroundImageFix"/>
<feColorMatrix in="SourceAlpha" type="matrix" values="0 0 0 0 0 0 0 0 0 0 0 0 0 0 0 0 0 0 127 0" result="hardAlpha"/>
<feOffset dx="8" dy="12"/>
<feGaussianBlur stdDeviation="14"/>
<feComposite in2="hardAlpha" operator="out"/>
<feColorMatrix type="matrix" values="0 0 0 0 0 0 0 0 0 0 0 0 0 0 0 0 0 0 0.05 0"/>
<feBlend mode="normal" in2="BackgroundImageFix" result="effect1_dropShadow_1_1180"/>
<feBlend mode="normal" in="SourceGraphic" in2="effect1_dropShadow_1_1180" result="shape"/>
</filter>
<clipPath id="clip0_1_1180">
<rect width="1440" height="5526" fill="white" transform="translate(-320 -940)"/>
</clipPath>
<clipPath id="clip1_1_1180">
<rect width="1440" height="1044" fill="white" transform="translate(-320 -941.957)"/>
</clipPath>
<clipPath id="clip2_1_1180">
<rect width="72" height="72" fill="white"/>
</clipPath>
</defs>
</svg>
