<svg width="40" height="40" viewBox="0 0 40 40" fill="none" xmlns="http://www.w3.org/2000/svg">
<g clip-path="url(#clip0_1_1666)">
<circle cx="20" cy="20" r="20" fill="#835DFE"/>
<path opacity="0.05" fill-rule="evenodd" clip-rule="evenodd" d="M1.68689 11.9482H3.75626V8.42821H3.68566C3.86348 8.17796 4.04692 7.93198 4.23578 7.69045V7.94821H7.75226V4.42821H7.44823C7.70429 4.22155 7.96555 4.02108 8.23178 3.82702V3.94821H11.7483V1.77624C11.907 1.70425 12.0669 1.63427 12.2278 1.56634V3.94821H15.7443V0.453734C15.9034 0.419246 16.0633 0.386653 16.2238 0.355979V3.94821H19.7403V0.00165187C19.8267 0.00055173 19.9133 0 20 0C20.0734 0 20.1466 0.000394956 20.2198 0.00118286V3.94821H23.7363V0.348392C23.8968 0.378726 24.0567 0.410978 24.2158 0.445124V3.94821H27.7323V1.54952C27.8932 1.61704 28.053 1.68661 28.2118 1.75818V3.94821H31.7283V3.79798C32.0083 4.00106 32.2829 4.21123 32.5518 4.42821H32.2078V7.94821H35.7243V7.63954C35.9272 7.89739 36.124 8.16035 36.3143 8.42821H36.2038V11.9482H38.3131C38.3831 12.1071 38.4511 12.2671 38.517 12.4282H36.2038V15.9482H39.5893C39.6221 16.1075 39.653 16.2675 39.682 16.4282H36.2038V19.9482H39.9999C40 19.9655 40 19.9827 40 20C40 20.1431 39.9985 20.2858 39.9955 20.4282H36.2038V23.9482H39.6104C39.5782 24.1089 39.5441 24.2689 39.5081 24.4282H36.2038V27.9482H38.3584C38.2885 28.1093 38.2166 28.2693 38.1427 28.4282H36.2038V31.7258C36.0312 31.9639 35.8534 32.1981 35.6707 32.4282H32.2078V35.8433C31.9469 36.0446 31.6808 36.2397 31.4099 36.4282H28.2118V38.2418C28.053 38.3134 27.8932 38.383 27.7323 38.4505V36.4282H24.2158V39.5549C24.0567 39.589 23.8968 39.6213 23.7363 39.6516V36.4282H20.2198V39.9988C20.1466 39.9996 20.0734 40 20 40C19.9133 40 19.8267 39.9994 19.7403 39.9983V36.4282H16.2238V39.644C16.0633 39.6133 15.9034 39.5808 15.7443 39.5463V36.4282H12.2278V38.4337C12.0669 38.3657 11.907 38.2957 11.7483 38.2238V36.4282H8.59011C8.30535 36.23 8.02597 36.0247 7.75226 35.8124V32.4282H4.32928C4.13245 32.1803 3.94138 31.9277 3.75626 31.6705V28.4282H1.85731C1.78338 28.2693 1.71147 28.1093 1.64163 27.9482H3.75626V24.4282H0.491911C0.455907 24.2689 0.421804 24.1089 0.389627 23.9482H3.75626V20.4282H0.00449286C0.00150259 20.2858 0 20.1431 0 20C0 19.9827 2.19014e-05 19.9655 6.56781e-05 19.9482H3.75626V16.4282H0.318027C0.346994 16.2675 0.37788 16.1075 0.410661 15.9482H3.75626V12.4282H1.48302C1.54894 12.2671 1.61691 12.1071 1.68689 11.9482ZM8.23178 7.94821V4.42821H11.7483V7.94821H8.23178ZM12.2278 7.94821V4.42821H15.7443V7.94821H12.2278ZM16.2238 7.94821V4.42821H19.7403V7.94821H16.2238ZM20.2198 7.94821V4.42821H23.7363V7.94821H20.2198ZM24.2158 7.94821V4.42821H27.7323V7.94821H24.2158ZM28.2118 7.94821V4.42821H31.7283V7.94821H28.2118ZM32.2078 8.42821H35.7243V11.9482H32.2078V8.42821ZM32.2078 12.4282H35.7243V15.9482H32.2078V12.4282ZM32.2078 16.4282H35.7243V19.9482H32.2078V16.4282ZM32.2078 20.4282H35.7243V23.9482H32.2078V20.4282ZM32.2078 24.4282H35.7243V27.9482H32.2078V24.4282ZM32.2078 28.4282H35.7243V31.9482H32.2078V28.4282ZM31.7283 32.4282V35.9482H28.2118V32.4282H31.7283ZM27.7323 32.4282V35.9482H24.2158V32.4282H27.7323ZM23.7363 32.4282V35.9482H20.2198V32.4282H23.7363ZM19.7403 32.4282V35.9482H16.2238V32.4282H19.7403ZM15.7443 32.4282V35.9482H12.2278V32.4282H15.7443ZM11.7483 32.4282V35.9482H8.23178V32.4282H11.7483ZM7.75226 31.9482H4.23578V28.4282H7.75226V31.9482ZM7.75226 27.9482H4.23578V24.4282H7.75226V27.9482ZM7.75226 23.9482H4.23578V20.4282H7.75226V23.9482ZM7.75226 19.9482H4.23578V16.4282H7.75226V19.9482ZM7.75226 15.9482H4.23578V12.4282H7.75226V15.9482ZM7.75226 11.9482H4.23578V8.42821H7.75226V11.9482ZM8.23178 11.9482V8.42821H11.7483V11.9482H8.23178ZM12.2278 11.9482V8.42821H15.7443V11.9482H12.2278ZM16.2238 11.9482V8.42821H19.7403V11.9482H16.2238ZM20.2198 11.9482V8.42821H23.7363V11.9482H20.2198ZM24.2158 11.9482V8.42821H27.7323V11.9482H24.2158ZM28.2118 11.9482V8.42821H31.7283V11.9482H28.2118ZM28.2118 12.4282H31.7283V15.9482H28.2118V12.4282ZM28.2118 16.4282H31.7283V19.9482H28.2118V16.4282ZM28.2118 20.4282H31.7283V23.9482H28.2118V20.4282ZM28.2118 24.4282H31.7283V27.9482H28.2118V24.4282ZM28.2118 28.4282H31.7283V31.9482H28.2118V28.4282ZM27.7323 28.4282V31.9482H24.2158V28.4282H27.7323ZM23.7363 28.4282V31.9482H20.2198V28.4282H23.7363ZM19.7403 28.4282V31.9482H16.2238V28.4282H19.7403ZM15.7443 28.4282V31.9482H12.2278V28.4282H15.7443ZM11.7483 28.4282V31.9482H8.23178V28.4282H11.7483ZM11.7483 27.9482H8.23178V24.4282H11.7483V27.9482ZM11.7483 23.9482H8.23178V20.4282H11.7483V23.9482ZM11.7483 19.9482H8.23178V16.4282H11.7483V19.9482ZM11.7483 15.9482H8.23178V12.4282H11.7483V15.9482ZM12.2278 15.9482V12.4282H15.7443V15.9482H12.2278ZM16.2238 15.9482V12.4282H19.7403V15.9482H16.2238ZM20.2198 15.9482V12.4282H23.7363V15.9482H20.2198ZM24.2158 15.9482V12.4282H27.7323V15.9482H24.2158ZM24.2158 16.4282H27.7323V19.9482H24.2158V16.4282ZM24.2158 20.4282H27.7323V23.9482H24.2158V20.4282ZM24.2158 24.4282H27.7323V27.9482H24.2158V24.4282ZM23.7363 24.4282V27.9482H20.2198V24.4282H23.7363ZM19.7403 24.4282V27.9482H16.2238V24.4282H19.7403ZM15.7443 24.4282V27.9482H12.2278V24.4282H15.7443ZM15.7443 23.9482H12.2278V20.4282H15.7443V23.9482ZM15.7443 19.9482H12.2278V16.4282H15.7443V19.9482ZM16.2238 19.9482V16.4282H19.7403V19.9482H16.2238ZM20.2198 19.9482V16.4282H23.7363V19.9482H20.2198ZM20.2198 20.4282H23.7363V23.9482H20.2198V20.4282ZM19.7403 20.4282V23.9482H16.2238V20.4282H19.7403Z" fill="black"/>
<path d="M19.9995 40.0002C31.0452 40.0002 39.9995 31.0458 39.9995 20.0002C39.9995 14.3691 37.6723 9.28161 33.9273 5.64691L16.2195 5.69538L7.43945 10.9436L7.43945 35.5653C10.8726 38.3391 15.242 40.0002 19.9995 40.0002Z" fill="#FFB140"/>
<path d="M33.9272 5.64685C35.4994 7.17268 36.8217 8.95454 37.8268 10.9252H7.43945L16.2195 5.69515L33.9272 5.64685Z" fill="#F58C12"/>
<path d="M9.40918 36.9694L9.40918 12.5501C9.40918 12.4948 9.45395 12.4501 9.50918 12.4501H37.6092C37.6644 12.4501 37.7092 12.4948 37.7092 12.5501V29.3016C37.6729 29.3705 37.6362 29.4392 37.5992 29.5076V12.5601H9.51918V37.0377C9.48243 37.0151 9.44577 36.9923 9.40918 36.9694Z" fill="black"/>
<path d="M31.2784 17.0551H14.7563C14.6709 17.0551 14.6248 16.9549 14.6804 16.89L14.9843 16.5351L16.0091 15.3448C16.0281 15.3227 16.0558 15.3101 16.0849 15.3101H29.9237C29.9525 15.3101 29.9799 15.3225 29.9989 15.3441L31.0431 16.5351L31.3536 16.8891C31.4103 16.9538 31.3644 17.0551 31.2784 17.0551Z" fill="#FFD69A"/>
<path d="M31.2784 17H14.7563C14.7179 17 14.6972 16.955 14.7221 16.9258L14.9961 16.6058C15.0047 16.5958 15.0172 16.59 15.0303 16.59H30.9978C31.0108 16.59 31.0231 16.5956 31.0317 16.6054L31.3122 16.9254C31.3377 16.9545 31.3171 17 31.2784 17Z" stroke="black" stroke-width="0.11"/>
<path d="M14.7563 17.055H31.2784C31.3644 17.055 31.4103 16.9537 31.3536 16.8891L31.073 16.5691C31.054 16.5475 31.0266 16.535 30.9978 16.535H15.0303C15.0011 16.535 14.9734 16.5478 14.9544 16.57L14.6804 16.89C14.6248 16.9549 14.6709 17.055 14.7563 17.055Z" fill="black"/>
<path d="M31.2784 19.3951H14.7563C14.6709 19.3951 14.6248 19.2949 14.6804 19.23L14.9843 18.8751L16.0091 17.6848C16.0281 17.6628 16.0558 17.6501 16.0849 17.6501H29.9237C29.9525 17.6501 29.9799 17.6625 29.9989 17.6842L31.0431 18.8751L31.3536 19.2292C31.4103 19.2938 31.3644 19.3951 31.2784 19.3951Z" fill="#FFD69A"/>
<path d="M14.7563 19.3951H31.2784C31.3644 19.3951 31.4103 19.2938 31.3536 19.2291L31.073 18.9091C31.054 18.8875 31.0266 18.8751 30.9978 18.8751H15.0303C15.0011 18.8751 14.9734 18.8878 14.9544 18.91L14.6804 19.23C14.6248 19.2949 14.6709 19.3951 14.7563 19.3951Z" fill="black"/>
<path d="M31.2784 21.7351H14.7563C14.6709 21.7351 14.6248 21.6349 14.6804 21.57L14.9843 21.2151L16.0091 20.0248C16.0281 20.0027 16.0558 19.9901 16.0849 19.9901H29.9237C29.9525 19.9901 29.9799 20.0025 29.9989 20.0241L31.0431 21.2151L31.3536 21.5691C31.4103 21.6338 31.3644 21.7351 31.2784 21.7351Z" fill="#FFD69A"/>
<path d="M14.7563 21.7351H31.2784C31.3644 21.7351 31.4103 21.6338 31.3536 21.5692L31.073 21.2492C31.054 21.2275 31.0266 21.2151 30.9978 21.2151H15.0303C15.0011 21.2151 14.9734 21.2279 14.9544 21.25L14.6804 21.57C14.6248 21.6349 14.6709 21.7351 14.7563 21.7351Z" fill="black"/>
<rect x="36.8799" y="16.0601" width="1.51" height="3.57" rx="0.1" fill="black"/>
<path fill-rule="evenodd" clip-rule="evenodd" d="M38.3126 28.0526C37.902 28.9851 37.4223 29.8803 36.8799 30.7316V28.15C36.8799 28.0948 36.9247 28.05 36.9799 28.05H38.2899C38.2977 28.05 38.3053 28.0509 38.3126 28.0526Z" fill="black"/>
<circle cx="12.8483" cy="29.2491" r="1.47912" fill="#393838"/>
<path d="M12.8826 28.436C12.7009 28.436 12.5497 28.591 12.5497 28.7727C12.5497 28.8459 12.5812 28.945 12.6216 28.9997L12.3379 30.074H13.3517L13.0831 28.9997C13.1739 28.9429 13.2265 28.8257 13.2231 28.7425C13.2155 28.5571 13.0644 28.436 12.8826 28.436Z" fill="#BFBFBF"/>
<path d="M12.9167 28.4434C12.7475 28.4434 12.6103 28.5789 12.6103 28.746C12.6103 28.8521 12.6656 28.9454 12.7492 28.9994L12.5195 30.0738H13.3518L13.0842 28.9994C13.1679 28.9454 13.2232 28.8521 13.2232 28.746C13.2232 28.5789 13.086 28.4434 12.9167 28.4434Z" fill="white"/>
</g>
<defs>
<clipPath id="clip0_1_1666">
<rect width="40" height="40" fill="white"/>
</clipPath>
</defs>
</svg>
