<svg width="56" height="56" viewBox="0 0 56 56" fill="none" xmlns="http://www.w3.org/2000/svg">
<g clip-path="url(#clip0_1_3139)">
<circle cx="28" cy="28" r="28" fill="#835DFE"/>
<path opacity="0.05" fill-rule="evenodd" clip-rule="evenodd" d="M2.36165 16.7275H5.25876V11.7995H5.15992C5.40887 11.4491 5.66568 11.1048 5.93009 10.7666V11.1275H10.8532V6.19949H10.4275C10.786 5.91017 11.1518 5.62951 11.5245 5.35783V5.52749H16.4476V2.48674C16.6698 2.38595 16.8936 2.28798 17.1189 2.19287V5.52749H22.042V0.635227C22.2648 0.586945 22.4886 0.541315 22.7133 0.498371V5.52749H27.6364V0.00231262C27.7574 0.000772422 27.8786 0 28 0C28.1027 0 28.2053 0.000552939 28.3077 0.001656V5.52749H33.2308V0.487749C33.4555 0.530217 33.6793 0.57537 33.9021 0.623174V5.52749H38.8252V2.16933C39.0505 2.26386 39.2743 2.36125 39.4965 2.46145V5.52749H44.4196V5.31718C44.8117 5.60149 45.1961 5.89572 45.5725 6.19949H45.0909V11.1275H50.014V10.6954C50.2981 11.0563 50.5736 11.4245 50.8401 11.7995H50.6853V16.7275H53.6384C53.7363 16.95 53.8315 17.174 53.9238 17.3995H50.6853V22.3275H55.4251C55.471 22.5505 55.5142 22.7745 55.5548 22.9995H50.6853V27.9275H55.9999C56 27.9516 56 27.9758 56 28C56 28.2003 55.9979 28.4002 55.9937 28.5995H50.6853V33.5275H55.4545C55.4095 33.7525 55.3617 33.9765 55.3113 34.1995H50.6853V39.1275H53.7017C53.6039 39.353 53.5033 39.577 53.3998 39.7995H50.6853V44.4161C50.4436 44.7495 50.1948 45.0774 49.939 45.3995H45.0909V50.1806C44.7256 50.4625 44.3531 50.7355 43.9738 50.9995H39.4965V53.5385C39.2743 53.6388 39.0505 53.7361 38.8252 53.8307V50.9995H33.9021V55.3768C33.6793 55.4246 33.4555 55.4698 33.2308 55.5123V50.9995H28.3077V55.9983C28.2053 55.9995 28.1027 56 28 56C27.8786 56 27.7574 55.9992 27.6364 55.9977V50.9995H22.7133V55.5016C22.4886 55.4587 22.2648 55.4131 22.042 55.3648V50.9995H17.1189V53.8071C16.8936 53.712 16.6698 53.6141 16.4476 53.5133V50.9995H12.0262C11.6275 50.7221 11.2364 50.4345 10.8532 50.1373V45.3995H6.06099C5.78543 45.0525 5.51793 44.6988 5.25876 44.3387V39.7995H2.60024C2.49673 39.577 2.39606 39.353 2.29828 39.1275H5.25876V34.1995H0.688675C0.63827 33.9765 0.590526 33.7525 0.545478 33.5275H5.25876V28.5995H0.00629001C0.00210363 28.4002 0 28.2003 0 28C0 27.9758 3.0662e-05 27.9516 9.19493e-05 27.9275H5.25876V22.9995H0.445238C0.485792 22.7745 0.529032 22.5505 0.574925 22.3275H5.25876V17.3995H2.07622C2.16852 17.174 2.26368 16.95 2.36165 16.7275ZM11.5245 11.1275V6.19949H16.4476V11.1275H11.5245ZM17.1189 11.1275V6.19949H22.042V11.1275H17.1189ZM22.7133 11.1275V6.19949H27.6364V11.1275H22.7133ZM28.3077 11.1275V6.19949H33.2308V11.1275H28.3077ZM33.9021 11.1275V6.19949H38.8252V11.1275H33.9021ZM39.4965 11.1275V6.19949H44.4196V11.1275H39.4965ZM45.0909 11.7995H50.014V16.7275H45.0909V11.7995ZM45.0909 17.3995H50.014V22.3275H45.0909V17.3995ZM45.0909 22.9995H50.014V27.9275H45.0909V22.9995ZM45.0909 28.5995H50.014V33.5275H45.0909V28.5995ZM45.0909 34.1995H50.014V39.1275H45.0909V34.1995ZM45.0909 39.7995H50.014V44.7275H45.0909V39.7995ZM44.4196 45.3995V50.3275H39.4965V45.3995H44.4196ZM38.8252 45.3995V50.3275H33.9021V45.3995H38.8252ZM33.2308 45.3995V50.3275H28.3077V45.3995H33.2308ZM27.6364 45.3995V50.3275H22.7133V45.3995H27.6364ZM22.042 45.3995V50.3275H17.1189V45.3995H22.042ZM16.4476 45.3995V50.3275H11.5245V45.3995H16.4476ZM10.8532 44.7275H5.93009V39.7995H10.8532V44.7275ZM10.8532 39.1275H5.93009V34.1995H10.8532V39.1275ZM10.8532 33.5275H5.93009V28.5995H10.8532V33.5275ZM10.8532 27.9275H5.93009V22.9995H10.8532V27.9275ZM10.8532 22.3275H5.93009V17.3995H10.8532V22.3275ZM10.8532 16.7275H5.93009V11.7995H10.8532V16.7275ZM11.5245 16.7275V11.7995H16.4476V16.7275H11.5245ZM17.1189 16.7275V11.7995H22.042V16.7275H17.1189ZM22.7133 16.7275V11.7995H27.6364V16.7275H22.7133ZM28.3077 16.7275V11.7995H33.2308V16.7275H28.3077ZM33.9021 16.7275V11.7995H38.8252V16.7275H33.9021ZM39.4965 16.7275V11.7995H44.4196V16.7275H39.4965ZM39.4965 17.3995H44.4196V22.3275H39.4965V17.3995ZM39.4965 22.9995H44.4196V27.9275H39.4965V22.9995ZM39.4965 28.5995H44.4196V33.5275H39.4965V28.5995ZM39.4965 34.1995H44.4196V39.1275H39.4965V34.1995ZM39.4965 39.7995H44.4196V44.7275H39.4965V39.7995ZM38.8252 39.7995V44.7275H33.9021V39.7995H38.8252ZM33.2308 39.7995V44.7275H28.3077V39.7995H33.2308ZM27.6364 39.7995V44.7275H22.7133V39.7995H27.6364ZM22.042 39.7995V44.7275H17.1189V39.7995H22.042ZM16.4476 39.7995V44.7275H11.5245V39.7995H16.4476ZM16.4476 39.1275H11.5245V34.1995H16.4476V39.1275ZM16.4476 33.5275H11.5245V28.5995H16.4476V33.5275ZM16.4476 27.9275H11.5245V22.9995H16.4476V27.9275ZM16.4476 22.3275H11.5245V17.3995H16.4476V22.3275ZM17.1189 22.3275V17.3995H22.042V22.3275H17.1189ZM22.7133 22.3275V17.3995H27.6364V22.3275H22.7133ZM28.3077 22.3275V17.3995H33.2308V22.3275H28.3077ZM33.9021 22.3275V17.3995H38.8252V22.3275H33.9021ZM33.9021 22.9995H38.8252V27.9275H33.9021V22.9995ZM33.9021 28.5995H38.8252V33.5275H33.9021V28.5995ZM33.9021 34.1995H38.8252V39.1275H33.9021V34.1995ZM33.2308 34.1995V39.1275H28.3077V34.1995H33.2308ZM27.6364 34.1995V39.1275H22.7133V34.1995H27.6364ZM22.042 34.1995V39.1275H17.1189V34.1995H22.042ZM22.042 33.5275H17.1189V28.5995H22.042V33.5275ZM22.042 27.9275H17.1189V22.9995H22.042V27.9275ZM22.7133 27.9275V22.9995H27.6364V27.9275H22.7133ZM28.3077 27.9275V22.9995H33.2308V27.9275H28.3077ZM28.3077 28.5995H33.2308V33.5275H28.3077V28.5995ZM27.6364 28.5995V33.5275H22.7133V28.5995H27.6364Z" fill="black"/>
<path d="M27.5392 55.8897C27.5228 55.9522 27.4659 55.9954 27.4013 55.9941C26.5355 55.9759 25.6794 55.9184 24.8347 55.8233C24.7641 55.8154 24.7109 55.7556 24.7109 55.6846V46.6344C24.7109 46.5571 24.7736 46.4944 24.8509 46.4944H29.8146C29.9063 46.4944 29.9733 46.5811 29.9501 46.6698L27.5392 55.8897Z" fill="black"/>
<path d="M54.973 34.8673C55.0642 34.8673 55.131 34.9531 55.1082 35.0414C54.6123 36.9559 53.919 38.7909 53.0512 40.5233C53.0275 40.5706 52.9792 40.6003 52.9263 40.6003H21.7941C21.7309 40.6003 21.6755 40.5579 21.659 40.4968L20.1875 35.0438C20.1635 34.9548 20.2305 34.8673 20.3227 34.8673L54.973 34.8673Z" fill="#FFB140"/>
<path d="M55.0442 34.8674C55.1083 34.8674 55.1643 34.8238 55.1797 34.7616C55.7166 32.5963 56.0015 30.3316 56.0015 28.0004C56.0015 21.5251 53.8035 15.5632 50.1129 10.8202C50.0865 10.7862 50.0458 10.7664 50.0027 10.7664H13.8783C12.7638 10.7664 11.9582 11.8317 12.2618 12.9041L16.8287 29.0325C16.8457 29.0928 16.9008 29.1344 16.9634 29.1344H17.7357C18.2419 29.1344 18.6851 29.4739 18.817 29.9626L20.1126 34.7638C20.1291 34.8249 20.1845 34.8674 20.2478 34.8674H55.0442Z" fill="#F58C12"/>
<path d="M29.0601 18.5419L20.3594 17.0647C19.5909 16.9343 18.9241 17.6024 19.0561 18.3706L19.872 23.1186C20.2189 25.1374 20.2732 27.1956 20.0334 29.2299L19.024 37.7925C18.9499 38.4215 19.5538 38.9148 20.1554 38.7167C22.2666 38.0212 24.4884 37.7225 26.7084 37.8358L37.5865 38.3908C38.2642 38.4254 38.8193 37.8594 38.7718 37.1826L38.353 31.2274C38.2188 29.318 38.5205 27.4031 39.2354 25.6275L41.5347 19.9169C41.8405 19.1575 41.2628 18.3351 40.4447 18.365L31.4047 18.6964C30.62 18.7251 29.8343 18.6734 29.0601 18.5419Z" fill="white"/>
<path d="M20.8487 38.5038C21.1579 37.7378 21.449 36.6963 21.7216 35.4908C22.1048 33.7963 22.459 31.7419 22.7734 29.5925C23.3959 25.3367 23.8647 20.6932 24.0952 17.6987L23.5822 17.6116C23.3538 20.5947 22.8845 25.2529 22.2607 29.5175C21.9473 31.6605 21.5954 33.7003 21.2162 35.3765C20.8865 36.8346 20.5415 37.9913 20.1948 38.7039C20.4117 38.633 20.6297 38.5663 20.8487 38.5038Z" fill="#5032B0"/>
<path d="M25.0166 37.8289C25.6008 35.7389 26.2075 32.4341 26.744 29.0147C27.354 25.1263 27.8776 21.0596 28.1766 18.3917L27.6649 18.3048C27.3673 20.965 26.8432 25.0396 26.2321 28.9344C25.6774 32.4702 25.0546 35.8331 24.4692 37.8608C24.6515 37.8474 24.834 37.8368 25.0166 37.8289Z" fill="#5032B0"/>
<path d="M32.6116 18.652C32.1061 21.943 31.317 26.8635 30.5679 31.0889C30.1886 33.2284 29.82 35.1874 29.5039 36.6657C29.3991 37.156 29.3004 37.592 29.2092 37.9633L29.7359 37.9901C29.8222 37.6336 29.9141 37.2252 30.0106 36.7741C30.3286 35.2868 30.6984 33.3208 31.0781 31.1793C31.8356 26.9065 32.6336 21.9258 33.1388 18.6327L32.6116 18.652Z" fill="#5032B0"/>
<path d="M37.1309 18.4863C36.526 23.2865 35.0942 32.8596 33.5327 38.1838L34.0644 38.2109C35.6361 32.7816 37.0619 23.1982 37.6555 18.467L37.1309 18.4863Z" fill="#5032B0"/>
<path d="M40.6088 22.2177C34.776 21.9159 24.1295 19.8282 19.1187 18.7311L19.2133 19.2821C24.2504 20.3785 34.5664 22.3933 40.4044 22.7255L40.6088 22.2177Z" fill="#5032B0"/>
<path d="M39.2915 25.4902C34.1036 25.2066 24.635 23.4684 19.7622 22.4746L19.8563 23.0225C24.7275 24.0108 33.8964 25.6879 39.0939 25.9978C39.1394 25.8737 39.1868 25.7502 39.2363 25.6273L39.2915 25.4902Z" fill="#5032B0"/>
<path d="M38.3376 29.7317C33.4904 29.4217 24.789 27.8571 20.1801 26.9397C20.1784 27.115 20.1745 27.2904 20.1685 27.4656C24.797 28.3848 33.4608 29.9407 38.3232 30.2498C38.3245 30.0769 38.3293 29.9042 38.3376 29.7317Z" fill="#5032B0"/>
<path d="M38.5175 33.5574C37.6691 33.6375 36.515 33.6275 35.167 33.5505C33.5557 33.4583 31.6861 33.2716 29.7668 33.0375C26.1225 32.5931 22.309 31.9792 19.7636 31.5233L19.7029 32.0388C22.2555 32.4954 26.0628 33.1077 29.7041 33.5518C31.6293 33.7866 33.5109 33.9747 35.1375 34.0677C36.4799 34.1445 37.6615 34.1573 38.5538 34.0744L38.5175 33.5574Z" fill="#5032B0"/>
<path d="M19.8946 16.7558C20.1091 16.9603 19.9861 17.4373 19.62 17.8212C19.2539 18.205 18.7833 18.3505 18.5689 18.146C18.3545 17.9415 18.4774 17.4646 18.8435 17.0807C19.2096 16.6968 19.6802 16.5514 19.8946 16.7558Z" fill="white"/>
<path fill-rule="evenodd" clip-rule="evenodd" d="M16.5288 16.8794C16.52 16.8019 16.5757 16.7319 16.6533 16.723C17.942 16.5765 18.5909 17.0175 18.7616 17.3236C18.7996 17.3918 18.7751 17.4778 18.707 17.5158C18.6388 17.5538 18.5527 17.5294 18.5147 17.4612C18.4222 17.2953 17.9153 16.8639 16.6852 17.0038C16.6077 17.0127 16.5376 16.9569 16.5288 16.8794Z" fill="white"/>
<path fill-rule="evenodd" clip-rule="evenodd" d="M16.9426 16.1044C16.9717 16.032 17.054 15.9968 17.1264 16.0259C17.8636 16.3216 18.3034 16.5713 18.5532 16.7688C18.6776 16.8671 18.7621 16.9581 18.8107 17.0419C18.857 17.1218 18.886 17.2249 18.8362 17.3184C18.7996 17.3873 18.714 17.4135 18.6451 17.3768C18.5831 17.3438 18.5557 17.2712 18.5776 17.2068C18.5758 17.2018 18.5724 17.1942 18.5662 17.1836C18.5424 17.1426 18.488 17.0774 18.378 16.9905C18.1589 16.8173 17.7478 16.5796 17.0212 16.2882C16.9488 16.2591 16.9136 16.1769 16.9426 16.1044ZM18.5796 17.2141C18.5796 17.2141 18.5794 17.2134 18.5794 17.2123C18.5797 17.2135 18.5797 17.2141 18.5796 17.2141Z" fill="white"/>
<path fill-rule="evenodd" clip-rule="evenodd" d="M16.9781 15.5565C17.0149 15.4878 17.1006 15.4619 17.1694 15.4988C17.9695 15.9279 18.4422 16.2703 18.7074 16.5291C18.8397 16.6582 18.9259 16.7718 18.9735 16.8704C19.0183 16.9634 19.0424 17.0735 18.9915 17.1678C18.9544 17.2364 18.8687 17.262 18.8 17.225C18.7353 17.19 18.7088 17.1118 18.7371 17.0454C18.7364 17.0389 18.7331 17.0226 18.719 16.9932C18.691 16.9352 18.6295 16.8479 18.5101 16.7314C18.2719 16.4989 17.8252 16.1712 17.0358 15.7479C16.967 15.711 16.9412 15.6253 16.9781 15.5565Z" fill="white"/>
<path fill-rule="evenodd" clip-rule="evenodd" d="M17.8858 15.4022C17.935 15.3417 18.024 15.3325 18.0846 15.3818C18.706 15.8872 19.0516 16.6104 19.1496 16.9163C19.1734 16.9907 19.1325 17.0702 19.0582 17.094C18.9838 17.1178 18.9043 17.0769 18.8805 17.0025C18.794 16.7327 18.4736 16.0625 17.9062 15.601C17.8457 15.5517 17.8365 15.4627 17.8858 15.4022Z" fill="white"/>
<path fill-rule="evenodd" clip-rule="evenodd" d="M18.4388 14.8267C18.5045 14.7847 18.5919 14.8038 18.634 14.8695C19.0585 15.5325 19.2342 16.4574 19.2705 16.8371C19.2779 16.9148 19.2209 16.9838 19.1433 16.9912C19.0656 16.9986 18.9966 16.9416 18.9892 16.864C18.9548 16.5036 18.7856 15.6303 18.396 15.0219C18.3539 14.9562 18.373 14.8688 18.4388 14.8267Z" fill="white"/>
<path fill-rule="evenodd" clip-rule="evenodd" d="M19.3345 15.0726C19.4101 15.0533 19.4871 15.0989 19.5063 15.1746C19.6775 15.846 19.5001 16.5483 19.389 16.8211C19.3596 16.8934 19.2771 16.9281 19.2048 16.8987C19.1326 16.8693 19.0978 16.7868 19.1273 16.7145C19.2247 16.4753 19.3837 15.8375 19.2325 15.2444C19.2132 15.1688 19.2589 15.0918 19.3345 15.0726Z" fill="white"/>
<path fill-rule="evenodd" clip-rule="evenodd" d="M20.5285 15.2912C20.5959 15.3305 20.6188 15.4169 20.5796 15.4844C20.1219 16.2716 19.6789 16.7013 19.4975 16.8255C19.4331 16.8695 19.3451 16.853 19.3011 16.7886C19.257 16.7242 19.2735 16.6363 19.3379 16.5922C19.4736 16.4993 19.8907 16.1069 20.3353 15.3424C20.3745 15.2749 20.461 15.252 20.5285 15.2912Z" fill="white"/>
<path fill-rule="evenodd" clip-rule="evenodd" d="M16.6689 17.4981C17.5979 17.0773 18.4529 17.2995 18.6502 17.378L18.5458 17.6406C18.3957 17.5809 17.6241 17.3757 16.7854 17.7555C16.7144 17.7877 16.6306 17.7562 16.5984 17.6851C16.5662 17.614 16.5978 17.5303 16.6689 17.4981Z" fill="white"/>
<path fill-rule="evenodd" clip-rule="evenodd" d="M18.6143 17.8585C18.648 17.8612 18.6881 17.8685 18.7243 17.8878C18.7931 17.9245 18.8191 18.0101 18.7824 18.079C18.747 18.1452 18.6665 18.1718 18.5991 18.141C18.5975 18.1408 18.5951 18.1404 18.5917 18.1402C18.5796 18.1392 18.5602 18.1393 18.5336 18.1429C18.4806 18.1501 18.4059 18.17 18.3152 18.2129C18.1346 18.2984 17.8938 18.4734 17.6417 18.81C17.5949 18.8724 17.5064 18.8851 17.4439 18.8383C17.3814 18.7916 17.3687 18.703 17.4155 18.6405C17.6913 18.2725 17.9666 18.0652 18.1943 17.9575C18.3078 17.9038 18.4104 17.8744 18.4957 17.8629C18.5382 17.8571 18.5783 17.8556 18.6143 17.8585ZM18.6014 18.1415C18.6014 18.1415 18.6014 18.1415 18.6013 18.1414C18.6014 18.1414 18.6014 18.1415 18.6014 18.1415Z" fill="white"/>
<path fill-rule="evenodd" clip-rule="evenodd" d="M17.9047 17.6194C18.2214 17.5497 18.4596 17.5548 18.5931 17.5934C18.668 17.6151 18.7112 17.6935 18.6895 17.7684C18.6678 17.8434 18.5895 17.8866 18.5145 17.8649C18.4447 17.8447 18.2592 17.8308 17.9655 17.8954C17.6762 17.9591 17.2913 18.097 16.8275 18.3677C16.7601 18.407 16.6736 18.3842 16.6343 18.3168C16.5949 18.2494 16.6177 18.1629 16.6851 18.1236C17.1714 17.8398 17.5836 17.6901 17.9047 17.6194Z" fill="white"/>
<path fill-rule="evenodd" clip-rule="evenodd" d="M21.1715 16.2487C20.4998 16.2269 19.965 16.6027 19.7888 16.7864C19.7347 16.8427 19.6453 16.8446 19.589 16.7906C19.5327 16.7365 19.5308 16.6471 19.5848 16.5908C19.799 16.3675 20.4065 15.9411 21.1806 15.9662C21.2586 15.9687 21.3198 16.034 21.3173 16.112C21.3147 16.19 21.2495 16.2512 21.1715 16.2487Z" fill="white"/>
<ellipse cx="0.96049" cy="0.536468" rx="0.96049" ry="0.536468" transform="matrix(-0.610084 -0.792337 -0.792337 0.610084 42.4094 19.3765)" fill="white"/>
<path fill-rule="evenodd" clip-rule="evenodd" d="M44.1478 18.6591C44.1647 18.583 44.1167 18.5075 44.0405 18.4905C42.7744 18.209 42.0826 18.5793 41.8807 18.8657C41.8357 18.9295 41.851 19.0176 41.9147 19.0626C41.9785 19.1076 42.0667 19.0923 42.1116 19.0285C42.2211 18.8733 42.7707 18.4977 43.9792 18.7664C44.0554 18.7833 44.1309 18.7353 44.1478 18.6591Z" fill="white"/>
<path fill-rule="evenodd" clip-rule="evenodd" d="M43.8177 17.8449C43.7964 17.7698 43.7183 17.7261 43.6432 17.7474C42.8789 17.9638 42.4153 18.1658 42.1461 18.3359C42.012 18.4206 41.9184 18.5021 41.8612 18.5804C41.8068 18.655 41.7671 18.7544 41.8067 18.8527C41.8359 18.925 41.9183 18.96 41.9906 18.9308C42.0558 18.9046 42.0906 18.8352 42.0757 18.7689C42.078 18.7642 42.0822 18.757 42.0895 18.747C42.1174 18.7088 42.1784 18.6497 42.297 18.5748C42.5331 18.4257 42.967 18.2326 43.7202 18.0193C43.7953 17.9981 43.8389 17.92 43.8177 17.8449ZM42.0729 18.7759C42.073 18.7759 42.0732 18.7753 42.0734 18.7742C42.0729 18.7754 42.0729 18.7759 42.0729 18.7759Z" fill="white"/>
<path fill-rule="evenodd" clip-rule="evenodd" d="M43.8399 17.2961C43.8105 17.2238 43.728 17.1891 43.6558 17.2186C42.8149 17.561 42.3088 17.8517 42.0178 18.0811C41.8726 18.1955 41.7749 18.2994 41.7172 18.3925C41.6628 18.4802 41.6273 18.5872 41.668 18.6863C41.6976 18.7585 41.7802 18.793 41.8524 18.7633C41.9204 18.7354 41.955 18.6604 41.9339 18.5914C41.9353 18.585 41.9402 18.5691 41.9574 18.5414C41.9913 18.4866 42.0617 18.4063 42.1927 18.303C42.4541 18.097 42.9328 17.8182 43.7624 17.4803C43.8346 17.4508 43.8694 17.3684 43.8399 17.2961Z" fill="white"/>
<path fill-rule="evenodd" clip-rule="evenodd" d="M42.9535 17.0472C42.9109 16.9818 42.8233 16.9633 42.7579 17.0059C42.0867 17.4431 41.6668 18.1259 41.5372 18.4198C41.5057 18.4912 41.538 18.5746 41.6094 18.6061C41.6808 18.6376 41.7642 18.6053 41.7957 18.5339C41.9101 18.2746 42.2993 17.6419 42.9122 17.2427C42.9776 17.2001 42.996 17.1126 42.9535 17.0472Z" fill="white"/>
<path fill-rule="evenodd" clip-rule="evenodd" d="M42.4634 16.4166C42.4024 16.3678 42.3135 16.3777 42.2647 16.4386C41.7727 17.0532 41.5006 17.9544 41.4245 18.3282C41.409 18.4046 41.4583 18.4793 41.5348 18.4948C41.6113 18.5104 41.6859 18.461 41.7014 18.3845C41.7736 18.0298 42.0339 17.1792 42.4854 16.6152C42.5341 16.5543 42.5243 16.4654 42.4634 16.4166Z" fill="white"/>
<path fill-rule="evenodd" clip-rule="evenodd" d="M41.5468 16.5669C41.4737 16.5398 41.3924 16.5771 41.3652 16.6503C41.1243 17.2999 41.2267 18.017 41.3085 18.3C41.3301 18.375 41.4085 18.4182 41.4834 18.3966C41.5584 18.3749 41.6016 18.2966 41.58 18.2216C41.5083 17.9735 41.4173 17.3224 41.6302 16.7486C41.6573 16.6754 41.62 16.5941 41.5468 16.5669Z" fill="white"/>
<path fill-rule="evenodd" clip-rule="evenodd" d="M40.3365 16.6586C40.2653 16.6905 40.2334 16.7741 40.2653 16.8453C40.6376 17.6764 41.0328 18.1503 41.2002 18.2929C41.2596 18.3435 41.3488 18.3364 41.3994 18.277C41.45 18.2176 41.4428 18.1284 41.3834 18.0778C41.2582 17.9711 40.8848 17.5369 40.5232 16.7298C40.4913 16.6586 40.4077 16.6267 40.3365 16.6586Z" fill="white"/>
<path fill-rule="evenodd" clip-rule="evenodd" d="M43.9428 19.2597C43.0632 18.7435 42.1896 18.8743 41.9851 18.9316L42.0613 19.2037C42.2168 19.1602 43.0057 19.0374 43.7997 19.5035C43.867 19.543 43.9536 19.5204 43.9931 19.4531C44.0326 19.3858 44.0101 19.2992 43.9428 19.2597Z" fill="white"/>
<path fill-rule="evenodd" clip-rule="evenodd" d="M41.97 19.4129C41.9363 19.4121 41.8956 19.4151 41.8576 19.4305C41.7853 19.4598 41.7504 19.5422 41.7797 19.6145C41.8079 19.6841 41.8852 19.7191 41.9554 19.6955C41.957 19.6954 41.9595 19.6954 41.9629 19.6955C41.975 19.6958 41.9943 19.6979 42.0204 19.7043C42.0723 19.717 42.1445 19.7447 42.2302 19.797C42.4007 19.9009 42.6217 20.1004 42.837 20.4616C42.877 20.5286 42.9637 20.5506 43.0307 20.5106C43.0978 20.4707 43.1197 20.384 43.0798 20.3169C42.8443 19.9219 42.5924 19.6868 42.3773 19.5557C42.2701 19.4903 42.1712 19.4503 42.0875 19.4298C42.0458 19.4196 42.0062 19.4139 41.97 19.4129ZM41.9531 19.6957C41.9531 19.6957 41.9531 19.6957 41.9532 19.6957C41.9531 19.6957 41.9531 19.6957 41.9531 19.6957Z" fill="white"/>
<path fill-rule="evenodd" clip-rule="evenodd" d="M42.7011 19.25C42.3935 19.1474 42.1561 19.1273 42.0193 19.1517C41.9425 19.1653 41.8913 19.2387 41.905 19.3155C41.9186 19.3924 41.992 19.4436 42.0688 19.4299C42.1404 19.4171 42.3263 19.4229 42.6116 19.5181C42.8925 19.6119 43.2607 19.7896 43.6935 20.1076C43.7563 20.1538 43.8448 20.1402 43.891 20.0774C43.9372 20.0145 43.9237 19.926 43.8608 19.8798C43.4071 19.5464 43.013 19.3541 42.7011 19.25Z" fill="white"/>
<path fill-rule="evenodd" clip-rule="evenodd" d="M39.5972 17.5429C40.2674 17.592 40.7596 18.022 40.9156 18.2233C40.9633 18.2849 41.0521 18.2962 41.1138 18.2484C41.1755 18.2006 41.1868 18.1119 41.139 18.0502C40.9495 17.8056 40.3903 17.3176 39.6178 17.261C39.54 17.2553 39.4723 17.3138 39.4666 17.3916C39.4609 17.4695 39.5194 17.5372 39.5972 17.5429Z" fill="white"/>
<path d="M47.6452 47.9519C47.619 47.9777 47.5838 47.992 47.5472 47.992H16.1652C16.1021 47.992 16.0468 47.9498 16.0302 47.8888L11.3056 30.5485C11.1115 29.836 11.6479 29.134 12.3863 29.134H17.7344C18.2406 29.134 18.6839 29.4735 18.8158 29.9622L21.6583 40.4965C21.6748 40.5576 21.7302 40.6 21.7935 40.6H52.7844C52.8887 40.6 52.9563 40.71 52.9085 40.8027C51.539 43.4617 49.7563 45.8731 47.6452 47.9519Z" fill="#F1A331"/>
</g>
<defs>
<clipPath id="clip0_1_3139">
<rect width="56" height="56" fill="white"/>
</clipPath>
</defs>
</svg>
