<svg width="16" height="16" viewBox="0 0 16 16" fill="none" xmlns="http://www.w3.org/2000/svg">
<path d="M15.3012 7.63472L13.1149 9.88877C12.8147 10.1978 12.6108 10.8158 12.6732 11.2582L13.013 13.9C13.2339 15.5906 12.254 16.3237 10.838 15.536L8.43655 14.1909C8.03441 13.9667 7.3774 13.9788 6.98659 14.2272L4.88528 15.5421C3.22576 16.5782 2.23458 15.7966 2.67636 13.797L3.29373 11.0037C3.40701 10.4947 3.19744 9.79788 2.84062 9.4525L0.852587 7.53171C-0.569053 6.15625 -0.172579 4.90804 1.74182 4.7505L4.16597 4.5566C4.61908 4.52024 5.16848 4.13851 5.37804 3.7083L6.63543 1.12704C7.3774 -0.381717 8.57248 -0.375657 9.2918 1.14522L10.4133 3.52046C10.6058 3.92037 11.0929 4.30817 11.5064 4.37482L14.5083 4.89592C16.1281 5.18677 16.485 6.4168 15.3012 7.63472Z" fill="#EED202"/>
</svg>
