<svg width="40" height="40" viewBox="0 0 40 40" fill="none" xmlns="http://www.w3.org/2000/svg">
<g clip-path="url(#clip0_1_1713)">
<circle cx="20" cy="20" r="20" fill="#835DFE"/>
<path opacity="0.05" fill-rule="evenodd" clip-rule="evenodd" d="M1.68689 11.9482H3.75626V8.42821H3.68566C3.86348 8.17796 4.04692 7.93198 4.23578 7.69045V7.94821H7.75226V4.42821H7.44823C7.70429 4.22155 7.96555 4.02108 8.23178 3.82702V3.94821H11.7483V1.77624C11.907 1.70425 12.0669 1.63427 12.2278 1.56634V3.94821H15.7443V0.453734C15.9034 0.419246 16.0633 0.386653 16.2238 0.355979V3.94821H19.7403V0.00165187C19.8267 0.00055173 19.9133 0 20 0C20.0734 0 20.1466 0.000394956 20.2198 0.00118286V3.94821H23.7363V0.348392C23.8968 0.378726 24.0567 0.410978 24.2158 0.445124V3.94821H27.7323V1.54952C27.8932 1.61704 28.053 1.68661 28.2118 1.75818V3.94821H31.7283V3.79798C32.0083 4.00106 32.2829 4.21123 32.5518 4.42821H32.2078V7.94821H35.7243V7.63954C35.9272 7.89739 36.124 8.16035 36.3143 8.42821H36.2038V11.9482H38.3131C38.3831 12.1071 38.4511 12.2671 38.517 12.4282H36.2038V15.9482H39.5893C39.6221 16.1075 39.653 16.2675 39.682 16.4282H36.2038V19.9482H39.9999C40 19.9655 40 19.9827 40 20C40 20.1431 39.9985 20.2858 39.9955 20.4282H36.2038V23.9482H39.6104C39.5782 24.1089 39.5441 24.2689 39.5081 24.4282H36.2038V27.9482H38.3584C38.2885 28.1093 38.2166 28.2693 38.1427 28.4282H36.2038V31.7258C36.0312 31.9639 35.8534 32.1981 35.6707 32.4282H32.2078V35.8433C31.9469 36.0446 31.6808 36.2397 31.4099 36.4282H28.2118V38.2418C28.053 38.3134 27.8932 38.383 27.7323 38.4505V36.4282H24.2158V39.5549C24.0567 39.589 23.8968 39.6213 23.7363 39.6516V36.4282H20.2198V39.9988C20.1466 39.9996 20.0734 40 20 40C19.9133 40 19.8267 39.9994 19.7403 39.9983V36.4282H16.2238V39.644C16.0633 39.6133 15.9034 39.5808 15.7443 39.5463V36.4282H12.2278V38.4337C12.0669 38.3657 11.907 38.2957 11.7483 38.2238V36.4282H8.59011C8.30535 36.23 8.02597 36.0247 7.75226 35.8124V32.4282H4.32928C4.13245 32.1803 3.94138 31.9277 3.75626 31.6705V28.4282H1.85731C1.78338 28.2693 1.71147 28.1093 1.64163 27.9482H3.75626V24.4282H0.491911C0.455907 24.2689 0.421804 24.1089 0.389627 23.9482H3.75626V20.4282H0.00449286C0.00150259 20.2858 0 20.1431 0 20C0 19.9827 2.19014e-05 19.9655 6.56781e-05 19.9482H3.75626V16.4282H0.318027C0.346994 16.2675 0.37788 16.1075 0.410661 15.9482H3.75626V12.4282H1.48302C1.54894 12.2671 1.61691 12.1071 1.68689 11.9482ZM8.23178 7.94821V4.42821H11.7483V7.94821H8.23178ZM12.2278 7.94821V4.42821H15.7443V7.94821H12.2278ZM16.2238 7.94821V4.42821H19.7403V7.94821H16.2238ZM20.2198 7.94821V4.42821H23.7363V7.94821H20.2198ZM24.2158 7.94821V4.42821H27.7323V7.94821H24.2158ZM28.2118 7.94821V4.42821H31.7283V7.94821H28.2118ZM32.2078 8.42821H35.7243V11.9482H32.2078V8.42821ZM32.2078 12.4282H35.7243V15.9482H32.2078V12.4282ZM32.2078 16.4282H35.7243V19.9482H32.2078V16.4282ZM32.2078 20.4282H35.7243V23.9482H32.2078V20.4282ZM32.2078 24.4282H35.7243V27.9482H32.2078V24.4282ZM32.2078 28.4282H35.7243V31.9482H32.2078V28.4282ZM31.7283 32.4282V35.9482H28.2118V32.4282H31.7283ZM27.7323 32.4282V35.9482H24.2158V32.4282H27.7323ZM23.7363 32.4282V35.9482H20.2198V32.4282H23.7363ZM19.7403 32.4282V35.9482H16.2238V32.4282H19.7403ZM15.7443 32.4282V35.9482H12.2278V32.4282H15.7443ZM11.7483 32.4282V35.9482H8.23178V32.4282H11.7483ZM7.75226 31.9482H4.23578V28.4282H7.75226V31.9482ZM7.75226 27.9482H4.23578V24.4282H7.75226V27.9482ZM7.75226 23.9482H4.23578V20.4282H7.75226V23.9482ZM7.75226 19.9482H4.23578V16.4282H7.75226V19.9482ZM7.75226 15.9482H4.23578V12.4282H7.75226V15.9482ZM7.75226 11.9482H4.23578V8.42821H7.75226V11.9482ZM8.23178 11.9482V8.42821H11.7483V11.9482H8.23178ZM12.2278 11.9482V8.42821H15.7443V11.9482H12.2278ZM16.2238 11.9482V8.42821H19.7403V11.9482H16.2238ZM20.2198 11.9482V8.42821H23.7363V11.9482H20.2198ZM24.2158 11.9482V8.42821H27.7323V11.9482H24.2158ZM28.2118 11.9482V8.42821H31.7283V11.9482H28.2118ZM28.2118 12.4282H31.7283V15.9482H28.2118V12.4282ZM28.2118 16.4282H31.7283V19.9482H28.2118V16.4282ZM28.2118 20.4282H31.7283V23.9482H28.2118V20.4282ZM28.2118 24.4282H31.7283V27.9482H28.2118V24.4282ZM28.2118 28.4282H31.7283V31.9482H28.2118V28.4282ZM27.7323 28.4282V31.9482H24.2158V28.4282H27.7323ZM23.7363 28.4282V31.9482H20.2198V28.4282H23.7363ZM19.7403 28.4282V31.9482H16.2238V28.4282H19.7403ZM15.7443 28.4282V31.9482H12.2278V28.4282H15.7443ZM11.7483 28.4282V31.9482H8.23178V28.4282H11.7483ZM11.7483 27.9482H8.23178V24.4282H11.7483V27.9482ZM11.7483 23.9482H8.23178V20.4282H11.7483V23.9482ZM11.7483 19.9482H8.23178V16.4282H11.7483V19.9482ZM11.7483 15.9482H8.23178V12.4282H11.7483V15.9482ZM12.2278 15.9482V12.4282H15.7443V15.9482H12.2278ZM16.2238 15.9482V12.4282H19.7403V15.9482H16.2238ZM20.2198 15.9482V12.4282H23.7363V15.9482H20.2198ZM24.2158 15.9482V12.4282H27.7323V15.9482H24.2158ZM24.2158 16.4282H27.7323V19.9482H24.2158V16.4282ZM24.2158 20.4282H27.7323V23.9482H24.2158V20.4282ZM24.2158 24.4282H27.7323V27.9482H24.2158V24.4282ZM23.7363 24.4282V27.9482H20.2198V24.4282H23.7363ZM19.7403 24.4282V27.9482H16.2238V24.4282H19.7403ZM15.7443 24.4282V27.9482H12.2278V24.4282H15.7443ZM15.7443 23.9482H12.2278V20.4282H15.7443V23.9482ZM15.7443 19.9482H12.2278V16.4282H15.7443V19.9482ZM16.2238 19.9482V16.4282H19.7403V19.9482H16.2238ZM20.2198 19.9482V16.4282H23.7363V19.9482H20.2198ZM20.2198 20.4282H23.7363V23.9482H20.2198V20.4282ZM19.7403 20.4282V23.9482H16.2238V20.4282H19.7403Z" fill="black"/>
<path d="M12.5541 3.41308L13.3818 5.31862C8.93651 6.79122 6.66843 10.0614 6.09005 11.5124C4.73515 16.0232 8.57492 16.6329 10.6642 16.3739C19.3317 14.4258 20.7328 8.55076 20.35 5.85675C19.0773 2.63352 14.6224 2.88462 12.5541 3.41308Z" fill="#F58C12"/>
<path d="M26.318 38.9815L6.26855 15.2112C7.20223 16.0355 9.97915 17.2631 13.6174 15.5794C16.5692 14.0205 21.9585 9.70598 19.9012 4.91895L38.6153 27.3266C36.4551 32.811 31.9412 37.1107 26.318 38.9815Z" fill="#FFB140"/>
<path d="M11.5684 21.4895C19.6099 20.4747 24.3146 13.8293 24.7916 10.7632L19.9067 4.9172C21.9636 9.70223 16.572 14.0165 13.6191 15.5755C9.97949 17.2595 7.20212 16.0329 6.26838 15.2091L11.5684 21.4895Z" fill="white"/>
<path fill-rule="evenodd" clip-rule="evenodd" d="M19.8397 8.91935C20.3931 7.5004 20.4557 5.84573 19.4929 4.77048C18.6488 3.82777 17.3877 3.40549 16.0832 3.28728C14.7807 3.16926 13.4622 3.35734 12.5408 3.60741C12.437 3.63558 12.33 3.57438 12.3019 3.47071C12.2738 3.36704 12.3352 3.26016 12.439 3.23199C13.3961 2.97223 14.7617 2.77687 16.1187 2.89984C17.4737 3.02262 18.8474 3.46578 19.7833 4.51099C20.8911 5.74814 20.7774 7.58657 20.2026 9.06033C19.0311 12.0635 16.2101 15.715 10.682 16.5229C9.75174 16.6588 8.72592 16.6278 7.83732 16.3387C6.94621 16.0488 6.17939 15.4934 5.80786 14.5758C5.10644 12.8433 5.6918 10.3638 9.44734 7.2877C10.8675 6.12447 12.5496 5.20072 14.405 5.00685C15.4923 4.89324 16.6277 4.96165 17.4933 5.43157C17.9297 5.66852 18.2972 6.00758 18.551 6.47312C18.8043 6.93764 18.9385 7.51719 18.9266 8.22724C18.8834 10.812 16.909 12.7936 14.7804 13.9342C13.7113 14.507 12.587 14.8774 11.6148 15.0102C11.1287 15.0767 10.6751 15.0844 10.2826 15.0251C9.89172 14.966 9.548 14.8383 9.29699 14.6221C8.38403 13.8356 7.85605 12.4013 8.3819 10.9065C8.90794 9.41119 10.4702 7.9003 13.643 6.8964C14.522 6.6055 15.2434 6.65671 15.7835 6.96263C16.3229 7.26823 16.6463 7.80828 16.7693 8.42339C17.0136 9.64554 16.4825 11.2252 15.1863 12.1305C13.9397 13.0012 12.6976 13.4816 11.7479 13.4373C11.2676 13.4149 10.8476 13.2569 10.5515 12.9306C10.2561 12.6052 10.1081 12.1391 10.1162 11.5491C10.1331 10.3261 11.0488 9.49394 11.9765 9.07377C12.4439 8.86209 12.9316 8.74578 13.3433 8.73511C13.549 8.72977 13.7432 8.75061 13.9092 8.80457C14.0744 8.85832 14.2256 8.94988 14.3206 9.09544C14.6329 9.57421 14.5193 10.2014 14.1403 10.7342C13.7569 11.2731 13.0827 11.754 12.1789 11.991C12.0748 12.0183 11.9684 11.9561 11.9412 11.8522C11.914 11.7483 11.9762 11.642 12.0803 11.6147C12.9075 11.3978 13.4991 10.9641 13.8228 10.509C14.1509 10.0478 14.1856 9.60144 13.9942 9.30802C13.9632 9.26053 13.9007 9.21106 13.7883 9.17451C13.6766 9.13817 13.5292 9.11945 13.3531 9.12402C13.0011 9.13314 12.5645 9.23448 12.1371 9.42806C11.2752 9.81842 10.5196 10.5473 10.5057 11.5541C10.4984 12.0789 10.6302 12.4379 10.8401 12.6692C11.0492 12.8995 11.36 13.0298 11.7664 13.0487C12.5901 13.0871 13.7453 12.6624 14.9633 11.8117C16.1317 10.9957 16.6016 9.57165 16.3874 8.49987C16.2811 7.96803 16.0103 7.53855 15.5911 7.30108C15.1728 7.06408 14.5715 6.99859 13.7641 7.26608L13.7628 7.26649L13.7616 7.26689C10.6512 8.25076 9.21923 9.69948 8.74933 11.0352C8.27916 12.3717 8.75381 13.6402 9.55149 14.3274C9.72814 14.4795 9.99343 14.5879 10.3412 14.6404C10.6874 14.6927 11.1021 14.6877 11.5623 14.6248C12.4827 14.4991 13.5628 14.1452 14.5965 13.5914C16.6732 12.4787 18.4974 10.5982 18.5372 8.22105C18.5482 7.56353 18.4237 7.05329 18.209 6.65941C17.9948 6.26653 17.6849 5.97854 17.3071 5.77341C16.5441 5.35916 15.5032 5.28322 14.4452 5.39378C12.6923 5.57694 11.0803 6.45308 9.69415 7.58845C5.98404 10.6274 5.56518 12.9384 6.16894 14.4297C6.4858 15.2123 7.14302 15.7036 7.95822 15.9688C8.77592 16.2349 9.73869 16.2676 10.6259 16.1379C15.9808 15.3554 18.7051 11.8281 19.8397 8.91935Z" fill="#1E1E1E"/>
<path fill-rule="evenodd" clip-rule="evenodd" d="M13.2054 5.41624L12.3364 3.53666L12.8045 3.31914L13.6735 5.19872L13.2054 5.41624Z" fill="#1E1E1E"/>
</g>
<defs>
<clipPath id="clip0_1_1713">
<rect width="40" height="40" fill="white"/>
</clipPath>
</defs>
</svg>
