<svg width="72" height="72" viewBox="0 0 72 72" fill="none" xmlns="http://www.w3.org/2000/svg">
<rect width="72" height="72" fill="#1E1E1E"/>
<g id="Home" clip-path="url(#clip0_1_1180)">
<rect width="1440" height="5526" transform="translate(-1039 -940)" fill="#F6F8FE"/>
<g id="Header">
<g id="Header Illustration" clip-path="url(#clip1_1_1180)">
<rect width="1440" height="1044" transform="translate(-1039 -941.957)" fill="white"/>
<g id="background">
<g id="Floor">
<rect id="Vector" x="-1039" y="-39.9573" width="1440" height="142" fill="#FFCC8C"/>
<path id="Vector_2" d="M-19.8495 -27.4802L292.686 135.186" stroke="#C46500"/>
<path id="Vector_3" d="M-129.849 -27.4802L182.686 135.186" stroke="#C46500"/>
<path id="Vector_4" d="M-239.849 -27.4802L72.6855 135.186" stroke="#C46500"/>
</g>
<g id="Side Wall">
</g>
</g>
</g>
</g>
<g id="3 Step" filter="url(#filter0_d_1_1180)">
<rect x="-919" y="-40" width="1200" height="282" rx="24" fill="white" shape-rendering="crispEdges"/>
<g id="Category1">
<g id="Muscle">
<circle id="Vector_5" cx="36" cy="36" r="36" fill="#1BB1F8"/>
<mask id="mask0_1_1180" style="mask-type:alpha" maskUnits="userSpaceOnUse" x="0" y="0" width="72" height="72">
<circle id="Vector_6" cx="36" cy="36" r="36" fill="#D9D9D9"/>
</mask>
<g mask="url(#mask0_1_1180)">
<path id="Vector_7" opacity="0.05" fill-rule="evenodd" clip-rule="evenodd" d="M7.20012 -4.72327C7.43871 -4.72327 7.63212 -4.52985 7.63212 -4.29127V3.50675H13.9681V-4.29127C13.9681 -4.52985 14.1615 -4.72327 14.4001 -4.72327C14.6387 -4.72327 14.8321 -4.52985 14.8321 -4.29127V3.50675H21.1681V-4.29127C21.1681 -4.52985 21.3615 -4.72327 21.6001 -4.72327C21.8387 -4.72327 22.0321 -4.52985 22.0321 -4.29127V3.50675H28.3681V-4.29127C28.3681 -4.52985 28.5615 -4.72327 28.8001 -4.72327C29.0387 -4.72327 29.2321 -4.52985 29.2321 -4.29127V3.50675H35.5681V-4.29127C35.5681 -4.52985 35.7615 -4.72327 36.0001 -4.72327C36.2387 -4.72327 36.4321 -4.52985 36.4321 -4.29127V3.50675H42.7681V-4.29127C42.7681 -4.52985 42.9615 -4.72327 43.2001 -4.72327C43.4387 -4.72327 43.6321 -4.52985 43.6321 -4.29127V3.50675H49.9681V-4.29127C49.9681 -4.52985 50.1615 -4.72327 50.4001 -4.72327C50.6387 -4.72327 50.8321 -4.52985 50.8321 -4.29127V3.50675H57.1681V-4.29127C57.1681 -4.52985 57.3615 -4.72327 57.6001 -4.72327C57.8387 -4.72327 58.0321 -4.52985 58.0321 -4.29127V3.50675H64.3681V-4.29127C64.3681 -4.52985 64.5615 -4.72327 64.8001 -4.72327C65.0387 -4.72327 65.2321 -4.52985 65.2321 -4.29127V3.50675H73.0301C73.2687 3.50675 73.4621 3.70017 73.4621 3.93875C73.4621 4.17734 73.2687 4.37075 73.0301 4.37075H65.2321V10.7068H73.0301C73.2687 10.7068 73.4621 10.9002 73.4621 11.1388C73.4621 11.3773 73.2687 11.5708 73.0301 11.5708H65.2321V17.9068H73.0301C73.2687 17.9068 73.4621 18.1002 73.4621 18.3388C73.4621 18.5773 73.2687 18.7708 73.0301 18.7708H65.2321V25.1067H73.0301C73.2687 25.1067 73.4621 25.3001 73.4621 25.5387C73.4621 25.7773 73.2687 25.9707 73.0301 25.9707H65.2321V32.3067H73.0301C73.2687 32.3067 73.4621 32.5001 73.4621 32.7387C73.4621 32.9773 73.2687 33.1707 73.0301 33.1707H65.2321V39.5067H73.0301C73.2687 39.5067 73.4621 39.7001 73.4621 39.9387C73.4621 40.1773 73.2687 40.3707 73.0301 40.3707H65.2321V46.7067H73.0301C73.2687 46.7067 73.4621 46.9001 73.4621 47.1387C73.4621 47.3773 73.2687 47.5707 73.0301 47.5707H65.2321V53.9067H73.0301C73.2687 53.9067 73.4621 54.1001 73.4621 54.3387C73.4621 54.5773 73.2687 54.7707 73.0301 54.7707H65.2321V61.1067H73.0301C73.2687 61.1067 73.4621 61.3001 73.4621 61.5387C73.4621 61.7773 73.2687 61.9707 73.0301 61.9707H65.2321V69.7687C65.2321 70.0073 65.0387 70.2007 64.8001 70.2007C64.5615 70.2007 64.3681 70.0073 64.3681 69.7687V61.9707H58.0321V69.7687C58.0321 70.0073 57.8387 70.2007 57.6001 70.2007C57.3615 70.2007 57.1681 70.0073 57.1681 69.7687V61.9707H50.8321V69.7687C50.8321 70.0073 50.6387 70.2007 50.4001 70.2007C50.1615 70.2007 49.9681 70.0073 49.9681 69.7687V61.9707H43.6321V69.7687C43.6321 70.0073 43.4387 70.2007 43.2001 70.2007C42.9615 70.2007 42.7681 70.0073 42.7681 69.7687V61.9707H36.4321V69.7687C36.4321 70.0073 36.2387 70.2007 36.0001 70.2007C35.7615 70.2007 35.5681 70.0073 35.5681 69.7687V61.9707H29.2321V69.7687C29.2321 70.0073 29.0387 70.2007 28.8001 70.2007C28.5615 70.2007 28.3681 70.0073 28.3681 69.7687V61.9707H22.0321V69.7687C22.0321 70.0073 21.8387 70.2007 21.6001 70.2007C21.3615 70.2007 21.1681 70.0073 21.1681 69.7687V61.9707H14.8321V69.7687C14.8321 70.0073 14.6387 70.2007 14.4001 70.2007C14.1615 70.2007 13.9681 70.0073 13.9681 69.7687V61.9707H7.63212V69.7687C7.63212 70.0073 7.43871 70.2007 7.20012 70.2007C6.96154 70.2007 6.76812 70.0073 6.76812 69.7687V61.9707H-1.02991C-1.2685 61.9707 -1.46191 61.7773 -1.46191 61.5387C-1.46191 61.3001 -1.2685 61.1067 -1.02991 61.1067H6.76812V54.7707H-1.02991C-1.2685 54.7707 -1.46191 54.5773 -1.46191 54.3387C-1.46191 54.1001 -1.2685 53.9067 -1.02991 53.9067H6.76812V47.5707H-1.02991C-1.2685 47.5707 -1.46191 47.3773 -1.46191 47.1387C-1.46191 46.9001 -1.2685 46.7067 -1.02991 46.7067H6.76812V40.3707H-1.02991C-1.2685 40.3707 -1.46191 40.1773 -1.46191 39.9387C-1.46191 39.7001 -1.2685 39.5067 -1.02991 39.5067H6.76812V33.1707H-1.02991C-1.2685 33.1707 -1.46191 32.9773 -1.46191 32.7387C-1.46191 32.5001 -1.2685 32.3067 -1.02991 32.3067H6.76812V25.9707H-1.02991C-1.2685 25.9707 -1.46191 25.7773 -1.46191 25.5387C-1.46191 25.3001 -1.2685 25.1067 -1.02991 25.1067H6.76812V18.7708H-1.02991C-1.2685 18.7708 -1.46191 18.5773 -1.46191 18.3388C-1.46191 18.1002 -1.2685 17.9068 -1.02991 17.9068H6.76812V11.5708H-1.02991C-1.2685 11.5708 -1.46191 11.3773 -1.46191 11.1388C-1.46191 10.9002 -1.2685 10.7068 -1.02991 10.7068H6.76812V4.37075H-1.02991C-1.2685 4.37075 -1.46191 4.17734 -1.46191 3.93875C-1.46191 3.70017 -1.2685 3.50675 -1.02991 3.50675H6.76812V-4.29127C6.76812 -4.52985 6.96154 -4.72327 7.20012 -4.72327ZM7.63212 4.37075V10.7068H13.9681V4.37075H7.63212ZM14.8321 4.37075V10.7068H21.1681V4.37075H14.8321ZM22.0321 4.37075V10.7068H28.3681V4.37075H22.0321ZM29.2321 4.37075V10.7068H35.5681V4.37075H29.2321ZM36.4321 4.37075V10.7068H42.7681V4.37075H36.4321ZM43.6321 4.37075V10.7068H49.9681V4.37075H43.6321ZM50.8321 4.37075V10.7068H57.1681V4.37075H50.8321ZM58.0321 4.37075V10.7068H64.3681V4.37075H58.0321ZM64.3681 11.5708H58.0321V17.9068H64.3681V11.5708ZM64.3681 18.7708H58.0321V25.1067H64.3681V18.7708ZM64.3681 25.9707H58.0321V32.3067H64.3681V25.9707ZM64.3681 33.1707H58.0321V39.5067H64.3681V33.1707ZM64.3681 40.3707H58.0321V46.7067H64.3681V40.3707ZM64.3681 47.5707H58.0321V53.9067H64.3681V47.5707ZM64.3681 54.7707H58.0321V61.1067H64.3681V54.7707ZM57.1681 61.1067V54.7707H50.8321V61.1067H57.1681ZM49.9681 61.1067V54.7707H43.6321V61.1067H49.9681ZM42.7681 61.1067V54.7707H36.4321V61.1067H42.7681ZM35.5681 61.1067V54.7707H29.2321V61.1067H35.5681ZM28.3681 61.1067V54.7707H22.0321V61.1067H28.3681ZM21.1681 61.1067V54.7707H14.8321V61.1067H21.1681ZM13.9681 61.1067V54.7707H7.63212V61.1067H13.9681ZM7.63212 53.9067H13.9681V47.5707H7.63212V53.9067ZM7.63212 46.7067H13.9681V40.3707H7.63212V46.7067ZM7.63212 39.5067H13.9681V33.1707H7.63212V39.5067ZM7.63212 32.3067H13.9681V25.9707H7.63212V32.3067ZM7.63212 25.1067H13.9681V18.7708H7.63212V25.1067ZM7.63212 17.9068H13.9681V11.5708H7.63212V17.9068ZM14.8321 11.5708V17.9068H21.1681V11.5708H14.8321ZM22.0321 11.5708V17.9068H28.3681V11.5708H22.0321ZM29.2321 11.5708V17.9068H35.5681V11.5708H29.2321ZM36.4321 11.5708V17.9068H42.7681V11.5708H36.4321ZM43.6321 11.5708V17.9068H49.9681V11.5708H43.6321ZM50.8321 11.5708V17.9068H57.1681V11.5708H50.8321ZM57.1681 18.7708H50.8321V25.1067H57.1681V18.7708ZM57.1681 25.9707H50.8321V32.3067H57.1681V25.9707ZM57.1681 33.1707H50.8321V39.5067H57.1681V33.1707ZM57.1681 40.3707H50.8321V46.7067H57.1681V40.3707ZM57.1681 47.5707H50.8321V53.9067H57.1681V47.5707ZM49.9681 53.9067V47.5707H43.6321V53.9067H49.9681ZM42.7681 53.9067V47.5707H36.4321V53.9067H42.7681ZM35.5681 53.9067V47.5707H29.2321V53.9067H35.5681ZM28.3681 53.9067V47.5707H22.0321V53.9067H28.3681ZM21.1681 53.9067V47.5707H14.8321V53.9067H21.1681ZM14.8321 46.7067H21.1681V40.3707H14.8321V46.7067ZM14.8321 39.5067H21.1681V33.1707H14.8321V39.5067ZM14.8321 32.3067H21.1681V25.9707H14.8321V32.3067ZM14.8321 25.1067H21.1681V18.7708H14.8321V25.1067ZM22.0321 18.7708V25.1067H28.3681V18.7708H22.0321ZM29.2321 18.7708V25.1067H35.5681V18.7708H29.2321ZM36.4321 18.7708V25.1067H42.7681V18.7708H36.4321ZM43.6321 18.7708V25.1067H49.9681V18.7708H43.6321ZM49.9681 25.9707H43.6321V32.3067H49.9681V25.9707ZM49.9681 33.1707H43.6321V39.5067H49.9681V33.1707ZM49.9681 40.3707H43.6321V46.7067H49.9681V40.3707ZM42.7681 46.7067V40.3707H36.4321V46.7067H42.7681ZM35.5681 46.7067V40.3707H29.2321V46.7067H35.5681ZM28.3681 46.7067V40.3707H22.0321V46.7067H28.3681ZM22.0321 39.5067H28.3681V33.1707H22.0321V39.5067ZM22.0321 32.3067H28.3681V25.9707H22.0321V32.3067ZM29.2321 25.9707V32.3067H35.5681V25.9707H29.2321ZM36.4321 25.9707V32.3067H42.7681V25.9707H36.4321ZM42.7681 33.1707H36.4321V39.5067H42.7681V33.1707ZM35.5681 39.5067V33.1707H29.2321V39.5067H35.5681Z" fill="black"/>
<path id="Vector 61 (Stroke)" fill-rule="evenodd" clip-rule="evenodd" d="M32.6777 15.0164L24.7901 49.435C24.5568 50.4531 23.1194 50.4879 22.8371 49.4822L20.6226 41.5929L18.2231 50.1409C18.101 50.5758 17.7044 50.8764 17.2526 50.8764H14.7324L13.3548 54.0908C12.9918 54.9378 11.7764 54.8939 11.4756 54.0229L8.5095 45.4369L6.37491 50.2753C6.21372 50.6407 5.85203 50.8764 5.45268 50.8764H-1.21972C-1.65713 50.8764 -2.01172 50.5219 -2.01172 50.0844C-2.01172 49.647 -1.65713 49.2924 -1.21972 49.2924H5.07723L7.65256 43.455C8.0224 42.6167 9.22837 42.6667 9.52755 43.5328L12.486 52.0968L13.4261 49.9034C13.5849 49.5327 13.9493 49.2924 14.3526 49.2924H16.8161L19.6521 39.1892C19.9274 38.2084 21.3177 38.2084 21.593 39.1892L23.7512 46.8775L31.672 12.3138C31.9089 11.28 33.3764 11.2663 33.6327 12.2955L44.8844 57.4902L48.2547 49.9838C48.5034 49.4298 49.1817 49.2199 49.6999 49.5365L52.3376 51.1485L57.5614 39.8002C57.9349 38.9888 59.101 39.0282 59.419 39.8628L62.2479 47.2886H73.3245C73.7619 47.2886 74.1165 47.6432 74.1165 48.0806C74.1165 48.518 73.7619 48.8726 73.3245 48.8726H61.8509C61.4326 48.8726 61.0578 48.6143 60.9089 48.2234L58.4269 41.7081L53.5056 52.3992C53.2533 52.9473 52.5792 53.1525 52.0643 52.8378L49.4319 51.2291L45.6474 59.6581C45.2553 60.5314 43.9809 60.4177 43.7497 59.4888L32.6777 15.0164Z" fill="white"/>
<path id="Vector_8" d="M50.7858 52.5312C57.7788 45.9162 67.192 44.1574 71.0245 44.1049C71.4398 49.4993 70.9299 61.6122 65.5674 66.9093C60.2049 72.2064 43.8232 72.9856 36.3027 72.7132C27.867 68.9224 23.1344 65.1142 21.0841 62.889C20.3751 62.1195 20.024 61.1112 20.0211 60.0648C19.9881 48.4188 30.3249 27.507 35.4693 18.2207L42.46 8.33614C43.119 7.40443 43.9982 6.65026 45.0194 6.14088C45.8273 5.73789 46.7725 5.71446 47.5993 6.07693L47.998 6.25168C48.0285 6.26504 48.063 6.26598 48.0941 6.25429C48.6595 6.04226 49.2946 6.14141 49.7685 6.51568L50.2393 6.88754C50.2595 6.90345 50.2888 6.89919 50.3036 6.8782C50.3107 6.8682 50.3212 6.86111 50.3332 6.8587C50.568 6.81154 50.8891 6.85083 51.1169 7.01041C51.2873 7.12976 51.3575 7.00001 51.4859 7.16366L53.8039 10.029L54.3532 11.2883H55.9285C56.146 11.7717 56.5159 12.9065 56.2548 13.5787L55.9285 14.4189C54.9885 16.8385 53.0645 18.7447 50.6362 19.662L47.103 20.9967C43.4386 22.3809 40.7934 25.618 40.1671 29.4848L39.9674 30.7179C39.487 33.6836 39.3445 36.6942 39.5426 39.692L40.3907 52.5312C44.9897 50.0742 49.237 51.5074 50.7858 52.5312Z" fill="#FFCC8C"/>
<path id="Vector_9" d="M55.4253 63.9287C58.5244 49.9826 67.443 45.8341 71.3711 44.017L70.4224 48.588C60.3489 52.2448 56.2303 60.3063 55.4253 63.9287Z" fill="white"/>
<path id="Vector_10" d="M70.2441 47.843C65.381 50.2393 55.6114 55.2915 55.0205 66.9783C60.0951 63.9477 70.2441 55.8777 70.2441 47.843Z" fill="black"/>
<path id="Vector_11" fill-rule="evenodd" clip-rule="evenodd" d="M47.9589 6.23432C48.4052 6.62556 48.7688 7.14891 49.0656 7.65441L49.953 9.16537C50.3555 9.85071 50.6525 10.673 50.4649 11.5059C50.1314 12.9861 49.1582 14.2723 48.3935 15.0427C48.0259 15.413 47.4736 15.4656 47.0254 15.251L46.8844 15.1834C46.0991 14.8074 45.9007 13.7793 46.4896 13.138L47.3632 12.1867C47.7052 11.8143 47.687 11.2369 47.3223 10.8867C46.6759 10.2661 46.1796 9.50633 45.8709 8.66507L45.4593 7.54289C45.4182 7.43089 45.4756 7.30679 45.5876 7.26571C45.6996 7.22462 45.8237 7.2821 45.8648 7.3941L46.2765 8.51629C46.5625 9.29588 47.0225 10 47.6215 10.5751C48.1556 11.0879 48.1822 11.9335 47.6814 12.4788L46.8078 13.4302C46.4152 13.8577 46.5475 14.5431 47.071 14.7938L47.212 14.8614C47.5174 15.0076 47.8659 14.961 48.0869 14.7384C48.8231 13.9967 49.735 12.7799 50.0434 11.411C50.1955 10.7357 49.961 10.032 49.5805 9.38415L48.6931 7.87319C48.4051 7.38272 48.0693 6.90554 47.6741 6.5592C47.2818 6.21533 46.8426 6.00988 46.3375 6.03432C45.2533 6.0868 43.7678 6.74563 42.2433 8.97017C42.1759 9.06857 42.0414 9.09368 41.943 9.02624C41.8446 8.9588 41.8195 8.82436 41.887 8.72596C43.4634 6.42568 45.0594 5.66368 46.3166 5.60283C46.9652 5.57143 47.5097 5.84061 47.9589 6.23432Z" fill="black"/>
<path id="Vector_12" fill-rule="evenodd" clip-rule="evenodd" d="M48.0311 6.12589C49.129 5.95754 50.2121 6.50743 50.7241 7.49312L51.7706 9.5078C52.1396 10.2181 52.3119 11.0581 51.9522 11.8356C51.5015 12.8097 50.7157 14.1011 50.0295 15.1556C49.5325 15.9195 48.4956 16.0757 47.7798 15.5257L47.5425 15.3433L47.8057 15.0007L48.0431 15.1831C48.5659 15.5849 49.3125 15.4655 49.6674 14.92C50.352 13.8679 51.1233 12.5984 51.5601 11.6542C51.8421 11.0446 51.7229 10.353 51.3873 9.70694L50.3408 7.69226C49.9141 6.87085 49.0115 6.41261 48.0965 6.5529L47.8915 6.58435L47.826 6.15734L48.0311 6.12589Z" fill="black"/>
<path id="Vector_13" fill-rule="evenodd" clip-rule="evenodd" d="M50.1063 6.82508C50.8309 6.59626 51.6163 6.9104 51.9832 7.57581L53.1576 9.70572C53.3473 10.0496 53.5488 10.469 53.5033 10.9309C53.445 11.5243 53.1878 12.289 52.8596 13.0696C52.5292 13.8555 52.1184 14.6772 51.7391 15.3909C51.2402 16.3298 49.9804 16.4817 49.2437 15.7324L49.5517 15.4296C50.0925 15.9796 51.0015 15.8584 51.3577 15.1882C51.7339 14.4803 52.1381 13.6713 52.4613 12.9022C52.7868 12.128 53.0218 11.4136 53.0734 10.8887C53.1046 10.5711 52.9679 10.2563 52.7793 9.91431L51.6049 7.78441C51.3374 7.29924 50.7647 7.07018 50.2364 7.23703L50.1063 6.82508Z" fill="black"/>
<path id="Vector_14" fill-rule="evenodd" clip-rule="evenodd" d="M51.8512 7.41957L53.6615 9.54169C54.1715 10.1725 54.6369 10.9724 54.449 11.8571C54.2037 13.0117 53.4994 14.4907 52.9163 15.5787C52.5473 16.2672 51.6198 16.3494 51.1084 15.779L51.4301 15.4906C51.7515 15.8492 52.3152 15.7858 52.5356 15.3746C53.1177 14.2885 53.795 12.8566 54.0264 11.7674C54.1709 11.0872 53.8215 10.4266 53.3256 9.8133L51.6336 7.72058L51.8512 7.41957Z" fill="black"/>
<path id="Vector_15" fill-rule="evenodd" clip-rule="evenodd" d="M54.6407 13.5661C54.918 13.6613 55.2208 13.6814 55.4101 13.6701L55.4358 14.1014C55.2028 14.1153 54.8418 14.0919 54.5004 13.9747C54.1603 13.8579 53.8037 13.6342 53.6509 13.2235L54.0558 13.0729C54.145 13.3127 54.3621 13.4704 54.6407 13.5661Z" fill="black"/>
<path id="Vector_16" fill-rule="evenodd" clip-rule="evenodd" d="M55.8889 11.7275C55.7574 11.5335 55.6544 11.5221 55.633 11.5261C55.1145 11.6233 54.5616 11.5671 54.3431 11.5261C54.2258 11.5041 54.1486 11.3913 54.1706 11.274C54.1926 11.1568 54.3054 11.0795 54.4227 11.1015C54.6076 11.1362 55.1037 11.1858 55.5534 11.1015C55.8346 11.0488 56.084 11.2454 56.2465 11.4852C56.4188 11.7394 56.5453 12.1072 56.5816 12.5588C56.6548 13.4666 56.3672 14.7364 55.3101 16.2067C53.6283 18.5457 51.5129 19.7023 50.6393 19.9935C50.5262 20.0312 50.4038 19.9701 50.3661 19.8569C50.3284 19.7437 50.3896 19.6214 50.5027 19.5837C51.293 19.3203 53.3324 18.2173 54.9593 15.9545C55.97 14.5488 56.2143 13.3785 56.151 12.5935C56.1192 12.1988 56.0105 11.907 55.8889 11.7275Z" fill="black"/>
<path id="Vector_17" d="M17.4721 18.1731C16.0694 18.1731 14.8139 18.8551 14.0312 19.9013C13.2484 18.8551 11.9929 18.1731 10.5902 18.1731C8.21098 18.1731 6.28125 20.1106 6.28125 22.5053C6.28125 23.4275 6.4285 24.28 6.68425 25.0705C7.90873 28.9455 11.6829 31.2627 13.5507 31.8982C13.8142 31.9912 14.2482 31.9912 14.5117 31.8982C16.3794 31.2627 20.1536 28.9455 21.3781 25.0705C21.6338 24.28 21.7811 23.4275 21.7811 22.5053C21.7811 20.1106 19.8514 18.1731 17.4721 18.1731Z" fill="black"/>
</g>
</g>
</g>
</g>
</g>
<defs>
<filter id="filter0_d_1_1180" x="-939" y="-56" width="1256" height="338" filterUnits="userSpaceOnUse" color-interpolation-filters="sRGB">
<feFlood flood-opacity="0" result="BackgroundImageFix"/>
<feColorMatrix in="SourceAlpha" type="matrix" values="0 0 0 0 0 0 0 0 0 0 0 0 0 0 0 0 0 0 127 0" result="hardAlpha"/>
<feOffset dx="8" dy="12"/>
<feGaussianBlur stdDeviation="14"/>
<feComposite in2="hardAlpha" operator="out"/>
<feColorMatrix type="matrix" values="0 0 0 0 0 0 0 0 0 0 0 0 0 0 0 0 0 0 0.05 0"/>
<feBlend mode="normal" in2="BackgroundImageFix" result="effect1_dropShadow_1_1180"/>
<feBlend mode="normal" in="SourceGraphic" in2="effect1_dropShadow_1_1180" result="shape"/>
</filter>
<clipPath id="clip0_1_1180">
<rect width="1440" height="5526" fill="white" transform="translate(-1039 -940)"/>
</clipPath>
<clipPath id="clip1_1_1180">
<rect width="1440" height="1044" fill="white" transform="translate(-1039 -941.957)"/>
</clipPath>
</defs>
</svg>
