<svg width="40" height="40" viewBox="0 0 40 40" fill="none" xmlns="http://www.w3.org/2000/svg">
<g clip-path="url(#clip0_1_1613)">
<circle cx="20" cy="20" r="20" fill="#835DFE"/>
<path opacity="0.05" fill-rule="evenodd" clip-rule="evenodd" d="M1.68689 11.9482H3.75626V8.42821H3.68566C3.86348 8.17796 4.04692 7.93198 4.23578 7.69045V7.94821H7.75226V4.42821H7.44823C7.70429 4.22155 7.96555 4.02108 8.23178 3.82702V3.94821H11.7483V1.77624C11.907 1.70425 12.0669 1.63427 12.2278 1.56634V3.94821H15.7443V0.453734C15.9034 0.419246 16.0633 0.386653 16.2238 0.355979V3.94821H19.7403V0.00165187C19.8267 0.00055173 19.9133 0 20 0C20.0734 0 20.1466 0.000394956 20.2198 0.00118286V3.94821H23.7363V0.348392C23.8968 0.378726 24.0567 0.410978 24.2158 0.445124V3.94821H27.7323V1.54952C27.8932 1.61704 28.053 1.68661 28.2118 1.75818V3.94821H31.7283V3.79798C32.0083 4.00106 32.2829 4.21123 32.5518 4.42821H32.2078V7.94821H35.7243V7.63954C35.9272 7.89739 36.124 8.16035 36.3143 8.42821H36.2038V11.9482H38.3131C38.3831 12.1071 38.4511 12.2671 38.517 12.4282H36.2038V15.9482H39.5893C39.6221 16.1075 39.653 16.2675 39.682 16.4282H36.2038V19.9482H39.9999C40 19.9655 40 19.9827 40 20C40 20.1431 39.9985 20.2858 39.9955 20.4282H36.2038V23.9482H39.6104C39.5782 24.1089 39.5441 24.2689 39.5081 24.4282H36.2038V27.9482H38.3584C38.2885 28.1093 38.2166 28.2693 38.1427 28.4282H36.2038V31.7258C36.0312 31.9639 35.8534 32.1981 35.6707 32.4282H32.2078V35.8433C31.9469 36.0446 31.6808 36.2397 31.4099 36.4282H28.2118V38.2418C28.053 38.3134 27.8932 38.383 27.7323 38.4505V36.4282H24.2158V39.5549C24.0567 39.589 23.8968 39.6213 23.7363 39.6516V36.4282H20.2198V39.9988C20.1466 39.9996 20.0734 40 20 40C19.9133 40 19.8267 39.9994 19.7403 39.9983V36.4282H16.2238V39.644C16.0633 39.6133 15.9034 39.5808 15.7443 39.5463V36.4282H12.2278V38.4337C12.0669 38.3657 11.907 38.2957 11.7483 38.2238V36.4282H8.59011C8.30535 36.23 8.02597 36.0247 7.75226 35.8124V32.4282H4.32928C4.13245 32.1803 3.94138 31.9277 3.75626 31.6705V28.4282H1.85731C1.78338 28.2693 1.71147 28.1093 1.64163 27.9482H3.75626V24.4282H0.491911C0.455907 24.2689 0.421804 24.1089 0.389627 23.9482H3.75626V20.4282H0.00449286C0.00150259 20.2858 0 20.1431 0 20C0 19.9827 2.19014e-05 19.9655 6.56781e-05 19.9482H3.75626V16.4282H0.318027C0.346994 16.2675 0.37788 16.1075 0.410661 15.9482H3.75626V12.4282H1.48302C1.54894 12.2671 1.61691 12.1071 1.68689 11.9482ZM8.23178 7.94821V4.42821H11.7483V7.94821H8.23178ZM12.2278 7.94821V4.42821H15.7443V7.94821H12.2278ZM16.2238 7.94821V4.42821H19.7403V7.94821H16.2238ZM20.2198 7.94821V4.42821H23.7363V7.94821H20.2198ZM24.2158 7.94821V4.42821H27.7323V7.94821H24.2158ZM28.2118 7.94821V4.42821H31.7283V7.94821H28.2118ZM32.2078 8.42821H35.7243V11.9482H32.2078V8.42821ZM32.2078 12.4282H35.7243V15.9482H32.2078V12.4282ZM32.2078 16.4282H35.7243V19.9482H32.2078V16.4282ZM32.2078 20.4282H35.7243V23.9482H32.2078V20.4282ZM32.2078 24.4282H35.7243V27.9482H32.2078V24.4282ZM32.2078 28.4282H35.7243V31.9482H32.2078V28.4282ZM31.7283 32.4282V35.9482H28.2118V32.4282H31.7283ZM27.7323 32.4282V35.9482H24.2158V32.4282H27.7323ZM23.7363 32.4282V35.9482H20.2198V32.4282H23.7363ZM19.7403 32.4282V35.9482H16.2238V32.4282H19.7403ZM15.7443 32.4282V35.9482H12.2278V32.4282H15.7443ZM11.7483 32.4282V35.9482H8.23178V32.4282H11.7483ZM7.75226 31.9482H4.23578V28.4282H7.75226V31.9482ZM7.75226 27.9482H4.23578V24.4282H7.75226V27.9482ZM7.75226 23.9482H4.23578V20.4282H7.75226V23.9482ZM7.75226 19.9482H4.23578V16.4282H7.75226V19.9482ZM7.75226 15.9482H4.23578V12.4282H7.75226V15.9482ZM7.75226 11.9482H4.23578V8.42821H7.75226V11.9482ZM8.23178 11.9482V8.42821H11.7483V11.9482H8.23178ZM12.2278 11.9482V8.42821H15.7443V11.9482H12.2278ZM16.2238 11.9482V8.42821H19.7403V11.9482H16.2238ZM20.2198 11.9482V8.42821H23.7363V11.9482H20.2198ZM24.2158 11.9482V8.42821H27.7323V11.9482H24.2158ZM28.2118 11.9482V8.42821H31.7283V11.9482H28.2118ZM28.2118 12.4282H31.7283V15.9482H28.2118V12.4282ZM28.2118 16.4282H31.7283V19.9482H28.2118V16.4282ZM28.2118 20.4282H31.7283V23.9482H28.2118V20.4282ZM28.2118 24.4282H31.7283V27.9482H28.2118V24.4282ZM28.2118 28.4282H31.7283V31.9482H28.2118V28.4282ZM27.7323 28.4282V31.9482H24.2158V28.4282H27.7323ZM23.7363 28.4282V31.9482H20.2198V28.4282H23.7363ZM19.7403 28.4282V31.9482H16.2238V28.4282H19.7403ZM15.7443 28.4282V31.9482H12.2278V28.4282H15.7443ZM11.7483 28.4282V31.9482H8.23178V28.4282H11.7483ZM11.7483 27.9482H8.23178V24.4282H11.7483V27.9482ZM11.7483 23.9482H8.23178V20.4282H11.7483V23.9482ZM11.7483 19.9482H8.23178V16.4282H11.7483V19.9482ZM11.7483 15.9482H8.23178V12.4282H11.7483V15.9482ZM12.2278 15.9482V12.4282H15.7443V15.9482H12.2278ZM16.2238 15.9482V12.4282H19.7403V15.9482H16.2238ZM20.2198 15.9482V12.4282H23.7363V15.9482H20.2198ZM24.2158 15.9482V12.4282H27.7323V15.9482H24.2158ZM24.2158 16.4282H27.7323V19.9482H24.2158V16.4282ZM24.2158 20.4282H27.7323V23.9482H24.2158V20.4282ZM24.2158 24.4282H27.7323V27.9482H24.2158V24.4282ZM23.7363 24.4282V27.9482H20.2198V24.4282H23.7363ZM19.7403 24.4282V27.9482H16.2238V24.4282H19.7403ZM15.7443 24.4282V27.9482H12.2278V24.4282H15.7443ZM15.7443 23.9482H12.2278V20.4282H15.7443V23.9482ZM15.7443 19.9482H12.2278V16.4282H15.7443V19.9482ZM16.2238 19.9482V16.4282H19.7403V19.9482H16.2238ZM20.2198 19.9482V16.4282H23.7363V19.9482H20.2198ZM20.2198 20.4282H23.7363V23.9482H20.2198V20.4282ZM19.7403 20.4282V23.9482H16.2238V20.4282H19.7403Z" fill="black"/>
<ellipse cx="20.1819" cy="12.5202" rx="3.9" ry="11.1921" transform="rotate(90 20.1819 12.5202)" fill="#F58C12"/>
<path d="M20.2902 16.7704C14.4249 16.7704 9.67016 15.1757 9.67016 13.6404C9.67016 12.105 14.4249 10.8604 20.2902 10.8604C26.1554 10.8604 30.9102 12.105 30.9102 13.6404C30.9102 15.1757 26.1554 16.7704 20.2902 16.7704Z" fill="#C2E0FF"/>
<path d="M3.53027 31.3505C4.35064 27.2431 5.2915 22.9699 6.0725 19.4227C6.72241 16.4708 7.26163 14.0218 7.52857 12.5896C7.71232 11.2631 8.51381 8.82026 10.2498 9.66026C12.4198 10.7103 11.9898 14.5969 11.5598 16.1786C13.7968 16.9842 16.7886 17.4765 20.0756 17.4765C27.0051 17.4765 32.6225 15.2885 32.6225 12.5896L36.2363 31.6809C32.6048 36.7199 26.6854 40.0003 19.9998 40.0003C13.1692 40.0003 7.13837 36.576 3.53027 31.3505Z" fill="#FFB140"/>
<path d="M11.4902 16.1531C12.5742 12.1834 11.0385 10.1352 10.1352 9.6073C10.4337 9.45656 10.7543 9.3128 11.0952 9.17676C11.9118 10.2036 13.3002 13.092 12.3202 16.4312C12.0331 16.3432 11.7562 16.2504 11.4902 16.1531Z" fill="#D9D9D9"/>
<path fill-rule="evenodd" clip-rule="evenodd" d="M32.6521 12.5896C32.6521 9.89058 27.0346 7.70264 20.1051 7.70264C16.5847 7.70264 13.398 8.25074 11.1194 9.16025C10.7785 9.2963 10.4079 9.44951 10.1094 9.60025C11.0127 10.1282 12.5487 12.1945 11.4647 16.1642C11.7308 16.2615 12.0597 16.3658 12.3468 16.4538C14.4814 17.1085 17.1774 17.4765 20.1051 17.4765C27.0346 17.4765 32.6521 15.2885 32.6521 12.5896ZM20.1051 16.4503C28.6017 16.6727 31.0965 14.0435 31.2244 12.6703C31.2244 10.5246 26.1394 8.70025 20.1051 8.77025C15.2777 8.82625 12.4685 9.65025 11.6894 10.0853C11.9584 10.6082 12.2334 11.2938 12.4187 12.0792C12.711 13.4698 12.6818 14.8583 12.5794 15.5153C14.0367 16.2353 19.0994 16.4503 20.1051 16.4503Z" fill="white"/>
<path fill-rule="evenodd" clip-rule="evenodd" d="M19.5125 4.10926C19.6262 4.03094 19.7819 4.05963 19.8602 4.17333C20.1816 4.63997 20.6124 5.54157 20.8965 6.55718C21.1797 7.5697 21.3295 8.73878 21.0445 9.72459C20.7111 10.8777 20.4317 11.939 20.3731 12.8137C20.3143 13.6928 20.483 14.3047 20.9535 14.6545C21.0643 14.7369 21.0873 14.8935 21.0049 15.0043C20.9226 15.1151 20.766 15.1382 20.6552 15.0558C19.9756 14.5505 19.8119 13.7125 19.8743 12.7803C19.9369 11.8438 20.2325 10.7326 20.5642 9.58571C20.8111 8.73151 20.6885 7.66976 20.4149 6.69187C20.1423 5.71706 19.732 4.86866 19.4484 4.45696C19.3701 4.34326 19.3988 4.18758 19.5125 4.10926Z" fill="black"/>
<path fill-rule="evenodd" clip-rule="evenodd" d="M17.5238 10.1835C17.6434 10.1146 17.7963 10.1557 17.8652 10.2754C18.1484 10.7673 18.1749 11.4831 17.5548 13.1953C17.4411 13.5091 17.4379 13.9015 17.5299 14.2568C17.6233 14.6178 17.8012 14.8911 17.9988 15.0117C18.1166 15.0837 18.1538 15.2375 18.0819 15.3554C18.0099 15.4732 17.8561 15.5105 17.7382 15.4385C17.3871 15.2241 17.1566 14.81 17.0458 14.3822C16.9336 13.9488 16.9303 13.4511 17.0847 13.025C17.7032 11.3172 17.5919 10.8029 17.4318 10.5249C17.363 10.4052 17.4041 10.2524 17.5238 10.1835Z" fill="black"/>
<path fill-rule="evenodd" clip-rule="evenodd" d="M23.0384 10.1835C23.1581 10.1146 23.3109 10.1557 23.3798 10.2754C23.663 10.7673 23.6895 11.4831 23.0694 13.1953C22.9558 13.5091 22.9525 13.9015 23.0445 14.2568C23.1379 14.6178 23.3158 14.8911 23.5134 15.0117C23.6313 15.0837 23.6685 15.2375 23.5965 15.3554C23.5246 15.4732 23.3707 15.5105 23.2529 15.4385C22.9017 15.2241 22.6712 14.81 22.5605 14.3822C22.4483 13.9488 22.445 13.4511 22.5993 13.025C23.2178 11.3172 23.1066 10.8029 22.9465 10.5249C22.8776 10.4052 22.9188 10.2524 23.0384 10.1835Z" fill="black"/>
<path fill-rule="evenodd" clip-rule="evenodd" d="M12.6851 15.5638L11.7696 16.2691L8.41014 36.2576L8.31152 36.241L11.6748 16.2375L12.5791 15.515L12.6851 15.5638Z" fill="#B46203"/>
<path fill-rule="evenodd" clip-rule="evenodd" d="M30.0842 14.3787L31.0321 14.994L34.7848 33.389L34.8828 33.369L31.1138 14.9366L30.1764 14.3076L30.0842 14.3787Z" fill="#B46203"/>
<path fill-rule="evenodd" clip-rule="evenodd" d="M19.2993 16.43L18.5589 17.4415L15.7477 39.5458L15.6484 39.5333L18.4648 17.4369L19.1943 16.4279L19.2993 16.43Z" fill="#B46203"/>
<path fill-rule="evenodd" clip-rule="evenodd" d="M24.0089 16.328L24.4214 17.1787L27.2006 38.6712L27.2998 38.6584L24.5204 17.1649L24.1145 16.3184L24.0089 16.328Z" fill="#B46203"/>
</g>
<defs>
<clipPath id="clip0_1_1613">
<rect width="40" height="40" fill="white"/>
</clipPath>
</defs>
</svg>
