<svg width="120" height="120" viewBox="0 0 120 120" fill="none" xmlns="http://www.w3.org/2000/svg">
<g clip-path="url(#clip0_1_2855)">
<circle cx="60" cy="60" r="60" fill="#835DFE"/>
<path d="M114.633 84.8392C118.08 77.2703 120 68.8594 120 60.0001C120 56.8371 119.755 53.7314 119.284 50.7007L117.856 51.1114C112.837 52.5554 109.38 57.1474 109.38 62.3701L105.622 63.3983C102.11 64.3589 99.6752 67.5496 99.6752 71.1901H99.1923C94.469 71.1901 90.085 73.644 87.6152 77.6701L114.633 84.8392Z" fill="white"/>
<path d="M5.44835 85.0168C2.11835 77.7673 0.190948 69.7398 0.0136719 61.282L1.44544 61.021C5.22899 60.3313 8.91792 62.627 9.97013 66.3262L10.0353 66.5551L11.4602 66.4771C14.6814 66.3008 17.4995 68.6243 17.9403 71.8201L20.2046 71.7048C22.771 71.5741 25.176 72.9584 26.3521 75.2432L27.8253 78.1051L5.44835 85.0168Z" fill="white"/>
<path d="M115.163 83.6397C105.987 105.022 84.7423 119.999 59.9998 119.999C35.2573 119.999 14.0128 105.022 4.83691 83.6397C20.3589 78.2487 39.4103 75.0731 59.9998 75.0731C80.5893 75.0731 99.6407 78.2487 115.163 83.6397Z" fill="#6A49D4"/>
<path d="M97.0371 107.208L104.804 40.5769L113.366 87.4508C109.394 95.1581 103.8 101.894 97.0371 107.208Z" fill="#F58C12"/>
<path d="M9.64648 92.6409L11.9957 41.9715C12.1538 38.5611 14.9648 35.8774 18.3789 35.8774H98.6184C102.423 35.8774 105.384 39.181 104.97 42.9628L98.0249 106.414C87.6739 114.905 74.4318 120 59.9995 120C38.8995 120 20.3434 109.109 9.64648 92.6409Z" fill="white"/>
<path d="M46.7856 67.8818H27.21L25.0938 85.5175H44.5812L46.7856 67.8818Z" fill="#1BB1F8"/>
<path d="M102.234 67.9702L100.285 85.773L64.0684 85.165L66.0965 67.9702H102.234Z" fill="#1BB1F8"/>
<path opacity="0.5" d="M66.6297 67.8149H46.4997L42.3447 102.96H62.0547L66.6297 67.8149Z" fill="#1BB1F8"/>
<path d="M22.1412 106.55L28.6227 50.8096L29.7551 50.9412L23.1917 107.386C22.8384 107.111 22.4882 106.833 22.1412 106.55Z" fill="black"/>
<path d="M40.4558 116.745L48.1227 50.8096L49.2551 50.9412L41.5607 117.113C41.1908 116.994 40.8225 116.871 40.4558 116.745Z" fill="black"/>
<path d="M59.5775 119.998L67.6227 50.8096L68.7551 50.9412L60.7255 119.996C60.4841 119.999 60.2423 120 60.0001 120C59.8591 120 59.7183 119.999 59.5775 119.998Z" fill="black"/>
<path d="M79.4521 116.777L87.1227 50.8096L88.2551 50.9412L80.6492 116.352C80.2521 116.498 79.8531 116.639 79.4521 116.777Z" fill="black"/>
<path d="M18.4794 103.313C18.0885 102.938 17.7027 102.558 17.3221 102.173H98.4897L98.3649 103.313H18.4794Z" fill="black"/>
<path d="M100.394 84.7732L100.27 85.9132H9.95898L10.0118 84.7732H100.394Z" fill="black"/>
<path d="M102.299 67.3732L102.174 68.5132H10.7657L10.8186 67.3732H102.299Z" fill="black"/>
<path d="M11.5312 51.9997L11.9962 41.9712C12.1543 38.5609 14.9653 35.8772 18.3794 35.8772H98.6189C102.423 35.8772 105.385 39.1807 104.971 42.9625L103.982 51.9997H11.5312Z" fill="#FFB140"/>
<path d="M34.3228 39.6098C34.3228 40.8057 33.3534 41.7751 32.1576 41.7751C30.9618 41.7751 29.9924 40.8057 29.9924 39.6098C29.9924 38.414 30.9618 37.4446 32.1576 37.4446C33.3534 37.4446 34.3228 38.414 34.3228 39.6098Z" fill="white"/>
<path d="M30.4274 35.1244C30.4274 32.2736 32.7384 29.9625 35.5892 29.9625C38.44 29.9625 40.751 32.2736 40.751 35.1244C40.751 35.3811 40.7323 35.6331 40.6963 35.8792H41.816C41.8458 35.6316 41.861 35.3796 41.861 35.1244C41.861 31.6605 39.0531 28.8525 35.5892 28.8525C32.1254 28.8525 29.3174 31.6605 29.3174 35.1244C29.3174 37.1568 30.2847 38.9635 31.7819 40.1087C32.0253 40.2949 32.3736 40.2485 32.5599 40.0051C32.7461 39.7616 32.6997 39.4133 32.4562 39.2271C31.2219 38.2829 30.4274 36.7965 30.4274 35.1244Z" fill="black"/>
<path d="M56.8531 39.6098C56.8531 40.8057 55.8837 41.7751 54.6879 41.7751C53.4921 41.7751 52.5227 40.8057 52.5227 39.6098C52.5227 38.414 53.4921 37.4446 54.6879 37.4446C55.8837 37.4446 56.8531 38.414 56.8531 39.6098Z" fill="white"/>
<path d="M52.9577 35.1244C52.9577 32.2736 55.2687 29.9625 58.1195 29.9625C60.9703 29.9625 63.2813 32.2736 63.2813 35.1244C63.2813 35.3811 63.2626 35.6331 63.2266 35.8792H64.3463C64.376 35.6316 64.3913 35.3796 64.3913 35.1244C64.3913 31.6605 61.5833 28.8525 58.1195 28.8525C54.6557 28.8525 51.8477 31.6605 51.8477 35.1244C51.8477 37.1568 52.815 38.9635 54.3121 40.1087C54.5556 40.2949 54.9039 40.2485 55.0901 40.0051C55.2764 39.7616 55.23 39.4133 54.9865 39.2271C53.7521 38.2829 52.9577 36.7965 52.9577 35.1244Z" fill="black"/>
<path d="M79.3824 39.6098C79.3824 40.8057 78.413 41.7751 77.2172 41.7751C76.0214 41.7751 75.052 40.8057 75.052 39.6098C75.052 38.414 76.0214 37.4446 77.2172 37.4446C78.413 37.4446 79.3824 38.414 79.3824 39.6098Z" fill="white"/>
<path d="M75.487 35.1244C75.487 32.2736 77.798 29.9625 80.6488 29.9625C83.4996 29.9625 85.8106 32.2736 85.8106 35.1244C85.8106 35.3811 85.7919 35.6331 85.7559 35.8792H86.8756C86.9053 35.6316 86.9206 35.3796 86.9206 35.1244C86.9206 31.6605 84.1126 28.8525 80.6488 28.8525C77.1849 28.8525 74.377 31.6605 74.377 35.1244C74.377 37.1568 75.3443 38.9635 76.8414 40.1087C77.0849 40.2949 77.4332 40.2485 77.6194 40.0051C77.8057 39.7616 77.7593 39.4133 77.5158 39.2271C76.2814 38.2829 75.487 36.7965 75.487 35.1244Z" fill="black"/>
</g>
<defs>
<clipPath id="clip0_1_2855">
<rect width="120" height="120" fill="white"/>
</clipPath>
</defs>
</svg>
