<svg width="40" height="40" viewBox="0 0 40 40" fill="none" xmlns="http://www.w3.org/2000/svg">
<g clip-path="url(#clip0_1_1636)">
<circle cx="20" cy="20" r="20" fill="#835DFE"/>
<path opacity="0.05" fill-rule="evenodd" clip-rule="evenodd" d="M1.68689 11.9482H3.75626V8.42821H3.68566C3.86348 8.17796 4.04692 7.93198 4.23578 7.69045V7.94821H7.75226V4.42821H7.44823C7.70429 4.22155 7.96555 4.02108 8.23178 3.82702V3.94821H11.7483V1.77624C11.907 1.70425 12.0669 1.63427 12.2278 1.56634V3.94821H15.7443V0.453734C15.9034 0.419246 16.0633 0.386653 16.2238 0.355979V3.94821H19.7403V0.00165187C19.8267 0.00055173 19.9133 0 20 0C20.0734 0 20.1466 0.000394956 20.2198 0.00118286V3.94821H23.7363V0.348392C23.8968 0.378726 24.0567 0.410978 24.2158 0.445124V3.94821H27.7323V1.54952C27.8932 1.61704 28.053 1.68661 28.2118 1.75818V3.94821H31.7283V3.79798C32.0083 4.00106 32.2829 4.21123 32.5518 4.42821H32.2078V7.94821H35.7243V7.63954C35.9272 7.89739 36.124 8.16035 36.3143 8.42821H36.2038V11.9482H38.3131C38.3831 12.1071 38.4511 12.2671 38.517 12.4282H36.2038V15.9482H39.5893C39.6221 16.1075 39.653 16.2675 39.682 16.4282H36.2038V19.9482H39.9999C40 19.9655 40 19.9827 40 20C40 20.1431 39.9985 20.2858 39.9955 20.4282H36.2038V23.9482H39.6104C39.5782 24.1089 39.5441 24.2689 39.5081 24.4282H36.2038V27.9482H38.3584C38.2885 28.1093 38.2166 28.2693 38.1427 28.4282H36.2038V31.7258C36.0312 31.9639 35.8534 32.1981 35.6707 32.4282H32.2078V35.8433C31.9469 36.0446 31.6808 36.2397 31.4099 36.4282H28.2118V38.2418C28.053 38.3134 27.8932 38.383 27.7323 38.4505V36.4282H24.2158V39.5549C24.0567 39.589 23.8968 39.6213 23.7363 39.6516V36.4282H20.2198V39.9988C20.1466 39.9996 20.0734 40 20 40C19.9133 40 19.8267 39.9994 19.7403 39.9983V36.4282H16.2238V39.644C16.0633 39.6133 15.9034 39.5808 15.7443 39.5463V36.4282H12.2278V38.4337C12.0669 38.3657 11.907 38.2957 11.7483 38.2238V36.4282H8.59011C8.30535 36.23 8.02597 36.0247 7.75226 35.8124V32.4282H4.32928C4.13245 32.1803 3.94138 31.9277 3.75626 31.6705V28.4282H1.85731C1.78338 28.2693 1.71147 28.1093 1.64163 27.9482H3.75626V24.4282H0.491911C0.455907 24.2689 0.421804 24.1089 0.389627 23.9482H3.75626V20.4282H0.00449286C0.00150259 20.2858 0 20.1431 0 20C0 19.9827 2.19014e-05 19.9655 6.56781e-05 19.9482H3.75626V16.4282H0.318027C0.346994 16.2675 0.37788 16.1075 0.410661 15.9482H3.75626V12.4282H1.48302C1.54894 12.2671 1.61691 12.1071 1.68689 11.9482ZM8.23178 7.94821V4.42821H11.7483V7.94821H8.23178ZM12.2278 7.94821V4.42821H15.7443V7.94821H12.2278ZM16.2238 7.94821V4.42821H19.7403V7.94821H16.2238ZM20.2198 7.94821V4.42821H23.7363V7.94821H20.2198ZM24.2158 7.94821V4.42821H27.7323V7.94821H24.2158ZM28.2118 7.94821V4.42821H31.7283V7.94821H28.2118ZM32.2078 8.42821H35.7243V11.9482H32.2078V8.42821ZM32.2078 12.4282H35.7243V15.9482H32.2078V12.4282ZM32.2078 16.4282H35.7243V19.9482H32.2078V16.4282ZM32.2078 20.4282H35.7243V23.9482H32.2078V20.4282ZM32.2078 24.4282H35.7243V27.9482H32.2078V24.4282ZM32.2078 28.4282H35.7243V31.9482H32.2078V28.4282ZM31.7283 32.4282V35.9482H28.2118V32.4282H31.7283ZM27.7323 32.4282V35.9482H24.2158V32.4282H27.7323ZM23.7363 32.4282V35.9482H20.2198V32.4282H23.7363ZM19.7403 32.4282V35.9482H16.2238V32.4282H19.7403ZM15.7443 32.4282V35.9482H12.2278V32.4282H15.7443ZM11.7483 32.4282V35.9482H8.23178V32.4282H11.7483ZM7.75226 31.9482H4.23578V28.4282H7.75226V31.9482ZM7.75226 27.9482H4.23578V24.4282H7.75226V27.9482ZM7.75226 23.9482H4.23578V20.4282H7.75226V23.9482ZM7.75226 19.9482H4.23578V16.4282H7.75226V19.9482ZM7.75226 15.9482H4.23578V12.4282H7.75226V15.9482ZM7.75226 11.9482H4.23578V8.42821H7.75226V11.9482ZM8.23178 11.9482V8.42821H11.7483V11.9482H8.23178ZM12.2278 11.9482V8.42821H15.7443V11.9482H12.2278ZM16.2238 11.9482V8.42821H19.7403V11.9482H16.2238ZM20.2198 11.9482V8.42821H23.7363V11.9482H20.2198ZM24.2158 11.9482V8.42821H27.7323V11.9482H24.2158ZM28.2118 11.9482V8.42821H31.7283V11.9482H28.2118ZM28.2118 12.4282H31.7283V15.9482H28.2118V12.4282ZM28.2118 16.4282H31.7283V19.9482H28.2118V16.4282ZM28.2118 20.4282H31.7283V23.9482H28.2118V20.4282ZM28.2118 24.4282H31.7283V27.9482H28.2118V24.4282ZM28.2118 28.4282H31.7283V31.9482H28.2118V28.4282ZM27.7323 28.4282V31.9482H24.2158V28.4282H27.7323ZM23.7363 28.4282V31.9482H20.2198V28.4282H23.7363ZM19.7403 28.4282V31.9482H16.2238V28.4282H19.7403ZM15.7443 28.4282V31.9482H12.2278V28.4282H15.7443ZM11.7483 28.4282V31.9482H8.23178V28.4282H11.7483ZM11.7483 27.9482H8.23178V24.4282H11.7483V27.9482ZM11.7483 23.9482H8.23178V20.4282H11.7483V23.9482ZM11.7483 19.9482H8.23178V16.4282H11.7483V19.9482ZM11.7483 15.9482H8.23178V12.4282H11.7483V15.9482ZM12.2278 15.9482V12.4282H15.7443V15.9482H12.2278ZM16.2238 15.9482V12.4282H19.7403V15.9482H16.2238ZM20.2198 15.9482V12.4282H23.7363V15.9482H20.2198ZM24.2158 15.9482V12.4282H27.7323V15.9482H24.2158ZM24.2158 16.4282H27.7323V19.9482H24.2158V16.4282ZM24.2158 20.4282H27.7323V23.9482H24.2158V20.4282ZM24.2158 24.4282H27.7323V27.9482H24.2158V24.4282ZM23.7363 24.4282V27.9482H20.2198V24.4282H23.7363ZM19.7403 24.4282V27.9482H16.2238V24.4282H19.7403ZM15.7443 24.4282V27.9482H12.2278V24.4282H15.7443ZM15.7443 23.9482H12.2278V20.4282H15.7443V23.9482ZM15.7443 19.9482H12.2278V16.4282H15.7443V19.9482ZM16.2238 19.9482V16.4282H19.7403V19.9482H16.2238ZM20.2198 19.9482V16.4282H23.7363V19.9482H20.2198ZM20.2198 20.4282H23.7363V23.9482H20.2198V20.4282ZM19.7403 20.4282V23.9482H16.2238V20.4282H19.7403Z" fill="black"/>
<path d="M29.2318 19.4761C29.9405 14.3938 26.3912 9.6987 21.3042 8.9893C17.0581 8.39715 12.9401 10.1652 11.6097 14.5701C11.3424 15.4552 12.3147 17.8192 17.5347 20.3552C24.0597 23.5252 28.115 22.8552 28.7547 21.5352C29.0843 20.8552 29.1092 20.3552 29.2318 19.4761Z" fill="#F58C12"/>
<path d="M31.0447 7.34016C28.5328 7.34016 26.247 8.53847 24.7347 10.3102C24.2747 10.0102 23.3647 9.60515 22.5947 9.37015C23.6247 6.62016 30.7797 3.03517 34.3647 5.99517C35.8757 7.24275 37.2147 9.72516 37.6047 10.5002C36.0979 8.53252 33.7145 7.34016 31.0447 7.34016Z" fill="#F58C12"/>
<path d="M28.7915 21.4369C28.0635 23.1835 23.6446 23.0034 18.9216 21.0347C14.1986 19.0661 10.9568 16.0718 11.6849 14.3252C12.4129 12.5786 16.835 12.7411 21.558 14.7098C26.281 16.6784 29.5196 19.6903 28.7915 21.4369Z" fill="#FFB140"/>
<path d="M21.1482 15.106C17.0154 13.3834 15.0773 13.1365 12.205 15.106L0.305043 23.4802C1.10504 31.6701 11.81 44.4301 27.6551 38.5302C27.3772 31.2821 27.3077 24.0905 27.3077 21.4006C27.3077 18.4102 25.281 16.8287 21.1482 15.106Z" fill="white" fill-opacity="0.4"/>
<path fill-rule="evenodd" clip-rule="evenodd" d="M12.3692 18.9096C12.4524 19.0198 12.4304 19.1766 12.3201 19.2597L10.5051 20.6281C10.3949 20.7112 10.2381 20.6892 10.155 20.5789C10.0719 20.4687 10.0939 20.3119 10.2041 20.2288L12.0191 18.8604C12.1294 18.7773 12.2861 18.7993 12.3692 18.9096ZM8.93425 21.4993C9.01737 21.6095 8.99537 21.7663 8.88512 21.8494L5.81762 24.1621C5.70737 24.2452 5.55062 24.2232 5.4675 24.1129C5.38438 24.0027 5.40637 23.8459 5.51662 23.7628L8.58412 21.4502C8.69437 21.367 8.85113 21.389 8.93425 21.4993ZM4.44925 24.8806C4.53237 24.9909 4.51037 25.1476 4.40012 25.2307L2.75012 26.4747C2.63987 26.5578 2.48312 26.5358 2.4 26.4256C2.31688 26.3153 2.33887 26.1586 2.44912 26.0754L4.09912 24.8315C4.20937 24.7484 4.36613 24.7704 4.44925 24.8806Z" fill="white"/>
<path fill-rule="evenodd" clip-rule="evenodd" d="M14.2626 21.7284C14.3796 21.8019 14.4148 21.9562 14.3414 22.0731L13.2201 23.8581C13.1467 23.975 12.9924 24.0102 12.8754 23.9368C12.7585 23.8634 12.7233 23.709 12.7967 23.5921L13.918 21.8071C13.9914 21.6902 14.1457 21.655 14.2626 21.7284ZM11.4737 26.1684C11.5906 26.2418 11.6258 26.3962 11.5524 26.5131L10.5191 28.1581C10.4457 28.275 10.2913 28.3102 10.1744 28.2368C10.0575 28.1634 10.0223 28.009 10.0957 27.8921L11.129 26.2471C11.2024 26.1302 11.3568 26.095 11.4737 26.1684ZM9.23434 29.7334C9.35126 29.8068 9.38651 29.9612 9.31306 30.0781L7.60137 32.8031C7.52792 32.92 7.37361 32.9553 7.25669 32.8818C7.13977 32.8084 7.10453 32.6541 7.17797 32.5371L8.88966 29.8121C8.96311 29.6952 9.11742 29.66 9.23434 29.7334Z" fill="white"/>
<path fill-rule="evenodd" clip-rule="evenodd" d="M17.8667 22.9201C17.9992 22.9589 18.0752 23.0978 18.0364 23.2303L17.5473 24.9003C17.5085 25.0328 17.3696 25.1088 17.2371 25.07C17.1046 25.0312 17.0286 24.8923 17.0674 24.7598L17.5565 23.0898C17.5953 22.9573 17.7342 22.8813 17.8667 22.9201ZM16.9061 26.2001C17.0386 26.2389 17.1146 26.3778 17.0758 26.5103L16.2777 29.2353C16.2389 29.3678 16.1 29.4438 15.9675 29.405C15.835 29.3662 15.7591 29.2273 15.7979 29.0948L16.5959 26.3698C16.6347 26.2373 16.7736 26.1613 16.9061 26.2001ZM15.1489 32.2001C15.2814 32.2389 15.3574 32.3778 15.3186 32.5103L14.1764 36.4103C14.1376 36.5428 13.9987 36.6188 13.8662 36.58C13.7337 36.5412 13.6577 36.4023 13.6965 36.2698L14.8387 32.3698C14.8775 32.2373 15.0164 32.1613 15.1489 32.2001Z" fill="white"/>
<path fill-rule="evenodd" clip-rule="evenodd" d="M24.7385 23.6202C24.8764 23.6146 24.9927 23.722 24.9982 23.86L25.0873 26.09C25.0928 26.2279 24.9855 26.3442 24.8475 26.3498C24.7095 26.3553 24.5932 26.2479 24.5877 26.1099L24.4986 23.8799C24.4931 23.742 24.6005 23.6257 24.7385 23.6202ZM24.8851 27.2902C25.023 27.2846 25.1393 27.392 25.1448 27.53L25.2529 30.235C25.2584 30.3729 25.151 30.4892 25.0131 30.4948C24.8751 30.5003 24.7588 30.3929 24.7533 30.2549L24.6452 27.5499C24.6397 27.412 24.7471 27.2957 24.8851 27.2902ZM25.1232 33.2502C25.2611 33.2446 25.3774 33.352 25.3829 33.49L25.5391 37.4C25.5446 37.5379 25.4373 37.6542 25.2993 37.6598C25.1614 37.6653 25.045 37.5579 25.0395 37.4199L24.8833 33.5099C24.8778 33.372 24.9852 33.2557 25.1232 33.2502Z" fill="white"/>
<path fill-rule="evenodd" clip-rule="evenodd" d="M21.4861 24.1907C21.6238 24.2006 21.7275 24.3202 21.7176 24.4579L21.6307 25.6729C21.6209 25.8106 21.5013 25.9143 21.3635 25.9044C21.2258 25.8946 21.1222 25.775 21.132 25.6372L21.2189 24.4222C21.2288 24.2845 21.3484 24.1809 21.4861 24.1907ZM21.2343 27.7107C21.372 27.7206 21.4757 27.8402 21.4659 27.9779L21.3314 29.8579C21.3215 29.9956 21.2019 30.0993 21.0642 30.0894C20.9265 30.0796 20.8228 29.96 20.8326 29.8222L20.9671 27.9422C20.977 27.8045 21.0966 27.7009 21.2343 27.7107ZM20.7687 34.2207C20.9064 34.2306 21.01 34.3502 21.0002 34.4879L20.7491 37.9979C20.7393 38.1356 20.6196 38.2393 20.4819 38.2294C20.3442 38.2196 20.2405 38.0999 20.2504 37.9622L20.5015 34.4522C20.5113 34.3145 20.6309 34.2109 20.7687 34.2207Z" fill="white"/>
<path d="M23.6878 21.0599C23.6154 21.2335 23.2529 21.2476 22.8782 21.0914C22.5034 20.9352 22.2578 20.6695 22.3302 20.4959C22.4026 20.3223 22.7655 20.3065 23.1402 20.4627C23.515 20.6189 23.7602 20.8863 23.6878 21.0599Z" fill="black"/>
<path d="M26.2376 19.87C26.1652 20.0436 25.8027 20.0577 25.428 19.9015C25.0532 19.7453 24.8076 19.4796 24.88 19.306C24.9524 19.1323 25.3153 19.1165 25.69 19.2727C26.0648 19.4289 26.31 19.6963 26.2376 19.87Z" fill="black"/>
<path d="M24.6184 17.7401C24.5461 17.9137 24.1836 17.9278 23.8088 17.7716C23.434 17.6154 23.1885 17.3497 23.2609 17.1761C23.3332 17.0025 23.6961 16.9866 24.0709 17.1428C24.4457 17.2991 24.6908 17.5665 24.6184 17.7401Z" fill="black"/>
<path d="M20.9178 16.1801C20.8454 16.3537 20.4829 16.3678 20.1081 16.2116C19.7334 16.0554 19.4878 15.7897 19.5602 15.6161C19.6326 15.4425 19.9954 15.4266 20.3702 15.5829C20.745 15.7391 20.9901 16.0065 20.9178 16.1801Z" fill="black"/>
<path d="M16.7278 14.9901C16.6554 15.1637 16.293 15.1778 15.9182 15.0216C15.5434 14.8654 15.2979 14.5997 15.3702 14.4261C15.4426 14.2525 15.8055 14.2366 16.1803 14.3928C16.555 14.5491 16.8002 14.8165 16.7278 14.9901Z" fill="black"/>
<path d="M15.1077 17.1703C15.0353 17.3439 14.6728 17.358 14.2981 17.2018C13.9233 17.0455 13.6778 16.7799 13.7501 16.6063C13.8225 16.4326 14.1854 16.4168 14.5602 16.573C14.9349 16.7292 15.1801 16.9966 15.1077 17.1703Z" fill="black"/>
<path d="M18.9085 17.1502C18.8361 17.3239 18.4736 17.338 18.0989 17.1817C17.7241 17.0255 17.4785 16.7599 17.5509 16.5862C17.6233 16.4126 17.9862 16.3968 18.3609 16.553C18.7357 16.7092 18.9809 16.9766 18.9085 17.1502Z" fill="black"/>
<path d="M22.3284 18.7498C22.256 18.9235 21.8936 18.9376 21.5188 18.7814C21.144 18.6251 20.8985 18.3595 20.9708 18.1858C21.0432 18.0122 21.4061 17.9964 21.7809 18.1526C22.1556 18.3088 22.4008 18.5762 22.3284 18.7498Z" fill="black"/>
<path d="M20.3684 19.9002C20.2961 20.0739 19.9336 20.088 19.5588 19.9317C19.184 19.7755 18.9385 19.5099 19.0109 19.3362C19.0832 19.1626 19.4461 19.1468 19.8209 19.303C20.1957 19.4592 20.4408 19.7266 20.3684 19.9002Z" fill="black"/>
<path d="M17.5384 18.68C17.466 18.8536 17.1035 18.8677 16.7287 18.7115C16.354 18.5553 16.1084 18.2896 16.1808 18.116C16.2532 17.9424 16.616 17.9266 16.9908 18.0828C17.3656 18.239 17.6107 18.5064 17.5384 18.68Z" fill="black"/>
</g>
<defs>
<clipPath id="clip0_1_1636">
<rect width="40" height="40" fill="white"/>
</clipPath>
</defs>
</svg>
