<svg width="390" height="246" viewBox="0 0 390 246" fill="none" xmlns="http://www.w3.org/2000/svg">
<ellipse cx="195.001" cy="123" rx="122.755" ry="122.5" fill="#1BB1F8"/>
<mask id="mask0_1_5560" style="mask-type:alpha" maskUnits="userSpaceOnUse" x="72" y="0" width="246" height="246">
<ellipse cx="194.999" cy="123" rx="122.755" ry="122.5" fill="#1BB1F8"/>
</mask>
<g mask="url(#mask0_1_5560)">
<ellipse cx="194.999" cy="123" rx="122.755" ry="122.5" fill="#835DFE"/>
<path opacity="0.05" fill-rule="evenodd" clip-rule="evenodd" d="M75.4166 66.9507H88.6813V44.4341H88.2287C89.3686 42.8333 90.5444 41.2598 91.7551 39.7148V41.3636H114.296V18.847H112.347C113.988 17.5251 115.663 16.2427 117.37 15.0014V15.7766H139.91V1.88298C140.928 1.42246 141.953 0.97481 142.984 0.540248V15.7766H165.525V-6.57682C166.545 -6.79742 167.57 -7.00592 168.599 -7.20213V15.7766H191.14V-9.46868C191.694 -9.47572 192.249 -9.47925 192.804 -9.47925C193.275 -9.47925 193.744 -9.47672 194.213 -9.47168V15.7766H216.754V-7.25066C217.783 -7.05662 218.808 -6.85031 219.828 -6.63189V15.7766H242.369V0.432708C243.4 0.864612 244.425 1.30959 245.442 1.76743V15.7766H267.983V14.8156C269.778 16.1146 271.538 17.459 273.262 18.847H271.057V41.3636H293.598V39.3891C294.899 41.0386 296.16 42.7207 297.38 44.4341H296.672V66.9507H310.192C310.641 67.9674 311.077 68.9909 311.499 70.0212H296.672V92.5377H318.373C318.583 93.5568 318.781 94.5804 318.967 95.6082H296.672V118.125H321.005C321.005 118.235 321.005 118.346 321.005 118.456C321.005 119.371 320.996 120.285 320.977 121.195H296.672V143.712H318.508C318.302 144.74 318.083 145.763 317.852 146.782H296.672V169.299H310.482C310.035 170.33 309.574 171.353 309.1 172.369H296.672V193.464C295.565 194.987 294.426 196.485 293.255 197.957H271.057V219.802C269.384 221.09 267.679 222.338 265.942 223.544H245.442V235.145C244.425 235.603 243.4 236.048 242.369 236.48V223.544H219.828V243.544C218.808 243.763 217.783 243.969 216.754 244.163V223.544H194.213V246.384C193.744 246.389 193.275 246.392 192.804 246.392C192.249 246.392 191.694 246.388 191.14 246.381V223.544H168.599V244.115C167.57 243.918 166.545 243.71 165.525 243.489V223.544H142.984V236.372C141.953 235.938 140.928 235.49 139.91 235.029V223.544H119.667C117.841 222.276 116.05 220.962 114.296 219.604V197.957H92.3544C91.0927 196.371 89.8679 194.755 88.6813 193.11V172.369H76.509C76.0351 171.353 75.5741 170.33 75.1264 169.299H88.6813V146.782H67.7567C67.5259 145.763 67.3073 144.74 67.101 143.712H88.6813V121.195H64.6323C64.6131 120.285 64.6035 119.371 64.6035 118.456C64.6035 118.346 64.6037 118.235 64.6039 118.125H88.6813V95.6082H66.6421C66.8278 94.5804 67.0257 93.5568 67.2359 92.5377H88.6813V70.0212H74.1097C74.5323 68.9909 74.968 67.9674 75.4166 66.9507ZM117.37 41.3636V18.847H139.91V41.3636H117.37ZM142.984 41.3636V18.847H165.525V41.3636H142.984ZM168.599 41.3636V18.847H191.14V41.3636H168.599ZM194.213 41.3636V18.847H216.754V41.3636H194.213ZM219.828 41.3636V18.847H242.369V41.3636H219.828ZM245.442 41.3636V18.847H267.983V41.3636H245.442ZM271.057 44.4341H293.598V66.9507H271.057V44.4341ZM271.057 70.0212H293.598V92.5377H271.057V70.0212ZM271.057 95.6082H293.598V118.125H271.057V95.6082ZM271.057 121.195H293.598V143.712H271.057V121.195ZM271.057 146.782H293.598V169.299H271.057V146.782ZM271.057 172.369H293.598V194.886H271.057V172.369ZM267.983 197.957V220.473H245.442V197.957H267.983ZM242.369 197.957V220.473H219.828V197.957H242.369ZM216.754 197.957V220.473H194.213V197.957H216.754ZM191.14 197.957V220.473H168.599V197.957H191.14ZM165.525 197.957V220.473H142.984V197.957H165.525ZM139.91 197.957V220.473H117.37V197.957H139.91ZM114.296 194.886H91.7551V172.369H114.296V194.886ZM114.296 169.299H91.7551V146.782H114.296V169.299ZM114.296 143.712H91.7551V121.195H114.296V143.712ZM114.296 118.125H91.7551V95.6082H114.296V118.125ZM114.296 92.5377H91.7551V70.0212H114.296V92.5377ZM114.296 66.9507H91.7551V44.4341H114.296V66.9507ZM117.37 66.9507V44.4341H139.91V66.9507H117.37ZM142.984 66.9507V44.4341H165.525V66.9507H142.984ZM168.599 66.9507V44.4341H191.14V66.9507H168.599ZM194.213 66.9507V44.4341H216.754V66.9507H194.213ZM219.828 66.9507V44.4341H242.369V66.9507H219.828ZM245.442 66.9507V44.4341H267.983V66.9507H245.442ZM245.442 70.0212H267.983V92.5377H245.442V70.0212ZM245.442 95.6082H267.983V118.125H245.442V95.6082ZM245.442 121.195H267.983V143.712H245.442V121.195ZM245.442 146.782H267.983V169.299H245.442V146.782ZM245.442 172.369H267.983V194.886H245.442V172.369ZM242.369 172.369V194.886H219.828V172.369H242.369ZM216.754 172.369V194.886H194.213V172.369H216.754ZM191.14 172.369V194.886H168.599V172.369H191.14ZM165.525 172.369V194.886H142.984V172.369H165.525ZM139.91 172.369V194.886H117.37V172.369H139.91ZM139.91 169.299H117.37V146.782H139.91V169.299ZM139.91 143.712H117.37V121.195H139.91V143.712ZM139.91 118.125H117.37V95.6082H139.91V118.125ZM139.91 92.5377H117.37V70.0212H139.91V92.5377ZM142.984 92.5377V70.0212H165.525V92.5377H142.984ZM168.599 92.5377V70.0212H191.14V92.5377H168.599ZM194.213 92.5377V70.0212H216.754V92.5377H194.213ZM219.828 92.5377V70.0212H242.369V92.5377H219.828ZM219.828 95.6082H242.369V118.125H219.828V95.6082ZM219.828 121.195H242.369V143.712H219.828V121.195ZM219.828 146.782H242.369V169.299H219.828V146.782ZM216.754 146.782V169.299H194.213V146.782H216.754ZM191.14 146.782V169.299H168.599V146.782H191.14ZM165.525 146.782V169.299H142.984V146.782H165.525ZM165.525 143.712H142.984V121.195H165.525V143.712ZM165.525 118.125H142.984V95.6082H165.525V118.125ZM168.599 118.125V95.6082H191.14V118.125H168.599ZM194.213 118.125V95.6082H216.754V118.125H194.213ZM194.213 121.195H216.754V143.712H194.213V121.195ZM191.14 121.195V143.712H168.599V121.195H191.14Z" fill="black"/>
<path d="M183.825 68.3921L186.443 66.4165H205.043L207.8 68.4155C210.964 70.7093 214.696 72.0966 218.593 72.4276C222.355 72.7472 225.851 74.4988 228.355 77.3195L228.529 77.5156C243.308 75.5486 247.509 89.0762 247.762 96.0859C261.166 104.144 265.002 121.044 265.245 128.486C277.629 127.136 284.393 131.809 291.365 137.209C296.943 141.53 307.148 146.071 311.554 147.802C313.135 151.54 310.256 155.438 308.618 156.92C305.171 155.981 294.429 153.473 279.033 150.95C263.637 148.428 258.108 142.428 257.268 139.744C240.473 131.649 229.339 108.594 225.871 98.0779C226.782 110.162 224.229 118.492 222.838 121.146V156.92C204.915 170.66 179.742 163.545 169.395 158.269L168.791 121.146C165.312 115.091 165.568 103.244 166.13 98.0779C158.237 122.693 141.476 136.112 134.082 139.744C134.114 140.272 133.705 141.826 131.822 143.818C125.429 150.198 96.4317 155.211 82.7321 156.92C79.9009 154.094 79.6497 149.818 79.8781 148.033C82.8463 147.35 91.3857 143.955 101.797 135.843C112.209 127.732 122.735 127.711 126.696 128.715C126.262 111.066 138.052 99.4819 144.001 95.8956C146.35 77.6399 157.97 76.0357 163.487 77.5156C164.555 75.5515 166.461 74.1794 168.666 73.787L173.374 72.9492C177.169 72.2737 180.75 70.7122 183.825 68.3921Z" fill="#FFA59A"/>
<path d="M157.349 116.854C149.2 129.711 139.286 137.175 134.057 139.744C134.088 140.271 133.68 141.825 131.797 143.818C125.404 150.198 96.4063 155.21 82.7067 156.919C79.8755 154.094 79.6243 149.818 79.8527 148.033C81.7203 147.603 85.7936 146.099 91.1512 143.023H91.5669C103.515 141.707 114.518 135.085 118.527 131.938C117.13 136.852 109.152 142.795 105.338 145.152C115.501 143.681 125.126 138.549 128.668 136.168C126.917 133.33 126.532 130.424 126.917 129.41C126.62 130.849 129.053 133.405 134.876 131.938C141.661 129.41 144.78 118.643 145.667 113.019L157.349 116.854Z" fill="#D78A80"/>
<path d="M300.612 142.825C304.859 145.006 309.106 146.839 311.557 147.802C313.139 151.541 310.259 155.438 308.622 156.92C305.175 155.981 294.432 153.473 279.036 150.951C263.64 148.428 258.111 142.429 257.271 139.744C248.706 135.616 241.613 127.597 236.259 119.335L245.988 113.879C247.374 120.661 252.096 133.963 261.309 132.357C263.526 132.207 265.021 130.288 264.99 129.318C265.625 130.307 264.99 133.104 262.919 136.261C265.33 138.401 273.451 143.177 286.653 145.153C283.147 143.381 275.576 138.34 273.348 132.357C278.449 136.185 290.695 143.338 300.612 142.825Z" fill="#D78A80"/>
<path d="M159.068 240.546C156.006 231.04 156.28 221.214 156.8 217.489L184.861 230.59C185.04 241.526 182.382 248.247 181.031 250.241C179.344 252.344 175.971 258.359 175.971 265.591C177.251 282.901 175.629 291.142 174.692 295.726C173.942 299.393 172.504 311.349 171.879 316.869H158.567C158.099 307.357 157.105 286.689 156.88 280.103C156.599 271.87 158.218 269.401 159.068 267.138C159.918 264.875 162.895 252.427 159.068 240.546Z" fill="#FFA59A"/>
<path d="M159.76 264.652C161.109 267.117 163.74 270.714 165.909 269.631C167.566 268.805 166.926 265.435 166.282 262.042C165.764 259.316 165.243 256.575 165.909 255.125C167.404 251.872 169.849 251.736 171.343 251.872L182.769 246.382C183.905 242.974 184.977 237.663 184.861 230.59L156.8 217.489C156.28 221.214 156.006 231.04 159.068 240.546C162.131 250.057 160.835 259.93 159.76 264.652Z" fill="#F19B91"/>
<path d="M164.423 316.869H162.886L160.958 316.313C161.389 309.82 162.569 295.184 163.847 288.577C164.399 285.718 165.703 281.015 167.108 275.949C169.76 266.385 172.77 255.525 171.763 253.334C171.481 252.72 170.991 252.141 170.408 251.45C167.805 248.369 163.337 243.081 167.126 222.708L171.095 225.677V239.399C171.095 242.146 172.983 244.534 175.659 245.174C177.635 245.645 179.64 244.509 180.245 242.573L184.02 230.499H184.672L184.867 230.59C185.045 241.526 182.387 248.247 181.036 250.241C179.35 252.344 175.977 258.359 175.977 265.592C177.256 282.901 175.635 291.142 174.697 295.726C173.947 299.393 172.51 311.349 171.885 316.869H165.532L165.443 316.83C165.9 311.593 167.032 299.624 167.906 293.641C168.999 286.162 167.75 285.149 167.126 286.006C166.512 286.848 163.605 308.21 164.423 316.869Z" fill="#D78A80"/>
<path d="M231.949 240.547C235.01 231.041 234.736 221.215 234.217 217.49L206.155 230.591C205.977 241.527 208.635 248.248 209.986 250.242C211.672 252.345 215.045 258.36 215.045 265.593C213.765 282.903 215.387 291.143 216.325 295.727C217.075 299.394 218.512 311.35 219.137 316.87H232.449C232.918 307.359 233.912 286.69 234.137 280.104C234.418 271.871 232.799 269.403 231.949 267.139C231.098 264.876 228.122 252.429 231.949 240.547Z" fill="#FFA59A"/>
<path d="M231.257 264.654C229.908 267.119 227.277 270.715 225.107 269.633C223.45 268.806 224.09 265.436 224.735 262.044C225.252 259.317 225.773 256.576 225.107 255.127C223.613 251.873 221.168 251.737 219.673 251.873L208.248 246.383C207.111 242.975 206.04 237.665 206.155 230.591L234.217 217.49C234.736 221.215 235.01 231.041 231.949 240.547C228.885 250.058 230.181 259.931 231.257 264.654Z" fill="#F19B91"/>
<path d="M226.592 316.87H228.129L230.058 316.314C229.627 309.821 228.446 295.185 227.169 288.578C226.616 285.718 225.312 281.016 223.908 275.95C221.256 266.386 218.245 255.526 219.253 253.335C219.535 252.721 220.025 252.142 220.608 251.451C223.211 248.37 227.678 243.082 223.89 222.709L219.921 225.677V239.4C219.921 242.147 218.033 244.535 215.356 245.174C213.38 245.646 211.376 244.51 210.771 242.574L206.996 230.5H206.344L206.149 230.591C205.971 241.527 208.628 248.248 209.979 250.242C211.666 252.345 215.039 258.36 215.039 265.592C213.759 282.902 215.381 291.143 216.318 295.727C217.068 299.394 218.506 311.35 219.131 316.87H225.484L225.572 316.83C225.116 311.594 223.984 299.625 223.109 293.642C222.016 286.163 223.265 285.15 223.89 286.007C224.503 286.849 227.411 308.211 226.592 316.87Z" fill="#D78A80"/>
<path d="M155.94 217.596L169.39 158.275C194.777 164.737 215.67 159.942 222.88 156.73L236.018 215.602C230.998 226.064 212.704 231.015 204.184 232.183L195.411 205.353L186.779 230.629C179.308 233.228 163.107 223.023 155.94 217.596Z" fill="black"/>
<path d="M186.412 66.4167L183.793 68.3924C180.719 70.7125 177.137 72.274 173.342 72.9494L168.635 73.7872C166.43 74.1796 164.524 75.5518 163.456 77.5158C157.939 76.0359 146.319 77.6401 143.97 95.8958C141.896 97.1457 139.113 99.3671 136.386 102.478C137.777 106.856 143.511 116.468 155.318 119.892C159.477 113.955 163.332 106.704 166.098 98.0781C165.536 103.244 165.281 115.091 168.76 121.146L169.364 158.27C179.71 163.545 204.884 170.66 222.807 156.92V121.146C224.197 118.492 226.751 110.162 225.84 98.0781C227.577 103.348 231.24 111.766 236.576 119.873C241.479 118.322 252.115 112.718 255.434 102.708C253.31 100.189 250.766 97.9109 247.731 96.0862C247.478 89.0765 243.277 75.5488 228.498 77.5158L228.324 77.3198C225.819 74.499 222.324 72.7475 218.561 72.4279C214.665 72.0969 210.933 70.7095 207.769 68.4157L205.011 66.4167H186.412Z" fill="white"/>
<path d="M222.806 121.333C206.171 126.635 197.062 120.753 194.568 117.098C187.89 126.202 174.671 123.639 168.76 121.173L168.865 127.666C186.692 131.096 192.751 125.002 194.568 122.774C195.086 125.726 200.055 126.987 204.198 127.502C206.414 127.778 208.188 129.584 208.188 131.813V163.707C213.287 162.532 218.278 160.391 222.806 156.92V121.333Z" fill="#DAD1FF"/>
<path d="M194.652 132.831C192.578 136.064 188.119 136.658 185.431 136.52C185.32 136.515 185.273 136.641 185.378 136.667C195.233 139.194 205.128 137.241 208.931 135.908C198.115 137.354 195.152 134.732 194.923 132.864C194.914 132.79 194.696 132.763 194.652 132.831Z" fill="#DAD1FF"/>
<path d="M195.046 142.263C192.48 145.487 186.963 146.079 183.638 145.942C183.5 145.937 183.442 146.062 183.571 146.089C195.765 148.608 208.008 146.661 212.713 145.332C199.331 146.774 195.665 144.159 195.382 142.296C195.37 142.223 195.1 142.196 195.046 142.263Z" fill="#DAD1FF"/>
<path d="M194.294 151.681C191.915 154.905 186.801 155.497 183.718 155.36C183.591 155.354 183.537 155.48 183.657 155.507C194.96 158.026 206.309 156.079 210.671 154.749C198.266 156.191 194.868 153.577 194.605 151.714C194.594 151.64 194.344 151.614 194.294 151.681Z" fill="#DAD1FF"/>
<path d="M186.227 66.1849L186.353 62.9097L205.306 63.0948L205.088 67.0621C204.821 71.925 200.884 75.7834 196.007 75.962C190.518 76.163 186.016 71.6628 186.227 66.1849Z" fill="#FFA59A"/>
<path d="M205.153 66.1306C202.394 67.5635 199.246 68.3477 195.915 68.284C192.379 68.2165 189.083 67.2011 186.268 65.4855L186.367 62.9094L205.32 63.0945L205.153 66.1306Z" fill="#6C6666"/>
<path d="M177.033 46.7232L177.212 37.9612V21.3021L215.911 20.5525L215.52 47.3928C215.365 58.0335 206.57 66.52 195.907 66.3164C185.271 66.1132 176.817 57.3373 177.033 46.7232Z" fill="#FFA59A"/>
<path fill-rule="evenodd" clip-rule="evenodd" d="M202.993 37.4119C203.905 37.5673 204.501 38.0364 204.663 38.3352C204.862 38.7055 205.325 38.8438 205.696 38.6441C206.068 38.4444 206.206 37.9824 206.006 37.6122C205.55 36.7675 204.451 36.1149 203.251 35.9102C201.996 35.6964 200.5 35.9404 199.17 37.0485C198.846 37.3181 198.802 37.7984 199.072 38.1214C199.342 38.4443 199.823 38.4877 200.147 38.2181C201.102 37.4231 202.135 37.2656 202.993 37.4119Z" fill="black"/>
<path fill-rule="evenodd" clip-rule="evenodd" d="M189.836 37.9363C190.76 37.9785 191.41 38.3707 191.607 38.6474C191.851 38.9902 192.328 39.0705 192.671 38.8268C193.015 38.583 193.095 38.1075 192.851 37.7646C192.294 36.9826 191.123 36.4701 189.906 36.4146C188.634 36.3566 187.18 36.7827 185.996 38.046C185.709 38.3532 185.725 38.8352 186.033 39.1225C186.341 39.4098 186.824 39.3936 187.111 39.0864C187.961 38.18 188.967 37.8967 189.836 37.9363Z" fill="black"/>
<path fill-rule="evenodd" clip-rule="evenodd" d="M196.471 47.0876C196.842 47.0992 197.132 47.4081 197.121 47.7775L197.056 49.8483C197.637 49.9182 198.179 50.0989 198.624 50.4084C199.269 50.8558 199.669 51.5456 199.691 52.4066C199.735 54.1526 198.158 55.4464 196.389 55.491C196.019 55.5003 195.711 55.2083 195.701 54.8388C195.692 54.4692 195.985 54.1621 196.355 54.1528C197.577 54.122 198.371 53.2682 198.35 52.4404C198.339 52.0146 198.16 51.7165 197.858 51.5072C197.535 51.2827 197.032 51.1381 196.382 51.1545C196.197 51.1592 196.019 51.0878 195.889 50.9573C195.759 50.8267 195.689 50.6485 195.694 50.4645L195.78 47.7356C195.792 47.3661 196.101 47.076 196.471 47.0876Z" fill="black"/>
<path d="M191.004 58.5914C191.193 60.7416 193.106 62.3311 195.278 62.1416C196.775 62.0111 198.004 61.0698 198.561 59.7934C198.709 59.4548 198.486 59.0886 198.128 58.9965L191.775 57.3641C191.419 57.2726 191.048 57.4819 191.01 57.8467C190.985 58.0898 190.982 58.3389 191.004 58.5914Z" fill="white"/>
<ellipse cx="1.34876" cy="1.95776" rx="1.34876" ry="1.95776" transform="matrix(0.999682 -0.0252016 0.0253068 0.99968 189.341 41.2795)" fill="black"/>
<ellipse cx="1.34876" cy="1.95776" rx="1.34876" ry="1.95776" transform="matrix(0.999815 0.0192637 -0.0193441 0.999813 200.679 41.084)" fill="black"/>
<path d="M177.39 36.7601C177.148 36.7007 176.897 36.6697 176.641 36.6697C174.473 36.6697 172.716 38.894 172.716 41.6378C172.716 44.3817 174.473 46.606 176.641 46.606C176.839 46.606 177.033 46.5875 177.223 46.5518L177.39 36.7601Z" fill="#FFA59A"/>
<ellipse cx="216.073" cy="42.6202" rx="3.92535" ry="4.96815" fill="#FFA59A"/>
<path d="M183.998 30.358C180.416 30.8366 177.999 34.9142 177.238 36.8931C175.754 36.3978 174.298 37.6074 173.738 38.3007L173.701 26.3072C174.243 20.5048 178.145 18.7783 180.028 18.6403C185.813 9.57587 194.541 10.9047 198.181 12.7022C213.185 9.45498 218.713 21.672 219.601 28.1864V40.3906C218.782 38.2276 216.704 37.6158 215.768 37.5803V33.9265C210.604 33.4806 206.666 29.3645 205.342 27.3622C205.026 29.8875 207.805 32.1968 209.616 33.2774C209.778 33.3737 209.733 33.6224 209.546 33.6444C205.363 34.1367 203.27 31.6975 202.736 30.358C202.206 32.4887 203.795 34.0551 204.939 34.7573C205.087 34.848 205.068 35.0654 204.897 35.096C203.996 35.2575 202.41 35.1696 200.874 33.9265C199.138 32.5217 198.965 26.506 199.108 23.2014C199.116 23.017 198.888 22.9221 198.763 23.0573L197.653 24.2502C197.58 24.3279 197.459 24.3344 197.379 24.2647L196.327 23.3523C196.219 23.2582 196.049 23.3074 196.004 23.4435C195.49 25.0015 194.045 28.2785 191.627 31.016C189.569 33.3463 186.548 33.8132 184.532 33.7193C184.306 33.7088 184.267 33.2485 184.466 33.1405C185.845 32.3921 187.275 30.8396 187.948 29.9709C187.842 29.9709 186.904 30.0483 183.998 30.358Z" fill="black"/>
<path fill-rule="evenodd" clip-rule="evenodd" d="M175.613 41.1802C175.442 41.0064 175.289 40.9006 175.169 40.8479C175.093 40.8146 175.04 40.8069 175.009 40.8078C174.981 40.8086 174.972 40.8158 174.969 40.8189C174.853 40.9168 174.68 40.9029 174.582 40.7879C174.484 40.6728 174.498 40.5002 174.613 40.4023C174.841 40.209 175.139 40.237 175.39 40.347C175.645 40.459 175.914 40.6772 176.176 40.9845C176.352 41.1903 176.514 41.4861 176.605 41.7606C176.65 41.8979 176.682 42.0458 176.681 42.1845C176.68 42.3174 176.647 42.4944 176.503 42.6174C176.387 42.7154 176.214 42.7015 176.116 42.5864C176.023 42.4774 176.031 42.3165 176.13 42.2166C176.131 42.2098 176.133 42.1985 176.133 42.181C176.133 42.123 176.118 42.0373 176.084 41.9309C176.05 41.8291 176.003 41.7228 175.949 41.6236C175.886 41.6883 175.815 41.7533 175.736 41.8149C175.515 41.987 175.218 42.1441 174.863 42.1705C174.712 42.1817 174.58 42.0686 174.569 41.918C174.558 41.7673 174.671 41.636 174.822 41.6248C175.037 41.6088 175.234 41.5118 175.399 41.3835C175.484 41.3171 175.556 41.2457 175.613 41.1802ZM176.128 42.2249C176.128 42.225 176.128 42.2245 176.129 42.2234C176.128 42.2244 176.128 42.2249 176.128 42.2249Z" fill="black"/>
<path fill-rule="evenodd" clip-rule="evenodd" d="M216.944 42.0282C217.132 41.8726 217.294 41.7828 217.419 41.7425C217.498 41.7171 217.551 41.7147 217.582 41.7188C217.61 41.7224 217.618 41.7304 217.622 41.7339C217.726 41.843 217.9 41.8467 218.009 41.7421C218.119 41.6376 218.122 41.4644 218.018 41.3553C217.811 41.1401 217.511 41.1378 217.251 41.2219C216.985 41.3075 216.695 41.4973 216.403 41.7766C216.208 41.9636 216.016 42.2414 215.898 42.5054C215.84 42.6374 215.793 42.7813 215.779 42.9194C215.767 43.0517 215.781 43.2311 215.913 43.3681C216.018 43.4772 216.191 43.4809 216.301 43.3763C216.404 43.2772 216.413 43.1164 216.324 43.007C216.324 43.0001 216.324 42.9887 216.325 42.9713C216.331 42.9136 216.354 42.8298 216.4 42.7275C216.443 42.6295 216.501 42.5286 216.564 42.4353C216.62 42.506 216.685 42.578 216.757 42.6472C216.96 42.8408 217.239 43.0271 217.59 43.0892C217.739 43.1156 217.881 43.0165 217.908 42.8677C217.934 42.7189 217.835 42.5769 217.686 42.5505C217.473 42.5128 217.287 42.3964 217.137 42.2522C217.058 42.1775 216.994 42.0991 216.944 42.0282ZM216.325 43.0155C216.325 43.0155 216.325 43.015 216.325 43.0139C216.325 43.0149 216.326 43.0155 216.325 43.0155Z" fill="black"/>
</g>
<path fill-rule="evenodd" clip-rule="evenodd" d="M0 160.394C0 158.221 1.76522 156.46 3.94272 156.46H312.134C314.311 156.46 316.076 158.221 316.076 160.394C316.076 162.567 314.311 164.329 312.134 164.329H3.94272C1.76522 164.329 0 162.567 0 160.394Z" fill="#F8D14F"/>
<path fill-rule="evenodd" clip-rule="evenodd" d="M73.9238 160.394C73.9238 158.221 75.689 156.459 77.8666 156.459H386.057C388.235 156.459 390 158.221 390 160.394C390 162.567 388.235 164.328 386.057 164.328H77.8666C75.689 164.328 73.9238 162.567 73.9238 160.394Z" fill="#F8D14F"/>
<path d="M21.4398 189.684L24.8719 190.435L27.873 129.809L23.2459 128.788L14.2036 159.557L21.4398 189.684Z" fill="#232323"/>
<path d="M32.2952 160.079C31.8175 176.897 26.9591 190.151 21.4438 189.684C15.9284 189.217 11.8447 175.205 12.3224 158.387C12.8002 141.569 17.6585 128.314 23.1739 128.781C28.6892 129.248 32.773 143.261 32.2952 160.079Z" fill="#232323"/>
<ellipse cx="10.1895" cy="30.4639" rx="10.1895" ry="30.4639" transform="matrix(0.99643 0.0844147 -0.0283955 0.999597 17.5 128.877)" fill="#474747"/>
<ellipse cx="2.65595" cy="8.07317" rx="2.65595" ry="8.07317" transform="matrix(0.99643 0.0844147 -0.0283955 0.999597 25.1279 151.914)" fill="black"/>
<path d="M29.6428 195.468L34.1117 196.362L38.0194 124.223L31.9944 123.008L20.2208 159.621L29.6428 195.468Z" fill="#232323"/>
<path d="M43.7773 160.241C43.1553 180.253 36.8294 196.025 29.648 195.469C22.4667 194.913 17.1493 178.239 17.7714 158.228C18.3935 138.216 24.7194 122.444 31.9007 123C39.0821 123.556 44.3994 140.229 43.7773 160.241Z" fill="#232323"/>
<ellipse cx="13.2596" cy="36.2521" rx="13.2596" ry="36.2521" transform="matrix(0.997016 0.0771886 -0.0310696 0.999517 24.5098 123.112)" fill="#474747"/>
<ellipse cx="3.4562" cy="9.60711" rx="3.4562" ry="9.60711" transform="matrix(0.997016 0.0771886 -0.0310696 0.999517 34.4385 150.526)" fill="black"/>
<path d="M368.303 189.685L364.871 190.436L361.87 129.81L366.497 128.789L375.54 159.559L368.303 189.685Z" fill="#232323"/>
<path d="M357.448 160.08C357.926 176.898 362.784 190.153 368.299 189.685C373.815 189.218 377.898 175.206 377.421 158.388C376.943 141.57 372.085 128.315 366.569 128.782C361.054 129.249 356.97 143.262 357.448 160.08Z" fill="#232323"/>
<ellipse cx="10.1895" cy="30.4639" rx="10.1895" ry="30.4639" transform="matrix(-0.99643 0.0844145 0.0283956 0.999597 372.25 128.877)" fill="#474747"/>
<ellipse cx="2.65595" cy="8.07317" rx="2.65595" ry="8.07317" transform="matrix(-0.99643 0.0844147 0.0283956 0.999597 364.623 151.914)" fill="black"/>
<path d="M360.083 195.468L355.614 196.362L351.706 124.223L357.731 123.008L369.505 159.621L360.083 195.468Z" fill="#232323"/>
<path d="M345.948 160.241C346.57 180.252 352.896 196.025 360.078 195.469C367.259 194.913 372.576 178.239 371.954 158.227C371.332 138.215 365.006 122.443 357.825 122.999C350.644 123.555 345.326 140.229 345.948 160.241Z" fill="#232323"/>
<ellipse cx="13.2596" cy="36.2521" rx="13.2596" ry="36.2521" transform="matrix(-0.997016 0.0771887 0.0310696 0.999517 365.221 123.113)" fill="#474747"/>
<ellipse cx="3.4562" cy="9.60711" rx="3.4562" ry="9.60711" transform="matrix(-0.997016 0.0771886 0.0310697 0.999517 355.289 150.525)" fill="black"/>
<path fill-rule="evenodd" clip-rule="evenodd" d="M36.7959 160.394C36.7959 158.221 38.5611 156.459 40.7386 156.459H348.929C351.107 156.459 352.872 158.221 352.872 160.394C352.872 162.567 351.107 164.328 348.929 164.328H40.7386C38.5611 164.328 36.7959 162.567 36.7959 160.394Z" fill="#F8D14F"/>
<path d="M67.0299 168.519C70.0306 168.399 71.536 165.79 71.9136 164.5V164.332H65.0246L65.1167 163.445L66.5264 161.737L65.6957 160.531L65.4439 158.546L64.0846 157.893V156.135L62.7 155.23L59.3267 156.863L57.6904 158.546L58.7226 160.229L57.917 161.938L59.075 163.445L57.6904 165.781L59.3267 166.736V168.72L60.8371 169.625L63.1028 168.067C63.1615 168.268 64.0292 168.64 67.0299 168.519Z" fill="#D78A80"/>
<path d="M58.9297 156.459H59.5422C61.4982 156.037 63.519 156.275 64.2849 156.447H82.4769L80.1293 148.319C76.7537 149.281 68.9525 151.437 64.7529 152.361C60.5533 153.285 59.1209 155.478 58.9297 156.459Z" fill="#D78A80"/>
<path fill-rule="evenodd" clip-rule="evenodd" d="M61.9055 161.496C61.8998 161.513 61.8869 161.568 61.9254 161.683C62.0843 162.158 62.1512 162.782 62.172 163.414C62.1931 164.056 62.1676 164.747 62.1229 165.378C62.0523 166.376 62.3434 167.221 63.0177 167.529C64.4243 168.173 66.3073 168.143 67.9992 167.849C69.4929 167.589 70.6462 166.401 71.1881 164.884L71.3949 164.329H72.4166L72.1166 165.215C71.49 166.969 70.1031 168.481 68.1686 168.818C66.4132 169.123 64.2876 169.193 62.6068 168.423C61.3509 167.848 61.0606 166.426 61.1397 165.309C61.1829 164.698 61.2065 164.043 61.1868 163.446C61.1669 162.839 61.1031 162.331 60.9903 161.994C60.8993 161.721 60.8831 161.442 60.9721 161.18C61.0616 160.917 61.2408 160.721 61.452 160.589C61.8566 160.336 62.3984 160.298 62.8965 160.392C63.9132 160.584 65.0756 161.391 65.2626 162.916C65.3894 163.949 65.4173 164.73 65.3981 165.292C65.3797 165.833 65.3168 166.22 65.227 166.431C65.1205 166.681 64.8311 166.797 64.5806 166.691C64.3301 166.585 64.2134 166.296 64.3199 166.046C64.3208 166.043 64.3265 166.028 64.3348 165.994C64.344 165.957 64.3545 165.905 64.3649 165.837C64.3857 165.701 64.4044 165.51 64.413 165.259C64.4301 164.757 64.4061 164.029 64.2842 163.035C64.1605 162.027 63.406 161.49 62.7131 161.359C62.3564 161.291 62.0952 161.347 61.9753 161.422C61.9242 161.454 61.9107 161.481 61.9055 161.496Z" fill="black"/>
<path fill-rule="evenodd" clip-rule="evenodd" d="M62.0565 165.068C62.2008 165.298 62.1306 165.602 61.8998 165.746L60.1974 166.808C59.6285 167.162 59.4499 167.907 59.796 168.48C60.1125 169.005 60.8085 169.151 61.31 168.798L62.826 167.733C63.0485 167.576 63.3559 167.629 63.5127 167.851C63.6695 168.073 63.6162 168.38 63.3937 168.537L61.8777 169.603C60.9084 170.284 59.5633 170.001 58.9516 168.988C58.3279 167.954 58.6499 166.613 59.675 165.973L61.3774 164.912C61.6082 164.768 61.9123 164.838 62.0565 165.068Z" fill="black"/>
<path fill-rule="evenodd" clip-rule="evenodd" d="M61.8436 161.781C62.0002 162.004 61.9467 162.31 61.724 162.467L58.8803 164.463C58.4613 164.757 58.2897 165.293 58.4603 165.775C58.5729 166.093 58.9104 166.273 59.2377 166.189L59.5507 166.108C59.8143 166.04 60.083 166.199 60.1509 166.462C60.2188 166.725 60.0602 166.993 59.7966 167.061L59.4836 167.141C58.6614 167.353 57.8137 166.902 57.5309 166.103C57.2131 165.205 57.5328 164.206 58.3132 163.658L61.1569 161.662C61.3796 161.506 61.687 161.559 61.8436 161.781Z" fill="black"/>
<path fill-rule="evenodd" clip-rule="evenodd" d="M65.6334 161.413C65.4386 161.158 65.092 161.073 64.8012 161.209L64.26 161.463C64.0136 161.578 63.7201 161.472 63.6044 161.226C63.4888 160.981 63.5948 160.688 63.8412 160.572L64.3824 160.319C65.0934 159.986 65.9408 160.193 66.4172 160.816C66.9745 161.545 66.8357 162.587 66.1068 163.145L65.4362 163.659C65.2203 163.825 64.9109 163.784 64.7451 163.569C64.5793 163.353 64.62 163.045 64.8359 162.879L65.5065 162.365C65.8046 162.137 65.8614 161.711 65.6334 161.413Z" fill="black"/>
<path fill-rule="evenodd" clip-rule="evenodd" d="M64.6779 158.741C64.2235 158.427 63.6314 158.395 63.1454 158.657L59.0644 160.856C58.8326 160.981 58.67 161.204 58.622 161.462C58.5496 161.853 58.6857 162.252 58.9813 162.518L59.4428 162.932C59.6451 163.114 59.6615 163.425 59.4794 163.627C59.2974 163.829 58.9857 163.845 58.7834 163.664L58.3219 163.249C57.7714 162.755 57.5179 162.01 57.6528 161.283C57.7551 160.732 58.1019 160.257 58.596 159.991L62.677 157.791C63.4892 157.354 64.4788 157.408 65.2382 157.931C65.7358 158.275 66.0329 158.84 66.0329 159.443V160.733C66.0329 161.004 65.8122 161.224 65.54 161.224C65.2678 161.224 65.0472 161.004 65.0472 160.733V159.443C65.0472 159.163 64.9091 158.9 64.6779 158.741Z" fill="black"/>
<path fill-rule="evenodd" clip-rule="evenodd" d="M62.8334 155.918C62.6116 155.843 62.3679 155.87 62.1683 155.992L58.7258 158.098C58.2651 158.38 58.1617 159.004 58.507 159.418L59.0313 160.048C59.2052 160.257 59.1765 160.567 58.9671 160.741C58.7578 160.914 58.4471 160.886 58.2731 160.677L57.7489 160.047C57.0199 159.171 57.2381 157.854 58.2107 157.259L61.6532 155.154C62.1023 154.879 62.6505 154.818 63.1495 154.986C64.1209 155.314 64.7225 156.284 64.5839 157.298L64.5106 157.835C64.4738 158.104 64.2253 158.292 63.9557 158.256C63.686 158.219 63.4971 157.971 63.5339 157.702L63.6073 157.165C63.682 156.618 63.3575 156.095 62.8334 155.918Z" fill="black"/>
<path fill-rule="evenodd" clip-rule="evenodd" d="M79.7584 148.972L79.2963 149.143C76.7047 150.101 70.9326 151.879 66.6409 152.507C62.5535 153.105 60.0791 154.952 59.2293 156.069L58.9312 156.46H57.8584L58.1408 156.097C59.1174 154.814 62.1109 152.175 66.498 151.534C70.6806 150.922 76.773 149.162 79.3562 148.207L79.8183 148.036L79.7584 148.972Z" fill="black"/>
<path d="M324.708 168.519C321.708 168.398 320.202 165.789 319.825 164.499V164.332H326.714L326.622 163.444L325.212 161.736L326.043 160.53L326.294 158.545L327.654 157.892V156.134L329.038 155.229L332.412 156.862L334.048 158.545L333.016 160.229L333.821 161.937L332.663 163.444L334.048 165.78L332.412 166.735V168.72L330.901 169.624L328.635 168.067C328.577 168.267 327.709 168.639 324.708 168.519Z" fill="#D78A80"/>
<path d="M332.811 156.456H332.198C330.242 156.034 328.221 156.272 327.455 156.444H309.263L311.611 148.316C314.987 149.279 322.788 151.435 326.987 152.358C331.187 153.282 332.619 155.475 332.811 156.456Z" fill="#D78A80"/>
<path fill-rule="evenodd" clip-rule="evenodd" d="M329.831 161.497C329.836 161.514 329.849 161.569 329.811 161.684C329.652 162.16 329.585 162.783 329.564 163.415C329.543 164.057 329.569 164.748 329.613 165.38C329.684 166.377 329.393 167.222 328.719 167.53C327.312 168.174 325.429 168.145 323.737 167.85C322.243 167.59 321.09 166.403 320.548 164.886L320.341 164.33H319.32L319.62 165.216C320.246 166.97 321.633 168.482 323.568 168.819C325.323 169.125 327.449 169.194 329.13 168.424C330.385 167.85 330.676 166.427 330.597 165.31C330.553 164.699 330.53 164.044 330.549 163.447C330.569 162.841 330.633 162.333 330.746 161.995C330.837 161.722 330.853 161.443 330.764 161.181C330.675 160.918 330.495 160.722 330.284 160.59C329.88 160.337 329.338 160.299 328.84 160.393C327.823 160.585 326.661 161.393 326.474 162.917C326.347 163.95 326.319 164.731 326.338 165.294C326.357 165.834 326.42 166.221 326.509 166.432C326.616 166.682 326.905 166.798 327.156 166.692C327.406 166.586 327.523 166.297 327.416 166.047C327.416 166.045 327.41 166.029 327.402 165.995C327.392 165.958 327.382 165.906 327.371 165.838C327.351 165.702 327.332 165.511 327.323 165.26C327.306 164.759 327.33 164.03 327.452 163.037C327.576 162.028 328.33 161.491 329.023 161.36C329.38 161.292 329.641 161.348 329.761 161.423C329.812 161.455 329.826 161.482 329.831 161.497Z" fill="black"/>
<path fill-rule="evenodd" clip-rule="evenodd" d="M329.679 165.069C329.535 165.299 329.605 165.603 329.836 165.747L331.538 166.809C332.107 167.163 332.285 167.908 331.939 168.481C331.623 169.006 330.927 169.152 330.425 168.799L328.909 167.733C328.687 167.577 328.379 167.63 328.223 167.852C328.066 168.074 328.119 168.381 328.342 168.538L329.858 169.603C330.827 170.285 332.172 170.002 332.784 168.989C333.407 167.955 333.085 166.614 332.06 165.974L330.358 164.913C330.127 164.769 329.823 164.839 329.679 165.069Z" fill="black"/>
<path fill-rule="evenodd" clip-rule="evenodd" d="M329.889 161.784C329.732 162.006 329.786 162.313 330.008 162.469L332.852 164.465C333.271 164.759 333.443 165.296 333.272 165.778C333.16 166.096 332.822 166.275 332.495 166.191L332.182 166.111C331.918 166.043 331.649 166.201 331.582 166.464C331.514 166.727 331.672 166.995 331.936 167.063L332.249 167.144C333.071 167.355 333.919 166.904 334.202 166.105C334.519 165.208 334.2 164.208 333.419 163.661L330.575 161.665C330.353 161.508 330.045 161.562 329.889 161.784Z" fill="black"/>
<path fill-rule="evenodd" clip-rule="evenodd" d="M326.11 161.412C326.305 161.157 326.651 161.072 326.942 161.208L327.483 161.462C327.73 161.577 328.023 161.472 328.139 161.226C328.254 160.98 328.148 160.687 327.902 160.572L327.361 160.318C326.65 159.985 325.802 160.192 325.326 160.815C324.769 161.544 324.907 162.586 325.636 163.145L326.307 163.659C326.523 163.824 326.832 163.784 326.998 163.568C327.164 163.353 327.123 163.044 326.907 162.878L326.237 162.365C325.939 162.136 325.882 161.71 326.11 161.412Z" fill="black"/>
<path fill-rule="evenodd" clip-rule="evenodd" d="M327.062 158.741C327.517 158.427 328.109 158.395 328.595 158.657L332.676 160.856C332.908 160.981 333.07 161.204 333.118 161.462C333.191 161.853 333.055 162.252 332.759 162.518L332.297 162.932C332.095 163.114 332.079 163.425 332.261 163.627C332.443 163.829 332.754 163.845 332.957 163.664L333.418 163.249C333.969 162.755 334.222 162.01 334.087 161.283C333.985 160.732 333.638 160.257 333.144 159.991L329.063 157.791C328.251 157.354 327.261 157.408 326.502 157.931C326.004 158.275 325.707 158.84 325.707 159.443V160.733C325.707 161.004 325.928 161.224 326.2 161.224C326.472 161.224 326.693 161.004 326.693 160.733V159.443C326.693 159.163 326.831 158.9 327.062 158.741Z" fill="black"/>
<path fill-rule="evenodd" clip-rule="evenodd" d="M328.904 155.917C329.126 155.842 329.369 155.869 329.569 155.992L333.011 158.097C333.472 158.379 333.576 159.003 333.23 159.418L332.706 160.047C332.532 160.256 332.561 160.566 332.77 160.74C332.98 160.914 333.29 160.885 333.464 160.676L333.988 160.046C334.717 159.171 334.499 157.853 333.527 157.259L330.084 155.153C329.635 154.878 329.087 154.817 328.588 154.985C327.616 155.314 327.015 156.283 327.153 157.297L327.227 157.834C327.264 158.103 327.512 158.292 327.782 158.255C328.051 158.218 328.24 157.97 328.203 157.701L328.13 157.164C328.055 156.617 328.38 156.094 328.904 155.917Z" fill="black"/>
<path fill-rule="evenodd" clip-rule="evenodd" d="M311.448 148.681L311.91 148.852C314.502 149.81 320.811 151.88 325.102 152.508C329.19 153.106 331.664 154.953 332.514 156.07L332.812 156.461H333.885L333.602 156.098C332.626 154.815 329.632 152.176 325.245 151.535C321.063 150.923 314.433 148.871 311.85 147.916L311.388 147.745L311.448 148.681Z" fill="black"/>
</svg>
