<svg width="351" height="250" viewBox="0 0 351 250" fill="none" xmlns="http://www.w3.org/2000/svg">
<g clip-path="url(#clip0_1_5717)">
<path d="M41.2676 117.249C41.2676 116.892 41.5578 116.601 41.9157 116.601H303.977C304.335 116.601 304.625 116.892 304.625 117.249V125.909C304.625 126.267 304.334 126.555 303.977 126.572C296.794 126.911 291.074 132.842 291.074 140.109C291.074 147.376 296.794 153.307 303.977 153.645C304.334 153.662 304.625 153.951 304.625 154.308V161.337C304.625 161.695 304.334 161.984 303.977 162C296.794 162.339 291.074 168.27 291.074 175.537C291.074 182.804 296.794 188.735 303.977 189.073C304.334 189.09 304.625 189.379 304.625 189.736V196.765C304.625 197.123 304.334 197.412 303.977 197.428C296.794 197.767 291.074 203.698 291.074 210.965C291.074 218.232 296.794 224.163 303.977 224.501C304.334 224.518 304.625 224.807 304.625 225.164V233.824C304.625 234.182 304.335 234.472 303.977 234.472H41.9157C41.5578 234.472 41.2676 234.182 41.2676 233.824V225.179C41.2676 224.804 41.5846 224.509 41.9593 224.515C42.031 224.516 42.1028 224.516 42.1747 224.516C49.6591 224.516 55.7263 218.449 55.7263 210.965C55.7263 203.48 49.6591 197.413 42.1747 197.413C42.1028 197.413 42.031 197.414 41.9593 197.415C41.5846 197.421 41.2676 197.125 41.2676 196.751V189.751C41.2676 189.376 41.5846 189.081 41.9593 189.087C42.031 189.088 42.1028 189.088 42.1747 189.088C49.6591 189.088 55.7263 183.021 55.7263 175.537C55.7263 168.052 49.6591 161.985 42.1747 161.985C42.1028 161.985 42.031 161.986 41.9593 161.987C41.5846 161.993 41.2676 161.697 41.2676 161.323V154.323C41.2676 153.948 41.5846 153.653 41.9593 153.659C42.031 153.66 42.1028 153.66 42.1747 153.66C49.6591 153.66 55.7263 147.593 55.7263 140.109C55.7263 132.624 49.6591 126.557 42.1747 126.557C42.1028 126.557 42.031 126.558 41.9593 126.559C41.5846 126.565 41.2676 126.269 41.2676 125.895V117.249Z" fill="#835DFE"/>
<path fill-rule="evenodd" clip-rule="evenodd" d="M97.4687 119.224C98.0414 119.224 98.5057 119.688 98.5057 120.261V124.88C98.5057 125.453 98.0414 125.917 97.4687 125.917C96.8959 125.917 96.4316 125.453 96.4316 124.88V120.261C96.4316 119.688 96.8959 119.224 97.4687 119.224ZM97.4687 130.46C98.0414 130.46 98.5057 130.924 98.5057 131.497V140.735C98.5057 141.308 98.0414 141.772 97.4687 141.772C96.8959 141.772 96.4316 141.308 96.4316 140.735V131.497C96.4316 130.924 96.8959 130.46 97.4687 130.46ZM97.4687 146.315C98.0414 146.315 98.5057 146.779 98.5057 147.352V156.59C98.5057 157.163 98.0414 157.627 97.4687 157.627C96.8959 157.627 96.4316 157.163 96.4316 156.59V147.352C96.4316 146.779 96.8959 146.315 97.4687 146.315ZM97.4687 162.17C98.0414 162.17 98.5057 162.634 98.5057 163.207V172.445C98.5057 173.018 98.0414 173.482 97.4687 173.482C96.8959 173.482 96.4316 173.018 96.4316 172.445V163.207C96.4316 162.634 96.8959 162.17 97.4687 162.17ZM97.4687 178.024C98.0414 178.024 98.5057 178.489 98.5057 179.061V188.3C98.5057 188.873 98.0414 189.337 97.4687 189.337C96.8959 189.337 96.4316 188.873 96.4316 188.3V179.061C96.4316 178.489 96.8959 178.024 97.4687 178.024ZM97.4687 193.879C98.0414 193.879 98.5057 194.344 98.5057 194.916V204.155C98.5057 204.727 98.0414 205.192 97.4687 205.192C96.8959 205.192 96.4316 204.727 96.4316 204.155V194.916C96.4316 194.344 96.8959 193.879 97.4687 193.879ZM97.4687 209.734C98.0414 209.734 98.5057 210.199 98.5057 210.771V220.01C98.5057 220.582 98.0414 221.047 97.4687 221.047C96.8959 221.047 96.4316 220.582 96.4316 220.01V210.771C96.4316 210.199 96.8959 209.734 97.4687 209.734ZM97.4687 225.589C98.0414 225.589 98.5057 226.053 98.5057 226.626V231.245C98.5057 231.818 98.0414 232.282 97.4687 232.282C96.8959 232.282 96.4316 231.818 96.4316 231.245V226.626C96.4316 226.053 96.8959 225.589 97.4687 225.589Z" fill="black"/>
<rect width="25.6769" height="31.8201" transform="translate(66.0664 195.762)" fill="white"/>
<path fill-rule="evenodd" clip-rule="evenodd" d="M69.9329 197.836H68.1406V225.508H69.9329V197.836ZM72.1973 197.837H76.9543V225.508H72.1973V197.837ZM79.2207 197.837H80.6146V225.508H79.2207V197.837ZM85.6032 197.837H82.8789V225.508H85.6032V197.837ZM87.8691 197.837H89.6694V225.508H87.8691V197.837Z" fill="black"/>
<path d="M222.037 126.815C212.34 134.1 205.984 135.64 204.018 135.5C191.055 161.815 206.006 168.113 215.101 167.972L262.774 120.114C264.291 118.591 265.475 116.771 266.253 114.768L276.87 87.4397L268.217 71.5601L250.776 104.3C249.588 106.529 247.876 108.429 245.793 109.858C239.851 113.938 230.054 120.791 222.037 126.815Z" fill="#FFA59A"/>
<path d="M128.765 113.922L164.286 142.403L158.485 171.926L114.14 126.873C112.589 125.297 111.393 123.412 110.628 121.336C104.159 103.773 92.601 72.5764 90.2352 66.8934C87.7203 60.8527 82.5762 58.2839 80.3185 57.7545C73.5259 55.1101 74.2475 50.1496 75.4574 47.9999L73.7074 45.9258C73.5777 43.774 75.5114 43.4521 76.4944 43.5601C77.2463 40.1638 79.746 41.216 80.9018 42.1666C82.7426 40.8703 84.175 41.3888 84.6611 41.8101L85.8926 40.4165C87.4222 39.5091 88.9497 41.6588 89.5222 42.8471C93.5481 45.5079 95.2923 51.9973 95.8052 55.8657C95.9163 56.7034 96.1511 57.5215 96.561 58.2605L124.881 109.322C125.864 111.093 127.183 112.656 128.765 113.922Z" fill="#FFA59A"/>
<path fill-rule="evenodd" clip-rule="evenodd" d="M303.995 60.6751C304.531 59.5825 304.08 58.2621 302.987 57.7261C257.569 35.445 168.229 10.8149 70.3511 52.8843C69.2329 53.3649 68.7161 54.661 69.1967 55.7791C69.6773 56.8973 70.9733 57.4142 72.0915 56.9335C168.423 15.5288 256.371 39.7666 301.046 61.683C302.139 62.2191 303.459 61.7678 303.995 60.6751Z" fill="#835DFE"/>
<path fill-rule="evenodd" clip-rule="evenodd" d="M256.636 42.6457C256.957 41.4716 256.265 40.2599 255.091 39.9393C184.121 20.5587 96.1831 26.598 14.1007 84.5647C13.1065 85.2667 12.8698 86.6418 13.5718 87.636C14.2739 88.6301 15.649 88.8669 16.6431 88.1648C97.5398 31.0356 184.093 25.1199 253.93 44.191C255.104 44.5117 256.316 43.8198 256.636 42.6457Z" fill="#835DFE"/>
<path d="M259.295 84.435L264.978 87.8803L299.613 21.9035L291.956 17.2486L261.131 45.038L259.295 84.435Z" fill="#EF850B"/>
<path d="M292.75 59.3299C283.767 77.901 268.792 89.1425 259.302 84.4384C249.812 79.7342 249.401 60.8659 258.384 42.2948C267.367 23.7237 282.342 12.4822 291.832 17.1864C301.322 21.8905 301.733 40.7588 292.75 59.3299Z" fill="#EF850B"/>
<ellipse cx="20.5987" cy="37.3533" rx="20.5987" ry="37.3533" transform="matrix(0.895967 0.444121 -0.435444 0.900216 279.805 12.0132)" fill="#FFB140"/>
<ellipse cx="5.08245" cy="9.89893" rx="5.08245" ry="9.89893" transform="matrix(0.895967 0.444121 -0.435444 0.900216 284.064 44.7024)" fill="black"/>
<path d="M266.573 96.8052L274.266 102.157L325.817 20.8926L315.451 13.665L271.231 45.4919L266.573 96.8052Z" fill="#EF850B"/>
<path d="M314.296 68.8822C300.848 91.8698 279.486 104.374 266.583 96.8107C253.679 89.2476 254.121 64.4813 267.57 41.4937C281.018 18.5062 302.38 6.00215 315.284 13.5653C328.187 21.1284 327.745 45.8946 314.296 68.8822Z" fill="#EF850B"/>
<ellipse cx="29.5901" cy="48.2223" rx="29.5901" ry="48.2223" transform="matrix(0.862723 0.505677 -0.504961 0.863142 297.74 4.36841)" fill="#FFB140"/>
<ellipse cx="14.8143" cy="26.071" rx="14.8143" ry="26.071" transform="matrix(0.862723 0.505677 -0.504961 0.863142 301.143 31.5557)" fill="white"/>
<path d="M77.2944 103.622L85.7971 99.6816L41.6575 14.1655L30.1868 19.4662L35.3459 73.7043L77.2944 103.622Z" fill="#EF850B"/>
<path d="M77.2732 48.3302C90.3314 71.5417 90.3451 96.2943 77.3038 103.617C64.2625 110.939 43.1047 98.0587 30.0465 74.8473C16.9883 51.6358 16.9746 26.8832 30.0159 19.5607C43.0572 12.2382 64.215 25.1188 77.2732 48.3302Z" fill="#EF850B"/>
<ellipse cx="29.5901" cy="48.2223" rx="29.5901" ry="48.2223" transform="matrix(0.871953 -0.489589 0.490311 0.871547 13.2227 30.0637)" fill="#FFB140"/>
<ellipse cx="14.8143" cy="26.071" rx="14.8143" ry="26.071" transform="matrix(0.871953 -0.489589 0.490311 0.871547 37.9531 41.6318)" fill="#929090"/>
<ellipse cx="64.7705" cy="57.6048" rx="3.31851" ry="4.12505" transform="rotate(-26.6301 64.7705 57.6048)" fill="#474747"/>
<path d="M77.4836 90.2329L83.5456 87.5097L48.8842 21.5467L40.7056 25.209L46.0895 66.3603L77.4836 90.2329Z" fill="#EF850B"/>
<path d="M75.8028 48.4394C85.9941 66.3759 86.7496 85.0858 77.4903 90.2292C68.2309 95.3726 52.463 85.0017 42.2717 67.0651C32.0804 49.1286 31.3249 30.4186 40.5842 25.2753C49.8436 20.1319 65.6115 30.5028 75.8028 48.4394Z" fill="#EF850B"/>
<ellipse cx="20.5987" cy="37.3533" rx="20.5987" ry="37.3533" transform="matrix(0.874186 -0.485591 0.494013 0.869454 29.4985 32.2407)" fill="#FFB140"/>
<ellipse cx="10.1416" cy="19.7524" rx="10.1416" ry="19.7524" transform="matrix(0.874186 -0.485591 0.494013 0.869454 51.7036 43.4277)" fill="white"/>
<path d="M336.356 80.277C326.098 72.9527 314.753 66.1744 302.505 60.157" stroke="#835DFE" stroke-width="4.40741" stroke-linecap="round"/>
<path d="M128.765 113.922L164.286 142.403L158.485 171.926L114.14 126.873C112.589 125.297 111.393 123.412 110.628 121.336C104.159 103.773 92.601 72.5764 90.2352 66.8934C87.7203 60.8527 82.5762 58.2839 80.3185 57.7545C73.5259 55.1101 74.2475 50.1496 75.4574 47.9999L73.7074 45.9258C73.5777 43.774 75.5114 43.4521 76.4944 43.5601C77.2463 40.1638 79.746 41.216 80.9018 42.1666C82.7426 40.8703 84.175 41.3888 84.6611 41.8101L85.8926 40.4165C87.4222 39.5091 88.9497 41.6588 89.5222 42.8471C93.5481 45.5079 95.2923 51.9973 95.8052 55.8657C95.9163 56.7034 96.1511 57.5215 96.561 58.2605L124.881 109.322C125.864 111.093 127.183 112.656 128.765 113.922Z" fill="#FFA59A"/>
<path d="M204.342 135.468C200.402 135.545 196.824 133.599 195.528 132.616L173.004 135.468C171.329 137.684 168.725 139.497 166.548 140.711C164.738 141.72 163.133 143.157 162.377 145.086C149.722 177.384 162.343 217.844 172.842 234.472H228.778C213.974 214.276 213.6 181.616 215.264 167.81C196.804 166.41 200.291 145.665 204.342 135.468Z" fill="#F4F5FF"/>
<path d="M172.842 234.472H228.778C224.18 228.2 220.975 220.727 218.79 212.989H163.25C166.103 221.815 169.575 229.297 172.842 234.472Z" fill="black"/>
<path fill-rule="evenodd" clip-rule="evenodd" d="M247.55 40.2539C247.828 39.069 247.093 37.883 245.908 37.6048C198.53 26.4811 136.378 24.5056 70.3527 52.8844C69.2346 53.365 68.7177 54.661 69.1983 55.7792C69.6789 56.8974 70.975 57.4142 72.0931 56.9336C137.08 29.0011 198.24 30.9404 244.901 41.8956C246.086 42.1737 247.272 41.4387 247.55 40.2539Z" fill="#835DFE"/>
<path d="M209.609 88.9768C209.105 97.6094 207.113 103.627 205.032 106.412L198.786 105.644L198.732 92.5833C202.798 92.8079 207.678 90.2726 209.609 88.9768Z" fill="#FFA59A"/>
<path d="M209.609 88.9768C209.105 97.6094 207.113 103.627 205.032 106.412L198.786 105.644L198.732 92.5833C202.798 92.8079 207.678 90.2726 209.609 88.9768Z" fill="url(#paint0_linear_1_5717)"/>
<path d="M190.314 70.9536C175.322 69.6669 168.779 81.4681 167.381 87.5295C185.097 96.927 205.749 93.0754 209.59 89.1518C209.411 83.6218 205.306 72.2403 190.314 70.9536Z" fill="#3F0929"/>
<path d="M165.676 120.727L167.333 87.568C171.087 89.7478 182.836 93.835 199.794 92.7457L199.579 102.581C199.575 102.774 199.755 102.918 199.942 102.873L201.001 102.616C203.088 102.111 205.087 103.719 205.04 105.866C205.001 107.672 203.505 109.104 201.699 109.064L200.331 109.034L196.558 135.47C195.304 144.251 187.292 150.441 178.48 149.436C174.996 149.039 172.573 145.782 173.194 142.331L175.384 130.167C169.964 130.59 165.405 126.157 165.676 120.727Z" fill="#FFA59A"/>
<path fill-rule="evenodd" clip-rule="evenodd" d="M171.717 97.9537C170.804 98.0892 170.199 98.5452 170.032 98.8403C169.824 99.2059 169.36 99.3341 168.994 99.1265C168.628 98.919 168.5 98.4542 168.708 98.0886C169.181 97.2544 170.291 96.6261 171.493 96.4475C172.749 96.261 174.235 96.5373 175.538 97.6734C175.855 97.9498 175.888 98.4307 175.612 98.7476C175.335 99.0645 174.854 99.0974 174.537 98.8211C173.603 98.0059 172.576 97.8261 171.717 97.9537Z" fill="black"/>
<path fill-rule="evenodd" clip-rule="evenodd" d="M184.83 98.7657C183.908 98.7876 183.251 99.1654 183.049 99.4376C182.798 99.7749 182.321 99.8447 181.983 99.5937C181.646 99.3426 181.576 98.8656 181.827 98.5283C182.4 97.7589 183.579 97.2723 184.794 97.2434C186.063 97.2132 187.504 97.6708 188.657 98.959C188.937 99.2723 188.911 99.7536 188.597 100.034C188.284 100.314 187.803 100.288 187.522 99.9744C186.695 99.0501 185.698 98.745 184.83 98.7657Z" fill="black"/>
<path fill-rule="evenodd" clip-rule="evenodd" d="M177.745 107.759C177.375 107.763 177.078 108.065 177.082 108.434L177.102 110.505C176.52 110.562 175.976 110.731 175.525 111.031C174.873 111.464 174.458 112.144 174.418 113.004C174.335 114.748 175.88 116.076 177.643 116.159C178.012 116.176 178.326 115.891 178.343 115.522C178.36 115.153 178.075 114.84 177.706 114.822C176.489 114.765 175.715 113.894 175.754 113.067C175.774 112.642 175.96 112.348 176.265 112.146C176.593 111.928 177.097 111.795 177.745 111.825C177.929 111.834 178.108 111.767 178.241 111.639C178.373 111.511 178.448 111.335 178.446 111.151L178.42 108.422C178.416 108.052 178.114 107.756 177.745 107.759Z" fill="black"/>
<path d="M182.942 119.376C182.707 121.52 180.764 123.067 178.602 122.83C177.112 122.667 175.907 121.7 175.379 120.412C175.239 120.071 175.469 119.71 175.829 119.625L182.2 118.133C182.557 118.049 182.922 118.266 182.952 118.631C182.972 118.875 182.969 119.124 182.942 119.376Z" fill="white"/>
<ellipse cx="1.34538" cy="1.95692" rx="1.34538" ry="1.95692" transform="matrix(-0.99889 -0.0471088 -0.0471088 0.99889 184.982 102.112)" fill="black"/>
<ellipse cx="1.34538" cy="1.95692" rx="1.34538" ry="1.95692" transform="matrix(-0.999997 -0.00256426 -0.00256425 0.999997 173.676 101.669)" fill="black"/>
<path d="M174.278 136.314L175.384 130.169C178.401 130.177 185.473 129.596 189.796 126.515C189.293 129.343 185.479 135.166 174.278 136.314Z" fill="#D78A80"/>
<path d="M75.5905 47.9137C75.381 48.296 75.1399 50.3412 75.0709 50.9079C78.4105 49.1634 79.9754 49.5503 80.5641 49.3604C83.6971 53.6518 84.4196 50.2963 84.4196 49.2519C87.1276 51.0322 87.5013 48.6294 87.5013 47.875C88.8795 48.296 89.9585 47.1532 89.9585 46.2771C89.9775 42.8699 88.2713 41.0494 87.7966 40.6506C86.399 39.4764 85.3148 40.8421 84.8021 41.9055C82.7569 40.5972 81.7381 41.7366 80.9406 42.3252C77.6914 40.2413 76.6517 42.1649 76.5065 43.6852C71.7985 43.5995 74.9382 47.855 75.5905 47.9137Z" fill="#FFA59A"/>
<path fill-rule="evenodd" clip-rule="evenodd" d="M84.2844 41.8701C82.8934 41.1404 81.6821 41.938 81.2448 42.4434L80.7547 42.0192C81.2897 41.4011 82.8136 40.3666 84.5855 41.2962C85.151 41.5928 85.6901 42.1828 86.1559 42.8815C86.6269 43.588 87.0451 44.4393 87.3566 45.3011C87.6676 46.1615 87.8775 47.047 87.9213 47.822C87.9641 48.58 87.8522 49.3092 87.4292 49.7736C87.1257 50.1067 86.7936 50.3028 86.4474 50.3792C86.1028 50.4552 85.7717 50.4065 85.478 50.2962C84.9021 50.08 84.4329 49.6145 84.1736 49.2609L84.6963 48.8776C84.9123 49.1721 85.289 49.533 85.7058 49.6894C85.9085 49.7655 86.1105 49.7898 86.3078 49.7462C86.5034 49.7031 86.722 49.5874 86.95 49.3371C87.1913 49.0723 87.3144 48.5701 87.2742 47.8586C87.2349 47.164 87.0437 46.3421 86.7471 45.5214C86.4509 44.7021 86.055 43.8986 85.6166 43.241C85.1729 42.5755 84.7074 42.092 84.2844 41.8701Z" fill="black"/>
<path fill-rule="evenodd" clip-rule="evenodd" d="M82.6862 45.7545C82.9078 46.0583 83.0184 46.4352 83.009 46.8725C82.9798 48.2279 82.2016 49.0485 81.2828 49.506C80.5146 49.8885 78.9778 49.7435 78.1045 49.6741C77.8938 49.6574 77.7352 49.4683 77.7604 49.2584C77.783 49.0706 77.9454 48.9337 78.1334 48.9541C78.9177 49.0392 80.3274 49.2576 80.9939 48.9258C81.7554 48.5466 82.3383 47.9143 82.361 46.8586C82.3678 46.5425 82.289 46.3097 82.1625 46.1364C82.0346 45.961 81.8403 45.8225 81.5778 45.7277C81.0435 45.5347 80.2737 45.5414 79.4288 45.7502C78.5912 45.9572 77.7186 46.3536 76.9952 46.8929C76.2701 47.4335 75.7152 48.1018 75.4748 48.8449C74.9615 50.4315 74.982 52.1325 75.7361 53.6483C76.4889 55.1615 77.993 56.5305 80.5235 57.4161C85.6728 59.2184 88.7201 62.9329 90.3974 66.5314C90.473 66.6936 90.3993 66.8852 90.2359 66.9581C90.0725 67.0311 89.8812 66.9578 89.8055 66.7956C88.1819 63.3171 85.2502 59.7572 80.3094 58.0279C77.6547 57.0987 75.9991 55.632 75.1558 53.937C74.71 53.0409 74.4969 52.0922 74.4776 51.1428C74.4605 50.2989 74.5964 49.4543 74.8581 48.6454C75.1524 47.7358 75.8128 46.966 76.6078 46.3733C77.4045 45.7794 78.3569 45.3474 79.2733 45.121C80.1825 44.8963 81.0958 44.8645 81.798 45.1181C82.1539 45.2466 82.4661 45.4527 82.6862 45.7545Z" fill="black"/>
<path fill-rule="evenodd" clip-rule="evenodd" d="M85.7374 40.8498C85.3973 41.1342 85.2002 41.5125 85.1352 41.7377L84.5125 41.5581C84.6095 41.2216 84.8726 40.7281 85.3216 40.3526C85.7826 39.9671 86.4387 39.7084 87.2834 39.8714C87.6046 39.9334 87.9138 40.145 88.1902 40.4094C88.473 40.68 88.7526 41.0361 89.0123 41.4404C89.5315 42.2489 89.9926 43.284 90.2465 44.2997C90.4973 45.3031 90.5611 46.3481 90.2118 47.1383C90.0329 47.543 89.7452 47.8805 89.3277 48.0992C88.9142 48.3158 88.3983 48.4031 87.7803 48.3553L87.8304 47.7091C88.3629 47.7503 88.7493 47.6705 89.0269 47.5251C89.3004 47.3818 89.4925 47.1623 89.619 46.8763C89.8803 46.2851 89.857 45.414 89.6177 44.4569C89.3814 43.5119 88.9493 42.5418 88.4669 41.7907C88.2258 41.4152 87.9775 41.1029 87.7421 40.8777C87.5004 40.6464 87.3013 40.535 87.1606 40.5078C86.5276 40.3857 86.0656 40.5753 85.7374 40.8498Z" fill="black"/>
<path fill-rule="evenodd" clip-rule="evenodd" d="M78.7723 41.5309C78.3564 41.5238 77.9322 41.6601 77.5073 41.9987C76.8693 42.5069 76.7758 43.1687 76.9413 43.847C77.1107 44.5418 77.5486 45.2121 77.9044 45.6136L77.4193 46.0434C77.0188 45.5915 76.5137 44.8294 76.3116 44.0006C76.1054 43.1552 76.2118 42.202 77.1034 41.4917C77.6345 41.0687 78.2028 40.8729 78.7835 40.8829C79.3587 40.8928 79.9178 41.1041 80.4399 41.4456C81.4777 42.1245 82.4251 43.3538 83.1666 44.7709C83.9024 46.177 84.4698 47.5793 84.6889 48.7717C84.904 49.9422 84.8028 51.0347 84.0209 51.6562C83.6426 51.9569 83.2421 52.0665 82.8432 52.014C82.4574 51.9632 82.1085 51.7655 81.8076 51.5199C81.2102 51.0323 80.7077 50.2762 80.3676 49.7256L80.9191 49.385C81.2596 49.9363 81.7131 50.6061 82.2175 51.0178C82.4675 51.2219 82.706 51.3422 82.9278 51.3714C83.1366 51.3989 83.3639 51.3505 83.6176 51.1488C84.0996 50.7657 84.2577 50.011 84.0515 48.8888C83.8493 47.7884 83.3149 46.4522 82.5923 45.0714C81.8755 43.7014 80.9918 42.5811 80.0851 41.988C79.635 41.6936 79.1936 41.5382 78.7723 41.5309Z" fill="black"/>
<path fill-rule="evenodd" clip-rule="evenodd" d="M74.5623 43.589C75.15 43.2808 75.8555 43.2904 76.3612 43.3344L76.305 43.9801C75.8169 43.9376 75.2747 43.9472 74.8632 44.163C74.6656 44.2666 74.4961 44.4189 74.373 44.6468C74.2483 44.8777 74.1618 45.2037 74.1618 45.6665C74.1618 46.0306 74.372 46.4291 74.692 46.8044C75.0056 47.1722 75.3852 47.4712 75.6328 47.6296L75.2834 48.1756C74.9909 47.9883 74.5603 47.6489 74.1988 47.2249C73.8436 46.8084 73.5137 46.2616 73.5137 45.6665C73.5137 45.1246 73.6149 44.6864 73.8028 44.3387C73.9923 43.9879 74.2603 43.7473 74.5623 43.589Z" fill="black"/>
<path d="M75.4342 50.7578L74.36 51.2031C74.2335 52.2381 75.2943 54.4026 75.8405 55.3555L76.7819 54.9688L75.4342 50.7578Z" fill="#835DFE"/>
</g>
<defs>
<linearGradient id="paint0_linear_1_5717" x1="204.213" y1="88.8588" x2="203.68" y2="113.207" gradientUnits="userSpaceOnUse">
<stop stop-color="#3F0929"/>
<stop offset="1" stop-color="#3F0929" stop-opacity="0"/>
</linearGradient>
<clipPath id="clip0_1_5717">
<rect width="350" height="249.861" fill="white" transform="translate(0.5 0.0693359)"/>
</clipPath>
</defs>
</svg>
