<svg width="32" height="32" viewBox="0 0 32 32" fill="none" xmlns="http://www.w3.org/2000/svg">
<path d="M28.4003 14.4534C28.9203 14.4534 29.3337 14.0401 29.3337 13.5201V12.2801C29.3337 6.8134 27.667 5.14673 22.2003 5.14673H9.80032C4.33366 5.14673 2.66699 6.8134 2.66699 12.2801V12.9067C2.66699 13.4267 3.08033 13.8401 3.60033 13.8401C4.80033 13.8401 5.77366 14.8134 5.77366 16.0134C5.77366 17.2134 4.80033 18.1734 3.60033 18.1734C3.08033 18.1734 2.66699 18.5867 2.66699 19.1067V19.7334C2.66699 25.2001 4.33366 26.8667 9.80032 26.8667H22.2003C27.667 26.8667 29.3337 25.2001 29.3337 19.7334C29.3337 19.2134 28.9203 18.8001 28.4003 18.8001C27.2003 18.8001 26.227 17.8267 26.227 16.6267C26.227 15.4267 27.2003 14.4534 28.4003 14.4534ZM12.0003 11.8401C12.7337 11.8401 13.3337 12.4401 13.3337 13.1734C13.3337 13.9067 12.747 14.5067 12.0003 14.5067C11.267 14.5067 10.667 13.9067 10.667 13.1734C10.667 12.4401 11.2537 11.8401 12.0003 11.8401ZM20.0003 21.1734C19.2537 21.1734 18.6537 20.5734 18.6537 19.8401C18.6537 19.1067 19.2537 18.5067 19.987 18.5067C20.7203 18.5067 21.3203 19.1067 21.3203 19.8401C21.3203 20.5734 20.747 21.1734 20.0003 21.1734ZM21.2003 12.6401L12.227 21.6134C12.027 21.8134 11.7737 21.9067 11.5203 21.9067C11.267 21.9067 11.0137 21.8134 10.8137 21.6134C10.427 21.2267 10.427 20.5867 10.8137 20.2001L19.787 11.2267C20.1737 10.8401 20.8137 10.8401 21.2003 11.2267C21.587 11.6134 21.587 12.2534 21.2003 12.6401Z" fill="#292D32"/>
</svg>
