<svg width="32" height="32" viewBox="0 0 32 32" fill="none" xmlns="http://www.w3.org/2000/svg">
<path d="M15.9993 2.66675C8.65268 2.66675 2.66602 8.65341 2.66602 16.0001C2.66602 23.3467 8.65268 29.3334 15.9993 29.3334C23.346 29.3334 29.3327 23.3467 29.3327 16.0001C29.3327 8.65341 23.346 2.66675 15.9993 2.66675ZM22.3727 12.9334L14.8127 20.4934C14.626 20.6801 14.3727 20.7867 14.106 20.7867C13.8393 20.7867 13.586 20.6801 13.3993 20.4934L9.62601 16.7201C9.23935 16.3334 9.23935 15.6934 9.62601 15.3067C10.0127 14.9201 10.6527 14.9201 11.0393 15.3067L14.106 18.3734L20.9593 11.5201C21.346 11.1334 21.986 11.1334 22.3727 11.5201C22.7593 11.9067 22.7593 12.5334 22.3727 12.9334Z" fill="black"/>
</svg>
