<svg width="56" height="56" viewBox="0 0 56 56" fill="none" xmlns="http://www.w3.org/2000/svg">
<g clip-path="url(#clip0_1_3035)">
<circle cx="28" cy="28" r="28" fill="#835DFE"/>
<path opacity="0.05" fill-rule="evenodd" clip-rule="evenodd" d="M2.36165 16.7275H5.25876V11.7995H5.15992C5.40887 11.4491 5.66568 11.1048 5.93009 10.7666V11.1275H10.8532V6.19949H10.4275C10.786 5.91017 11.1518 5.62951 11.5245 5.35783V5.52749H16.4476V2.48674C16.6698 2.38595 16.8936 2.28798 17.1189 2.19287V5.52749H22.042V0.635227C22.2648 0.586945 22.4886 0.541315 22.7133 0.498371V5.52749H27.6364V0.00231262C27.7574 0.000772422 27.8786 0 28 0C28.1027 0 28.2053 0.000552939 28.3077 0.001656V5.52749H33.2308V0.487749C33.4555 0.530217 33.6793 0.57537 33.9021 0.623174V5.52749H38.8252V2.16933C39.0505 2.26386 39.2743 2.36125 39.4965 2.46145V5.52749H44.4196V5.31718C44.8117 5.60149 45.1961 5.89572 45.5725 6.19949H45.0909V11.1275H50.014V10.6954C50.2981 11.0563 50.5736 11.4245 50.8401 11.7995H50.6853V16.7275H53.6384C53.7363 16.95 53.8315 17.174 53.9238 17.3995H50.6853V22.3275H55.4251C55.471 22.5505 55.5142 22.7745 55.5548 22.9995H50.6853V27.9275H55.9999C56 27.9516 56 27.9758 56 28C56 28.2003 55.9979 28.4002 55.9937 28.5995H50.6853V33.5275H55.4545C55.4095 33.7525 55.3617 33.9765 55.3113 34.1995H50.6853V39.1275H53.7017C53.6039 39.353 53.5033 39.577 53.3998 39.7995H50.6853V44.4161C50.4436 44.7495 50.1948 45.0774 49.939 45.3995H45.0909V50.1806C44.7256 50.4625 44.3531 50.7355 43.9738 50.9995H39.4965V53.5385C39.2743 53.6388 39.0505 53.7361 38.8252 53.8307V50.9995H33.9021V55.3768C33.6793 55.4246 33.4555 55.4698 33.2308 55.5123V50.9995H28.3077V55.9983C28.2053 55.9995 28.1027 56 28 56C27.8786 56 27.7574 55.9992 27.6364 55.9977V50.9995H22.7133V55.5016C22.4886 55.4587 22.2648 55.4131 22.042 55.3648V50.9995H17.1189V53.8071C16.8936 53.712 16.6698 53.6141 16.4476 53.5133V50.9995H12.0262C11.6275 50.7221 11.2364 50.4345 10.8532 50.1373V45.3995H6.06099C5.78543 45.0525 5.51793 44.6988 5.25876 44.3387V39.7995H2.60024C2.49673 39.577 2.39606 39.353 2.29828 39.1275H5.25876V34.1995H0.688675C0.63827 33.9765 0.590526 33.7525 0.545478 33.5275H5.25876V28.5995H0.00629001C0.00210363 28.4002 0 28.2003 0 28C0 27.9758 3.0662e-05 27.9516 9.19493e-05 27.9275H5.25876V22.9995H0.445238C0.485792 22.7745 0.529032 22.5505 0.574925 22.3275H5.25876V17.3995H2.07622C2.16852 17.174 2.26368 16.95 2.36165 16.7275ZM11.5245 11.1275V6.19949H16.4476V11.1275H11.5245ZM17.1189 11.1275V6.19949H22.042V11.1275H17.1189ZM22.7133 11.1275V6.19949H27.6364V11.1275H22.7133ZM28.3077 11.1275V6.19949H33.2308V11.1275H28.3077ZM33.9021 11.1275V6.19949H38.8252V11.1275H33.9021ZM39.4965 11.1275V6.19949H44.4196V11.1275H39.4965ZM45.0909 11.7995H50.014V16.7275H45.0909V11.7995ZM45.0909 17.3995H50.014V22.3275H45.0909V17.3995ZM45.0909 22.9995H50.014V27.9275H45.0909V22.9995ZM45.0909 28.5995H50.014V33.5275H45.0909V28.5995ZM45.0909 34.1995H50.014V39.1275H45.0909V34.1995ZM45.0909 39.7995H50.014V44.7275H45.0909V39.7995ZM44.4196 45.3995V50.3275H39.4965V45.3995H44.4196ZM38.8252 45.3995V50.3275H33.9021V45.3995H38.8252ZM33.2308 45.3995V50.3275H28.3077V45.3995H33.2308ZM27.6364 45.3995V50.3275H22.7133V45.3995H27.6364ZM22.042 45.3995V50.3275H17.1189V45.3995H22.042ZM16.4476 45.3995V50.3275H11.5245V45.3995H16.4476ZM10.8532 44.7275H5.93009V39.7995H10.8532V44.7275ZM10.8532 39.1275H5.93009V34.1995H10.8532V39.1275ZM10.8532 33.5275H5.93009V28.5995H10.8532V33.5275ZM10.8532 27.9275H5.93009V22.9995H10.8532V27.9275ZM10.8532 22.3275H5.93009V17.3995H10.8532V22.3275ZM10.8532 16.7275H5.93009V11.7995H10.8532V16.7275ZM11.5245 16.7275V11.7995H16.4476V16.7275H11.5245ZM17.1189 16.7275V11.7995H22.042V16.7275H17.1189ZM22.7133 16.7275V11.7995H27.6364V16.7275H22.7133ZM28.3077 16.7275V11.7995H33.2308V16.7275H28.3077ZM33.9021 16.7275V11.7995H38.8252V16.7275H33.9021ZM39.4965 16.7275V11.7995H44.4196V16.7275H39.4965ZM39.4965 17.3995H44.4196V22.3275H39.4965V17.3995ZM39.4965 22.9995H44.4196V27.9275H39.4965V22.9995ZM39.4965 28.5995H44.4196V33.5275H39.4965V28.5995ZM39.4965 34.1995H44.4196V39.1275H39.4965V34.1995ZM39.4965 39.7995H44.4196V44.7275H39.4965V39.7995ZM38.8252 39.7995V44.7275H33.9021V39.7995H38.8252ZM33.2308 39.7995V44.7275H28.3077V39.7995H33.2308ZM27.6364 39.7995V44.7275H22.7133V39.7995H27.6364ZM22.042 39.7995V44.7275H17.1189V39.7995H22.042ZM16.4476 39.7995V44.7275H11.5245V39.7995H16.4476ZM16.4476 39.1275H11.5245V34.1995H16.4476V39.1275ZM16.4476 33.5275H11.5245V28.5995H16.4476V33.5275ZM16.4476 27.9275H11.5245V22.9995H16.4476V27.9275ZM16.4476 22.3275H11.5245V17.3995H16.4476V22.3275ZM17.1189 22.3275V17.3995H22.042V22.3275H17.1189ZM22.7133 22.3275V17.3995H27.6364V22.3275H22.7133ZM28.3077 22.3275V17.3995H33.2308V22.3275H28.3077ZM33.9021 22.3275V17.3995H38.8252V22.3275H33.9021ZM33.9021 22.9995H38.8252V27.9275H33.9021V22.9995ZM33.9021 28.5995H38.8252V33.5275H33.9021V28.5995ZM33.9021 34.1995H38.8252V39.1275H33.9021V34.1995ZM33.2308 34.1995V39.1275H28.3077V34.1995H33.2308ZM27.6364 34.1995V39.1275H22.7133V34.1995H27.6364ZM22.042 34.1995V39.1275H17.1189V34.1995H22.042ZM22.042 33.5275H17.1189V28.5995H22.042V33.5275ZM22.042 27.9275H17.1189V22.9995H22.042V27.9275ZM22.7133 27.9275V22.9995H27.6364V27.9275H22.7133ZM28.3077 27.9275V22.9995H33.2308V27.9275H28.3077ZM28.3077 28.5995H33.2308V33.5275H28.3077V28.5995ZM27.6364 28.5995V33.5275H22.7133V28.5995H27.6364Z" fill="black"/>
<path d="M13.4119 51.9888V6.44055H42.7279V51.9027C38.4493 54.554 33.4033 56.0846 27.9999 56.0846C22.6552 56.0846 17.6603 54.5871 13.4119 51.9888Z" fill="#FFB140"/>
<path fill-rule="evenodd" clip-rule="evenodd" d="M14.406 52.4855V7.79875V7.58875H14.616H41.524H41.734V7.79875V52.4067C41.6642 52.4461 41.5942 52.4852 41.524 52.524V7.79875H14.616V52.6011C14.5458 52.5628 14.4758 52.5243 14.406 52.4855Z" fill="black"/>
<circle cx="22.6723" cy="12.5236" r="1.225" fill="white"/>
<circle cx="33.2006" cy="12.5237" r="1.225" fill="white"/>
<path d="M20.5783 17.9758L20.3895 18.5626C20.1518 19.298 19.3057 19.1283 19.3057 18.5626C19.3057 18.0606 20.1518 15.2889 20.6063 14.5535C20.9428 14.0091 21.4104 13.8748 22.7879 13.8748C24.0605 13.8748 24.4661 14.0657 24.7668 14.5606C25.3122 15.5929 26.0844 18.0465 26.0674 18.5626C26.0464 19.199 25.1793 19.2414 24.9836 18.5626L24.7948 17.9687L24.0326 15.6707V16.201L25.522 20.8818H24.0326V22.9748H22.7949V20.8818H22.5712V22.9748H21.3405V20.8818H19.8651L21.3405 16.201V15.6707L20.5783 17.9758Z" fill="white"/>
<path d="M30.9412 17.9694L30.7661 18.5554C30.5278 19.2896 29.666 19.1201 29.666 18.5554C29.666 18.0541 30.4718 15.2867 30.9272 14.5525C31.2644 14.0089 31.9292 13.8748 33.3095 13.8748C34.5847 13.8748 35.1872 14.0654 35.4885 14.5596C36.0351 15.5903 36.7528 18.04 36.7357 18.5554C36.7147 19.1907 35.8459 19.2331 35.6497 18.5554L35.4465 17.9623L34.7528 15.6679V22.9748H33.4636V20.9698H32.9451V22.9748H31.6489V15.6679L30.9412 17.9694Z" fill="white"/>
<path fill-rule="evenodd" clip-rule="evenodd" d="M28.1958 11.1167C28.2924 11.1167 28.3708 11.195 28.3708 11.2917V23.1637C28.3708 23.2603 28.2924 23.3387 28.1958 23.3387C28.0991 23.3387 28.0208 23.2603 28.0208 23.1637V11.2917C28.0208 11.195 28.0991 11.1167 28.1958 11.1167Z" fill="white"/>
<rect x="13.916" y="18.8853" width="1.106" height="3.472" rx="0.14" fill="black"/>
<rect x="13.916" y="37.8693" width="1.106" height="3.472" rx="0.14" fill="black"/>
<path d="M35.4566 46.0601H20.5483C20.4287 46.0601 20.3642 45.9199 20.442 45.8291L20.6516 45.5842L21.575 44.5118C21.6016 44.4809 21.6403 44.4631 21.6811 44.4631H34.3019C34.3422 44.4631 34.3805 44.4805 34.4071 44.5108L35.3483 45.5842L35.5618 45.8278C35.6412 45.9183 35.5769 46.0601 35.4566 46.0601Z" fill="#FFD69A"/>
<path d="M35.4566 45.9831H20.5483C20.4945 45.9831 20.4655 45.92 20.5005 45.8791L20.6682 45.6833C20.6802 45.6693 20.6976 45.6612 20.716 45.6612H35.2848C35.303 45.6612 35.3202 45.6691 35.3322 45.6827L35.3901 45.6319L35.3322 45.6827L35.5039 45.8786C35.5396 45.9193 35.5107 45.9831 35.4566 45.9831Z" stroke="black" stroke-width="0.154"/>
<path d="M20.5483 46.0601H35.4566C35.5769 46.0601 35.6412 45.9183 35.5618 45.8278L35.3901 45.6319C35.3635 45.6016 35.3251 45.5842 35.2848 45.5842H20.716C20.6751 45.5842 20.6363 45.6021 20.6097 45.6332L20.442 45.8291C20.3642 45.9199 20.4287 46.0601 20.5483 46.0601Z" fill="black"/>
<path d="M35.4566 48.2016H20.5483C20.4287 48.2016 20.3642 48.0614 20.442 47.9705L20.6516 47.7257L21.575 46.6533C21.6016 46.6224 21.6403 46.6046 21.6811 46.6046H34.3019C34.3422 46.6046 34.3805 46.622 34.4071 46.6523L35.3483 47.7257L35.5618 47.9693C35.6412 48.0598 35.5769 48.2016 35.4566 48.2016Z" fill="#FFD69A"/>
<path d="M20.5483 48.2016H35.4566C35.5769 48.2016 35.6412 48.0598 35.5618 47.9693L35.3901 47.7734C35.3635 47.7431 35.3251 47.7257 35.2848 47.7257H20.716C20.6751 47.7257 20.6363 47.7436 20.6097 47.7747L20.442 47.9705C20.3642 48.0614 20.4287 48.2016 20.5483 48.2016Z" fill="black"/>
<path d="M35.4566 50.3431H20.5483C20.4287 50.3431 20.3642 50.2028 20.442 50.112L20.6516 49.8672L21.575 48.7947C21.6016 48.7639 21.6403 48.7461 21.6811 48.7461H34.3019C34.3422 48.7461 34.3805 48.7635 34.4071 48.7938L35.3483 49.8672L35.5618 50.1108C35.6412 50.2013 35.5769 50.3431 35.4566 50.3431Z" fill="#FFD69A"/>
<path d="M20.5483 50.3431H35.4566C35.5769 50.3431 35.6412 50.2013 35.5618 50.1108L35.3901 49.9149C35.3635 49.8846 35.3251 49.8672 35.2848 49.8672H20.716C20.6751 49.8672 20.6363 49.8851 20.6097 49.9161L20.442 50.112C20.3642 50.2029 20.4287 50.3431 20.5483 50.3431Z" fill="black"/>
</g>
<defs>
<clipPath id="clip0_1_3035">
<rect width="56" height="56" fill="white"/>
</clipPath>
</defs>
</svg>
