<svg width="20" height="20" viewBox="0 0 20 20" fill="none" xmlns="http://www.w3.org/2000/svg">
<path d="M20 10C20 4.49 15.51 -1.96264e-07 10 -4.37114e-07C4.49 -6.77964e-07 -1.96264e-07 4.49 -4.37114e-07 10C-6.77964e-07 15.51 4.49 20 10 20C15.51 20 20 15.51 20 10ZM8.21 14.06C8.06 13.91 7.99 13.72 7.99 13.53C7.99 13.34 8.06 13.15 8.21 13L11.21 10L8.21 7C7.92 6.71 7.92 6.23 8.21 5.94C8.5 5.65 8.98 5.65 9.27 5.94L12.8 9.47C13.09 9.76 13.09 10.24 12.8 10.53L9.27 14.06C8.97 14.35 8.5 14.35 8.21 14.06Z" fill="#292D32"/>
</svg>
