<svg width="120" height="120" viewBox="0 0 120 120" fill="none" xmlns="http://www.w3.org/2000/svg">
<g clip-path="url(#clip0_1_2809)">
<circle cx="60" cy="60" r="60" fill="#835DFE"/>
<path d="M0.242901 65.4357C0.0821273 63.6453 0 61.8323 0 60C0 52.779 1.27564 45.8558 3.61387 39.4437C6.65977 38.6214 11.6842 38.8339 15.0262 44.3768C19.0566 42.4613 28.171 40.905 32.3851 50.0034C34.939 49.4049 41.0765 49.4767 45.1947 54.5527L0.242901 65.4357Z" fill="white"/>
<path d="M119.729 65.7464C119.909 63.8551 120 61.9383 120 60C120 51.511 118.237 43.4336 115.058 36.1143C106.646 36.4425 103.134 42.1252 102.42 45.095C93.7042 42.3176 88.9714 47.2898 87.6944 50.1231C82.9057 49.3569 80.272 53.2357 79.5537 55.2709L119.729 65.7464Z" fill="white"/>
<path d="M0.0966797 63.4367C15.4028 57.4031 36.5899 53.6686 59.9999 53.6686C83.4099 53.6686 104.597 57.4031 119.903 63.4367C118.122 94.9747 91.9836 120 59.9999 120C28.0163 120 1.8776 94.9747 0.0966797 63.4367Z" fill="#6A49D4"/>
<path d="M23.4961 107.622L40.0187 87.5966L79.1283 91.2674L56.7359 119.913C44.2634 119.244 32.8026 114.766 23.4961 107.622Z" fill="#3E2787"/>
<path d="M11.485 95.3106C10.0072 93.2836 8.65335 91.1606 7.43457 88.9525C9.02796 88.5853 10.6114 89.5309 11.3051 90.1643C12.0098 84.967 16.2969 84.989 18.3523 85.6497C20.5546 81.6415 23.6112 82.746 24.8642 83.7993C25.6838 83.026 26.8426 82.6763 27.738 82.5421C27.9537 82.5098 28.1705 82.483 28.3873 82.4563C28.8141 82.4037 29.241 82.351 29.6597 82.2557L35.4145 80.9448C28.9477 82.4717 17.1176 90.8885 11.485 95.3106Z" fill="white"/>
<path d="M35.5964 80.9033L35.4145 80.9448C35.4756 80.9303 35.5363 80.9165 35.5964 80.9033Z" fill="white"/>
<path d="M3.23397 79.4815C1.83121 75.3931 0.857681 71.1053 0.367188 66.672C5.75525 62.9947 11.3369 66.3224 13.5868 68.6234C16.6896 62.1539 21.7507 63.5928 23.8935 65.121C26.3149 61.5573 29.0525 63.4409 30.1185 64.8281C36.1037 64.1827 41.5734 64.5592 43.56 64.8281C24.5697 67.2753 9.1721 75.3557 3.23397 79.4815Z" fill="white"/>
<path d="M111.662 90.5307C103.84 81.2563 85.2122 62.4393 69.876 57.542C70.643 57.3923 72.8631 57.4824 75.6068 59.0405C76.2419 58.0667 78.198 56.5932 80.9417 58.4901C82.3672 57.8691 85.65 57.4316 87.3775 60.6495C89.6446 59.8725 94.5516 59.6634 96.0434 65.0428C99.9899 63.7346 108.472 63.6498 110.828 73.7763C111.815 71.8269 114.849 68.1611 119.469 68.0151C118.383 76.1487 115.668 83.767 111.662 90.5307Z" fill="white"/>
<path d="M72.2651 1.25459C68.3058 0.432203 64.2035 0 60.0003 0C55.3932 0 50.9073 0.519262 46.5981 1.50245L46.124 13.4042L71.4486 14.4419L72.2651 1.25459Z" fill="#393838"/>
<path d="M71.8833 7.42182C69.4009 4.3212 65.0062 0.565968 59.4717 0.500085C53.316 0.426806 48.6233 4.16489 46.3876 6.78629L46.124 13.4042L71.4486 14.4419L71.8833 7.42182Z" fill="#FFB140"/>
<path d="M70.2448 9.35374C71.369 11.12 71.7474 13.3177 71.2955 15.362C70.1207 20.6764 64.8173 20.6764 58.7962 20.6764C52.5082 20.6764 47.2854 18.475 46.2546 14.7866C46.0074 13.9018 46.1015 12.9543 46.405 12.0873C47.7673 8.19626 52.4972 4.06921 58.7962 4.06921C64.3312 4.06921 68.1817 6.11228 70.2448 9.35374Z" fill="#202020"/>
<path d="M49.1702 31.6007L49.7516 7.41478C55.954 1.87776 65.34 4.2208 68.2863 7.02338L67.3971 31.6007L72.8162 58.3219H42.626L49.1702 31.6007Z" fill="#FFF9BB"/>
<path d="M67.4312 30.6764L67.4038 31.4349C62.3069 29.4879 57.7848 30.7071 56.0555 31.6409C55.8806 31.7354 55.6622 31.6702 55.5677 31.4952C55.4732 31.3203 55.5385 31.1019 55.7134 31.0074C57.572 30.0037 62.2064 28.7661 67.4312 30.6764Z" fill="black"/>
<path d="M40.1509 65.1096C37.9086 71.5473 37.7749 76.2479 37.9884 77.7936H77.0267C76.5591 72.6299 75.098 59.9295 71.825 55.546C65.1855 49.6822 52.8894 51.0287 49.3238 52.1919C44.4839 53.7709 42.9539 57.0624 40.1509 65.1096Z" fill="#FFB140"/>
<path d="M76.0842 69.9394C60.3737 59.0692 45.8273 63.8675 38.9942 68.9489C38.8325 69.587 38.693 70.1991 38.5732 70.783C44.5507 65.6066 59.7881 59.4876 76.3155 71.5389C76.2434 71.0156 76.1664 70.4811 76.0842 69.9394Z" fill="white"/>
<path d="M76.6478 80.064L76.8876 79.0448C77.1697 77.8459 76.9992 76.5851 76.4087 75.5043C74.4074 71.8407 70.8508 69.284 66.7406 68.5542L64.3813 68.1354C58.8428 67.152 53.158 67.3634 47.7078 68.7555L45.5628 69.3034C42.2437 70.1511 39.5496 72.5693 38.3496 75.7778C37.7818 77.2961 37.8378 78.9773 38.5053 80.4544L38.9217 81.3758C39.3914 82.4151 39.3494 83.6139 38.8081 84.6178C37.9143 86.2754 37.2106 88.0287 36.7105 89.8443L36.6442 90.0852C36.3521 91.1456 37.1601 92.1894 38.2598 92.1725L77.8883 91.5628C79.308 91.541 80.4475 90.3839 80.4475 88.964V88.6063C80.4475 86.6895 79.5734 84.8773 78.0733 83.684L77.8387 83.4975C76.8108 82.6798 76.347 81.3425 76.6478 80.064Z" fill="#F58C12"/>
<path d="M74.0199 80.0328L74.225 79.1614C74.4662 78.1363 74.3204 77.0583 73.8155 76.1341C72.1043 73.0016 69.0633 70.8155 65.5488 70.1915L63.5316 69.8334C58.7959 68.9925 53.9352 69.1733 49.275 70.3636L47.4409 70.832C44.603 71.5569 42.2994 73.6246 41.2734 76.368C40.7879 77.6662 40.8357 79.1037 41.4065 80.3666L41.7625 81.1545C42.1641 82.0431 42.1282 83.0682 41.6654 83.9265C40.9011 85.3438 40.2995 86.843 39.8719 88.3954L39.8152 88.6014C39.5654 89.5081 40.2562 90.4006 41.1966 90.3861L75.0807 89.8648C76.2945 89.8462 77.2688 88.8568 77.2688 87.6428V87.3369C77.2688 85.6979 76.5214 84.1484 75.2388 83.1281L75.0382 82.9686C74.1593 82.2695 73.7627 81.126 74.0199 80.0328Z" fill="#B96300"/>
<path d="M41.9213 71.6221H72.766V72.3504H41.9213V71.6221Z" fill="#F58C12"/>
<path d="M40.7213 75.6121H75.466V76.3404H40.7213V75.6121Z" fill="#F58C12"/>
<path d="M40.7213 79.6021H75.466V80.3304H40.7213V79.6021Z" fill="#F58C12"/>
<path d="M40.7213 83.5921H76.366V84.3204H40.7213V83.5921Z" fill="#F58C12"/>
<path d="M38.5557 87.5821H78.1734V88.3104H38.5557V87.5821Z" fill="#F58C12"/>
</g>
<defs>
<clipPath id="clip0_1_2809">
<rect width="120" height="120" fill="white"/>
</clipPath>
</defs>
</svg>
