<svg width="40" height="40" viewBox="0 0 40 40" fill="none" xmlns="http://www.w3.org/2000/svg">
<ellipse cx="20.0201" cy="20" rx="19.98" ry="20" fill="#835DFE"/>
<mask id="mask0_1_1724" style="mask-type:alpha" maskUnits="userSpaceOnUse" x="0" y="0" width="40" height="40">
<ellipse cx="19.98" cy="20" rx="19.98" ry="20" fill="#D9D9D9"/>
</mask>
<g mask="url(#mask0_1_1724)">
<path opacity="0.05" fill-rule="evenodd" clip-rule="evenodd" d="M3.99591 -0.624023C4.12833 -0.624023 4.23567 -0.516572 4.23567 -0.384023V3.94821H7.75216V-0.384023C7.75216 -0.516572 7.8595 -0.624023 7.99192 -0.624023C8.12433 -0.624023 8.23168 -0.516572 8.23168 -0.384023V3.94821H11.7482V-0.384023C11.7482 -0.516572 11.8555 -0.624023 11.9879 -0.624023C12.1203 -0.624023 12.2277 -0.516572 12.2277 -0.384023V3.94821H15.7442V-0.384023C15.7442 -0.516572 15.8515 -0.624023 15.9839 -0.624023C16.1163 -0.624023 16.2237 -0.516572 16.2237 -0.384023V3.94821H19.7402V-0.384023C19.7402 -0.516572 19.8475 -0.624023 19.9799 -0.624023C20.1123 -0.624023 20.2197 -0.516572 20.2197 -0.384023V3.94821H23.7362V-0.384023C23.7362 -0.516572 23.8435 -0.624023 23.9759 -0.624023C24.1084 -0.624023 24.2157 -0.516572 24.2157 -0.384023V3.94821H27.7322V-0.384023C27.7322 -0.516572 27.8395 -0.624023 27.9719 -0.624023C28.1043 -0.624023 28.2117 -0.516572 28.2117 -0.384023V3.94821H31.7282V-0.384023C31.7282 -0.516572 31.8355 -0.624023 31.9679 -0.624023C32.1003 -0.624023 32.2077 -0.516572 32.2077 -0.384023V3.94821H35.7242V-0.384023C35.7242 -0.516572 35.8315 -0.624023 35.9639 -0.624023C36.0963 -0.624023 36.2037 -0.516572 36.2037 -0.384023V3.94821H40.5316C40.664 3.94821 40.7713 4.05566 40.7713 4.18821C40.7713 4.32076 40.664 4.42821 40.5316 4.42821H36.2037V7.94821H40.5316C40.664 7.94821 40.7713 8.05566 40.7713 8.18821C40.7713 8.32076 40.664 8.42821 40.5316 8.42821H36.2037V11.9482H40.5316C40.664 11.9482 40.7713 12.0557 40.7713 12.1882C40.7713 12.3208 40.664 12.4282 40.5316 12.4282H36.2037V15.9482H40.5316C40.664 15.9482 40.7713 16.0556 40.7713 16.1882C40.7713 16.3207 40.664 16.4282 40.5316 16.4282H36.2037V19.9482H40.5316C40.664 19.9482 40.7713 20.0556 40.7713 20.1882C40.7713 20.3207 40.664 20.4282 40.5316 20.4282H36.2037V23.9482H40.5316C40.664 23.9482 40.7713 24.0556 40.7713 24.1882C40.7713 24.3207 40.664 24.4282 40.5316 24.4282H36.2037V27.9482H40.5316C40.664 27.9482 40.7713 28.0556 40.7713 28.1882C40.7713 28.3207 40.664 28.4282 40.5316 28.4282H36.2037V31.9482H40.5316C40.664 31.9482 40.7713 32.0556 40.7713 32.1882C40.7713 32.3207 40.664 32.4282 40.5316 32.4282H36.2037V35.9482H40.5316C40.664 35.9482 40.7713 36.0556 40.7713 36.1882C40.7713 36.3207 40.664 36.4282 40.5316 36.4282H36.2037V40.7604C36.2037 40.893 36.0963 41.0004 35.9639 41.0004C35.8315 41.0004 35.7242 40.893 35.7242 40.7604V36.4282H32.2077V40.7604C32.2077 40.893 32.1003 41.0004 31.9679 41.0004C31.8355 41.0004 31.7282 40.893 31.7282 40.7604V36.4282H28.2117V40.7604C28.2117 40.893 28.1043 41.0004 27.9719 41.0004C27.8395 41.0004 27.7322 40.893 27.7322 40.7604V36.4282H24.2157V40.7604C24.2157 40.893 24.1084 41.0004 23.9759 41.0004C23.8435 41.0004 23.7362 40.893 23.7362 40.7604V36.4282H20.2197V40.7604C20.2197 40.893 20.1123 41.0004 19.9799 41.0004C19.8475 41.0004 19.7402 40.893 19.7402 40.7604V36.4282H16.2237V40.7604C16.2237 40.893 16.1163 41.0004 15.9839 41.0004C15.8515 41.0004 15.7442 40.893 15.7442 40.7604V36.4282H12.2277V40.7604C12.2277 40.893 12.1203 41.0004 11.9879 41.0004C11.8555 41.0004 11.7482 40.893 11.7482 40.7604V36.4282H8.23168V40.7604C8.23168 40.893 8.12433 41.0004 7.99192 41.0004C7.8595 41.0004 7.75216 40.893 7.75216 40.7604V36.4282H4.23567V40.7604C4.23567 40.893 4.12833 41.0004 3.99591 41.0004C3.8635 41.0004 3.75615 40.893 3.75615 40.7604V36.4282H-0.571763C-0.704179 36.4282 -0.811523 36.3207 -0.811523 36.1882C-0.811523 36.0556 -0.704179 35.9482 -0.571763 35.9482H3.75615V32.4282H-0.571763C-0.704179 32.4282 -0.811523 32.3207 -0.811523 32.1882C-0.811523 32.0556 -0.704179 31.9482 -0.571763 31.9482H3.75615V28.4282H-0.571763C-0.704179 28.4282 -0.811523 28.3207 -0.811523 28.1882C-0.811523 28.0556 -0.704179 27.9482 -0.571763 27.9482H3.75615V24.4282H-0.571763C-0.704179 24.4282 -0.811523 24.3207 -0.811523 24.1882C-0.811523 24.0556 -0.704179 23.9482 -0.571763 23.9482H3.75615V20.4282H-0.571763C-0.704179 20.4282 -0.811523 20.3207 -0.811523 20.1882C-0.811523 20.0556 -0.704179 19.9482 -0.571763 19.9482H3.75615V16.4282H-0.571763C-0.704179 16.4282 -0.811523 16.3207 -0.811523 16.1882C-0.811523 16.0556 -0.704179 15.9482 -0.571763 15.9482H3.75615V12.4282H-0.571763C-0.704179 12.4282 -0.811523 12.3208 -0.811523 12.1882C-0.811523 12.0557 -0.704179 11.9482 -0.571763 11.9482H3.75615V8.42821H-0.571763C-0.704179 8.42821 -0.811523 8.32076 -0.811523 8.18821C-0.811523 8.05566 -0.704179 7.94821 -0.571763 7.94821H3.75615V4.42821H-0.571763C-0.704179 4.42821 -0.811523 4.32076 -0.811523 4.18821C-0.811523 4.05566 -0.704179 3.94821 -0.571763 3.94821H3.75615V-0.384023C3.75615 -0.516572 3.8635 -0.624023 3.99591 -0.624023ZM4.23567 4.42821V7.94821H7.75216V4.42821H4.23567ZM8.23168 4.42821V7.94821H11.7482V4.42821H8.23168ZM12.2277 4.42821V7.94821H15.7442V4.42821H12.2277ZM16.2237 4.42821V7.94821H19.7402V4.42821H16.2237ZM20.2197 4.42821V7.94821H23.7362V4.42821H20.2197ZM24.2157 4.42821V7.94821H27.7322V4.42821H24.2157ZM28.2117 4.42821V7.94821H31.7282V4.42821H28.2117ZM32.2077 4.42821V7.94821H35.7242V4.42821H32.2077ZM35.7242 8.42821H32.2077V11.9482H35.7242V8.42821ZM35.7242 12.4282H32.2077V15.9482H35.7242V12.4282ZM35.7242 16.4282H32.2077V19.9482H35.7242V16.4282ZM35.7242 20.4282H32.2077V23.9482H35.7242V20.4282ZM35.7242 24.4282H32.2077V27.9482H35.7242V24.4282ZM35.7242 28.4282H32.2077V31.9482H35.7242V28.4282ZM35.7242 32.4282H32.2077V35.9482H35.7242V32.4282ZM31.7282 35.9482V32.4282H28.2117V35.9482H31.7282ZM27.7322 35.9482V32.4282H24.2157V35.9482H27.7322ZM23.7362 35.9482V32.4282H20.2197V35.9482H23.7362ZM19.7402 35.9482V32.4282H16.2237V35.9482H19.7402ZM15.7442 35.9482V32.4282H12.2277V35.9482H15.7442ZM11.7482 35.9482V32.4282H8.23168V35.9482H11.7482ZM7.75216 35.9482V32.4282H4.23567V35.9482H7.75216ZM4.23567 31.9482H7.75216V28.4282H4.23567V31.9482ZM4.23567 27.9482H7.75216V24.4282H4.23567V27.9482ZM4.23567 23.9482H7.75216V20.4282H4.23567V23.9482ZM4.23567 19.9482H7.75216V16.4282H4.23567V19.9482ZM4.23567 15.9482H7.75216V12.4282H4.23567V15.9482ZM4.23567 11.9482H7.75216V8.42821H4.23567V11.9482ZM8.23168 8.42821V11.9482H11.7482V8.42821H8.23168ZM12.2277 8.42821V11.9482H15.7442V8.42821H12.2277ZM16.2237 8.42821V11.9482H19.7402V8.42821H16.2237ZM20.2197 8.42821V11.9482H23.7362V8.42821H20.2197ZM24.2157 8.42821V11.9482H27.7322V8.42821H24.2157ZM28.2117 8.42821V11.9482H31.7282V8.42821H28.2117ZM31.7282 12.4282H28.2117V15.9482H31.7282V12.4282ZM31.7282 16.4282H28.2117V19.9482H31.7282V16.4282ZM31.7282 20.4282H28.2117V23.9482H31.7282V20.4282ZM31.7282 24.4282H28.2117V27.9482H31.7282V24.4282ZM31.7282 28.4282H28.2117V31.9482H31.7282V28.4282ZM27.7322 31.9482V28.4282H24.2157V31.9482H27.7322ZM23.7362 31.9482V28.4282H20.2197V31.9482H23.7362ZM19.7402 31.9482V28.4282H16.2237V31.9482H19.7402ZM15.7442 31.9482V28.4282H12.2277V31.9482H15.7442ZM11.7482 31.9482V28.4282H8.23168V31.9482H11.7482ZM8.23168 27.9482H11.7482V24.4282H8.23168V27.9482ZM8.23168 23.9482H11.7482V20.4282H8.23168V23.9482ZM8.23168 19.9482H11.7482V16.4282H8.23168V19.9482ZM8.23168 15.9482H11.7482V12.4282H8.23168V15.9482ZM12.2277 12.4282V15.9482H15.7442V12.4282H12.2277ZM16.2237 12.4282V15.9482H19.7402V12.4282H16.2237ZM20.2197 12.4282V15.9482H23.7362V12.4282H20.2197ZM24.2157 12.4282V15.9482H27.7322V12.4282H24.2157ZM27.7322 16.4282H24.2157V19.9482H27.7322V16.4282ZM27.7322 20.4282H24.2157V23.9482H27.7322V20.4282ZM27.7322 24.4282H24.2157V27.9482H27.7322V24.4282ZM23.7362 27.9482V24.4282H20.2197V27.9482H23.7362ZM19.7402 27.9482V24.4282H16.2237V27.9482H19.7402ZM15.7442 27.9482V24.4282H12.2277V27.9482H15.7442ZM12.2277 23.9482H15.7442V20.4282H12.2277V23.9482ZM12.2277 19.9482H15.7442V16.4282H12.2277V19.9482ZM16.2237 16.4282V19.9482H19.7402V16.4282H16.2237ZM20.2197 16.4282V19.9482H23.7362V16.4282H20.2197ZM23.7362 20.4282H20.2197V23.9482H23.7362V20.4282ZM19.7402 23.9482V20.4282H16.2237V23.9482H19.7402Z" fill="black"/>
<ellipse cx="26.8517" cy="22.684" rx="9.47088" ry="9.48035" fill="#FFB140"/>
<path fill-rule="evenodd" clip-rule="evenodd" d="M26.8521 30.5361C31.1844 30.5361 34.6965 27.0205 34.6965 22.6838C34.6965 18.3471 31.1844 14.8315 26.8521 14.8315C22.5197 14.8315 19.0076 18.3471 19.0076 22.6838C19.0076 27.0205 22.5197 30.5361 26.8521 30.5361ZM26.8521 30.6561C31.2507 30.6561 34.8164 27.0868 34.8164 22.6838C34.8164 18.2808 31.2507 14.7115 26.8521 14.7115C22.4535 14.7115 18.8877 18.2808 18.8877 22.6838C18.8877 27.0868 22.4535 30.6561 26.8521 30.6561Z" fill="black"/>
<path fill-rule="evenodd" clip-rule="evenodd" d="M26.8523 28.9718C30.3216 28.9718 33.134 26.1566 33.134 22.6838C33.134 19.2111 30.3216 16.3958 26.8523 16.3958C23.383 16.3958 20.5706 19.2111 20.5706 22.6838C20.5706 26.1566 23.383 28.9718 26.8523 28.9718ZM26.8523 29.0679C30.3746 29.0679 33.23 26.2097 33.23 22.6838C33.23 19.158 30.3746 16.2997 26.8523 16.2997C23.33 16.2997 20.4746 19.158 20.4746 22.6838C20.4746 26.2097 23.33 29.0679 26.8523 29.0679Z" fill="black"/>
<path fill-rule="evenodd" clip-rule="evenodd" d="M8.22558 9.78321C8.39721 9.74177 8.56991 9.84745 8.61131 10.0193L12.0776 24.4044C12.119 24.5763 12.0135 24.7491 11.8418 24.7906C11.6702 24.832 11.4975 24.7263 11.4561 24.5545L7.98977 10.1693C7.94837 9.99752 8.05395 9.82465 8.22558 9.78321Z" fill="white"/>
<path fill-rule="evenodd" clip-rule="evenodd" d="M4.47852 36.1131L23.1798 8.61096L23.7083 8.97108L5.00705 36.4732L4.47852 36.1131Z" fill="white"/>
<path d="M27.2059 21.1796L9.9633 21.6042C7.5231 21.6643 5.57617 23.6617 5.57617 26.1051C5.57617 29.2927 8.79455 31.4708 11.7497 30.2831L27.7556 23.8503C28.415 23.5853 28.7668 22.8635 28.5696 22.1801C28.395 21.5751 27.8348 21.1641 27.2059 21.1796Z" fill="black"/>
<path fill-rule="evenodd" clip-rule="evenodd" d="M10.9297 27.0644C11.5741 27.0644 12.097 26.5414 12.097 25.8956C12.097 25.2499 11.5741 24.7269 10.9297 24.7269C10.2853 24.7269 9.76242 25.2499 9.76242 25.8956C9.76242 26.5414 10.2853 27.0644 10.9297 27.0644ZM10.9297 27.3444C11.729 27.3444 12.377 26.6958 12.377 25.8956C12.377 25.0955 11.729 24.4469 10.9297 24.4469C10.1304 24.4469 9.48242 25.0955 9.48242 25.8956C9.48242 26.6958 10.1304 27.3444 10.9297 27.3444Z" fill="white"/>
<path fill-rule="evenodd" clip-rule="evenodd" d="M10.5543 25.6007C10.5917 25.5086 10.6966 25.4643 10.7886 25.5017L13.1385 26.4573L16.3146 25.4962C16.4097 25.4674 16.51 25.5212 16.5388 25.6164C16.5675 25.7115 16.5137 25.812 16.4187 25.8407L13.1818 26.8203C13.1424 26.8322 13.1001 26.8303 13.062 26.8148L10.6532 25.8352C10.5612 25.7978 10.5169 25.6928 10.5543 25.6007Z" fill="white"/>
<path d="M16.37 26.0045L16.144 25.3812C16.1204 25.3163 16.1564 25.2449 16.2225 25.2252L17.9169 24.7204C17.9383 24.714 17.9611 24.7137 17.9827 24.7196L19.1681 25.0437C19.2842 25.0754 19.2864 25.2394 19.1712 25.2743L16.5175 26.0784C16.4565 26.0968 16.3918 26.0644 16.37 26.0045Z" fill="#FFB140"/>
<path fill-rule="evenodd" clip-rule="evenodd" d="M30.6647 40.6241L21.0648 -0.246739L21.6872 -0.39322L31.2871 40.4777L30.6647 40.6241Z" fill="white"/>
<path d="M26.543 37.7473C26.543 36.7753 27.3309 35.9873 28.303 35.9873H33.496V39.6002H26.543V37.7473Z" fill="black"/>
<path d="M4.07462 9.49125C3.99889 9.09478 4.25858 8.71192 4.65466 8.63612L9.0893 7.78735C10.1034 7.59325 11.127 8.07509 11.6245 8.98074L12.1539 9.94438C12.2338 10.09 12.1487 10.2713 11.9856 10.3025L6.74425 11.3057C5.50652 11.5426 4.31128 10.7302 4.07462 9.49125Z" fill="black"/>
</g>
</svg>
