<svg width="48" height="35" viewBox="0 0 48 35" fill="none" xmlns="http://www.w3.org/2000/svg">
<rect y="0.357178" width="48" height="34.2857" rx="5.48571" fill="#0060AF"/>
<path fill-rule="evenodd" clip-rule="evenodd" d="M9.8734 20.7861C9.8734 20.326 9.8787 19.0961 9.86667 18.9445C9.87716 17.1143 8.46555 15.8233 7.57375 15.924C6.95666 15.9744 6.43938 16.2116 6.16181 16.894C5.90433 17.5299 6.13454 18.3758 6.99023 18.5743C7.9051 18.7875 8.43949 18.9648 8.82615 19.215C9.29993 19.5213 9.6867 20.1066 9.69697 20.7869" fill="white"/>
<path fill-rule="evenodd" clip-rule="evenodd" d="M9.49083 20.7861C9.49381 20.1962 9.14458 19.6747 8.68814 19.3944C8.28326 19.1467 7.7397 18.984 6.86281 18.7743C6.59175 18.7089 6.30821 18.5637 6.22044 18.3787C5.98824 18.5992 5.94606 19.0951 5.98692 19.3849C6.03439 19.7202 6.45009 20.2728 7.07602 20.2945C7.45826 20.309 7.94153 20.217 8.17329 20.1705C8.57309 20.0891 9.20564 20.3252 9.30633 20.7853" fill="white"/>
<path fill-rule="evenodd" clip-rule="evenodd" d="M10.1966 13.071C9.13525 13.071 8.21861 13.7308 8.22181 14.8725C8.22512 15.8325 9.04416 16.3465 9.33653 16.7136C9.77817 17.2668 10.0172 17.9216 10.0419 18.9235C10.0614 19.7208 10.0604 20.5082 10.0647 20.7872H10.2989C10.2949 20.4953 10.2843 19.6594 10.2963 18.8988C10.3122 17.8966 10.5599 17.2668 11.0018 16.7136C11.2967 16.3465 12.1149 15.8325 12.1167 14.8725C12.1208 13.7308 11.2045 13.071 10.1442 13.071" fill="white"/>
<path fill-rule="evenodd" clip-rule="evenodd" d="M10.4658 20.7861C10.4658 20.326 10.4602 19.0961 10.4721 18.9445C10.4617 17.1143 11.8724 15.8233 12.765 15.924C13.3821 15.9744 13.8987 16.2116 14.1771 16.894C14.4343 17.5299 14.2029 18.3758 13.3483 18.5743C12.4327 18.7875 11.8991 18.9648 11.5115 19.215C11.0383 19.5213 10.6785 20.1066 10.6675 20.7869" fill="white"/>
<path fill-rule="evenodd" clip-rule="evenodd" d="M10.8482 20.7861C10.8449 20.1962 11.194 19.6747 11.6491 19.3944C12.0557 19.1467 12.5998 18.984 13.476 18.7743C13.7476 18.7089 14.0308 18.5637 14.117 18.3787C14.3503 18.5992 14.3925 19.0951 14.3515 19.3849C14.3032 19.7202 13.8885 20.2728 13.2636 20.2945C12.8816 20.309 12.3957 20.217 12.1649 20.1705C11.7667 20.0891 11.1324 20.3252 11.0312 20.7853" fill="white"/>
<path fill-rule="evenodd" clip-rule="evenodd" d="M11.1757 22.6905L11.04 21.7564L11.3679 21.7095C11.4476 21.6993 11.5447 21.7125 11.5836 21.7595C11.6265 21.8087 11.6397 21.8494 11.648 21.914C11.6604 21.9939 11.6359 22.0861 11.5405 22.1321V22.1349C11.647 22.1349 11.7113 22.2071 11.7301 22.3288C11.7328 22.3546 11.7409 22.4167 11.7328 22.4685C11.7111 22.5918 11.6332 22.6316 11.5013 22.649L11.1757 22.6905ZM11.3866 22.5232C11.4254 22.5179 11.4648 22.5159 11.4956 22.4974C11.5429 22.4683 11.5386 22.4063 11.532 22.3601C11.5156 22.2588 11.4876 22.2202 11.3735 22.2361L11.3018 22.2465L11.3472 22.5283L11.3866 22.5232ZM11.3185 22.0916C11.3619 22.085 11.4207 22.08 11.4452 22.0412C11.4581 22.0153 11.4744 21.9947 11.4636 21.937C11.4502 21.8687 11.4263 21.8263 11.3341 21.8427L11.2483 21.8557L11.2822 22.0951L11.3185 22.0916Z" fill="white"/>
<path fill-rule="evenodd" clip-rule="evenodd" d="M12.5954 22.1284C12.5979 22.1458 12.6009 22.1651 12.602 22.1825C12.6285 22.3528 12.5954 22.4939 12.3922 22.5327C12.0918 22.5872 12.0343 22.4114 11.9815 22.1651L11.9533 22.0318C11.9119 21.7963 11.8941 21.6179 12.187 21.5628C12.352 21.5345 12.4611 21.5964 12.5065 21.7513C12.5136 21.7744 12.5224 21.7972 12.5257 21.8205L12.3461 21.8555C12.3253 21.7972 12.2978 21.6932 12.217 21.702C12.0719 21.7185 12.1198 21.8886 12.1347 21.9598L12.1887 22.2155C12.205 22.2928 12.2372 22.4164 12.3627 22.3925C12.4646 22.3733 12.4201 22.2236 12.4111 22.1622" fill="white"/>
<path fill-rule="evenodd" clip-rule="evenodd" d="M12.8838 22.4094L12.8218 21.4427L13.063 21.3733L13.569 22.2141L13.379 22.2677L13.2591 22.054L13.0481 22.1137L13.0754 22.3567L12.8838 22.4094ZM13.0305 21.9574L13.183 21.9158L12.9805 21.5247L13.0305 21.9574Z" fill="white"/>
<path fill-rule="evenodd" clip-rule="evenodd" d="M6.92264 21.6794C6.99816 21.4516 7.06573 21.2837 7.35402 21.3582C7.50826 21.3989 7.60388 21.4629 7.59935 21.6319C7.59858 21.6694 7.58544 21.7079 7.57683 21.7449L7.39741 21.6983C7.42093 21.6049 7.43583 21.5309 7.31394 21.4955C7.17305 21.4591 7.13871 21.6202 7.11928 21.6897L7.0463 21.9431C7.02311 22.0183 6.99529 22.1427 7.11928 22.1749C7.22174 22.2008 7.2838 22.1061 7.32089 21.9676L7.19547 21.9362L7.23886 21.7897L7.53399 21.8791L7.39388 22.3675L7.25807 22.3328L7.28865 22.2295H7.28479C7.22219 22.314 7.146 22.3229 7.0792 22.3107C6.78407 22.2355 6.81488 22.0537 6.88532 21.8108" fill="white"/>
<path fill-rule="evenodd" clip-rule="evenodd" d="M8.02039 22.092L7.93151 22.4893L7.73145 22.4486L7.94465 21.5208L8.28571 21.5933C8.48534 21.634 8.54562 21.7177 8.51736 21.8902C8.50124 21.9892 8.44945 22.0958 8.32303 22.0872L8.32171 22.0856C8.42858 22.1208 8.43764 22.1717 8.41898 22.2594C8.41092 22.2969 8.35538 22.5236 8.39369 22.5602L8.39502 22.5881L8.188 22.5371C8.17939 22.4743 8.20875 22.3613 8.22035 22.2987C8.23194 22.2433 8.2506 22.1652 8.19098 22.136C8.14438 22.1125 8.12694 22.1136 8.07416 22.1023L8.02039 22.092ZM8.0542 21.9482L8.1889 21.9825C8.27072 21.9937 8.31621 21.9538 8.33233 21.8605C8.3469 21.7751 8.32802 21.7417 8.2546 21.7252L8.11018 21.6975L8.0542 21.9482Z" fill="white"/>
<path fill-rule="evenodd" clip-rule="evenodd" d="M9.30371 21.7292L9.50156 21.7508L9.41633 22.4032C9.37492 22.61 9.29013 22.7004 9.04877 22.6722C8.80321 22.6428 8.74491 22.5375 8.75971 22.329L8.84561 21.6772L9.04501 21.6987L8.95944 22.3359C8.95028 22.4051 8.93339 22.5076 9.06389 22.5201C9.17971 22.5284 9.20599 22.456 9.21913 22.3661" fill="white"/>
<path fill-rule="evenodd" clip-rule="evenodd" d="M9.7196 22.7072L9.77923 21.7744L10.1593 21.7899C10.339 21.7984 10.3859 21.9366 10.3804 22.0685C10.3751 22.1488 10.3486 22.2384 10.2744 22.287C10.2136 22.3283 10.1353 22.3381 10.0629 22.3348L9.93899 22.3283L9.91426 22.7193L9.7196 22.7072ZM9.9447 22.1858L10.0454 22.1911C10.1272 22.1939 10.1814 22.1634 10.1885 22.0502C10.1926 21.9415 10.1489 21.923 10.0429 21.9186L9.96314 21.916L9.9447 22.1858Z" fill="white"/>
<path fill-rule="evenodd" clip-rule="evenodd" d="M36.5312 13.9713L35.0204 16.5565C34.4501 16.1199 33.7538 15.7987 32.8654 15.7987C30.7628 15.7987 29.9086 17.276 29.9086 18.3167C29.9086 19.0893 30.4452 20.229 32.3161 20.229C33.1014 20.229 34.2177 19.7141 34.539 19.4797L33.0448 22.4789C32.3325 22.6129 32.0984 22.6959 31.4956 22.7135C28.147 22.8077 26.794 20.8686 26.7949 18.8873C26.7972 16.2679 29.2676 13.0823 33.3631 13.0823C33.6139 13.0823 33.9209 13.1642 34.1833 13.2549L34.4487 12.9351" fill="white"/>
<path fill-rule="evenodd" clip-rule="evenodd" d="M42.7654 13.0168L43.1932 22.4124H40.0092L40.0074 20.8011H37.8362L37.1217 22.4124H33.6685L37.2787 15.7032L36.4646 15.6982L38.0113 13.0168H42.7654ZM39.9867 15.8909L38.7593 18.6237H40.0238L39.9867 15.8909Z" fill="white"/>
<path fill-rule="evenodd" clip-rule="evenodd" d="M24.7847 13.0169C26.3615 13.0252 27.2525 13.8321 27.2525 14.9975C27.2525 16.072 26.3128 17.023 25.2812 17.5148C26.3432 17.8829 26.4351 18.7863 26.4351 19.4254C26.4351 20.9697 24.7915 22.4124 22.6549 22.4124H17.9952L19.8128 15.7967L19.0662 15.7926L20.5925 13.0169C20.5925 13.0169 23.5025 13.0086 24.7847 13.0169ZM23.2373 16.827C23.5635 16.827 24.1394 16.7492 24.2834 16.1541C24.4412 15.5081 23.9007 15.4907 23.6414 15.4907L22.7151 15.487L22.392 16.827H23.2373ZM21.9279 18.487L21.5014 20.0311H22.5923C23.0213 20.0311 23.6062 19.8302 23.7495 19.3277C23.891 18.8239 23.4822 18.487 23.0547 18.487H21.9279Z" fill="white"/>
<path fill-rule="evenodd" clip-rule="evenodd" d="M10.2392 23.5665C8.62571 23.5665 6.96777 23.1919 5.31192 22.4511L5.27129 22.4322L5.25186 22.3932C4.50879 20.9146 4.11572 19.2975 4.11572 17.7153C4.11572 16.1353 4.49267 14.5873 5.23618 13.1107L5.25672 13.0715L5.29812 13.0519C6.82986 12.3679 8.47753 12.0215 10.1972 12.0215C11.7989 12.0215 13.5098 12.4071 15.1436 13.1388L15.1855 13.1564L15.2049 13.1964C15.9621 14.7022 16.3615 16.319 16.3615 17.8751C16.3615 19.425 15.978 20.9745 15.2198 22.4794L15.1999 22.5188L15.1578 22.5372C13.6493 23.2103 11.9484 23.5665 10.2392 23.5665ZM5.46542 22.2483C7.07389 22.9617 8.67828 23.3218 10.2394 23.3218C11.8947 23.3218 13.5408 22.9807 15.0063 22.3342C15.7343 20.8759 16.1032 19.375 16.1032 17.8751C16.1032 16.3689 15.7181 14.8024 14.9896 13.3408C13.404 12.6381 11.7481 12.2655 10.1974 12.2655C8.53265 12.2655 6.93687 12.5984 5.45151 13.2551C4.73847 14.6862 4.37554 16.186 4.37554 17.7152C4.37554 19.2472 4.7526 20.8145 5.46542 22.2483Z" fill="white"/>
</svg>
