<svg width="176" height="48" viewBox="0 0 176 48" fill="none" xmlns="http://www.w3.org/2000/svg">
<path d="M59.8 19H56.8V5.6H68.14V8.3H59.8V11.32H67.84V14H59.8V19ZM72.7172 19H69.7172V5.6H72.7172V19ZM82.0475 19H79.0475V8.3H74.0675V5.6H87.0275V8.3H82.0475V19ZM95.2631 19.2C90.8431 19.2 88.1031 16.48 88.1031 12.3C88.1031 8.12 90.8431 5.4 95.2631 5.4C99.4231 5.4 102.103 7.48 102.103 10.88V11.18H98.7631V10.88C98.7631 9.12 97.7631 8.28 95.3231 8.28C92.3831 8.28 91.2831 9.32 91.2831 12.3C91.2831 15.28 92.3831 16.32 95.3231 16.32C97.7631 16.32 98.7631 15.48 98.7631 13.72V13.42H102.103V13.72C102.103 17.12 99.4431 19.2 95.2631 19.2ZM106.163 19H102.803L108.663 5.6H112.943L118.843 19H115.403L114.143 16.04H107.443L106.163 19ZM109.863 10.42L108.603 13.34H112.983L111.723 10.42L110.903 8.34H110.683L109.863 10.42ZM122.843 19H119.843V5.6H123.903L127.043 12.2L128.303 15.34H128.523L129.743 12.2L132.783 5.6H136.863V19H133.863V12.2L133.963 10.1H133.743L132.963 12.2L130.163 18.2H126.523L123.723 12.2L122.943 10.1H122.723L122.843 12.2V19ZM141.737 19H138.737V5.6H145.737C148.837 5.6 150.837 7.36 150.837 10.44C150.837 13.52 148.837 15.3 145.737 15.3H141.737V19ZM145.417 8.3H141.737V12.6H145.417C147.077 12.6 147.857 12.12 147.857 10.44C147.857 8.8 147.077 8.3 145.417 8.3Z" fill="white"/>
<path d="M57.4278 32.3636H59.1097L63.0642 42.0227H63.2006L67.1551 32.3636H68.8369V44H67.5187V35.1591H67.4051L63.7687 44H62.496L58.8597 35.1591H58.746V44H57.4278V32.3636ZM74.3486 44.2045C73.7955 44.2045 73.2937 44.1004 72.8429 43.892C72.3921 43.6799 72.0342 43.375 71.769 42.9773C71.5039 42.5758 71.3713 42.0909 71.3713 41.5227C71.3713 41.0227 71.4698 40.6174 71.6668 40.3068C71.8637 39.9924 72.127 39.7462 72.4565 39.5682C72.7861 39.3902 73.1497 39.2576 73.5474 39.1705C73.949 39.0795 74.3524 39.0076 74.7577 38.9545C75.288 38.8864 75.7179 38.8352 76.0474 38.8011C76.3808 38.7633 76.6232 38.7008 76.7747 38.6136C76.93 38.5265 77.0077 38.375 77.0077 38.1591V38.1136C77.0077 37.553 76.8543 37.1174 76.5474 36.8068C76.2444 36.4962 75.7842 36.3409 75.1668 36.3409C74.5266 36.3409 74.0247 36.4811 73.6611 36.7614C73.2974 37.0417 73.0418 37.3409 72.894 37.6591L71.6213 37.2045C71.8486 36.6742 72.1516 36.2614 72.5304 35.9659C72.913 35.6667 73.3296 35.4583 73.7804 35.3409C74.2349 35.2197 74.6819 35.1591 75.1213 35.1591C75.4016 35.1591 75.7236 35.1932 76.0872 35.2614C76.4546 35.3258 76.8088 35.4602 77.1497 35.6648C77.4944 35.8693 77.7804 36.178 78.0077 36.5909C78.2349 37.0038 78.3486 37.5568 78.3486 38.25V44H77.0077V42.8182H76.9395C76.8486 43.0076 76.6971 43.2102 76.4849 43.4261C76.2728 43.642 75.9906 43.8258 75.6384 43.9773C75.2861 44.1288 74.8562 44.2045 74.3486 44.2045ZM74.5531 43C75.0834 43 75.5304 42.8958 75.894 42.6875C76.2615 42.4792 76.538 42.2102 76.7236 41.8807C76.913 41.5511 77.0077 41.2045 77.0077 40.8409V39.6136C76.9509 39.6818 76.8259 39.7443 76.6327 39.8011C76.4433 39.8542 76.2236 39.9015 75.9736 39.9432C75.7274 39.9811 75.4868 40.0152 75.252 40.0455C75.0209 40.072 74.8334 40.0947 74.6895 40.1136C74.341 40.1591 74.0152 40.233 73.7122 40.3352C73.413 40.4337 73.1705 40.5833 72.9849 40.7841C72.8031 40.9811 72.7122 41.25 72.7122 41.5909C72.7122 42.0568 72.8846 42.4091 73.2293 42.6477C73.5777 42.8826 74.019 43 74.5531 43ZM82.346 40.8182L82.3233 39.1591H82.596L86.4142 35.2727H88.0733L84.0051 39.3864H83.8915L82.346 40.8182ZM81.096 44V32.3636H82.4369V44H81.096ZM86.6415 44L83.2324 39.6818L84.1869 38.75L88.346 44H86.6415ZM93.3989 44.1818C92.558 44.1818 91.8326 43.9962 91.2227 43.625C90.6167 43.25 90.1489 42.7273 89.8193 42.0568C89.4936 41.3826 89.3307 40.5985 89.3307 39.7045C89.3307 38.8106 89.4936 38.0227 89.8193 37.3409C90.1489 36.6553 90.6072 36.1212 91.1943 35.7386C91.7852 35.3523 92.4746 35.1591 93.2625 35.1591C93.717 35.1591 94.1659 35.2348 94.6091 35.3864C95.0523 35.5379 95.4557 35.7841 95.8193 36.125C96.183 36.4621 96.4727 36.9091 96.6886 37.4659C96.9045 38.0227 97.0125 38.7083 97.0125 39.5227V40.0909H90.2852V38.9318H95.6489C95.6489 38.4394 95.5504 38 95.3534 37.6136C95.1602 37.2273 94.8837 36.9223 94.5239 36.6989C94.1678 36.4754 93.7473 36.3636 93.2625 36.3636C92.7284 36.3636 92.2663 36.4962 91.8761 36.7614C91.4898 37.0227 91.1924 37.3636 90.9841 37.7841C90.7758 38.2045 90.6716 38.6553 90.6716 39.1364V39.9091C90.6716 40.5682 90.7852 41.1269 91.0125 41.5852C91.2436 42.0398 91.5636 42.3864 91.9727 42.625C92.3818 42.8598 92.8572 42.9773 93.3989 42.9773C93.7511 42.9773 94.0693 42.928 94.3534 42.8295C94.6413 42.7273 94.8894 42.5758 95.0977 42.375C95.3061 42.1705 95.467 41.9167 95.5807 41.6136L96.8761 41.9773C96.7398 42.4167 96.5106 42.803 96.1886 43.1364C95.8667 43.4659 95.4689 43.7235 94.9955 43.9091C94.522 44.0909 93.9898 44.1818 93.3989 44.1818ZM105.534 37.2273L104.33 37.5682C104.254 37.3674 104.142 37.1723 103.994 36.983C103.85 36.7898 103.653 36.6307 103.403 36.5057C103.153 36.3807 102.833 36.3182 102.443 36.3182C101.909 36.3182 101.464 36.4413 101.108 36.6875C100.756 36.9299 100.58 37.2386 100.58 37.6136C100.58 37.947 100.701 38.2102 100.943 38.4034C101.186 38.5966 101.564 38.7576 102.08 38.8864L103.375 39.2045C104.155 39.3939 104.737 39.6837 105.119 40.0739C105.502 40.4602 105.693 40.9583 105.693 41.5682C105.693 42.0682 105.549 42.5152 105.261 42.9091C104.977 43.303 104.58 43.6136 104.068 43.8409C103.557 44.0682 102.962 44.1818 102.284 44.1818C101.394 44.1818 100.657 43.9886 100.074 43.6023C99.4905 43.2159 99.1212 42.6515 98.9659 41.9091L100.239 41.5909C100.36 42.0606 100.589 42.4129 100.926 42.6477C101.267 42.8826 101.712 43 102.261 43C102.886 43 103.383 42.8674 103.75 42.6023C104.121 42.3333 104.307 42.0114 104.307 41.6364C104.307 41.3333 104.201 41.0795 103.989 40.875C103.777 40.6667 103.451 40.5114 103.011 40.4091L101.557 40.0682C100.758 39.8788 100.17 39.5852 99.7955 39.1875C99.4242 38.786 99.2386 38.2841 99.2386 37.6818C99.2386 37.1894 99.3769 36.7538 99.6534 36.375C99.9337 35.9962 100.314 35.6989 100.795 35.483C101.28 35.267 101.83 35.1591 102.443 35.1591C103.307 35.1591 103.985 35.3485 104.477 35.7273C104.973 36.1061 105.326 36.6061 105.534 37.2273ZM112.993 44V32.3636H117.062C117.872 32.3636 118.541 32.5038 119.067 32.7841C119.594 33.0606 119.986 33.4337 120.243 33.9034C120.501 34.3693 120.63 34.8864 120.63 35.4545C120.63 35.9545 120.541 36.3674 120.363 36.6932C120.189 37.0189 119.957 37.2765 119.67 37.4659C119.386 37.6553 119.077 37.7955 118.743 37.8864V38C119.1 38.0227 119.457 38.1477 119.817 38.375C120.177 38.6023 120.478 38.928 120.721 39.3523C120.963 39.7765 121.084 40.2955 121.084 40.9091C121.084 41.4924 120.952 42.017 120.687 42.483C120.421 42.9489 120.003 43.3182 119.431 43.5909C118.859 43.8636 118.115 44 117.198 44H112.993ZM114.403 42.75H117.198C118.118 42.75 118.772 42.572 119.158 42.2159C119.548 41.8561 119.743 41.4205 119.743 40.9091C119.743 40.5152 119.643 40.1515 119.442 39.8182C119.242 39.4811 118.956 39.2121 118.584 39.0114C118.213 38.8068 117.774 38.7045 117.266 38.7045H114.403V42.75ZM114.403 37.4773H117.016C117.44 37.4773 117.823 37.3939 118.164 37.2273C118.509 37.0606 118.781 36.8258 118.982 36.5227C119.187 36.2197 119.289 35.8636 119.289 35.4545C119.289 34.9432 119.111 34.5095 118.755 34.1534C118.399 33.7936 117.834 33.6136 117.062 33.6136H114.403V37.4773ZM127.063 44.1818C126.275 44.1818 125.584 43.9943 124.989 43.6193C124.399 43.2443 123.936 42.7197 123.603 42.0455C123.274 41.3712 123.109 40.5833 123.109 39.6818C123.109 38.7727 123.274 37.9792 123.603 37.3011C123.936 36.6231 124.399 36.0966 124.989 35.7216C125.584 35.3466 126.275 35.1591 127.063 35.1591C127.851 35.1591 128.541 35.3466 129.132 35.7216C129.726 36.0966 130.188 36.6231 130.518 37.3011C130.851 37.9792 131.018 38.7727 131.018 39.6818C131.018 40.5833 130.851 41.3712 130.518 42.0455C130.188 42.7197 129.726 43.2443 129.132 43.6193C128.541 43.9943 127.851 44.1818 127.063 44.1818ZM127.063 42.9773C127.662 42.9773 128.154 42.8239 128.541 42.517C128.927 42.2102 129.213 41.8068 129.399 41.3068C129.584 40.8068 129.677 40.2652 129.677 39.6818C129.677 39.0985 129.584 38.5549 129.399 38.0511C129.213 37.5473 128.927 37.1402 128.541 36.8295C128.154 36.5189 127.662 36.3636 127.063 36.3636C126.465 36.3636 125.972 36.5189 125.586 36.8295C125.2 37.1402 124.914 37.5473 124.728 38.0511C124.543 38.5549 124.45 39.0985 124.45 39.6818C124.45 40.2652 124.543 40.8068 124.728 41.3068C124.914 41.8068 125.2 42.2102 125.586 42.517C125.972 42.8239 126.465 42.9773 127.063 42.9773ZM136.66 44.1818C135.933 44.1818 135.291 43.9981 134.734 43.6307C134.177 43.2595 133.742 42.7367 133.427 42.0625C133.113 41.3845 132.956 40.5833 132.956 39.6591C132.956 38.7424 133.113 37.947 133.427 37.2727C133.742 36.5985 134.179 36.0777 134.74 35.7102C135.3 35.3428 135.948 35.1591 136.683 35.1591C137.251 35.1591 137.7 35.2538 138.03 35.4432C138.363 35.6288 138.617 35.8409 138.791 36.0795C138.969 36.3144 139.107 36.5076 139.206 36.6591H139.319V32.3636H140.66V44H139.365V42.6591H139.206C139.107 42.8182 138.967 43.0189 138.785 43.2614C138.603 43.5 138.344 43.714 138.007 43.9034C137.67 44.089 137.221 44.1818 136.66 44.1818ZM136.842 42.9773C137.38 42.9773 137.834 42.8371 138.206 42.5568C138.577 42.2727 138.859 41.8807 139.052 41.3807C139.245 40.8769 139.342 40.2955 139.342 39.6364C139.342 38.9848 139.247 38.4148 139.058 37.9261C138.869 37.4337 138.588 37.0511 138.217 36.7784C137.846 36.5019 137.387 36.3636 136.842 36.3636C136.274 36.3636 135.8 36.5095 135.422 36.8011C135.047 37.089 134.764 37.4811 134.575 37.9773C134.389 38.4697 134.297 39.0227 134.297 39.6364C134.297 40.2576 134.391 40.822 134.581 41.3295C134.774 41.8333 135.058 42.2348 135.433 42.5341C135.812 42.8295 136.281 42.9773 136.842 42.9773ZM144.466 47.2727C144.239 47.2727 144.036 47.2538 143.858 47.2159C143.68 47.1818 143.557 47.1477 143.489 47.1136L143.83 45.9318C144.155 46.0152 144.443 46.0455 144.693 46.0227C144.943 46 145.165 45.8883 145.358 45.6875C145.555 45.4905 145.735 45.1705 145.898 44.7273L146.148 44.0455L142.92 35.2727H144.375L146.784 42.2273H146.875L149.284 35.2727H150.739L147.034 45.2727C146.867 45.7235 146.661 46.0966 146.415 46.392C146.169 46.6913 145.883 46.9129 145.557 47.0568C145.235 47.2008 144.871 47.2727 144.466 47.2727ZM157.79 44V32.3636H164.768V33.6136H159.199V37.5455H164.245V38.7955H159.199V44H157.79ZM167.299 44V35.2727H168.64V44H167.299ZM167.981 33.8182C167.72 33.8182 167.494 33.7292 167.305 33.5511C167.119 33.3731 167.026 33.1591 167.026 32.9091C167.026 32.6591 167.119 32.4451 167.305 32.267C167.494 32.089 167.72 32 167.981 32C168.242 32 168.466 32.089 168.651 32.267C168.841 32.4451 168.936 32.6591 168.936 32.9091C168.936 33.1591 168.841 33.3731 168.651 33.5511C168.466 33.7292 168.242 33.8182 167.981 33.8182ZM175.191 35.2727V36.4091H170.669V35.2727H175.191ZM171.987 33.1818H173.328V41.5C173.328 41.8788 173.383 42.1629 173.493 42.3523C173.606 42.5379 173.75 42.6629 173.924 42.7273C174.102 42.7879 174.29 42.8182 174.487 42.8182C174.635 42.8182 174.756 42.8106 174.851 42.7955C174.945 42.7765 175.021 42.7614 175.078 42.75L175.351 43.9545C175.26 43.9886 175.133 44.0227 174.97 44.0568C174.807 44.0947 174.601 44.1136 174.351 44.1136C173.972 44.1136 173.601 44.0322 173.237 43.8693C172.877 43.7064 172.578 43.4583 172.339 43.125C172.104 42.7917 171.987 42.3712 171.987 41.8636V33.1818Z" fill="white"/>
<circle cx="22" cy="22" r="22" fill="#EFF4FD"/>
<mask id="mask0_1_2937" style="mask-type:alpha" maskUnits="userSpaceOnUse" x="0" y="0" width="44" height="44">
<circle cx="22" cy="22" r="22" fill="#D9D9D9"/>
</mask>
<g mask="url(#mask0_1_2937)">
<path d="M23.5753 35.5651C6.33769 33.5637 -4.21258 27.9524 -7.33301 25.3968L-6.18207 8.97876C0.0535235 11.4982 1.13939 17.733 0.90287 20.5354C9.54175 19.1654 12.3402 26.6792 12.6596 30.6074C15.8267 30.2115 16.166 30.777 18.2302 32.8978C19.8816 34.5944 22.4817 35.3829 23.5753 35.5651Z" fill="white"/>
<path fill-rule="evenodd" clip-rule="evenodd" d="M27.4352 11.1817C27.4353 10.9335 27.3817 10.6883 27.2782 10.4634C27.1748 10.2384 27.024 10.0392 26.8365 9.87964C26.6489 9.72011 26.4292 9.60417 26.1927 9.53998C25.9562 9.47579 25.7088 9.46491 25.4677 9.5081C19.7294 10.5361 14.2945 10.6006 9.20985 9.51829C8.84116 9.44013 8.45726 9.49017 8.12007 9.66033C7.78287 9.8305 7.51205 10.1109 7.35128 10.4562L-7.66473 42.7394C-7.78629 42.9983 -7.84113 43.2842 -7.82412 43.5703C-7.80712 43.8565 -7.71882 44.1336 -7.5675 44.3758C-7.41617 44.618 -7.20675 44.8173 -6.95881 44.9552C-6.71087 45.093 -6.4325 45.1649 -6.14973 45.1641H25.7593C26.2038 45.1641 26.63 44.9851 26.9443 44.6664C27.2586 44.3478 27.4352 43.9156 27.4352 43.465V11.1817Z" fill="#E1A303"/>
<path fill-rule="evenodd" clip-rule="evenodd" d="M27.4352 36.6687H-4.84082L-3.26045 33.2705H27.4352V36.6687Z" fill="#3851EE"/>
<path fill-rule="evenodd" clip-rule="evenodd" d="M27.4352 30.5347H-4.84082L-3.26045 27.1365H27.4352V30.5347Z" fill="#3851EE"/>
<path fill-rule="evenodd" clip-rule="evenodd" d="M40.7744 45.164C41.0568 45.164 41.3347 45.0915 41.5821 44.9534C41.8295 44.8154 42.0385 44.6161 42.1897 44.3742C42.3408 44.1323 42.4292 43.8556 42.4467 43.5698C42.4641 43.284 42.41 42.9983 42.2894 42.7394L27.2734 10.4562C27.1381 10.1647 26.9239 9.91817 26.6556 9.74552C26.3873 9.57288 26.0761 9.4812 25.7584 9.4812C25.4406 9.4812 25.1294 9.57288 24.8612 9.74552C24.5929 9.91817 24.3786 10.1647 24.2434 10.4562L9.22735 42.7394C9.1058 42.9983 9.05096 43.2841 9.06797 43.5703C9.08497 43.8565 9.17327 44.1336 9.32459 44.3758C9.47592 44.618 9.68534 44.8173 9.93328 44.9552C10.1812 45.093 10.4596 45.1649 10.7424 45.164H40.7744Z" fill="#FFC93C"/>
<path fill-rule="evenodd" clip-rule="evenodd" d="M18.0239 45.1642H36.7135L28.8854 28.2987C28.7496 28.0074 28.5349 27.7611 28.2664 27.5887C27.9979 27.4163 27.6866 27.3247 27.3687 27.3247C27.0509 27.3247 26.7396 27.4163 26.471 27.5887C26.2025 27.7611 25.9879 28.0074 25.852 28.2987L18.0239 45.1642Z" fill="#2B2025"/>
<path d="M22.5879 14.2594C39.7047 17.1153 51.3971 14.6487 55.1036 13.0585L58.5494 -3.03514C51.8598 -2.34318 49.088 3.34617 48.5383 6.10435C40.6179 2.39303 35.846 8.8365 34.4501 12.5222C31.517 11.2638 31.0342 11.7131 28.4629 13.1785C26.4059 14.3508 23.6891 14.3875 22.5879 14.2594Z" fill="white"/>
</g>
</svg>
