<svg width="152" height="44" viewBox="0 0 152 44" fill="none" xmlns="http://www.w3.org/2000/svg">
<path d="M59.8 29H56.8V15.6H68.14V18.3H59.8V21.32H67.84V24H59.8V29ZM72.7172 29H69.7172V15.6H72.7172V29ZM82.0475 29H79.0475V18.3H74.0675V15.6H87.0275V18.3H82.0475V29ZM95.2631 29.2C90.8431 29.2 88.1031 26.48 88.1031 22.3C88.1031 18.12 90.8431 15.4 95.2631 15.4C99.4231 15.4 102.103 17.48 102.103 20.88V21.18H98.7631V20.88C98.7631 19.12 97.7631 18.28 95.3231 18.28C92.3831 18.28 91.2831 19.32 91.2831 22.3C91.2831 25.28 92.3831 26.32 95.3231 26.32C97.7631 26.32 98.7631 25.48 98.7631 23.72V23.42H102.103V23.72C102.103 27.12 99.4431 29.2 95.2631 29.2ZM106.163 29H102.803L108.663 15.6H112.943L118.843 29H115.403L114.143 26.04H107.443L106.163 29ZM109.863 20.42L108.603 23.34H112.983L111.723 20.42L110.903 18.34H110.683L109.863 20.42ZM122.843 29H119.843V15.6H123.903L127.043 22.2L128.303 25.34H128.523L129.743 22.2L132.783 15.6H136.863V29H133.863V22.2L133.963 20.1H133.743L132.963 22.2L130.163 28.2H126.523L123.723 22.2L122.943 20.1H122.723L122.843 22.2V29ZM141.737 29H138.737V15.6H145.737C148.837 15.6 150.837 17.36 150.837 20.44C150.837 23.52 148.837 25.3 145.737 25.3H141.737V29ZM145.417 18.3H141.737V22.6H145.417C147.077 22.6 147.857 22.12 147.857 20.44C147.857 18.8 147.077 18.3 145.417 18.3Z" fill="#141414"/>
<circle cx="22" cy="22" r="22" fill="#EFF4FD"/>
<mask id="mask0_1_2972" style="mask-type:alpha" maskUnits="userSpaceOnUse" x="0" y="0" width="44" height="44">
<circle cx="22" cy="22" r="22" fill="#D9D9D9"/>
</mask>
<g mask="url(#mask0_1_2972)">
<path d="M23.5753 35.5651C6.33769 33.5637 -4.21258 27.9524 -7.33301 25.3968L-6.18207 8.97876C0.0535235 11.4982 1.13939 17.733 0.90287 20.5354C9.54175 19.1654 12.3402 26.6792 12.6596 30.6074C15.8267 30.2115 16.166 30.777 18.2302 32.8978C19.8816 34.5944 22.4817 35.3829 23.5753 35.5651Z" fill="white"/>
<path fill-rule="evenodd" clip-rule="evenodd" d="M27.4352 10.4822C27.4353 10.2374 27.3817 9.99557 27.2782 9.77369C27.1748 9.55181 27.024 9.35529 26.8365 9.19794C26.6489 9.04059 26.4292 8.92624 26.1927 8.86292C25.9562 8.79961 25.7088 8.78888 25.4677 8.83147C19.7294 9.84539 14.2945 9.90907 9.20985 8.84153C8.84116 8.76444 8.45726 8.81379 8.12007 8.98163C7.78287 9.14947 7.51205 9.426 7.35128 9.76662L-7.66473 41.6086C-7.78629 41.8639 -7.84113 42.1459 -7.82412 42.4282C-7.80712 42.7104 -7.71882 42.9838 -7.5675 43.2226C-7.41617 43.4615 -7.20675 43.6581 -6.95881 43.7941C-6.71087 43.9301 -6.4325 44.0009 -6.14973 44.0001H25.7593C26.2038 44.0001 26.63 43.8235 26.9443 43.5093C27.2586 43.195 27.4352 42.7687 27.4352 42.3242V10.4822Z" fill="#E1A303"/>
<path fill-rule="evenodd" clip-rule="evenodd" d="M27.4352 35.6208H-4.84082L-3.26045 32.269H27.4352V35.6208Z" fill="#3851EE"/>
<path fill-rule="evenodd" clip-rule="evenodd" d="M27.4352 29.5708H-4.84082L-3.26045 26.219H27.4352V29.5708Z" fill="#3851EE"/>
<path fill-rule="evenodd" clip-rule="evenodd" d="M40.7744 44.0001C41.0568 44 41.3347 43.9285 41.5821 43.7923C41.8295 43.6562 42.0385 43.4596 42.1897 43.221C42.3408 42.9824 42.4292 42.7095 42.4467 42.4276C42.4641 42.1457 42.41 41.864 42.2894 41.6086L27.2734 9.76658C27.1381 9.47904 26.9239 9.23593 26.6556 9.06564C26.3873 8.89536 26.0761 8.80493 25.7584 8.80493C25.4406 8.80493 25.1294 8.89536 24.8612 9.06564C24.5929 9.23593 24.3786 9.47904 24.2434 9.76658L9.22735 41.6086C9.1058 41.8639 9.05096 42.1459 9.06797 42.4281C9.08497 42.7104 9.17327 42.9837 9.32459 43.2226C9.47592 43.4615 9.68534 43.6581 9.93328 43.794C10.1812 43.93 10.4596 44.0009 10.7424 44.0001H40.7744Z" fill="#FFC93C"/>
<path fill-rule="evenodd" clip-rule="evenodd" d="M18.0239 44.0004H36.7135L28.8854 27.3655C28.7496 27.0781 28.5349 26.8352 28.2664 26.6652C27.9979 26.4951 27.6866 26.4048 27.3687 26.4048C27.0509 26.4048 26.7396 26.4951 26.471 26.6652C26.2025 26.8352 25.9879 27.0781 25.852 27.3655L18.0239 44.0004Z" fill="#2B2025"/>
<path d="M22.5879 14.2594C39.7047 17.1153 51.3971 14.6487 55.1036 13.0585L58.5494 -3.03514C51.8598 -2.34318 49.088 3.34617 48.5383 6.10435C40.6179 2.39303 35.846 8.8365 34.4501 12.5222C31.517 11.2638 31.0342 11.7131 28.4629 13.1785C26.4059 14.3508 23.6891 14.3875 22.5879 14.2594Z" fill="white"/>
</g>
</svg>
