<svg width="48" height="35" viewBox="0 0 48 35" fill="none" xmlns="http://www.w3.org/2000/svg">
<rect y="0.357178" width="48" height="34.2857" rx="5.48571" fill="#003D79"/>
<path fill-rule="evenodd" clip-rule="evenodd" d="M3.47251 18.5142C3.47251 17.8993 3.46168 17.3833 3.4292 16.9232H4.55608L4.60892 17.7137H4.64053C4.89594 17.296 5.36302 16.802 6.23428 16.802C6.91432 16.802 7.4455 17.198 7.66821 17.7904H7.69008C7.871 17.4941 8.08278 17.2748 8.32693 17.1206C8.61407 16.9124 8.94353 16.802 9.3685 16.802C10.2288 16.802 11.0994 17.4055 11.0994 19.1177V22.2668H9.82475V19.3155C9.82475 18.4267 9.52776 17.8993 8.90131 17.8993C8.45437 17.8993 8.12468 18.2291 7.9875 18.6134C7.95524 18.7447 7.92341 18.9094 7.92341 19.062V22.2668H6.6483V19.1723C6.6483 18.4267 6.36193 17.8993 5.75626 17.8993C5.26753 17.8993 4.9386 18.295 4.82145 18.6673C4.76797 18.7998 4.74653 18.953 4.74653 19.1064V22.2668H3.47251V18.5142Z" fill="white"/>
<path fill-rule="evenodd" clip-rule="evenodd" d="M16.0655 20.9828C16.0655 21.4654 16.0868 21.9364 16.1399 22.2666H14.9603L14.8756 21.6742H14.8434C14.5248 22.0915 13.9831 22.3873 13.3138 22.3873C12.2725 22.3873 11.6885 21.6089 11.6885 20.7964C11.6885 19.4462 12.846 18.7665 14.7584 18.7773V18.6892C14.7584 18.3379 14.6201 17.7567 13.7066 17.7567C13.1965 17.7567 12.6651 17.9214 12.3147 18.1515L12.0594 17.2744C12.4426 17.0325 13.1125 16.8018 13.9298 16.8018C15.5877 16.8018 16.0655 17.8888 16.0655 19.0514V20.9828ZM14.7903 19.6547C13.8662 19.6326 12.9847 19.8411 12.9847 20.6532C12.9847 21.1794 13.314 21.4213 13.7284 21.4213C14.2483 21.4213 14.6314 21.07 14.7479 20.6861C14.7795 20.5873 14.7903 20.4772 14.7903 20.3897V19.6547Z" fill="white"/>
<path fill-rule="evenodd" clip-rule="evenodd" d="M16.9694 18.5142C16.9694 17.8993 16.9577 17.3833 16.9268 16.9232H18.0731L18.1372 17.7242H18.1686C18.392 17.3077 18.955 16.802 19.8153 16.802C20.7186 16.802 21.6534 17.4055 21.6534 19.0957V22.2668H20.3469V19.2497C20.3469 18.4811 20.0707 17.8993 19.3588 17.8993C18.8383 17.8993 18.4772 18.2835 18.3387 18.6897C18.2969 18.8107 18.2859 18.9756 18.2859 19.1282V22.2668H16.9694V18.5142Z" fill="white"/>
<path fill-rule="evenodd" clip-rule="evenodd" d="M27.3177 14.7754V20.7625C27.3177 21.311 27.3386 21.9046 27.3599 22.2663H26.1912L26.1389 21.4215H26.1173C25.809 22.0143 25.1813 22.3871 24.4278 22.3871C23.196 22.3871 22.2183 21.3009 22.2183 19.655C22.2075 17.8662 23.2911 16.8015 24.5339 16.8015C25.2455 16.8015 25.7559 17.1092 25.9892 17.5045H26.0107V14.7754H27.3177ZM26.0108 19.1492C26.0108 19.0406 25.9999 18.9083 25.9794 18.7989C25.8624 18.2722 25.4478 17.844 24.8529 17.844C24.0137 17.844 23.5462 18.6125 23.5462 19.6111C23.5462 20.5874 24.0137 21.3008 24.8423 21.3008C25.3732 21.3008 25.841 20.9278 25.9683 20.3464C25.9999 20.2252 26.0108 20.0936 26.0108 19.9505V19.1492Z" fill="white"/>
<path fill-rule="evenodd" clip-rule="evenodd" d="M28.2415 22.2663H29.5601V16.9231H28.2415V22.2663Z" fill="white"/>
<path fill-rule="evenodd" clip-rule="evenodd" d="M30.4842 18.646C30.4842 17.9221 30.4731 17.4057 30.4414 16.9233H31.5784L31.6199 17.9435H31.664C31.9185 17.1864 32.5242 16.9233 33.0764 16.9233C33.2036 16.9233 33.2779 16.9008 33.3844 16.9233V18.1088C33.2779 18.0868 33.1613 18.0649 33.0019 18.0649C32.3752 18.0649 31.9499 18.4815 31.8332 19.0846C31.8125 19.2054 31.7911 19.3487 31.7911 19.503V22.2672H30.4842V18.646Z" fill="white"/>
<path fill-rule="evenodd" clip-rule="evenodd" d="M33.9897 22.2663H35.3064V16.9231H33.9897V22.2663Z" fill="white"/>
<path fill-rule="evenodd" clip-rule="evenodd" d="M33.6782 10.4637C32.8872 10.9368 31.0217 12.0419 30.3253 12.4535C29.9009 12.6768 28.9179 12.7743 28.362 12C28.352 11.986 27.6225 11.0445 27.5927 11.009C27.5718 10.984 27.1002 10.2614 26.0493 10.2388C25.894 10.235 25.1221 10.2308 24.3688 10.673C23.3677 11.2638 21.0392 12.6388 21.0392 12.6388C21.0385 12.6388 21.0385 12.64 21.0374 12.64C20.0802 13.2057 19.3345 13.6461 19.3345 13.6461L20.2156 14.7639C20.6278 15.2925 21.5573 15.7015 22.3633 15.2235C22.3633 15.2235 25.3418 13.442 25.3527 13.4369C26.6408 12.7071 27.6347 12.7071 28.2944 12.9787C28.8865 13.2371 29.4017 13.8811 29.4017 13.8811C29.4017 13.8811 30.0749 14.7429 30.1937 14.8936C30.5768 15.3807 31.2108 15.1893 31.2108 15.1893C31.2108 15.1893 31.4457 15.1618 31.7999 14.9446C31.7999 14.9446 34.6849 13.2168 34.6867 13.2162C35.6028 12.6611 36.443 12.5574 36.8724 12.5982C38.2173 12.7245 38.6351 13.695 39.2183 14.372C39.5617 14.7703 39.8716 14.9964 40.3455 14.985C40.6569 14.9782 41.0086 14.7831 41.0605 14.7479L44.5152 12.6886C44.5152 12.6886 44.1607 12.1371 43.4348 11.2791C42.785 10.5136 42.0949 10.86 41.5447 11.1414C41.3135 11.2595 40.4759 11.835 39.6462 12.2365C39.0549 12.5225 38.2056 12.4365 37.7402 11.8424C37.7123 11.8063 36.9593 10.8647 36.8802 10.7488C36.5762 10.3556 35.9832 10.0034 35.2233 10.0034C34.7612 10.0034 34.2368 10.1336 33.6782 10.4637Z" fill="url(#paint0_linear_1_5470)"/>
<defs>
<linearGradient id="paint0_linear_1_5470" x1="19.3345" y1="15.4352" x2="44.5152" y2="15.4352" gradientUnits="userSpaceOnUse">
<stop stop-color="#FFCA06"/>
<stop offset="0.330844" stop-color="#FBAA18"/>
<stop offset="0.694742" stop-color="#FFC907"/>
<stop offset="1" stop-color="#FAA619"/>
</linearGradient>
</defs>
</svg>
