<svg width="1440" height="1043" viewBox="0 0 1440 1043" fill="none" xmlns="http://www.w3.org/2000/svg">
<g clip-path="url(#clip0_1_1208)">
<rect width="1440" height="1044" transform="translate(0 -1.95728)" fill="white"/>
<rect y="-1.95728" width="1440" height="262.501" fill="#9FDDFF"/>
<rect y="900.043" width="1440" height="142" fill="#FFCC8C"/>
<path d="M200.686 912.52L-111.849 1075.19" stroke="#C46500"/>
<path d="M300.685 912.52L-11.8496 1075.19" stroke="#C46500"/>
<path d="M410.685 912.52L98.1504 1075.19" stroke="#C46500"/>
<path d="M520.685 912.52L208.15 1075.19" stroke="#C46500"/>
<path d="M630.685 912.52L318.15 1075.19" stroke="#C46500"/>
<path d="M1229.15 912.52L1541.69 1075.19" stroke="#C46500"/>
<path d="M1129.15 912.52L1441.69 1075.19" stroke="#C46500"/>
<path d="M1019.15 912.52L1331.69 1075.19" stroke="#C46500"/>
<path d="M909.151 912.52L1221.69 1075.19" stroke="#C46500"/>
<path d="M799.151 912.52L1111.69 1075.19" stroke="#C46500"/>
<rect x="128" y="220.567" width="1185" height="694.499" fill="#1BB1F8"/>
<path opacity="0.2" d="M344.922 221.245L344.346 914.905" stroke="black" stroke-width="2"/>
<path opacity="0.2" d="M559.922 221.245L559.346 914.905" stroke="black" stroke-width="2"/>
<path opacity="0.2" d="M774.922 221.245L774.346 914.905" stroke="black" stroke-width="2"/>
<path opacity="0.2" d="M989.922 221.245L989.346 914.905" stroke="black" stroke-width="2"/>
<path opacity="0.2" d="M1204.92 221.245L1204.35 914.905" stroke="black" stroke-width="2"/>
<path opacity="0.2" d="M1313.52 669.441L128 669.441" stroke="black" stroke-width="2"/>
<path d="M1313 220.543L1441 164.043L1447 974.043L1313 915.043V220.543Z" fill="#058CCC"/>
<path d="M128 220.543L0 164.043L-6 974.043L128 915.043V220.543Z" fill="#058CCC"/>
<rect x="103.26" y="340.043" width="9.7594" height="65.6924" fill="#070606"/>
<path d="M92.0693 333.812L121.255 338.812V352.764L92.0693 347.764V333.812Z" fill="#070606"/>
<path d="M92.0693 394.812L121.255 399.812V413.764L92.0693 408.764V394.812Z" fill="#070606"/>
<path d="M110.139 404.648L165.781 327.399L156.435 332.624L104.486 404.817L110.139 404.648Z" fill="#171717"/>
<path d="M161.179 320.838L151.327 326.127L156.324 333.284L165.772 327.417L161.179 320.838Z" fill="#6D3838"/>
<path d="M151.329 326.131L99.3874 400.368L104.435 404.827L156.325 333.287L151.329 326.131Z" fill="#252525"/>
<path d="M116.946 347.429L206.789 315.939L196.134 314.874L112.214 344.332L116.946 347.429Z" fill="#171717"/>
<path d="M206.771 307.925L195.665 306.623V315.351L206.771 315.949V307.925Z" fill="#414040"/>
<path d="M195.664 306.627L110.579 337.766L112.166 344.311L195.664 315.354V306.627Z" fill="#252525"/>
<path d="M192.119 360.513L157.672 457.506" stroke="black" stroke-width="2"/>
<path d="M193.129 320.378C193.129 319.826 192.681 319.378 192.129 319.378C191.577 319.378 191.129 319.826 191.129 320.378H193.129ZM193.129 362.716V320.378H191.129V362.716H193.129Z" fill="black"/>
<path d="M181.021 446.104L191.916 361.599" stroke="black" stroke-width="2"/>
<path d="M202.811 446.104L191.916 361.599" stroke="black" stroke-width="2"/>
<path d="M192.069 360.428L226.179 457.506" stroke="black" stroke-width="2"/>
<path d="M192.593 443.13C181.633 443.13 170.673 445.333 160.392 449.738C151.607 453.502 145.911 462.139 145.911 471.695C141.718 525.276 135.848 666.794 145.911 804.228C145.911 812.814 150.788 820.654 158.49 824.449C169.241 829.746 180.917 832.394 192.593 832.394V443.13Z" fill="#4F4F4F"/>
<path d="M192.354 443.13C203.314 443.13 214.274 445.333 224.556 449.738C233.341 453.502 239.037 462.139 239.037 471.695C243.23 525.276 249.1 666.794 239.037 804.228C239.037 812.814 234.159 820.654 226.457 824.449C215.707 829.746 204.031 832.394 192.354 832.394V443.13Z" fill="#4F4F4F"/>
<path d="M221.924 448.664C220.6 448.15 219.266 447.672 217.924 447.23V828.035C219.268 827.563 220.601 827.053 221.924 826.504V448.664Z" fill="#3F3F3F"/>
<path d="M242.461 532.72L142.486 532.72C142.24 538.8 142.008 545.142 141.793 551.72H243.154C242.939 545.142 242.706 538.8 242.461 532.72Z" fill="#3F3F3F"/>
<ellipse cx="192.128" cy="319.578" rx="1.7959" ry="0.800079" fill="black"/>
<path fill-rule="evenodd" clip-rule="evenodd" d="M1182.69 513.375L1445.31 443.505L1450.71 463.799L1188.09 533.669C1182.49 535.16 1176.74 531.826 1175.24 526.222C1173.75 520.618 1177.09 514.866 1182.69 513.375Z" fill="#F6F8FE"/>
<path d="M1241.53 537.535L1249.13 537.233L1243.68 462.606L1233.43 463.003L1219.87 503.536L1241.53 537.535Z" fill="#232323"/>
<path d="M1259.26 497.774C1261.55 518.351 1253.61 536.152 1241.54 537.534C1229.47 538.916 1217.83 523.356 1215.55 502.78C1213.27 482.203 1221.2 464.402 1233.27 463.02C1245.34 461.637 1256.98 477.198 1259.26 497.774Z" fill="#232323"/>
<ellipse cx="22.368" cy="37.4857" rx="22.368" ry="37.4857" transform="matrix(0.993509 -0.113756 0.110268 0.993902 1220.95 465.144)" fill="#474747"/>
<ellipse cx="8.3544" cy="14.2345" rx="8.3544" ry="14.2345" transform="matrix(0.993509 -0.113756 0.110268 0.993902 1240.2 488.276)" fill="black"/>
<path d="M1259.24 541.917L1268.3 541.557L1261.8 452.64L1249.59 453.112L1233.42 501.407L1259.24 541.917Z" fill="#232323"/>
<path d="M1280.37 494.542C1283.09 519.059 1273.63 540.269 1259.25 541.916C1244.87 543.563 1231 525.023 1228.28 500.506C1225.56 475.989 1235.01 454.78 1249.4 453.133C1263.78 451.486 1277.65 470.026 1280.37 494.542Z" fill="#232323"/>
<ellipse cx="26.6513" cy="44.6639" rx="26.6513" ry="44.6639" transform="matrix(0.993509 -0.113756 0.110268 0.993902 1234.72 455.664)" fill="#474747"/>
<ellipse cx="9.95419" cy="16.9603" rx="9.95419" ry="16.9603" transform="matrix(0.993509 -0.113756 0.110268 0.993902 1257.65 483.225)" fill="black"/>
<path d="M1278.21 547.155L1288.57 546.79L1280.55 441.545L1266.59 442.023L1248.42 499.055L1278.21 547.155Z" fill="#232323"/>
<path d="M1302.06 491.244C1305.34 520.269 1294.66 545.3 1278.22 547.154C1261.79 549.007 1245.81 526.981 1242.54 497.956C1239.26 468.931 1249.94 443.899 1266.37 442.046C1282.81 440.192 1298.79 462.219 1302.06 491.244Z" fill="#232323"/>
<ellipse cx="1285.79" cy="494.085" rx="30.452" ry="52.8871" transform="rotate(-6.43313 1285.79 494.085)" fill="#474747"/>
<ellipse cx="1289.56" cy="496.386" rx="11.3737" ry="20.0829" transform="rotate(-6.43313 1289.56 496.386)" fill="black"/>
<path d="M1350.62 269.069L1338.66 267.119L1336.31 932.021H1350.62V269.069Z" fill="#171717"/>
<path d="M1338.67 267.121L1305.52 274.607L1308.04 932.007H1338.67V267.121Z" fill="#252525"/>
<ellipse cx="1322.09" cy="563.158" rx="5" ry="7.5" fill="white"/>
<ellipse cx="1322.09" cy="504.158" rx="5" ry="7.5" fill="white"/>
<ellipse cx="1322.09" cy="622.158" rx="5" ry="7.5" fill="white"/>
<ellipse cx="1322.09" cy="681.158" rx="5" ry="7.5" fill="white"/>
<ellipse cx="1322.09" cy="740.158" rx="5" ry="7.5" fill="white"/>
<ellipse cx="1322.09" cy="799.158" rx="5" ry="7.5" fill="white"/>
<path d="M1325.08 510.179C1326.3 508.813 1327.09 506.624 1327.09 504.158C1327.09 501.706 1326.31 499.528 1325.1 498.16L1319.09 498.16C1317.88 499.528 1317.09 501.706 1317.09 504.158C1317.09 506.624 1317.89 508.813 1319.11 510.179H1325.08Z" fill="#C49D6B"/>
<path fill-rule="evenodd" clip-rule="evenodd" d="M1460.85 461.099L1297.98 504.433C1292.37 505.924 1286.62 502.59 1285.13 496.986C1283.64 491.382 1286.97 485.63 1292.58 484.139L1455.45 440.805L1460.85 461.099Z" fill="#F6F8FE"/>
<path d="M1323.46 510.18H1311.6L1311.7 498.16L1323.46 498.16V510.18Z" fill="#C49D6B"/>
<ellipse cx="1311.63" cy="504.158" rx="4" ry="6" fill="#FFCC8C"/>
<path d="M195.864 206.338H1243.14" stroke="#0D0D0D" stroke-width="4" stroke-linecap="round"/>
<path d="M216.79 206.338L216.79 227.106" stroke="#0D0D0D" stroke-width="4"/>
<rect width="26.6531" height="16.0988" rx="8.04939" transform="matrix(-0.927379 0.374124 0.374124 0.927379 226.571 219.285)" fill="url(#paint0_linear_1_1208)"/>
<ellipse cx="4.75098" cy="5.36972" rx="4.75098" ry="5.36972" transform="matrix(-0.925435 0.378906 0.378906 0.925435 213.681 227.106)" fill="white"/>
<g filter="url(#filter0_f_1_1208)">
<ellipse cx="4.75098" cy="5.36972" rx="4.75098" ry="5.36972" transform="matrix(-0.925435 0.378906 0.378906 0.925435 213.681 227.106)" fill="white"/>
</g>
<path d="M328.655 206.338L328.655 227.106" stroke="#0D0D0D" stroke-width="4"/>
<rect x="318.874" y="219.285" width="26.6531" height="16.0988" rx="8.04939" transform="rotate(21.9702 318.874 219.285)" fill="url(#paint1_linear_1_1208)"/>
<ellipse cx="334.127" cy="233.875" rx="4.75098" ry="5.36972" transform="rotate(22.266 334.127 233.875)" fill="white"/>
<g filter="url(#filter1_f_1_1208)">
<ellipse cx="334.127" cy="233.875" rx="4.75098" ry="5.36972" transform="rotate(22.266 334.127 233.875)" fill="white"/>
</g>
<path d="M439.05 206.338L439.05 227.106" stroke="#0D0D0D" stroke-width="4"/>
<rect width="26.6531" height="16.0988" rx="8.04939" transform="matrix(-0.927379 0.374124 0.374124 0.927379 448.831 219.285)" fill="url(#paint2_linear_1_1208)"/>
<ellipse cx="4.75098" cy="5.36972" rx="4.75098" ry="5.36972" transform="matrix(-0.925435 0.378906 0.378906 0.925435 435.94 227.106)" fill="white"/>
<g filter="url(#filter2_f_1_1208)">
<ellipse cx="4.75098" cy="5.36972" rx="4.75098" ry="5.36972" transform="matrix(-0.925435 0.378906 0.378906 0.925435 435.94 227.106)" fill="white"/>
</g>
<path d="M1224.05 206.338L1224.05 227.106" stroke="#0D0D0D" stroke-width="4"/>
<rect x="1214.27" y="219.285" width="26.6531" height="16.0988" rx="8.04939" transform="rotate(21.9702 1214.27 219.285)" fill="url(#paint3_linear_1_1208)"/>
<ellipse cx="1229.53" cy="233.875" rx="4.75098" ry="5.36972" transform="rotate(22.266 1229.53 233.875)" fill="white"/>
<g filter="url(#filter3_f_1_1208)">
<ellipse cx="1229.53" cy="233.875" rx="4.75098" ry="5.36972" transform="rotate(22.266 1229.53 233.875)" fill="white"/>
</g>
<path d="M1112.19 206.338L1112.19 227.106" stroke="#0D0D0D" stroke-width="4"/>
<rect width="26.6531" height="16.0988" rx="8.04939" transform="matrix(-0.927379 0.374124 0.374124 0.927379 1121.97 219.285)" fill="url(#paint4_linear_1_1208)"/>
<ellipse cx="4.75098" cy="5.36972" rx="4.75098" ry="5.36972" transform="matrix(-0.925435 0.378906 0.378906 0.925435 1109.08 227.106)" fill="white"/>
<g filter="url(#filter4_f_1_1208)">
<ellipse cx="4.75098" cy="5.36972" rx="4.75098" ry="5.36972" transform="matrix(-0.925435 0.378906 0.378906 0.925435 1109.08 227.106)" fill="white"/>
</g>
<path d="M1001.79 206.338L1001.79 227.106" stroke="#0D0D0D" stroke-width="4"/>
<rect x="992.013" y="219.285" width="26.6531" height="16.0988" rx="8.04939" transform="rotate(21.9702 992.013 219.285)" fill="url(#paint5_linear_1_1208)"/>
<ellipse cx="1007.27" cy="233.875" rx="4.75098" ry="5.36972" transform="rotate(22.266 1007.27 233.875)" fill="white"/>
<g filter="url(#filter5_f_1_1208)">
<ellipse cx="1007.27" cy="233.875" rx="4.75098" ry="5.36972" transform="rotate(22.266 1007.27 233.875)" fill="white"/>
</g>
<path d="M126.554 206.869C127.566 207.311 128.745 206.849 129.187 205.836C129.629 204.824 129.167 203.645 128.155 203.203L126.554 206.869ZM128.155 203.203L-2.64087 146.074L-4.24194 149.74L126.554 206.869L128.155 203.203Z" fill="#0D0D0D"/>
<path d="M106.3 196.553V214.989" stroke="#0D0D0D" stroke-width="4"/>
<rect x="96.5186" y="207.168" width="26.6531" height="16.0988" rx="8.04939" transform="rotate(21.9702 96.5186 207.168)" fill="url(#paint6_linear_1_1208)"/>
<ellipse cx="111.771" cy="221.759" rx="4.75098" ry="5.36972" transform="rotate(22.266 111.771 221.759)" fill="white"/>
<g filter="url(#filter6_f_1_1208)">
<ellipse cx="111.771" cy="221.759" rx="4.75098" ry="5.36972" transform="rotate(22.266 111.771 221.759)" fill="white"/>
</g>
<path d="M47.3008 169.553V187.989" stroke="#0D0D0D" stroke-width="4"/>
<rect x="37.5195" y="180.168" width="26.6531" height="16.0988" rx="8.04939" transform="rotate(21.9702 37.5195 180.168)" fill="url(#paint7_linear_1_1208)"/>
<ellipse cx="53.2986" cy="194.759" rx="4.75098" ry="5.36972" transform="rotate(22.266 53.2986 194.759)" fill="white"/>
<g filter="url(#filter7_f_1_1208)">
<ellipse cx="53.2986" cy="194.759" rx="4.75098" ry="5.36972" transform="rotate(22.266 53.2986 194.759)" fill="white"/>
</g>
<path d="M1311.01 206.869C1309.99 207.311 1308.81 206.849 1308.37 205.836C1307.93 204.824 1308.39 203.645 1309.4 203.203L1311.01 206.869ZM1309.4 203.203L1440.2 146.074L1441.8 149.74L1311.01 206.869L1309.4 203.203Z" fill="#0D0D0D"/>
<path d="M1331.26 196.553V214.989" stroke="#0D0D0D" stroke-width="4"/>
<rect width="26.6531" height="16.0988" rx="8.04939" transform="matrix(-0.927379 0.374124 0.374124 0.927379 1341.04 207.168)" fill="url(#paint8_linear_1_1208)"/>
<ellipse cx="4.75098" cy="5.36972" rx="4.75098" ry="5.36972" transform="matrix(-0.925435 0.378906 0.378906 0.925435 1328.15 214.989)" fill="white"/>
<g filter="url(#filter8_f_1_1208)">
<ellipse cx="4.75098" cy="5.36972" rx="4.75098" ry="5.36972" transform="matrix(-0.925435 0.378906 0.378906 0.925435 1328.15 214.989)" fill="white"/>
</g>
<path d="M1390.26 169.553V187.989" stroke="#0D0D0D" stroke-width="4"/>
<rect width="26.6531" height="16.0988" rx="8.04939" transform="matrix(-0.927379 0.374124 0.374124 0.927379 1400.04 180.168)" fill="url(#paint9_linear_1_1208)"/>
<ellipse cx="4.75098" cy="5.36972" rx="4.75098" ry="5.36972" transform="matrix(-0.925435 0.378906 0.378906 0.925435 1386.62 187.989)" fill="white"/>
<g filter="url(#filter9_f_1_1208)">
<ellipse cx="4.75098" cy="5.36972" rx="4.75098" ry="5.36972" transform="matrix(-0.925435 0.378906 0.378906 0.925435 1386.62 187.989)" fill="white"/>
</g>
<path fill-rule="evenodd" clip-rule="evenodd" d="M628.445 841.861C630.157 845.327 628.735 849.525 625.268 851.237C618.113 854.77 604.101 863.733 589.779 876.848C575.463 889.959 561.306 906.794 553.257 925.937C551.759 929.5 547.655 931.175 544.091 929.676C540.528 928.178 538.853 924.074 540.352 920.51C549.463 898.84 565.162 880.409 580.324 866.523C595.482 852.642 610.572 842.88 619.069 838.684C622.536 836.972 626.733 838.395 628.445 841.861Z" fill="#1D1D1D"/>
<path fill-rule="evenodd" clip-rule="evenodd" d="M811.527 841.861C809.816 845.327 811.238 849.525 814.704 851.237C821.86 854.77 835.872 863.733 850.193 876.848C864.509 889.959 878.667 906.794 886.715 925.937C888.214 929.5 892.317 931.175 895.881 929.676C899.445 928.178 901.119 924.074 899.621 920.51C890.51 898.84 874.811 880.409 859.648 866.523C844.491 852.642 829.401 842.88 820.903 838.684C817.437 836.972 813.239 838.395 811.527 841.861Z" fill="#1D1D1D"/>
<rect x="772" y="828.858" width="100" height="13.3039" fill="#424242"/>
<path d="M854.412 836.781V818.157H860.958V836.781H854.412Z" fill="black"/>
<path d="M855.332 822.078L856.837 824.475H938.44L929.029 814.188C928.271 813.36 927.2 812.888 926.077 812.888H860.414C855.696 812.888 852.824 818.082 855.332 822.078Z" fill="#424242"/>
<path d="M856.841 824.381H938.702V832.772C938.702 834.981 936.911 836.772 934.702 836.772H856.841V824.381Z" fill="#1A1A1A"/>
<path d="M513.274 815.925C515.536 813.569 518.662 812.238 521.928 812.238H830.659C833.926 812.238 837.051 813.569 839.314 815.925L848.772 825.772H503.815L513.274 815.925Z" fill="#424242"/>
<path d="M503.815 825.772H848.772V833.595C848.772 835.804 846.981 837.595 844.772 837.595H507.815C505.606 837.595 503.815 835.804 503.815 833.595V825.772Z" fill="#1A1A1A"/>
<path d="M507.066 836.772H936.801V845.501C936.801 847.966 934.57 849.964 931.818 849.964H512.049C509.297 849.964 507.066 847.966 507.066 845.501V836.772Z" fill="black"/>
<path d="M710.925 649.142C718.448 642.022 729.956 638.563 734.769 637.724C709.965 652.659 710.292 684.658 713.556 698.79C715.66 719.302 703.176 734.228 696.67 739.127C698.025 742.358 698.508 750.508 689.601 757.263C678.466 765.705 654.457 734.436 645.702 722.867C640.779 716.362 631.731 704.594 624.208 695.464C618.947 689.079 615.091 681.571 613.55 673.443L613.25 671.859C611.825 664.343 615.595 656.801 622.463 653.431L636.561 646.512C637.087 646.254 637.722 646.394 638.09 646.85C639.402 648.476 638.845 650.901 636.956 651.791L624.885 657.483C621.45 659.103 620.317 663.435 622.517 666.529L625.863 671.234C628.195 674.514 633.182 674.126 634.98 670.525L639.293 661.885C640.024 660.421 641.868 659.922 643.238 660.818C644.666 661.752 645.257 663.59 644.959 665.271C644.1 670.107 643.82 678.424 642.886 685.894C641.726 695.173 666.494 712.05 679.022 719.329C674.455 700.791 684.172 685.187 689.601 679.702C690.407 657 704.153 649.869 710.925 649.142Z" fill="#FFA59A"/>
<path d="M710.991 649.08C718.514 642.002 729.969 638.561 734.769 637.724C733.67 638.385 732.621 639.08 731.619 639.806C722.033 642.019 714.075 646.806 710.988 649.205C710.988 649.163 710.989 649.122 710.991 649.08Z" fill="white"/>
<path d="M689.457 679.849C689.505 679.799 689.553 679.75 689.601 679.702C689.686 677.316 689.914 675.102 690.261 673.049C703.333 668.18 714.864 656.149 719.532 649.902V653.215C712.402 665.439 711.318 680.029 712.301 690.727L705.422 705.837C708.456 695.908 708.204 687.065 707.15 681.097C706.433 677.038 703.029 673.805 698.993 674.642C694.75 675.522 691.097 678.096 689.457 679.849Z" fill="#D78A80"/>
<path d="M643.482 689.433C647.351 698.989 667.959 712.902 679.022 719.329C678.894 718.809 679.128 719.844 679.022 719.329C687.153 720.402 690.572 724.98 691.866 726.716C703.579 719.924 709.176 693.228 708.768 682.729C709.431 686.373 710.796 689.209 712.361 691.352C712.644 694.154 713.067 696.672 713.556 698.79C715.66 719.302 703.176 734.228 696.67 739.127C698.025 742.358 698.508 750.509 689.601 757.263C684.519 761.116 676.756 756.697 668.985 749.655L668.713 749.155C685.824 749.755 687.458 737.096 681.933 733.831C675.877 730.252 666.012 722.738 663.31 717.635C661.149 713.553 645.399 700.925 637.794 695.121L643.482 689.433Z" fill="#D78A80"/>
<path d="M688.197 681.24C688.687 680.663 689.158 680.149 689.6 679.702C690.27 660.838 699.874 652.725 706.988 650.104C693.885 658.271 690.838 672.832 690.981 679.258L688.74 681.542L688.197 681.24Z" fill="white"/>
<path d="M613.311 672.175L613.36 672.435C614.026 674.941 614.748 677.651 615.509 680.497C617.502 685.925 620.508 690.973 624.208 695.464C631.731 704.594 640.78 716.362 645.703 722.867C654.458 734.436 678.467 765.705 689.601 757.263C698.371 750.613 698.039 742.611 696.734 739.281C693.423 758.93 683.479 757.283 678.913 753.996C646.738 728.273 621.772 688.731 613.311 672.175Z" fill="white"/>
<path d="M681.253 720.091L679.015 719.388C673.298 694.128 687.759 679.595 695.654 675.467C677.96 691.492 678.62 711.694 681.253 720.091Z" fill="white"/>
<path d="M649.393 980.885L651.598 975.792L668.764 975.792L668.745 976.009C668.506 978.666 669.159 981.328 670.602 983.572L675.673 991.46C679.637 997.626 674.962 1005.69 667.641 1005.31L652.474 1004.54C650.058 1004.41 647.647 1004.86 645.44 1005.85C640.525 1008.06 635.199 1009.2 629.813 1009.2H618.129C615.067 1009.2 613.972 1005.15 616.618 1003.6L642.772 988.348C645.718 986.63 648.038 984.015 649.393 980.885Z" fill="white"/>
<path d="M675.763 991.603C679.564 997.749 674.905 1005.69 667.641 1005.31L652.474 1004.54C650.058 1004.41 647.647 1004.86 645.44 1005.85C640.525 1008.06 635.199 1009.2 629.813 1009.2H618.129C615.067 1009.2 613.972 1005.15 616.618 1003.6L617.579 1003.04C629.428 1004.51 656.005 1004.13 675.763 991.603Z" fill="black"/>
<path fill-rule="evenodd" clip-rule="evenodd" d="M630.904 995.272L631.805 994.746L632.439 995.34C632.64 995.529 632.65 995.845 632.461 996.047C632.273 996.248 631.956 996.258 631.755 996.069L630.904 995.272ZM628.689 996.563L629.59 996.038L630.528 996.917C630.729 997.105 630.739 997.422 630.551 997.623C630.362 997.825 630.045 997.835 629.844 997.646L628.689 996.563ZM626.475 997.855L627.376 997.329L628.617 998.493C628.819 998.682 628.829 998.998 628.64 999.2C628.451 999.401 628.135 999.412 627.933 999.223L626.475 997.855Z" fill="black"/>
<path d="M560.2 921.079L563.623 916.71L579.267 921.079L579.193 921.284C578.29 923.795 578.248 926.535 579.076 929.072L581.985 937.986C584.259 944.954 577.695 951.573 570.708 949.357L556.231 944.765C553.926 944.034 551.479 943.86 549.093 944.259C543.781 945.146 538.34 944.9 533.129 943.537L521.826 940.579C518.863 939.804 518.829 935.611 521.779 934.788L550.943 926.648C554.228 925.731 558.097 923.764 560.2 921.079Z" fill="white"/>
<path d="M582.036 938.147C584.158 945.055 577.641 951.556 570.708 949.357L556.232 944.765C553.926 944.034 551.48 943.86 549.094 944.259C543.781 945.146 538.34 944.9 533.129 943.537L521.826 940.579C518.864 939.804 518.829 935.611 521.779 934.787L522.851 934.488C533.943 938.903 559.752 945.264 582.036 938.147Z" fill="black"/>
<path fill-rule="evenodd" clip-rule="evenodd" d="M537.708 930.342L538.713 930.061L539.176 930.796C539.323 931.03 539.253 931.338 539.019 931.486C538.785 931.633 538.477 931.562 538.33 931.329L537.708 930.342ZM535.239 931.031L536.244 930.75L536.928 931.838C537.075 932.071 537.005 932.38 536.772 932.527C536.538 932.674 536.229 932.604 536.082 932.37L535.239 931.031ZM532.77 931.72L533.775 931.439L534.681 932.879C534.828 933.113 534.758 933.422 534.524 933.569C534.29 933.716 533.982 933.646 533.835 933.412L532.77 931.72Z" fill="black"/>
<path d="M610.947 790.481L676.118 779.806L692.324 817.013L698.677 812.528L716.614 853.448L672.331 870.264L673.207 873.599C676.429 885.863 676.401 898.754 673.126 911.004L668.781 927.253V975.833H651.591L636.931 872.742C635.172 860.375 641.007 848.161 651.733 841.758L682.234 823.552H619.64C619.64 833.514 616.506 843.222 610.682 851.304L607.816 855.28C605.741 858.16 604.008 861.271 602.652 864.551L579.281 921.087L563.586 916.789L585.656 814.534C588.343 802.081 598.375 792.541 610.947 790.481Z" fill="#FFA59A"/>
<path d="M640.856 900.346L636.931 872.742C635.172 860.375 641.008 848.161 651.733 841.759L682.234 823.553H676.636L691.508 815.138L692.324 817.013L698.677 812.529L700.746 817.249L652.283 846.487C645.836 851.323 635.359 871.471 645.03 913.378L640.856 900.346Z" fill="white"/>
<path d="M565.782 917.39L563.586 916.789L578.057 849.741L579.13 846.981L565.782 917.39Z" fill="white"/>
<path d="M676.428 783.832L608.436 794.926C602.371 796.333 589.597 802.094 585.771 814.018C588.621 801.819 598.549 792.512 610.947 790.481L676.118 779.806L677.11 782.084L676.428 783.832Z" fill="white"/>
<path d="M714.191 847.92L716.614 853.448L672.331 870.264L673.207 873.599C676.429 885.863 676.401 898.754 673.126 911.004L668.781 927.253V975.833H661V930.594C661 924.384 660.114 918.205 658.37 912.245C655.853 903.646 655.377 894.578 656.98 885.763L657.724 881.668C659.755 870.503 667.53 861.239 678.175 857.306L710.506 845.357L714.191 847.92Z" fill="#D78A80"/>
<path d="M680.807 823.552H619.64C619.64 833.514 616.506 843.222 610.682 851.304L607.816 855.28C605.741 858.16 604.008 861.271 602.652 864.551L579.281 921.087L572.659 919.274L588.603 864.652C589.792 860.579 590.395 856.357 590.395 852.113C590.395 843.592 592.751 835.236 597.201 827.97L598.638 825.623C603.402 817.846 611.866 813.105 620.986 813.105H687.098L691.288 815.904L680.807 823.552Z" fill="#D78A80"/>
<path d="M692.636 816.31L653.492 840.124C641.488 847.427 635.015 861.201 637.053 875.103L649.445 959.612" stroke="black" stroke-width="3" stroke-linecap="round"/>
<path d="M584.658 877.439L571.917 919.347L573.145 920.575L584.658 877.439Z" fill="white"/>
<path d="M675.707 779.347L719.351 769.006C730.009 769.945 768.223 768.014 785.998 766.931L785.528 791.85C785.027 818.428 766.814 841.388 741.047 847.925L715.853 854.317L698.822 813.714L690.762 818.581L675.707 779.347Z" fill="#512CED"/>
<path fill-rule="evenodd" clip-rule="evenodd" d="M698.001 812.45C698.766 812.13 699.644 812.49 699.964 813.254L717.257 853.525C717.577 854.289 717.217 855.168 716.453 855.488C715.688 855.807 714.81 855.447 714.49 854.683L697.197 814.412C696.877 813.648 697.237 812.769 698.001 812.45Z" fill="black"/>
<path fill-rule="evenodd" clip-rule="evenodd" d="M784.552 769.037C785.38 769.019 786.066 769.675 786.085 770.504L786.568 792.31C787.142 818.204 770.036 841.172 745.063 848.039L716.644 855.855C715.845 856.074 715.02 855.605 714.8 854.806C714.581 854.007 715.05 853.182 715.849 852.962L744.268 845.147C767.915 838.644 784.112 816.895 783.569 792.377L783.085 770.57C783.067 769.742 783.724 769.055 784.552 769.037Z" fill="black"/>
<path fill-rule="evenodd" clip-rule="evenodd" d="M675.635 778.734C676.412 778.447 677.275 778.844 677.563 779.621L689.622 812.224C690.284 814.016 692.43 814.74 694.043 813.716L736.663 786.667C737.363 786.223 738.289 786.431 738.733 787.13C739.177 787.83 738.97 788.756 738.271 789.2L692.517 818.238C690.904 819.262 688.758 818.538 688.095 816.746L674.749 780.662C674.461 779.885 674.858 779.022 675.635 778.734Z" fill="black"/>
<path d="M802.277 652.745C785.748 646.025 770.287 634.847 766.598 630.427L743.214 634.65C731.138 636.832 720.858 644.71 715.614 655.805L712.46 662.476C707.214 673.574 707.169 686.428 712.338 697.562C713.487 700.036 714.177 702.697 714.376 705.417L719.023 769.048C731.507 772.397 768.88 769.175 786.006 767.145L783.641 705.801C783.469 701.334 784.603 696.913 786.903 693.079C788.915 689.725 790.58 686.175 791.872 682.484L802.277 652.745Z" fill="#F4F5FF"/>
<path d="M790.85 680.313L791.833 682.592C790.546 686.245 788.895 689.758 786.902 693.079C784.602 696.913 783.469 701.334 783.641 705.801L786.006 767.145L774.412 768.494L773.699 729.793C775.817 717.193 767.266 705.082 754.507 704.406C738.776 703.572 721.302 704.789 714.939 713.131L714.375 705.417C714.177 702.697 713.486 700.036 712.338 697.562C711.279 695.283 710.44 692.931 709.818 690.537C716.218 691.325 719.871 692.353 725.974 691.736C730.643 691.265 735.154 689.588 738.839 686.682C741.742 684.392 744.187 681.824 744.167 680.313C744.162 680.247 744.159 680.181 744.157 680.117C744.162 680.237 744.166 680.246 744.167 680.313C744.411 683.756 753.096 690.468 767.388 690.468C781.956 690.468 789.099 683.698 790.85 680.313Z" fill="#DAD1FF"/>
<path d="M711.737 690.76C717.723 691.988 730.159 693.192 738.999 686.747C735.623 691.12 726.839 697.758 711.737 690.76Z" fill="#B3A1FF"/>
<path d="M749.833 686.27C755.321 688.955 767.062 693.23 777.232 689.199C772.869 692.59 762.705 696.821 749.833 686.27Z" fill="#B3A1FF"/>
<path d="M815.506 673.943C814.995 668.686 812.374 660.402 804.981 654.495C801.438 651.664 796.737 650.565 792.282 651.413C786.502 652.514 779.534 655.899 777.412 666.314C775.12 677.568 784.516 686.943 790.808 691.163C791.873 691.878 792.6 693.003 792.82 694.267C795.461 709.439 808.911 719.747 815.606 722.737C814.953 722.856 812.148 723.416 806.148 724.708C769.881 733.28 753.945 729.279 749.329 727.136C744.714 724.993 732.679 719.097 725.425 724.004C719.623 727.93 722.348 736.552 724.437 740.372C728.558 748.497 741.746 742.797 751.142 740.372C760.539 737.946 779.167 744.446 799.114 748.732C819.061 753.018 847.155 753.978 849.629 740.372C851.32 731.067 846.263 723.992 842.339 720.537C841.246 719.575 840.566 718.193 840.575 716.738C840.69 698.87 826.311 683.915 817.404 677.391C816.3 676.582 815.639 675.305 815.506 673.943Z" fill="#FFA59A"/>
<path d="M807.534 656.811C812.996 662.426 815.059 669.343 815.506 673.943C815.514 674.028 815.524 674.113 815.537 674.197C815.722 675.463 816.368 676.632 817.404 677.391C818.517 678.206 819.716 679.154 820.961 680.222C829.679 687.699 840.676 701.103 840.575 716.738C840.574 716.829 840.576 716.919 840.581 717.01C840.652 718.365 841.314 719.636 842.338 720.537C842.829 720.969 843.337 721.458 843.848 722C847.422 725.796 851.108 732.23 849.628 740.372C847.775 750.562 831.553 752.582 815.144 751.153C852.343 749.385 842.826 730.424 837.448 723.876C833.536 698.691 824.843 689.07 820.985 687.407C815.505 684.096 808.215 686.466 804.3 691.532C800.237 696.789 799.245 703.484 799.592 709.378C797.177 706.161 795.106 702.457 793.808 698.325C793.334 696.631 792.984 695.212 792.82 694.267C792.6 693.003 791.872 691.878 790.807 691.163C786.44 688.233 780.576 682.82 778.165 676.018C777.976 675.486 777.809 674.945 777.665 674.396C783.779 680.943 792.674 686.407 801.508 680.691C812.181 673.784 810.389 663.022 807.257 656.53C807.35 656.624 807.443 656.717 807.534 656.811Z" fill="#D78A80"/>
<path d="M849.538 732.623L837.39 718.57C834.289 717.547 823.529 717.126 814.925 722.42C815.159 722.533 815.385 722.639 815.605 722.737C814.952 722.856 812.147 723.416 806.148 724.708C789.798 728.572 777.58 729.882 768.669 729.958C768.442 730.025 768.261 730.088 768.129 730.145C776.326 731.059 796.359 731.95 810.915 728.201C829.109 723.514 838.482 739.504 824.698 750.806L842.444 748.541C846.315 746.768 848.945 744.124 849.628 740.372C850.136 737.575 850.035 734.979 849.538 732.623Z" fill="#D78A80"/>
<path d="M849.947 735.884C849.098 739.881 845.355 743.649 836.38 746.005C815.534 751.478 784.047 745.463 770.91 741.771L770.94 741.983C774.707 742.819 778.747 743.831 782.968 744.887C788.135 746.18 793.574 747.542 799.114 748.732C819.061 753.018 847.154 753.978 849.628 740.372C849.912 738.811 850.006 737.313 849.947 735.884Z" fill="white"/>
<path d="M724.227 737.013C724.777 736.957 725.267 737.357 725.323 737.907L725.351 738.178C725.675 741.371 728.363 743.799 731.572 743.799H732.834C737.722 743.799 742.561 742.834 747.074 740.958C750.842 739.392 754.946 738.834 758.984 739.33C759.532 739.397 759.901 739.914 759.81 740.459C759.719 741.004 759.204 741.37 758.656 741.305C754.988 740.869 751.263 741.382 747.842 742.805C743.085 744.782 737.985 745.799 732.834 745.799H731.572C727.337 745.799 723.789 742.594 723.361 738.38L723.333 738.109C723.277 737.56 723.678 737.069 724.227 737.013Z" fill="black"/>
<rect x="766.137" y="727.207" width="5.8125" height="17.354" rx="2" fill="#512CED"/>
<path fill-rule="evenodd" clip-rule="evenodd" d="M734.959 721.036C739.604 721.35 744.096 723.192 746.83 724.794C747.306 725.073 747.466 725.685 747.187 726.162C746.908 726.639 746.295 726.799 745.819 726.519C743.274 725.029 739.081 723.32 734.824 723.031C730.607 722.746 726.458 723.851 723.652 727.8C722.358 729.999 722.165 731.81 722.491 733.265C722.822 734.749 723.724 735.993 724.834 736.969C726.456 738.396 728.794 738.732 731.314 738.732C733.575 738.732 735.407 736.899 735.407 734.639V733.465C735.407 731.03 733.433 729.056 730.998 729.056C729.061 729.056 727.491 730.626 727.491 732.563V734.294C727.491 734.846 727.043 735.294 726.491 735.294C725.938 735.294 725.491 734.846 725.491 734.294V732.563C725.491 729.522 727.957 727.056 730.998 727.056C734.538 727.056 737.407 729.925 737.407 733.465V734.639C737.407 738.004 734.679 740.732 731.314 740.732C728.729 740.732 725.726 740.416 723.513 738.471C722.189 737.307 720.989 735.715 720.539 733.701C720.083 731.664 720.423 729.325 721.952 726.746L721.972 726.712L721.995 726.679C725.33 721.954 730.287 720.72 734.959 721.036Z" fill="black"/>
<path d="M817.687 677.6C814.942 674.834 811.838 675.909 811.197 676.176L811.193 676.178C833.872 688.232 838.63 709.349 838.175 718.4L840.898 718.968C840.917 718.852 840.935 718.737 840.953 718.622C840.705 718.029 840.57 717.391 840.574 716.738C840.688 699.058 826.611 684.231 817.687 677.6Z" fill="white"/>
<path d="M804.98 654.495C812.373 660.402 814.995 668.686 815.506 673.942C815.607 674.99 816.022 675.987 816.71 676.759C816.763 677.115 816.814 677.475 816.861 677.84L814.257 676.701C813.932 671.819 810.677 660.069 800.262 652.127C801.346 652.386 802.722 652.96 804.22 653.927C804.479 654.108 804.733 654.297 804.98 654.495Z" fill="white"/>
<path d="M780.965 580.069C780.575 590.738 778.28 598.22 775.786 601.713L768.055 600.934L767.637 584.815C772.661 584.982 778.616 581.721 780.965 580.069Z" fill="#FFA59A"/>
<path d="M780.965 580.069C780.575 590.738 778.28 598.22 775.786 601.713L768.055 600.934L767.637 584.815C772.661 584.982 778.616 581.721 780.965 580.069Z" fill="url(#paint10_linear_1_1208)"/>
<path d="M756.663 558.344C738.124 557.16 730.366 571.903 728.805 579.423C750.925 590.544 776.311 585.232 780.947 580.285C780.577 573.465 775.202 559.527 756.663 558.344Z" fill="#3F0929"/>
<path d="M727.596 620.445L728.746 579.472C733.439 582.061 748.05 586.788 768.953 584.986V597.132C768.953 597.37 769.178 597.543 769.408 597.482L770.708 597.137C773.27 596.456 775.782 598.388 775.782 601.039C775.782 603.269 773.974 605.076 771.744 605.076L770.055 605.076L766.111 637.809C764.801 648.68 755.079 656.536 744.175 655.535C739.864 655.139 736.785 651.183 737.459 646.907L739.833 631.835C733.155 632.502 727.408 627.153 727.596 620.445Z" fill="#FFA59A"/>
<path fill-rule="evenodd" clip-rule="evenodd" d="M734.437 592.172C733.314 592.364 732.58 592.943 732.381 593.312C732.134 593.769 731.564 593.94 731.107 593.693C730.65 593.447 730.48 592.877 730.726 592.42C731.288 591.377 732.641 590.572 734.12 590.319C735.665 590.055 737.507 590.356 739.146 591.723C739.544 592.056 739.598 592.648 739.265 593.047C738.933 593.446 738.34 593.499 737.942 593.167C736.766 592.186 735.493 591.992 734.437 592.172Z" fill="black"/>
<path fill-rule="evenodd" clip-rule="evenodd" d="M750.643 592.82C749.506 592.872 748.705 593.356 748.463 593.698C748.162 594.121 747.575 594.22 747.152 593.919C746.729 593.618 746.63 593.032 746.931 592.608C747.617 591.643 749.059 591.011 750.558 590.942C752.123 590.871 753.914 591.397 755.372 592.956C755.727 593.335 755.707 593.93 755.327 594.284C754.948 594.639 754.353 594.619 753.999 594.24C752.953 593.121 751.714 592.771 750.643 592.82Z" fill="black"/>
<path fill-rule="evenodd" clip-rule="evenodd" d="M742.141 604.112C741.685 604.126 741.327 604.508 741.341 604.964L741.421 607.519C740.705 607.605 740.039 607.828 739.49 608.21C738.696 608.762 738.203 609.614 738.176 610.676C738.122 612.831 740.064 614.427 742.243 614.482C742.699 614.494 743.078 614.134 743.089 613.678C743.101 613.222 742.74 612.843 742.284 612.831C740.78 612.793 739.802 611.739 739.827 610.718C739.841 610.192 740.062 609.825 740.433 609.566C740.832 609.289 741.451 609.111 742.252 609.131C742.479 609.137 742.698 609.049 742.858 608.888C743.018 608.727 743.105 608.507 743.098 608.279L742.992 604.912C742.978 604.456 742.597 604.098 742.141 604.112Z" fill="black"/>
<path d="M748.872 618.31C748.64 620.964 746.283 622.925 743.609 622.691C741.765 622.53 740.252 621.369 739.565 619.793C739.383 619.376 739.657 618.924 740.099 618.81L747.923 616.796C748.361 616.683 748.817 616.941 748.864 617.391C748.895 617.691 748.899 617.998 748.872 618.31Z" fill="white"/>
<ellipse cx="1.661" cy="2.416" rx="1.661" ry="2.416" transform="matrix(-0.999681 -0.0252542 -0.0252542 0.999681 750.922 596.946)" fill="black"/>
<ellipse cx="1.661" cy="2.416" rx="1.661" ry="2.416" transform="matrix(-0.999814 0.0193039 0.0193039 0.999814 736.955 596.705)" fill="black"/>
<path d="M738.633 639.451L739.832 631.836C743.555 631.765 752.269 630.856 757.522 626.938C756.977 630.441 752.426 637.731 738.633 639.451Z" fill="#D78A80"/>
<path fill-rule="evenodd" clip-rule="evenodd" d="M618.203 658.222C619.652 656.203 622.463 655.741 624.482 657.19L638.268 667.083C640.287 668.532 640.749 671.343 639.3 673.362C637.851 675.381 635.04 675.844 633.021 674.395L619.235 664.502C617.216 663.053 616.754 660.241 618.203 658.222Z" fill="white"/>
<path d="M638.342 707.861L643.602 710.858L671.912 656.087L664.823 652.039L638.295 674.813L638.342 707.861Z" fill="#232323"/>
<path d="M667.352 687.389C660.073 702.82 647.087 711.987 638.349 707.864C629.61 703.742 628.426 687.89 635.706 672.46C642.985 657.029 655.971 647.862 664.71 651.985C673.449 656.107 674.632 671.959 667.352 687.389Z" fill="#232323"/>
<ellipse cx="658.391" cy="683.807" rx="17.7877" ry="30.8926" transform="rotate(25.2556 658.391 683.807)" fill="#474747"/>
<ellipse cx="659.563" cy="686.11" rx="6.64367" ry="11.7309" transform="rotate(25.2556 659.563 686.11)" fill="black"/>
<path fill-rule="evenodd" clip-rule="evenodd" d="M555.944 615.661C557.347 613.61 560.148 613.084 562.199 614.487L583.605 629.128C585.657 630.531 586.182 633.332 584.779 635.383C583.376 637.434 580.576 637.96 578.525 636.557L557.118 621.916C555.067 620.513 554.541 617.713 555.944 615.661Z" fill="white"/>
<path d="M580.364 671.257L585.624 674.253L613.933 619.483L606.845 615.435L580.317 638.209L580.364 671.257Z" fill="#232323"/>
<path d="M609.374 650.785C602.094 666.215 589.109 675.382 580.37 671.26C571.631 667.137 570.448 651.286 577.727 635.855C585.007 620.425 597.992 611.258 606.731 615.38C615.47 619.503 616.653 635.354 609.374 650.785Z" fill="#232323"/>
<ellipse cx="600.413" cy="647.203" rx="17.7877" ry="30.8926" transform="rotate(25.2556 600.413 647.203)" fill="#474747"/>
<ellipse cx="601.585" cy="649.505" rx="6.64367" ry="11.7309" transform="rotate(25.2556 601.585 649.505)" fill="black"/>
<path fill-rule="evenodd" clip-rule="evenodd" d="M655.795 683.953C657.198 681.902 659.998 681.376 662.05 682.779L687.929 700.479C689.98 701.882 690.506 704.682 689.103 706.733C687.7 708.785 684.899 709.31 682.848 707.907L656.969 690.208C654.917 688.805 654.392 686.004 655.795 683.953Z" fill="white"/>
<path fill-rule="evenodd" clip-rule="evenodd" d="M598.766 644.93C600.176 642.883 602.979 642.368 605.025 643.778L624.412 657.14C626.458 658.551 626.974 661.353 625.564 663.399C624.153 665.446 621.351 665.961 619.305 664.551L599.917 651.189C597.871 649.778 597.356 646.976 598.766 644.93Z" fill="white"/>
<path d="M636.04 665.34C627.419 665.975 623.193 671.643 622.157 674.397C617.768 664.877 629.584 660.294 636.04 659.192C641.263 658.928 639.875 664.944 636.04 665.34Z" fill="#B6726A"/>
<path d="M636.04 661.34C627.419 661.975 623.193 667.643 622.157 670.397C617.768 660.877 629.584 656.294 636.04 655.192C641.263 654.928 639.875 660.944 636.04 661.34Z" fill="#D4887F"/>
<path d="M636.04 657.34C627.419 657.975 623.193 663.643 622.157 666.397C617.768 656.877 629.584 652.294 636.04 651.192C641.263 650.928 639.875 656.944 636.04 657.34Z" fill="#E19187"/>
<path d="M623.131 657.477L624.501 656.12L622.752 653.271C616.815 656.217 614.984 660.063 614.235 662.248L618.667 676.775L626.155 671.724L621.895 665.341C620.311 661.474 622.48 658.211 623.131 657.477Z" fill="#FFA59A"/>
</g>
<defs>
<filter id="filter0_f_1_1208" x="200.473" y="222.589" width="21.6919" height="22.5737" filterUnits="userSpaceOnUse" color-interpolation-filters="sRGB">
<feFlood flood-opacity="0" result="BackgroundImageFix"/>
<feBlend mode="normal" in="SourceGraphic" in2="BackgroundImageFix" result="shape"/>
<feGaussianBlur stdDeviation="3" result="effect1_foregroundBlur_1_1208"/>
</filter>
<filter id="filter1_f_1_1208" x="323.281" y="222.589" width="21.6919" height="22.5737" filterUnits="userSpaceOnUse" color-interpolation-filters="sRGB">
<feFlood flood-opacity="0" result="BackgroundImageFix"/>
<feBlend mode="normal" in="SourceGraphic" in2="BackgroundImageFix" result="shape"/>
<feGaussianBlur stdDeviation="3" result="effect1_foregroundBlur_1_1208"/>
</filter>
<filter id="filter2_f_1_1208" x="422.732" y="222.589" width="21.6919" height="22.5737" filterUnits="userSpaceOnUse" color-interpolation-filters="sRGB">
<feFlood flood-opacity="0" result="BackgroundImageFix"/>
<feBlend mode="normal" in="SourceGraphic" in2="BackgroundImageFix" result="shape"/>
<feGaussianBlur stdDeviation="3" result="effect1_foregroundBlur_1_1208"/>
</filter>
<filter id="filter3_f_1_1208" x="1218.68" y="222.589" width="21.6919" height="22.5737" filterUnits="userSpaceOnUse" color-interpolation-filters="sRGB">
<feFlood flood-opacity="0" result="BackgroundImageFix"/>
<feBlend mode="normal" in="SourceGraphic" in2="BackgroundImageFix" result="shape"/>
<feGaussianBlur stdDeviation="3" result="effect1_foregroundBlur_1_1208"/>
</filter>
<filter id="filter4_f_1_1208" x="1095.87" y="222.589" width="21.6919" height="22.5737" filterUnits="userSpaceOnUse" color-interpolation-filters="sRGB">
<feFlood flood-opacity="0" result="BackgroundImageFix"/>
<feBlend mode="normal" in="SourceGraphic" in2="BackgroundImageFix" result="shape"/>
<feGaussianBlur stdDeviation="3" result="effect1_foregroundBlur_1_1208"/>
</filter>
<filter id="filter5_f_1_1208" x="996.419" y="222.589" width="21.6919" height="22.5737" filterUnits="userSpaceOnUse" color-interpolation-filters="sRGB">
<feFlood flood-opacity="0" result="BackgroundImageFix"/>
<feBlend mode="normal" in="SourceGraphic" in2="BackgroundImageFix" result="shape"/>
<feGaussianBlur stdDeviation="3" result="effect1_foregroundBlur_1_1208"/>
</filter>
<filter id="filter6_f_1_1208" x="100.925" y="210.472" width="21.6919" height="22.5737" filterUnits="userSpaceOnUse" color-interpolation-filters="sRGB">
<feFlood flood-opacity="0" result="BackgroundImageFix"/>
<feBlend mode="normal" in="SourceGraphic" in2="BackgroundImageFix" result="shape"/>
<feGaussianBlur stdDeviation="3" result="effect1_foregroundBlur_1_1208"/>
</filter>
<filter id="filter7_f_1_1208" x="42.4526" y="183.472" width="21.6919" height="22.5737" filterUnits="userSpaceOnUse" color-interpolation-filters="sRGB">
<feFlood flood-opacity="0" result="BackgroundImageFix"/>
<feBlend mode="normal" in="SourceGraphic" in2="BackgroundImageFix" result="shape"/>
<feGaussianBlur stdDeviation="3" result="effect1_foregroundBlur_1_1208"/>
</filter>
<filter id="filter8_f_1_1208" x="1314.94" y="210.472" width="21.6919" height="22.5737" filterUnits="userSpaceOnUse" color-interpolation-filters="sRGB">
<feFlood flood-opacity="0" result="BackgroundImageFix"/>
<feBlend mode="normal" in="SourceGraphic" in2="BackgroundImageFix" result="shape"/>
<feGaussianBlur stdDeviation="3" result="effect1_foregroundBlur_1_1208"/>
</filter>
<filter id="filter9_f_1_1208" x="1373.41" y="183.472" width="21.6919" height="22.5737" filterUnits="userSpaceOnUse" color-interpolation-filters="sRGB">
<feFlood flood-opacity="0" result="BackgroundImageFix"/>
<feBlend mode="normal" in="SourceGraphic" in2="BackgroundImageFix" result="shape"/>
<feGaussianBlur stdDeviation="3" result="effect1_foregroundBlur_1_1208"/>
</filter>
<linearGradient id="paint0_linear_1_1208" x1="11.082" y1="-1.09351" x2="0.28772" y2="24.2996" gradientUnits="userSpaceOnUse">
<stop stop-color="#363636"/>
<stop offset="1"/>
</linearGradient>
<linearGradient id="paint1_linear_1_1208" x1="329.956" y1="218.192" x2="319.162" y2="243.585" gradientUnits="userSpaceOnUse">
<stop stop-color="#363636"/>
<stop offset="1"/>
</linearGradient>
<linearGradient id="paint2_linear_1_1208" x1="11.082" y1="-1.09351" x2="0.28772" y2="24.2996" gradientUnits="userSpaceOnUse">
<stop stop-color="#363636"/>
<stop offset="1"/>
</linearGradient>
<linearGradient id="paint3_linear_1_1208" x1="1225.35" y1="218.192" x2="1214.56" y2="243.585" gradientUnits="userSpaceOnUse">
<stop stop-color="#363636"/>
<stop offset="1"/>
</linearGradient>
<linearGradient id="paint4_linear_1_1208" x1="11.082" y1="-1.09351" x2="0.28772" y2="24.2996" gradientUnits="userSpaceOnUse">
<stop stop-color="#363636"/>
<stop offset="1"/>
</linearGradient>
<linearGradient id="paint5_linear_1_1208" x1="1003.09" y1="218.192" x2="992.3" y2="243.585" gradientUnits="userSpaceOnUse">
<stop stop-color="#363636"/>
<stop offset="1"/>
</linearGradient>
<linearGradient id="paint6_linear_1_1208" x1="107.601" y1="206.075" x2="96.8063" y2="231.468" gradientUnits="userSpaceOnUse">
<stop stop-color="#363636"/>
<stop offset="1"/>
</linearGradient>
<linearGradient id="paint7_linear_1_1208" x1="48.6016" y1="179.075" x2="37.8073" y2="204.468" gradientUnits="userSpaceOnUse">
<stop stop-color="#363636"/>
<stop offset="1"/>
</linearGradient>
<linearGradient id="paint8_linear_1_1208" x1="11.082" y1="-1.09351" x2="0.28772" y2="24.2996" gradientUnits="userSpaceOnUse">
<stop stop-color="#363636"/>
<stop offset="1"/>
</linearGradient>
<linearGradient id="paint9_linear_1_1208" x1="11.082" y1="-1.09351" x2="0.28772" y2="24.2996" gradientUnits="userSpaceOnUse">
<stop stop-color="#363636"/>
<stop offset="1"/>
</linearGradient>
<linearGradient id="paint10_linear_1_1208" x1="774.301" y1="580.069" x2="774.301" y2="610.137" gradientUnits="userSpaceOnUse">
<stop stop-color="#3F0929"/>
<stop offset="1" stop-color="#3F0929" stop-opacity="0"/>
</linearGradient>
<clipPath id="clip0_1_1208">
<rect width="1440" height="1044" fill="white" transform="translate(0 -1.95728)"/>
</clipPath>
</defs>
</svg>
