<svg width="1312" height="970" viewBox="0 0 1312 970" fill="none" xmlns="http://www.w3.org/2000/svg">
<mask id="mask0_1_3579" style="mask-type:alpha" maskUnits="userSpaceOnUse" x="0" y="0" width="1312" height="970">
<rect width="1312" height="970" rx="32" fill="#606DE5"/>
</mask>
<g mask="url(#mask0_1_3579)">
<rect x="-15.7363" y="-19" width="1353.54" height="213.412" fill="#9FDDFF"/>
<rect x="-15.7373" y="880.281" width="1353.54" height="133.474" fill="#FFCC8C"/>
<path d="M172.9 892.009L-120.869 1044.91" stroke="#C46500" stroke-width="1.91571"/>
<path d="M266.895 892.009L-26.874 1044.91" stroke="#C46500" stroke-width="1.91571"/>
<path d="M370.288 892.009L76.5195 1044.91" stroke="#C46500" stroke-width="1.91571"/>
<path d="M473.683 892.009L179.914 1044.91" stroke="#C46500" stroke-width="1.91571"/>
<path d="M577.078 892.009L283.31 1044.91" stroke="#C46500" stroke-width="1.91571"/>
<path d="M1139.61 892.009L1433.38 1044.91" stroke="#C46500" stroke-width="1.91571"/>
<path d="M1045.62 892.009L1339.38 1044.91" stroke="#C46500" stroke-width="1.91571"/>
<path d="M942.221 892.009L1235.99 1044.91" stroke="#C46500" stroke-width="1.91571"/>
<path d="M838.825 892.009L1132.59 1044.91" stroke="#C46500" stroke-width="1.91571"/>
<path d="M735.431 892.009L1029.2 1044.91" stroke="#C46500" stroke-width="1.91571"/>
<rect x="47.9307" y="194.372" width="1208.97" height="696.309" fill="#1BB1F8"/>
<path opacity="0.2" d="M290.801 242.242L290.245 889.4" stroke="black" stroke-width="3.83142"/>
<path opacity="0.2" d="M498.376 242.242L497.82 889.4" stroke="black" stroke-width="3.83142"/>
<path opacity="0.2" d="M705.954 242.242L705.399 889.4" stroke="black" stroke-width="3.83142"/>
<path opacity="0.2" d="M913.531 242.242L912.98 889.4" stroke="black" stroke-width="3.83142"/>
<path opacity="0.2" d="M1121.11 242.242L1120.56 889.4" stroke="black" stroke-width="3.83142"/>
<path d="M47.8403 194.375L-11.05 137.728L-66.7656 949.838L48.1338 890.685L47.8403 194.375Z" fill="#51C7FF"/>
<path d="M1257.11 194.375L1316 137.728L1371.72 949.838L1256.89 890.685L1257.11 194.375Z" fill="#51C7FF"/>
<path d="M168.368 175.275H1152.76" stroke="#0D0D0D" stroke-width="7.66284" stroke-linecap="round"/>
<path d="M188.037 175.275L188.037 194.796" stroke="#0D0D0D" stroke-width="7.66284"/>
<rect width="25.0527" height="15.1321" rx="7.56607" transform="matrix(-0.927379 0.374124 0.374124 0.927379 197.23 187.445)" fill="url(#paint0_linear_1_3579)"/>
<ellipse cx="4.4657" cy="5.0473" rx="4.4657" ry="5.0473" transform="matrix(-0.925435 0.378906 0.378906 0.925435 185.114 194.796)" fill="white"/>
<g filter="url(#filter0_f_1_3579)">
<ellipse cx="4.4657" cy="5.0473" rx="4.4657" ry="5.0473" transform="matrix(-0.925435 0.378906 0.378906 0.925435 185.114 194.796)" fill="white"/>
</g>
<path d="M293.187 175.275L293.187 194.796" stroke="#0D0D0D" stroke-width="7.66284"/>
<rect x="283.993" y="187.445" width="25.0527" height="15.1321" rx="7.56607" transform="rotate(21.9702 283.993 187.445)" fill="url(#paint1_linear_1_3579)"/>
<ellipse cx="298.33" cy="201.159" rx="4.4657" ry="5.0473" transform="rotate(22.266 298.33 201.159)" fill="white"/>
<g filter="url(#filter1_f_1_3579)">
<ellipse cx="298.33" cy="201.159" rx="4.4657" ry="5.0473" transform="rotate(22.266 298.33 201.159)" fill="white"/>
</g>
<path d="M396.949 175.275L396.949 194.796" stroke="#0D0D0D" stroke-width="7.66284"/>
<rect width="25.0527" height="15.1321" rx="7.56607" transform="matrix(-0.927379 0.374124 0.374124 0.927379 406.143 187.444)" fill="url(#paint2_linear_1_3579)"/>
<ellipse cx="4.4657" cy="5.0473" rx="4.4657" ry="5.0473" transform="matrix(-0.925435 0.378906 0.378906 0.925435 394.027 194.795)" fill="white"/>
<g filter="url(#filter2_f_1_3579)">
<ellipse cx="4.4657" cy="5.0473" rx="4.4657" ry="5.0473" transform="matrix(-0.925435 0.378906 0.378906 0.925435 394.027 194.795)" fill="white"/>
</g>
<path d="M1134.82 175.275L1134.82 194.796" stroke="#0D0D0D" stroke-width="7.66284"/>
<rect x="1125.63" y="187.445" width="25.0527" height="15.1321" rx="7.56607" transform="rotate(21.9702 1125.63 187.445)" fill="url(#paint3_linear_1_3579)"/>
<ellipse cx="1139.96" cy="201.159" rx="4.4657" ry="5.0473" transform="rotate(22.266 1139.96 201.159)" fill="white"/>
<g filter="url(#filter3_f_1_3579)">
<ellipse cx="1139.96" cy="201.159" rx="4.4657" ry="5.0473" transform="rotate(22.266 1139.96 201.159)" fill="white"/>
</g>
<path d="M1029.67 175.275L1029.67 194.796" stroke="#0D0D0D" stroke-width="7.66284"/>
<rect width="25.0527" height="15.1321" rx="7.56607" transform="matrix(-0.927379 0.374124 0.374124 0.927379 1038.86 187.445)" fill="url(#paint4_linear_1_3579)"/>
<ellipse cx="4.4657" cy="5.0473" rx="4.4657" ry="5.0473" transform="matrix(-0.925435 0.378906 0.378906 0.925435 1026.75 194.796)" fill="white"/>
<g filter="url(#filter4_f_1_3579)">
<ellipse cx="4.4657" cy="5.0473" rx="4.4657" ry="5.0473" transform="matrix(-0.925435 0.378906 0.378906 0.925435 1026.75 194.796)" fill="white"/>
</g>
<path d="M925.908 175.275L925.908 194.796" stroke="#0D0D0D" stroke-width="7.66284"/>
<rect x="916.714" y="187.445" width="25.0527" height="15.1321" rx="7.56607" transform="rotate(21.9702 916.714 187.445)" fill="url(#paint5_linear_1_3579)"/>
<ellipse cx="931.05" cy="201.158" rx="4.4657" ry="5.0473" transform="rotate(22.266 931.05 201.158)" fill="white"/>
<g filter="url(#filter5_f_1_3579)">
<ellipse cx="931.05" cy="201.158" rx="4.4657" ry="5.0473" transform="rotate(22.266 931.05 201.158)" fill="white"/>
</g>
<path d="M1422.3 611.857C1422.1 611.572 1421.9 611.286 1421.69 611C1407.06 590.54 1388.87 573.771 1369.28 560.137L1352.69 567L1359.87 553.892C1310.36 522.533 1254.34 509.885 1224.69 507.5C1235.3 521.894 1249.65 541.883 1265.05 564.108L1281.69 555.5L1271.01 572.751C1278.43 583.547 1286.01 594.75 1293.45 606H1305.69L1297.14 611.595C1308.59 629.037 1319.62 646.451 1329.14 662.5H1357.19L1333.19 669.406C1336.02 674.297 1338.7 679.036 1341.17 683.581L1357.19 680.5L1343.67 688.226C1347.94 696.258 1351.51 703.599 1354.19 710C1374.99 759.6 1425.53 775.167 1449.19 776.5C1463.54 753.827 1473.34 695.099 1432.56 627.5H1415.19L1422.3 611.857Z" fill="#508D4E"/>
<path d="M1339.72 662.5C1338.21 659.889 1336.7 657.223 1335.19 654.5C1325.77 638.087 1315.46 621.848 1305.03 606.435L1297.14 611.595C1308.59 629.037 1319.62 646.451 1329.14 662.5H1339.72Z" fill="#3F6D3E"/>
<path d="M1342.22 666.807C1345.26 671.971 1348.29 676.911 1351.29 681.635L1341.17 683.581C1338.7 679.036 1336.02 674.297 1333.19 669.406L1342.22 666.807Z" fill="#3F6D3E"/>
<path d="M1352.34 683.275C1375.69 734 1393.19 761.5 1449.46 776.081C1449.37 776.222 1449.28 776.362 1449.19 776.5C1425.53 775.167 1374.99 759.6 1354.19 710C1351.51 703.599 1347.94 696.258 1343.67 688.226L1352.34 683.275Z" fill="#3F6D3E"/>
<path d="M1225.39 508.449L1231.69 511C1240.57 520.933 1255.28 538.51 1272.01 560.509L1265.05 564.108C1249.99 542.368 1235.92 522.767 1225.39 508.449Z" fill="#3F6D3E"/>
<path d="M1275.63 565.296C1285.01 577.769 1294.92 591.517 1304.73 606H1293.45C1286.01 594.75 1278.43 583.547 1271.01 572.751L1275.63 565.296Z" fill="#3F6D3E"/>
<path fill-rule="evenodd" clip-rule="evenodd" d="M1225.38 507.779C1224.98 508.506 1225.25 509.418 1225.97 509.816C1361.51 584.063 1429.23 704.907 1461.31 822.831C1493.39 940.776 1489.77 1055.7 1482.7 1117.83C1482.61 1118.65 1483.2 1119.4 1484.02 1119.49C1484.85 1119.58 1485.59 1118.99 1485.68 1118.17C1492.78 1055.8 1496.42 940.474 1464.2 822.044C1431.99 703.593 1363.87 581.937 1227.41 507.184C1226.69 506.786 1225.78 507.053 1225.38 507.779Z" fill="#70C46E"/>
<path d="M-103.449 669.685C-103.307 669.365 -103.164 669.044 -103.021 668.724C-92.7379 645.77 -78.2323 625.726 -61.7317 608.478L-44.1145 611.917L-53.7493 600.492C-11.433 559.938 40.9662 536.435 69.5477 528.22C62.0087 544.43 51.9034 566.868 41.2151 591.706L23.196 586.568L37.0836 601.359C31.9546 613.411 26.7514 625.893 21.6863 638.396L9.68492 640.824L19.1808 644.611C11.4117 663.978 4.05838 683.233 -2.08997 700.85L-29.5906 706.413L-4.69161 708.422C-6.50166 713.779 -8.18235 718.953 -9.70948 723.899L-26.0218 724.056L-11.2382 728.948C-13.8235 737.666 -15.8705 745.57 -17.2323 752.375C-27.7853 805.115 -74.2289 830.391 -97.1614 836.391C-115.716 817.012 -136.971 761.393 -110.402 687.051L-93.3785 683.607L-103.449 669.685Z" fill="#508D4E"/>
<path d="M-12.4591 702.948C-11.5024 700.09 -10.5535 697.178 -9.61331 694.21C-3.63019 676.254 3.25547 658.294 10.4232 641.118L19.1809 644.611C11.4119 663.978 4.05854 683.233 -2.08981 700.85L-12.4591 702.948Z" fill="#3F6D3E"/>
<path d="M-14.063 707.666C-16.018 713.331 -18.003 718.772 -20.0106 723.998L-9.70932 723.899C-8.18219 718.953 -6.50149 713.779 -4.69145 708.422L-14.063 707.666Z" fill="#3F6D3E"/>
<path d="M-20.7121 725.813C-33.5472 780.162 -45.2474 810.585 -97.5007 836.032C-97.3875 836.153 -97.2743 836.272 -97.1612 836.391C-74.2287 830.391 -27.7851 805.115 -17.2321 752.375C-15.8703 745.57 -13.8234 737.666 -11.238 728.948L-20.7121 725.813Z" fill="#3F6D3E"/>
<path d="M69.0511 529.289L63.3806 533.038C56.6469 544.534 45.7214 564.677 33.6817 589.558L41.2152 591.706C51.6705 567.41 61.5679 545.41 69.0511 529.289Z" fill="#3F6D3E"/>
<path d="M31.0825 594.968C24.3633 609.052 17.3723 624.493 10.6256 640.634L21.6864 638.396C26.7516 625.893 31.9548 613.411 37.0838 601.359L31.0825 594.968Z" fill="#3F6D3E"/>
<path fill-rule="evenodd" clip-rule="evenodd" d="M68.9319 528.629C69.4661 529.263 69.3857 530.209 68.7525 530.743C-49.3755 630.39 -91.7935 762.262 -99.8505 884.204C-107.909 1006.17 -81.5803 1118.09 -62.3316 1177.59C-62.0766 1178.38 -62.5089 1179.22 -63.2971 1179.48C-64.0853 1179.73 -64.931 1179.3 -65.186 1178.51C-84.507 1118.79 -110.935 1006.47 -102.844 884.006C-94.751 761.519 -52.112 628.774 66.8182 528.45C67.4514 527.916 68.3977 527.996 68.9319 528.629Z" fill="#70C46E"/>
<path d="M-98.1454 793.403C-109.234 828.756 -100.577 849.769 -94.8626 855.856C-41.7542 851.765 -15.8321 805.942 -9.50964 783.542L-23.3704 778.063H-5.49732C-1.41206 769.882 6.17487 757.367 9.45768 752.132L4.71585 749.941H10.9167C13.2511 744.389 21.8594 733.019 25.8717 728.027L13.8348 720.358L30.6135 724.375C37.6841 702.9 57.5244 681.013 68.8021 667.294C71.468 664.051 68.914 659.722 64.7689 660.386C28.6261 666.175 -0.33532 680.59 -6.22684 684.931L-4.40305 689.679L-9.8744 686.027L-17.899 689.679L-14.6162 699.175L-20.8171 691.87C-61.378 714.952 -87.0812 762.115 -94.8626 782.811L-91.215 791.211L-98.1454 793.403Z" fill="#508D4E"/>
<path d="M71.3693 664.718V661.822C-32.8172 712.31 -81.4813 811.754 -92.79 855.165L-92.5402 855.713C-40.8235 850.614 -15.4915 805.746 -9.25119 783.665L-23.1135 778.193H-5.2384C-1.15266 770.021 6.43514 757.521 9.71834 752.292L4.97596 750.103H11.1775C13.5122 744.558 22.1215 733.201 26.1343 728.215L14.0959 720.554L30.8767 724.567C37.0873 705.728 53.1494 686.571 64.6088 672.904C67.1384 669.887 69.4437 667.137 71.3693 664.718Z" fill="#3F6D3E"/>
<path fill-rule="evenodd" clip-rule="evenodd" d="M71.7734 661.201C72.0503 661.738 71.8398 662.397 71.3032 662.674C-98.2971 750.185 -117.713 932.27 -115.046 996.862C-115.022 997.465 -115.49 997.974 -116.094 997.999C-116.697 998.024 -117.206 997.555 -117.231 996.952C-119.909 932.077 -100.455 748.838 70.3006 660.731C70.8371 660.454 71.4965 660.665 71.7734 661.201Z" fill="#70C46E"/>
<path fill-rule="evenodd" clip-rule="evenodd" d="M442 909.555C442 907.169 443.934 905.236 446.319 905.236H783.926C786.312 905.236 788.245 907.169 788.245 909.555C788.245 911.94 786.312 913.874 783.926 913.874H446.319C443.934 913.874 442 911.94 442 909.555Z" fill="white"/>
<path fill-rule="evenodd" clip-rule="evenodd" d="M522.983 909.555C522.983 907.169 524.916 905.236 527.302 905.236H864.909C867.294 905.236 869.228 907.169 869.228 909.555C869.228 911.94 867.294 913.874 864.909 913.874H527.302C524.916 913.874 522.983 911.94 522.983 909.555Z" fill="white"/>
<path d="M465.471 941.709L469.231 942.534L472.518 875.983L467.45 874.862L457.544 908.639L465.471 941.709Z" fill="#232323"/>
<path d="M477.363 909.211C476.839 927.672 471.517 942.223 465.476 941.71C459.434 941.197 454.96 925.815 455.484 907.353C456.007 888.892 461.329 874.341 467.371 874.854C473.413 875.367 477.886 890.749 477.363 909.211Z" fill="#232323"/>
<ellipse cx="11.1622" cy="33.4411" rx="11.1622" ry="33.4411" transform="matrix(0.996416 0.0845905 -0.0283362 0.999598 461.147 874.959)" fill="#474747"/>
<ellipse cx="2.90951" cy="8.86217" rx="2.90951" ry="8.86217" transform="matrix(0.996416 0.0845905 -0.0283362 0.999598 469.504 900.247)" fill="black"/>
<path d="M474.478 948.057L479.373 949.038L483.654 869.849L477.054 868.515L464.156 908.706L474.478 948.057Z" fill="#232323"/>
<path d="M489.961 909.387C489.28 931.355 482.35 948.668 474.483 948.058C466.617 947.447 460.792 929.144 461.473 907.177C462.155 885.209 469.084 867.896 476.951 868.506C484.818 869.116 490.643 887.419 489.961 909.387Z" fill="#232323"/>
<ellipse cx="14.5254" cy="39.7951" rx="14.5254" ry="39.7951" transform="matrix(0.997004 0.0773496 -0.0310046 0.999519 468.847 868.631)" fill="#474747"/>
<ellipse cx="3.78614" cy="10.546" rx="3.78614" ry="10.546" transform="matrix(0.997004 0.0773496 -0.0310046 0.999519 479.728 898.721)" fill="black"/>
<path d="M845.395 941.709L841.635 942.533L838.348 875.983L843.417 874.862L853.322 908.638L845.395 941.709Z" fill="#232323"/>
<path d="M833.503 909.211C834.027 927.672 839.349 942.222 845.391 941.71C851.432 941.197 855.906 925.815 855.383 907.353C854.859 888.892 849.537 874.341 843.495 874.854C837.454 875.367 832.98 890.749 833.503 909.211Z" fill="#232323"/>
<ellipse cx="11.1622" cy="33.4411" rx="11.1622" ry="33.4411" transform="matrix(-0.996416 0.0845905 0.0283362 0.999598 849.719 874.959)" fill="#474747"/>
<ellipse cx="2.90951" cy="8.86217" rx="2.90951" ry="8.86217" transform="matrix(-0.996416 0.0845905 0.0283362 0.999598 841.363 900.247)" fill="black"/>
<path d="M836.388 948.057L831.493 949.038L827.212 869.849L833.812 868.515L846.71 908.706L836.388 948.057Z" fill="#232323"/>
<path d="M820.905 909.387C821.586 931.355 828.516 948.668 836.383 948.058C844.249 947.447 850.074 929.144 849.393 907.177C848.712 885.209 841.782 867.896 833.915 868.506C826.048 869.116 820.223 887.419 820.905 909.387Z" fill="#232323"/>
<ellipse cx="14.5254" cy="39.7951" rx="14.5254" ry="39.7951" transform="matrix(-0.997004 0.0773496 0.0310046 0.999519 842.019 868.631)" fill="#474747"/>
<ellipse cx="3.78614" cy="10.546" rx="3.78614" ry="10.546" transform="matrix(-0.997004 0.0773496 0.0310046 0.999519 831.139 898.721)" fill="black"/>
<path fill-rule="evenodd" clip-rule="evenodd" d="M482.307 909.555C482.307 907.169 484.24 905.236 486.626 905.236H824.233C826.618 905.236 828.552 907.169 828.552 909.555C828.552 911.94 826.618 913.874 824.233 913.874H486.626C484.24 913.874 482.307 911.94 482.307 909.555Z" fill="white"/>
</g>
<defs>
<filter id="filter0_f_1_3579" x="166.845" y="184.695" width="32.0982" height="32.927" filterUnits="userSpaceOnUse" color-interpolation-filters="sRGB">
<feFlood flood-opacity="0" result="BackgroundImageFix"/>
<feBlend mode="normal" in="SourceGraphic" in2="BackgroundImageFix" result="shape"/>
<feGaussianBlur stdDeviation="5.74713" result="effect1_foregroundBlur_1_3579"/>
</filter>
<filter id="filter1_f_1_3579" x="282.281" y="184.695" width="32.0982" height="32.927" filterUnits="userSpaceOnUse" color-interpolation-filters="sRGB">
<feFlood flood-opacity="0" result="BackgroundImageFix"/>
<feBlend mode="normal" in="SourceGraphic" in2="BackgroundImageFix" result="shape"/>
<feGaussianBlur stdDeviation="5.74713" result="effect1_foregroundBlur_1_3579"/>
</filter>
<filter id="filter2_f_1_3579" x="375.758" y="184.695" width="32.0982" height="32.927" filterUnits="userSpaceOnUse" color-interpolation-filters="sRGB">
<feFlood flood-opacity="0" result="BackgroundImageFix"/>
<feBlend mode="normal" in="SourceGraphic" in2="BackgroundImageFix" result="shape"/>
<feGaussianBlur stdDeviation="5.74713" result="effect1_foregroundBlur_1_3579"/>
</filter>
<filter id="filter3_f_1_3579" x="1123.92" y="184.695" width="32.0982" height="32.927" filterUnits="userSpaceOnUse" color-interpolation-filters="sRGB">
<feFlood flood-opacity="0" result="BackgroundImageFix"/>
<feBlend mode="normal" in="SourceGraphic" in2="BackgroundImageFix" result="shape"/>
<feGaussianBlur stdDeviation="5.74713" result="effect1_foregroundBlur_1_3579"/>
</filter>
<filter id="filter4_f_1_3579" x="1008.48" y="184.695" width="32.0982" height="32.927" filterUnits="userSpaceOnUse" color-interpolation-filters="sRGB">
<feFlood flood-opacity="0" result="BackgroundImageFix"/>
<feBlend mode="normal" in="SourceGraphic" in2="BackgroundImageFix" result="shape"/>
<feGaussianBlur stdDeviation="5.74713" result="effect1_foregroundBlur_1_3579"/>
</filter>
<filter id="filter5_f_1_3579" x="915.001" y="184.695" width="32.0982" height="32.927" filterUnits="userSpaceOnUse" color-interpolation-filters="sRGB">
<feFlood flood-opacity="0" result="BackgroundImageFix"/>
<feBlend mode="normal" in="SourceGraphic" in2="BackgroundImageFix" result="shape"/>
<feGaussianBlur stdDeviation="5.74713" result="effect1_foregroundBlur_1_3579"/>
</filter>
<linearGradient id="paint0_linear_1_3579" x1="10.4166" y1="-1.02785" x2="0.270443" y2="22.8405" gradientUnits="userSpaceOnUse">
<stop stop-color="#363636"/>
<stop offset="1"/>
</linearGradient>
<linearGradient id="paint1_linear_1_3579" x1="294.41" y1="186.417" x2="284.264" y2="210.285" gradientUnits="userSpaceOnUse">
<stop stop-color="#363636"/>
<stop offset="1"/>
</linearGradient>
<linearGradient id="paint2_linear_1_3579" x1="10.4166" y1="-1.02785" x2="0.270443" y2="22.8405" gradientUnits="userSpaceOnUse">
<stop stop-color="#363636"/>
<stop offset="1"/>
</linearGradient>
<linearGradient id="paint3_linear_1_3579" x1="1136.04" y1="186.417" x2="1125.9" y2="210.285" gradientUnits="userSpaceOnUse">
<stop stop-color="#363636"/>
<stop offset="1"/>
</linearGradient>
<linearGradient id="paint4_linear_1_3579" x1="10.4166" y1="-1.02785" x2="0.270443" y2="22.8405" gradientUnits="userSpaceOnUse">
<stop stop-color="#363636"/>
<stop offset="1"/>
</linearGradient>
<linearGradient id="paint5_linear_1_3579" x1="927.13" y1="186.417" x2="916.984" y2="210.285" gradientUnits="userSpaceOnUse">
<stop stop-color="#363636"/>
<stop offset="1"/>
</linearGradient>
</defs>
</svg>
